<svg width="48" height="48" viewBox="0 0 48 48" fill="none" xmlns="http://www.w3.org/2000/svg">
<path d="M29.75 23.75C29.75 24.9367 29.3981 26.0967 28.7388 27.0834C28.0795 28.0701 27.1425 28.8392 26.0461 29.2933C24.9497 29.7474 23.7433 29.8662 22.5795 29.6347C21.4156 29.4032 20.3465 28.8318 19.5074 27.9926C18.6682 27.1535 18.0968 26.0844 17.8653 24.9205C17.6338 23.7567 17.7526 22.5503 18.2067 21.4539C18.6608 20.3575 19.4299 19.4205 20.4166 18.7612C21.4033 18.1019 22.5633 17.75 23.75 17.75C25.3398 17.7549 26.863 18.3887 27.9872 19.5128C29.1113 20.637 29.7451 22.1602 29.75 23.75ZM42.5 15.5V32C42.5 34.7848 41.3938 37.4555 39.4246 39.4246C37.4555 41.3938 34.7848 42.5 32 42.5H15.5C12.7152 42.5 10.0445 41.3938 8.07538 39.4246C6.10625 37.4555 5 34.7848 5 32V15.5C5 12.7152 6.10625 10.0445 8.07538 8.07538C10.0445 6.10625 12.7152 5 15.5 5H32C34.7848 5 37.4555 6.10625 39.4246 8.07538C41.3938 10.0445 42.5 12.7152 42.5 15.5ZM32.75 23.75C32.75 21.97 32.2222 20.2299 31.2332 18.7499C30.2443 17.2698 28.8387 16.1163 27.1942 15.4351C25.5496 14.7539 23.74 14.5757 21.9942 14.9229C20.2484 15.2702 18.6447 16.1274 17.386 17.386C16.1274 18.6447 15.2702 20.2484 14.9229 21.9942C14.5757 23.74 14.7539 25.5496 15.4351 27.1942C16.1163 28.8387 17.2698 30.2443 18.7499 31.2332C20.2299 32.2222 21.97 32.75 23.75 32.75C26.1369 32.75 28.4261 31.8018 30.114 30.114C31.8018 28.4261 32.75 26.1369 32.75 23.75ZM35.75 14C35.75 13.555 35.618 13.12 35.3708 12.75C35.1236 12.38 34.7722 12.0916 34.361 11.9213C33.9499 11.751 33.4975 11.7064 33.061 11.7932C32.6246 11.88 32.2237 12.0943 31.909 12.409C31.5943 12.7237 31.38 13.1246 31.2932 13.561C31.2064 13.9975 31.251 14.4499 31.4213 14.861C31.5916 15.2722 31.88 15.6236 32.25 15.8708C32.62 16.118 33.055 16.25 33.5 16.25C34.0967 16.25 34.669 16.0129 35.091 15.591C35.5129 15.169 35.75 14.5967 35.75 14Z" fill="#F8F9FB"/>
</svg>
