<svg width="64" height="64" viewBox="0 0 64 64" fill="none" xmlns="http://www.w3.org/2000/svg">
<path d="M21.3333 16.4146C21.3333 13.3562 18.845 10.8679 15.7867 10.8679C12.7283 10.8679 10.24 13.3562 10.24 16.4146C10.24 19.4729 12.7283 21.9613 15.7867 21.9613C18.845 21.9613 21.3333 19.4729 21.3333 16.4146ZM11.9467 16.4146C11.9467 14.297 13.6691 12.5746 15.7867 12.5746C17.9042 12.5746 19.6267 14.297 19.6267 16.4146C19.6267 18.5321 17.9042 20.2546 15.7867 20.2546C13.6691 20.2546 11.9467 18.5319 11.9467 16.4146ZM25.4967 15.7379L26.1 15.1346L25.4967 14.5313C25.1635 14.1981 25.1635 13.6579 25.4967 13.3247C25.83 12.9914 26.3701 12.9914 26.7034 13.3247L27.3067 13.9278L27.91 13.3245C28.2432 12.9912 28.7833 12.9912 29.1166 13.3245C29.4498 13.6577 29.4498 14.1978 29.1166 14.5311L28.5133 15.1344L29.1166 15.7377C29.4498 16.0709 29.4498 16.6111 29.1166 16.9443C28.95 17.1109 28.7315 17.1943 28.5133 17.1943C28.295 17.1943 28.0766 17.1109 27.91 16.9443L27.3067 16.3412L26.7034 16.9445C26.5367 17.1111 26.3183 17.1945 26.1 17.1945C25.8818 17.1945 25.6634 17.1111 25.4967 16.9445C25.1633 16.6113 25.1633 16.0711 25.4967 15.7379ZM26.4644 7.96467C26.4644 7.46078 26.873 7.05225 27.3766 7.05225C27.8803 7.05225 28.2891 7.46078 28.2891 7.96467C28.2891 8.46835 27.8805 8.87689 27.3766 8.87689C26.8727 8.87689 26.4644 8.46857 26.4644 7.96467ZM16.6455 19.1171C15.9418 19.1171 15.3711 18.5464 15.3711 17.8426C15.3711 17.1389 15.9418 16.5682 16.6455 16.5682C17.3495 16.5682 17.92 17.1389 17.92 17.8426C17.92 18.5464 17.3493 19.1171 16.6455 19.1171ZM15.4891 14.7913C15.4891 15.295 15.0805 15.7036 14.5766 15.7036C14.0727 15.7036 13.6644 15.295 13.6644 14.7913C13.6644 14.2874 14.073 13.8789 14.5766 13.8789C15.0803 13.8789 15.4891 14.2874 15.4891 14.7913ZM42.3225 43.4104L39.961 40.5038C39.9027 40.4321 39.8334 40.3704 39.7559 40.3214L39.6467 39.3339C39.6034 38.9548 39.3591 38.7056 39.0199 38.3606C38.9508 38.2906 38.8791 38.2198 38.8192 38.1556V37.5348C38.8192 37.0631 38.4375 36.6815 37.9659 36.6815H37.5667C37.2668 36.6815 36.9892 36.8389 36.835 37.0956L36.0424 38.4163L35.7941 38.2921C35.8475 37.9329 35.76 37.5621 35.545 37.263C35.2817 36.8989 34.8565 36.6813 34.4075 36.6813H33.1108C32.5749 36.6813 32.0941 36.9789 31.8566 37.4563L31.5042 38.1605C30.1534 37.9931 29.725 38.1731 29.4626 38.5413L27.8609 40.783C27.485 40.9921 26.3268 41.5913 25.2892 42.1198C24.9534 42.2872 24.7033 42.5765 24.5849 42.9324C24.4665 43.2873 24.4941 43.6673 24.6583 43.9948C25.3267 45.3597 26.0567 46.8831 26.2775 47.3897L26.2216 47.7772C26.1649 48.1797 26.285 48.5863 26.5517 48.8937C27.0016 49.4121 27.8342 49.5145 28.3874 49.1404L29.2341 48.5769H29.625C30.3292 48.5769 30.9133 48.0553 31.0125 47.3787H33.2949C33.5383 47.5736 34.0075 47.992 34.3857 48.347C34.4531 48.4095 34.5291 48.4603 34.6123 48.4986C34.928 48.6446 35.2806 48.8319 35.4756 48.9554L35.6348 49.912C35.7905 50.5379 36.3505 50.9744 36.9956 50.9744H37.8265C38.3599 50.9744 38.8399 50.6776 39.0816 50.1976L39.4457 50.1752C40.1382 50.1752 40.4482 49.5203 40.6148 49.1677L40.6624 49.0693C40.6799 49.0384 40.6957 49.0068 40.7091 48.9744L42.5092 44.6569C42.531 44.6053 42.5476 44.5511 42.5583 44.4961C42.6248 44.1652 42.5692 43.8211 42.4017 43.5269C42.3782 43.4862 42.3516 43.4469 42.3225 43.4104ZM39.1501 48.2804C39.1268 48.3254 39.1002 48.3796 39.0726 48.4379C39.0677 48.4479 39.0626 48.4579 39.0586 48.4688H38.9043C38.371 48.4688 37.891 48.7655 37.6493 49.2455L37.2559 49.2679L37.1002 48.3337C37.0385 48.0846 36.9451 47.7112 35.4526 47.007C34.0183 45.672 33.8575 45.672 33.5435 45.672H30.7234C30.0192 45.672 29.4342 46.1936 29.3359 46.8703H29.1418C28.8642 46.8703 28.5958 46.952 28.365 47.106L28.0075 47.3434C28.0333 47.071 27.914 46.7677 26.3208 43.5092C28.9783 42.155 29.0041 42.1183 29.1492 41.915L30.6558 39.8057C30.8516 39.81 31.1392 39.8333 31.395 39.8665C32.0232 39.9973 32.6449 39.6948 32.9325 39.1199L33.2992 38.3873H34.041C34.0168 38.9281 34.3102 39.4565 34.8134 39.7089L35.5309 40.0681C36.1841 40.393 36.9867 40.159 37.3608 39.5348L37.5234 39.2632C37.6083 39.3582 37.7026 39.4542 37.8027 39.5549C37.8626 39.6165 37.9234 39.6756 37.9735 39.7298L38.0785 40.6781C38.1284 41.1173 38.3836 41.5039 38.7543 41.7255L40.8218 44.2697L39.1501 48.2804ZM35.3832 30.0054L37.9117 29.848L40.2517 29.1056C40.7042 28.9614 41.1816 29.2122 41.3233 29.6607C41.4658 30.1097 41.2175 30.5897 40.7682 30.7323L38.3281 31.5064C38.2615 31.5273 38.1922 31.5406 38.1231 31.5448L35.4897 31.7091C35.4714 31.71 35.453 31.7108 35.4355 31.7108C34.9888 31.7108 34.6129 31.3624 34.5847 30.9108C34.5557 30.4396 34.9133 30.0344 35.3832 30.0054ZM29.69 30.4579C29.3568 30.1247 29.3568 29.5845 29.69 29.2513L30.33 28.6113C30.6632 28.2781 31.2034 28.2781 31.5366 28.6113C31.8699 28.9445 31.8699 29.4847 31.5366 29.8179L30.8966 30.4579C30.73 30.6245 30.5116 30.7079 30.2933 30.7079C30.0751 30.7079 29.8566 30.6245 29.69 30.4579ZM31.1908 25.6445C31.2616 25.8587 31.4159 26.0361 31.6183 26.1377L33.8626 27.2594L34.391 28.8445C34.4685 29.0787 34.6451 29.2677 34.8736 29.3629C34.9785 29.4062 35.0895 29.4279 35.2002 29.4279C35.331 29.4279 35.462 29.3979 35.5819 29.3379L36.8619 28.6979C37.206 28.5253 37.3926 28.1445 37.3169 27.7671L36.6769 24.5671C36.6144 24.2537 36.3819 24.0022 36.0744 23.9139L31.5944 22.6339C31.2911 22.5496 30.9628 22.6356 30.7437 22.8647C30.5254 23.093 30.4503 23.4239 30.5512 23.7247L31.1908 25.6445ZM35.1051 25.4119L35.255 26.1586C35.1742 26.0462 35.0675 25.9544 34.9416 25.8911L32.6974 24.7694L32.6807 24.7194L35.1051 25.4119ZM30.3383 33.8179L29.0583 33.1779C28.6366 32.9671 28.4659 32.4545 28.6767 32.0329C28.8883 31.6112 29.401 31.4414 29.8216 31.6513L31.1016 32.2913C31.5234 32.5021 31.6941 33.0147 31.4833 33.4362C31.3333 33.7353 31.0325 33.9079 30.7191 33.9079C30.5909 33.9079 30.4608 33.8787 30.3383 33.8179ZM39.5034 27.0446C39.1701 26.7113 39.1701 26.1712 39.5034 25.838L40.1434 25.198C40.4766 24.8647 41.0167 24.8647 41.35 25.198C41.6832 25.5312 41.6832 26.0713 41.35 26.4046L40.71 27.0446C40.5434 27.2112 40.3249 27.2946 40.1067 27.2946C39.8884 27.2946 39.67 27.2112 39.5034 27.0446ZM53.76 21.1079C53.76 17.8145 51.0801 15.1346 47.7867 15.1346C44.5131 15.1346 41.8481 17.7833 41.8163 21.0495C39.4125 19.9724 36.7866 19.4013 34.1333 19.4013C23.7818 19.4013 15.36 27.823 15.36 38.1746C15.36 48.5262 23.7818 56.9479 34.1333 56.9479C44.4849 56.9479 52.9067 48.5262 52.9067 38.1746C52.9067 34.8317 52.013 31.5753 50.336 28.7101C52.0124 26.8839 53.76 23.9231 53.76 21.1079ZM47.7867 16.8413C50.1391 16.8413 52.0533 18.7555 52.0533 21.1079C52.0533 24.613 48.8209 28.1605 47.7867 28.7429C46.7524 28.1605 43.52 24.613 43.52 21.1079C43.52 18.7553 45.4342 16.8413 47.7867 16.8413ZM25.1874 23.6679L26.7157 27.1054L25.5825 28.238L22.2434 27.1254C21.9833 27.0362 21.6975 27.0813 21.4743 27.2421C21.2518 27.403 21.1202 27.6605 21.1202 27.9346V31.7746C21.1202 32.0338 21.2378 32.2787 21.4402 32.4413L24.6402 35.0013C24.7469 35.0862 24.8727 35.1446 25.0061 35.1713L27.52 35.6737V36.0413H24.8866L22.5766 33.7313C22.4574 33.612 22.3057 33.5312 22.1408 33.4979L19.4699 32.9637L18.873 30.5776C20.2978 27.7277 22.4915 25.3366 25.1874 23.6679ZM34.1333 55.2413C24.7226 55.2413 17.0667 47.5854 17.0667 38.1746C17.0667 36.4726 17.3244 34.8315 17.7903 33.2792L17.9458 33.9013C18.0258 34.2213 18.2824 34.4671 18.6059 34.5313L21.5524 35.1205L23.93 37.4981C24.09 37.6581 24.3068 37.7481 24.5333 37.7481H28.3733C28.845 37.7481 29.2267 37.3665 29.2267 36.8948V34.9748C29.2267 34.5682 28.9391 34.2181 28.5408 34.1381L25.5441 33.5389L22.8267 31.3646V29.1188L25.5432 30.0238C25.8492 30.1279 26.1882 30.0462 26.4166 29.8179L28.3366 27.8979C28.5867 27.6479 28.6566 27.2705 28.5133 26.9479L26.688 22.8413C28.9416 21.7424 31.4618 21.1079 34.1333 21.1079C36.906 21.1079 39.6463 21.7914 42.0817 23.0751C43.0581 26.9262 46.5086 30.4946 47.7867 30.4946C48.099 30.4946 48.5455 30.2717 49.0502 29.8934C50.4544 32.4182 51.2 35.2605 51.2 38.1746C51.2 47.5854 43.5441 55.2413 34.1333 55.2413ZM51.2 21.1079C51.2 19.2255 49.6691 17.6946 47.7867 17.6946C45.9042 17.6946 44.3733 19.2255 44.3733 21.1079C44.3733 22.9904 45.9042 24.5213 47.7867 24.5213C49.6691 24.5213 51.2 22.9904 51.2 21.1079Z" fill="current"/>
</svg>
