<svg width="49" height="48" viewBox="0 0 49 48" fill="none" xmlns="http://www.w3.org/2000/svg">
<path d="M37.94 11.2C37.94 9.78845 36.7918 8.63997 35.38 8.63997C33.9682 8.63997 32.82 9.78845 32.82 11.2C32.82 12.6115 33.9682 13.76 35.38 13.76C36.7918 13.76 37.94 12.6115 37.94 11.2ZM35.38 18.24C36.5013 18.24 39.86 14.5803 39.86 11.2C39.86 8.72973 37.8501 6.71997 35.38 6.71997C32.9099 6.71997 30.9 8.72973 30.9 11.2C30.9 14.5803 34.2587 18.24 35.38 18.24ZM35.38 7.99997C37.1443 7.99997 38.58 9.43565 38.58 11.2C38.58 13.8288 36.1557 16.4897 35.38 16.9262C34.6043 16.4896 32.18 13.8288 32.18 11.2C32.18 9.43565 33.6157 7.99997 35.38 7.99997ZM11.7 12.48C12.7587 12.48 13.62 11.6187 13.62 10.56C13.62 9.50125 12.7587 8.63997 11.7 8.63997C10.6413 8.63997 9.78 9.50125 9.78 10.56C9.78 11.6187 10.6413 12.48 11.7 12.48ZM11.7 9.91997C12.0531 9.91997 12.34 10.2072 12.34 10.56C12.34 10.9128 12.0531 11.2 11.7 11.2C11.3469 11.2 11.06 10.9128 11.06 10.56C11.06 10.2072 11.3469 9.91997 11.7 9.91997ZM16.18 22.08C14.4157 22.08 12.98 23.5157 12.98 25.28C12.98 27.0443 14.4157 28.48 16.18 28.48C17.9443 28.48 19.38 27.0443 19.38 25.28C19.38 23.5157 17.9443 22.08 16.18 22.08ZM16.18 27.2C15.1213 27.2 14.26 26.3387 14.26 25.28C14.26 24.2213 15.1213 23.36 16.18 23.36C17.2387 23.36 18.1 24.2213 18.1 25.28C18.1 26.3387 17.2387 27.2 16.18 27.2ZM16.18 16.96C11.5925 16.96 7.86 20.6921 7.86 25.28C7.86 31.8875 14.4219 38.72 16.18 38.72C17.9381 38.72 24.5 31.8875 24.5 25.28C24.5 20.6921 20.7675 16.96 16.18 16.96ZM16.205 37.4416C15.1432 37.2553 9.14 31.2632 9.14 25.28C9.14 21.3981 12.2981 18.24 16.18 18.24C20.0619 18.24 23.22 21.3981 23.22 25.28C23.22 31.2632 17.2168 37.2553 16.205 37.4416ZM16.18 20.16C13.3568 20.16 11.06 22.4568 11.06 25.28C11.06 28.1032 13.3568 30.4 16.18 30.4C19.0032 30.4 21.3 28.1032 21.3 25.28C21.3 22.4568 19.0032 20.16 16.18 20.16ZM16.18 29.12C14.0626 29.12 12.34 27.3974 12.34 25.28C12.34 23.1625 14.0626 21.44 16.18 21.44C18.2974 21.44 20.02 23.1625 20.02 25.28C20.02 27.3974 18.2974 29.12 16.18 29.12ZM19.9426 12.9325L20.395 12.48L19.9426 12.0275C19.6926 11.7776 19.6926 11.3725 19.9426 11.1225C20.1925 10.8726 20.5976 10.8726 20.8475 11.1225L21.3 11.575L21.7525 11.1225C22.0024 10.8726 22.4075 10.8726 22.6574 11.1225C22.9074 11.3725 22.9074 11.7776 22.6574 12.0275L22.205 12.48L22.6574 12.9325C22.9074 13.1824 22.9074 13.5875 22.6574 13.8374C22.5325 13.9624 22.3686 14.0249 22.205 14.0249C22.0413 14.0249 21.8774 13.9624 21.7525 13.8374L21.3 13.3849L20.8475 13.8374C20.7226 13.9624 20.5587 14.0249 20.395 14.0249C20.2314 14.0249 20.0675 13.9624 19.9426 13.8374C19.6925 13.5875 19.6925 13.1825 19.9426 12.9325ZM26.6554 9.59997C26.6554 9.19965 26.9798 8.87517 27.38 8.87517C27.7802 8.87517 28.1046 9.19965 28.1046 9.59997C28.1046 10.0001 27.7802 10.3246 27.38 10.3246C26.9798 10.3246 26.6554 10.0001 26.6554 9.59997ZM39.7506 32.3837C40.0024 32.6318 40.005 33.0368 39.7568 33.2886C39.6318 33.4155 39.4662 33.4792 39.3011 33.4792C39.1386 33.4792 38.9768 33.4179 38.8517 33.2949C38.3317 32.7821 37.676 32.4568 36.9566 32.3542C36.6072 32.3043 36.3635 31.9801 36.4134 31.6302C36.4634 31.2805 36.7878 31.043 37.1378 31.0869C38.1301 31.2285 39.0338 31.6768 39.7506 32.3837ZM29.6282 23.9065C29.6875 22.904 30.0594 21.9665 30.7038 21.1953C30.9307 20.9245 31.3339 20.8875 31.6058 21.1147C31.877 21.3413 31.9126 21.7448 31.6864 22.016C31.2189 22.5753 30.949 23.2553 30.9058 23.9822C30.8858 24.3222 30.6038 24.5845 30.2677 24.5845C30.2552 24.5845 30.2421 24.5841 30.2296 24.5832C29.8763 24.5625 29.6069 24.2593 29.6282 23.9065ZM39.5075 39.3368C39.7301 39.6112 39.6888 40.0142 39.4144 40.2371C38.6344 40.8705 37.6918 41.2293 36.6882 41.2749C36.6787 41.2752 36.6688 41.2755 36.6587 41.2755C36.3187 41.2755 36.0355 41.0077 36.02 40.6646C36.0037 40.3115 36.2774 40.0121 36.6306 39.9961C37.3581 39.9633 38.0411 39.703 38.6069 39.2433C38.8826 39.0206 39.2843 39.0632 39.5075 39.3368ZM36.02 20.16C36.02 20.5134 35.7338 20.8 35.38 20.8H34.2856C34.0138 20.8003 33.743 20.8325 33.4819 20.896C33.4307 20.9085 33.38 20.9141 33.3301 20.9141C33.0419 20.9141 32.78 20.7177 32.7088 20.4249C32.6251 20.0816 32.8363 19.7355 33.1794 19.6521C33.5394 19.5646 33.9112 19.5203 34.285 19.52H35.38C35.7338 19.52 36.02 19.8065 36.02 20.16ZM35.1294 31.68C35.1294 32.0334 34.8432 32.32 34.4894 32.32H34.2858C33.3638 32.32 32.4726 32.0515 31.7083 31.5437C31.4139 31.348 31.3339 30.9509 31.5296 30.6565C31.7253 30.3617 32.1214 30.2824 32.4171 30.4774C32.9709 30.8456 33.6171 31.04 34.2859 31.04H34.4896C34.8432 31.04 35.1294 31.3265 35.1294 31.68ZM41.14 35.7056V36.6144C41.1394 37.011 41.0894 37.4041 40.9918 37.7832C40.9174 38.072 40.6574 38.2635 40.3725 38.2635C40.3194 38.2635 40.2656 38.2569 40.2118 38.2432C39.8699 38.155 39.6637 37.8061 39.7518 37.4638C39.823 37.1881 39.8594 36.9019 39.86 36.6133V35.7057C39.86 35.5294 39.8462 35.3513 39.8187 35.1758C39.7643 34.8264 40.0037 34.4992 40.3531 34.4449C40.7026 34.3925 41.0294 34.6302 41.0837 34.979C41.1213 35.2193 41.14 35.4637 41.14 35.7056ZM34.74 40.64C34.74 40.9934 34.4538 41.28 34.1 41.28H31.54C31.1862 41.28 30.9 40.9934 30.9 40.64C30.9 40.2865 31.1862 40 31.54 40H34.1C34.4538 40 34.74 40.2865 34.74 40.64ZM19.38 40.64C19.38 40.9934 19.0938 41.28 18.74 41.28H16.18C15.8262 41.28 15.54 40.9934 15.54 40.64C15.54 40.2865 15.8262 40 16.18 40H18.74C19.0938 40 19.38 40.2865 19.38 40.64ZM30.7232 29.6366C30.6507 29.6632 30.5763 29.676 30.5032 29.676C30.2419 29.676 29.997 29.515 29.9019 29.2553C29.715 28.7438 29.62 28.2051 29.62 27.6544V26.5043C29.62 26.1509 29.9062 25.8643 30.26 25.8643C30.6138 25.8643 30.9 26.1509 30.9 26.5043V27.6544C30.9 28.0547 30.9688 28.4453 31.1043 28.816C31.2256 29.1478 31.055 29.5153 30.7232 29.6366ZM24.5 40.64C24.5 40.9934 24.2138 41.28 23.86 41.28H21.3C20.9462 41.28 20.66 40.9934 20.66 40.64C20.66 40.2865 20.9462 40 21.3 40H23.86C24.2138 40 24.5 40.2865 24.5 40.64ZM29.62 40.64C29.62 40.9934 29.3338 41.28 28.98 41.28H26.42C26.0662 41.28 25.78 40.9934 25.78 40.64C25.78 40.2865 26.0662 40 26.42 40H28.98C29.3338 40 29.62 40.2865 29.62 40.64Z" fill="current"/>
<defs>
<linearGradient id="paint0_linear_1317_6555" x1="24.5" y1="6.71997" x2="24.5" y2="41.28" gradientUnits="userSpaceOnUse">
<stop offset="0.0208333" stop-color="#FF8A50"/>
<stop offset="0.669043" stop-color="#FF6D24"/>
</linearGradient>
</defs>
</svg>
