<svg width="48" height="48" viewBox="0 0 48 48" fill="none" xmlns="http://www.w3.org/2000/svg">
<path d="M33.9924 14.8084C34.5736 16.245 34.5024 18.014 33.7967 19.6624C33.5554 20.2261 33.238 20.7615 32.8524 21.2569L31.8192 40.346C31.8005 40.6869 31.518 40.9512 31.1805 40.9512C31.1687 40.9512 31.1573 40.9509 31.1455 40.9503C30.7924 40.9312 30.5218 40.6297 30.5405 40.2765L31.5848 20.9821C31.5924 20.8455 31.6436 20.7146 31.7311 20.609C32.1005 20.1621 32.3999 19.674 32.6205 19.1588C33.1837 17.8416 33.253 16.3948 32.8061 15.2885C32.5143 14.5679 32.0317 14.0488 31.4104 13.7876C30.9304 13.586 30.3816 13.5623 29.7773 13.7167C29.5805 13.7669 29.3717 13.721 29.2141 13.5927C29.0565 13.4644 28.9692 13.2687 28.9791 13.0658C28.9823 13.0104 28.9872 12.956 28.9928 12.9021C28.9965 12.8658 29.0016 12.8293 29.0016 12.7916C29.0016 10.3213 27.5511 8.31157 25.7679 8.31157C24.7154 8.31157 23.7223 9.03813 23.1116 10.2549C22.8952 10.6874 22.184 10.6874 21.9679 10.2549C21.3575 9.03781 20.3642 8.31125 19.3117 8.31125C17.5285 8.31125 16.078 10.321 16.078 12.7912C16.078 12.829 16.0829 12.8657 16.0868 12.9018C16.0924 12.9559 16.0973 13.0103 16.1005 13.0655C16.1104 13.2684 16.0231 13.4639 15.8655 13.5924C15.7087 13.7209 15.4986 13.7668 15.3023 13.7164C14.698 13.5623 14.1492 13.5864 13.6692 13.7872C13.0479 14.0485 12.5655 14.5676 12.2735 15.2882C11.8266 16.3945 11.896 17.8413 12.4591 19.1584C12.6797 19.6738 12.9791 20.1618 13.3485 20.6087C13.436 20.7143 13.4872 20.8453 13.4948 20.9818L14.5391 40.2762C14.5578 40.6293 14.2872 40.9309 13.9341 40.95C13.6098 40.9693 13.2797 40.6984 13.2604 40.3456L12.2274 21.2569C11.8418 20.7615 11.5242 20.2263 11.2831 19.6624C10.5775 18.014 10.5063 16.245 11.0874 14.8084C11.5093 13.7647 12.2306 13.0037 13.173 12.6074C13.6836 12.3927 14.2304 12.3052 14.8117 12.344C14.9911 9.37621 16.9405 7.03125 19.3117 7.03125C20.5468 7.03125 21.7012 7.66213 22.5399 8.76069C23.3786 7.66213 24.533 7.03125 25.768 7.03125C28.1392 7.03125 30.0887 9.37621 30.268 12.344C30.8506 12.3053 31.3962 12.3928 31.9068 12.6074C32.8493 13.0037 33.5706 13.7647 33.9924 14.8084ZM17.8556 16.5512C18.2706 17.2703 18.4324 18.0847 18.3106 18.8447C18.1812 19.6538 17.7512 20.3063 17.1 20.6825C16.7295 20.8965 16.3194 20.9978 15.9032 20.9978C14.8607 20.9978 13.7751 20.3631 13.1445 19.2712C12.7295 18.5522 12.5677 17.7378 12.6895 16.9778C12.8189 16.1687 13.2488 15.5162 13.9 15.14C15.1986 14.3893 16.973 15.0234 17.8556 16.5512ZM16.7468 17.1912C16.3524 16.5084 15.7024 16.0994 15.1124 16.0994C14.9104 16.0994 14.7156 16.1476 14.5399 16.2488C14.2287 16.4282 14.0205 16.7591 13.953 17.1804C13.878 17.6506 13.9842 18.166 14.253 18.6312C14.7824 19.5479 15.7711 19.9706 16.4599 19.5738C16.7711 19.3944 16.9792 19.0636 17.0468 18.6423C17.1218 18.1719 17.0156 17.6565 16.7468 17.1912ZM27.2242 16.5512C28.1068 15.0237 29.881 14.3893 31.1799 15.14C31.8311 15.5164 32.2612 16.1688 32.3904 16.9778C32.5124 17.7378 32.3504 18.5522 31.9354 19.2712C31.3048 20.3628 30.2191 20.9978 29.1767 20.9978C28.7604 20.9978 28.3504 20.8965 27.9799 20.6825C27.3287 20.3061 26.8986 19.6536 26.7693 18.8447C26.6474 18.0847 26.8093 17.2703 27.2242 16.5512ZM28.033 18.6421C28.1005 19.0634 28.3087 19.3943 28.6199 19.5736C29.308 19.97 30.2973 19.5474 30.8268 18.6311C31.0956 18.1658 31.2018 17.6504 31.1268 17.1802C31.0592 16.7589 30.8511 16.4281 30.5399 16.2487C30.3642 16.1474 30.1693 16.0992 29.9674 16.0992C29.3773 16.0992 28.7274 16.5084 28.333 17.1911C28.0642 17.6565 27.958 18.1719 28.033 18.6421ZM36.2999 27.5112C36.2999 27.1578 36.0133 26.8713 35.6599 26.8713C35.3064 26.8713 35.0199 27.1578 35.0199 27.5112C35.0199 27.8647 35.3064 28.1512 35.6599 28.1512C36.0133 28.1512 36.2999 27.8647 36.2999 27.5112ZM8.77988 25.5912C8.42644 25.5912 8.13988 25.8778 8.13988 26.2312C8.13988 26.5847 8.42644 26.8713 8.77988 26.8713C9.13332 26.8713 9.41988 26.5847 9.41988 26.2312C9.41988 25.8778 9.13332 25.5912 8.77988 25.5912ZM10.7773 10.3637L10.3248 9.91125L10.7773 9.45877C11.0272 9.20885 11.0272 8.80373 10.7773 8.55381C10.5274 8.30389 10.1223 8.30389 9.87236 8.55381L9.41988 9.00629L8.9674 8.55365C8.71748 8.30373 8.31236 8.30373 8.06244 8.55365C7.81252 8.80357 7.81252 9.20869 8.06244 9.45861L8.51492 9.91125L8.06244 10.3637C7.81252 10.6137 7.81252 11.0188 8.06244 11.2687C8.1874 11.3937 8.35124 11.4562 8.51492 11.4562C8.6786 11.4562 8.84244 11.3937 8.9674 11.2687L9.41988 10.8162L9.87236 11.2687C9.99732 11.3937 10.1612 11.4562 10.3248 11.4562C10.4885 11.4562 10.6524 11.3937 10.7773 11.2687C11.0274 11.0188 11.0274 10.6138 10.7773 10.3637ZM40.1399 33.5912C40.1399 34.8263 39.1349 35.8312 37.8999 35.8312C36.6648 35.8312 35.6599 34.8263 35.6599 33.5912C35.6599 32.3562 36.6648 31.3512 37.8999 31.3512C39.1349 31.3512 40.1399 32.3562 40.1399 33.5912ZM38.8599 33.5912C38.8599 33.0618 38.4293 32.6312 37.8999 32.6312C37.3704 32.6312 36.9399 33.0618 36.9399 33.5912C36.9399 34.1207 37.3704 34.5512 37.8999 34.5512C38.4293 34.5512 38.8599 34.1205 38.8599 33.5912ZM29.2599 26.2312C29.2599 27.9956 27.8242 29.4312 26.0599 29.4312C25.5093 29.4312 24.9756 29.2884 24.4956 29.0146C23.2693 29.5615 21.8106 29.5615 20.5844 29.0146C20.1044 29.2884 19.5706 29.4312 19.02 29.4312C17.2557 29.4312 15.82 27.9956 15.82 26.2312C15.82 24.8712 16.6968 23.6613 17.9557 23.2156C18.5693 21.2332 20.438 19.8312 22.5399 19.8312C24.6418 19.8312 26.5104 21.2332 27.1242 23.2156C28.3831 23.6612 29.2599 24.8712 29.2599 26.2312ZM17.0999 11.8312C17.0999 10.2162 18.0836 8.95125 19.3399 8.95125C20.5962 8.95125 21.5799 10.2162 21.5799 11.8312C21.5799 13.4463 20.5962 14.7112 19.3399 14.7112C18.0836 14.7112 17.0999 13.4463 17.0999 11.8312ZM18.3799 11.8312C18.3799 12.7741 18.8855 13.4312 19.3399 13.4312C19.7943 13.4312 20.2999 12.7741 20.2999 11.8312C20.2999 10.8884 19.7943 10.2312 19.3399 10.2312C18.8855 10.2312 18.3799 10.8884 18.3799 11.8312ZM27.9799 11.8312C27.9799 13.4463 26.9962 14.7112 25.7399 14.7112C24.4836 14.7112 23.4999 13.4463 23.4999 11.8312C23.4999 10.2162 24.4836 8.95125 25.7399 8.95125C26.9962 8.95125 27.9799 10.2162 27.9799 11.8312ZM26.6999 11.8312C26.6999 10.8884 26.1943 10.2312 25.7399 10.2312C25.2855 10.2312 24.7799 10.8884 24.7799 11.8312C24.7799 12.7741 25.2855 13.4312 25.7399 13.4312C26.1943 13.4312 26.6999 12.774 26.6999 11.8312Z" fill="current"/>
</svg>
