<svg width="64" height="64" viewBox="0 0 64 64" fill="none" xmlns="http://www.w3.org/2000/svg">
<path d="M45.3231 19.7445C46.0982 21.66 46.0033 24.0186 45.0622 26.2166C44.7405 26.9682 44.3173 27.682 43.8032 28.3425L42.4257 53.7946C42.4007 54.2492 42.0239 54.6017 41.574 54.6017C41.5582 54.6017 41.5431 54.6012 41.5273 54.6004C41.0565 54.575 40.6957 54.1729 40.7207 53.702L42.1131 27.9762C42.1231 27.794 42.1914 27.6195 42.3081 27.4787C42.8007 26.8828 43.1998 26.232 43.494 25.545C44.245 23.7889 44.3373 21.8597 43.7415 20.3847C43.3524 19.4239 42.709 18.7318 41.8806 18.3834C41.2406 18.1146 40.5089 18.0831 39.7031 18.2889C39.4407 18.3559 39.1623 18.2947 38.9522 18.1236C38.742 17.9525 38.6255 17.6916 38.6388 17.4211C38.643 17.3473 38.6497 17.2747 38.6571 17.2028C38.662 17.1544 38.6689 17.1058 38.6689 17.0554C38.6689 13.7618 36.7348 11.0821 34.3572 11.0821C32.9539 11.0821 31.6297 12.0508 30.8154 13.6732C30.527 14.2499 29.5787 14.2499 29.2905 13.6732C28.4766 12.0504 27.1523 11.0817 25.749 11.0817C23.3714 11.0817 21.4373 13.7613 21.4373 17.055C21.4373 17.1053 21.4439 17.1542 21.449 17.2024C21.4565 17.2745 21.4631 17.3471 21.4674 17.4207C21.4806 17.6912 21.3641 17.9519 21.154 18.1232C20.9449 18.2945 20.6648 18.3557 20.403 18.2885C19.5973 18.0831 18.8655 18.1153 18.2255 18.383C17.3972 18.7314 16.754 19.4234 16.3646 20.3843C15.7688 21.8593 15.8614 23.7884 16.6121 25.5446C16.9063 26.2317 17.3054 26.8824 17.798 27.4783C17.9147 27.6191 17.983 27.7938 17.993 27.9757L19.3854 53.7016C19.4104 54.1724 19.0497 54.5746 18.5788 54.6C18.1464 54.6258 17.7063 54.2646 17.6805 53.7942L16.3032 28.3425C15.7891 27.682 15.3656 26.9684 15.0441 26.2166C14.1033 24.0186 14.0084 21.66 14.7832 19.7445C15.3458 18.3529 16.3075 17.3383 17.564 16.8099C18.2447 16.5236 18.9739 16.4069 19.749 16.4587C19.9881 12.5016 22.5874 9.375 25.749 9.375C27.3957 9.375 28.9349 10.2162 30.0532 11.6809C31.1715 10.2162 32.7107 9.375 34.3574 9.375C37.519 9.375 40.1182 12.5016 40.3574 16.4587C41.1341 16.4071 41.8616 16.5238 42.5423 16.8099C43.7991 17.3383 44.7608 18.3529 45.3231 19.7445ZM23.8074 22.0683C24.3608 23.0271 24.5765 24.1129 24.4141 25.1263C24.2415 26.2051 23.6683 27.0751 22.8001 27.5766C22.306 27.862 21.7592 27.9971 21.2043 27.9971C19.8142 27.9971 18.3668 27.1508 17.526 25.695C16.9726 24.7363 16.757 23.6504 16.9193 22.6371C17.0919 21.5583 17.6651 20.6883 18.5334 20.1867C20.2648 19.1858 22.6307 20.0312 23.8074 22.0683ZM22.329 22.9217C21.8031 22.0112 20.9366 21.4659 20.1498 21.4659C19.8806 21.4659 19.6207 21.5301 19.3865 21.6651C18.9716 21.9043 18.694 22.3455 18.604 22.9072C18.5039 23.5341 18.6456 24.2213 19.004 24.8417C19.7099 26.0639 21.0281 26.6275 21.9465 26.0984C22.3614 25.8593 22.639 25.4181 22.729 24.8564C22.8291 24.2292 22.6874 23.542 22.329 22.9217ZM36.2989 22.0683C37.4757 20.0316 39.8413 19.1858 41.5732 20.1867C42.4414 20.6885 43.0149 21.5585 43.1873 22.6371C43.3498 23.6504 43.1339 24.7363 42.5805 25.695C41.7398 27.1504 40.2921 27.9971 38.9022 27.9971C38.3471 27.9971 37.8006 27.862 37.3065 27.5766C36.4382 27.0748 35.8648 26.2049 35.6924 25.1263C35.5299 24.1129 35.7458 23.0271 36.2989 22.0683ZM37.3773 24.8562C37.4674 25.4179 37.7449 25.8591 38.1598 26.0982C39.0774 26.6266 40.3964 26.0632 41.1023 24.8415C41.4607 24.2211 41.6024 23.5339 41.5023 22.9069C41.4123 22.3452 41.1348 21.9041 40.7198 21.6649C40.4856 21.5299 40.2258 21.4657 39.9565 21.4657C39.1698 21.4657 38.3032 22.0112 37.7773 22.9215C37.4189 23.542 37.2773 24.2292 37.3773 24.8562ZM48.3998 36.6817C48.3998 36.2104 48.0178 35.8283 47.5465 35.8283C47.0753 35.8283 46.6932 36.2104 46.6932 36.6817C46.6932 37.1529 47.0753 37.535 47.5465 37.535C48.0178 37.535 48.3998 37.1529 48.3998 36.6817ZM11.7065 34.1217C11.2353 34.1217 10.8532 34.5037 10.8532 34.975C10.8532 35.4463 11.2353 35.8283 11.7065 35.8283C12.1778 35.8283 12.5598 35.4463 12.5598 34.975C12.5598 34.5037 12.1778 34.1217 11.7065 34.1217ZM14.3698 13.8183L13.7665 13.215L14.3698 12.6117C14.703 12.2785 14.703 11.7383 14.3698 11.4051C14.0365 11.0719 13.4964 11.0719 13.1631 11.4051L12.5598 12.0084L11.9565 11.4049C11.6233 11.0716 11.0831 11.0716 10.7499 11.4049C10.4167 11.7381 10.4167 12.2783 10.7499 12.6115L11.3532 13.215L10.7499 13.8183C10.4167 14.1515 10.4167 14.6917 10.7499 15.0249C10.9165 15.1915 11.135 15.2749 11.3532 15.2749C11.5715 15.2749 11.7899 15.1915 11.9565 15.0249L12.5598 14.4216L13.1631 15.0249C13.3298 15.1915 13.5482 15.2749 13.7665 15.2749C13.9847 15.2749 14.2031 15.1915 14.3698 15.0249C14.7032 14.6917 14.7032 14.1517 14.3698 13.8183ZM53.5198 44.7883C53.5198 46.4351 52.1799 47.775 50.5332 47.775C48.8865 47.775 47.5465 46.4351 47.5465 44.7883C47.5465 43.1416 48.8865 41.8017 50.5332 41.8017C52.1799 41.8017 53.5198 43.1416 53.5198 44.7883ZM51.8132 44.7883C51.8132 44.0824 51.2391 43.5083 50.5332 43.5083C49.8273 43.5083 49.2532 44.0824 49.2532 44.7883C49.2532 45.4943 49.8273 46.0683 50.5332 46.0683C51.2391 46.0683 51.8132 45.494 51.8132 44.7883ZM39.0132 34.975C39.0132 37.3274 37.0989 39.2417 34.7465 39.2417C34.0124 39.2417 33.3007 39.0512 32.6607 38.6861C31.0258 39.4153 29.0808 39.4153 27.4458 38.6861C26.8058 39.0512 26.0941 39.2417 25.3601 39.2417C23.0076 39.2417 21.0934 37.3274 21.0934 34.975C21.0934 33.1617 22.2625 31.5484 23.941 30.9541C24.7591 28.3109 27.2506 26.4417 30.0532 26.4417C32.8557 26.4417 35.3473 28.3109 36.1656 30.9541C37.8441 31.5482 39.0132 33.1617 39.0132 34.975ZM22.7998 15.775C22.7998 13.6216 24.1114 11.935 25.7865 11.935C27.4616 11.935 28.7732 13.6216 28.7732 15.775C28.7732 17.9284 27.4616 19.615 25.7865 19.615C24.1114 19.615 22.7998 17.9284 22.7998 15.775ZM24.5065 15.775C24.5065 17.0322 25.1806 17.9083 25.7865 17.9083C26.3924 17.9083 27.0665 17.0322 27.0665 15.775C27.0665 14.5178 26.3924 13.6417 25.7865 13.6417C25.1806 13.6417 24.5065 14.5178 24.5065 15.775ZM37.3065 15.775C37.3065 17.9284 35.9949 19.615 34.3198 19.615C32.6447 19.615 31.3332 17.9284 31.3332 15.775C31.3332 13.6216 32.6447 11.935 34.3198 11.935C35.9949 11.935 37.3065 13.6216 37.3065 15.775ZM35.5998 15.775C35.5998 14.5178 34.9257 13.6417 34.3198 13.6417C33.714 13.6417 33.0398 14.5178 33.0398 15.775C33.0398 17.0322 33.714 17.9083 34.3198 17.9083C34.9257 17.9083 35.5998 17.032 35.5998 15.775Z" fill="current"/>
</svg>
