<svg width="64" height="64" viewBox="0 0 64 64" fill="none" xmlns="http://www.w3.org/2000/svg">
<path d="M30.7556 18.5892C30.7556 15.8259 29.2501 13.4129 27.0204 12.1103C26.3701 10.5598 25.9466 8.24149 25.7852 7.35339C25.5964 6.31253 24.771 5.50677 23.7305 5.34912C21.783 5.05579 15.7542 5.05493 13.8067 5.34997C12.7667 5.50656 11.9413 6.31253 11.7525 7.35339C11.5776 8.3168 11.0954 10.6906 10.3622 12.2532C8.26259 13.5853 6.86206 15.9241 6.86206 18.5892V31.206C6.86206 33.8153 8.20222 36.1156 10.2289 37.4607C11.0549 39.0321 11.603 41.8037 11.7525 42.6293C11.9413 43.6702 12.7667 44.476 13.8071 44.6336C14.7808 44.7804 16.7746 44.8536 18.7684 44.8536C20.7626 44.8536 22.7571 44.7802 23.731 44.6328C24.771 44.4762 25.5964 43.6702 25.7852 42.6293C25.9616 41.6574 26.4217 39.1486 27.1373 37.6139C29.302 36.2959 30.7556 33.9206 30.7556 31.206V18.5892ZM13.4317 7.65845C13.4903 7.33504 13.7438 7.08501 14.0612 7.03765C15.8649 6.76523 21.6721 6.76608 23.4758 7.0368C23.7937 7.08523 24.0471 7.33504 24.1058 7.65845C24.3072 8.76672 24.5702 10.0732 24.9254 11.2796C24.3859 11.1558 23.8265 11.0844 23.2501 11.0844H14.3676C13.7363 11.0844 13.1262 11.1712 12.5399 11.3188C12.996 9.88565 13.299 8.38976 13.4317 7.65845ZM24.106 42.3243C24.0473 42.6477 23.7939 42.8977 23.4765 42.9451C21.6719 43.2166 15.8647 43.216 14.0618 42.9459C13.744 42.8975 13.4905 42.6477 13.4319 42.3243C13.2883 41.5334 12.963 39.9418 12.4723 38.4591C13.079 38.6178 13.712 38.711 14.3678 38.711H23.2503C23.8483 38.711 24.4273 38.6334 24.9852 38.5005C24.6029 39.7478 24.3221 41.1332 24.106 42.3243ZM29.0489 31.206C29.0489 34.4034 26.4478 37.0044 23.2501 37.0044H14.3676C11.1701 37.0044 8.56873 34.4036 8.56873 31.206V18.5892C8.56873 15.3918 11.1699 12.7908 14.3676 12.7908H23.2501C26.4476 12.7908 29.0489 15.3916 29.0489 18.5892V31.206ZM11.3843 19.101C11.0511 18.7678 11.0511 18.2276 11.3843 17.8944L13.8084 15.4703C14.1416 15.1371 14.6818 15.1371 15.015 15.4703C15.3482 15.8035 15.3482 16.3437 15.015 16.6769L12.5909 19.101C12.4243 19.2676 12.2058 19.351 11.9876 19.351C11.7694 19.351 11.5509 19.2676 11.3843 19.101ZM18.4284 16.3234C18.7616 16.6566 18.7616 17.1968 18.4284 17.53L12.5909 23.3677C12.4243 23.5343 12.2058 23.6177 11.9876 23.6177C11.7694 23.6177 11.5509 23.5343 11.3843 23.3677C11.0511 23.0345 11.0511 22.4943 11.3843 22.1611L17.2217 16.3236C17.5552 15.9902 18.0951 15.9902 18.4284 16.3234ZM55.7561 43.1795C56.144 41.9537 56.3554 40.6502 56.3554 39.2977C56.3554 37.9477 56.1448 36.6462 55.7585 35.4223C56.9984 34.6974 57.4989 33.1317 56.8584 31.8202C56.1875 30.4476 54.5243 29.8744 53.1492 30.5459L52.9805 30.6285C52.4571 30.0542 51.885 29.5281 51.267 29.0556L50.0597 20.3535C50.001 19.9317 49.6401 19.6177 49.2143 19.6177H37.6943C37.2685 19.6177 36.9075 19.9319 36.8488 20.3535L35.6418 29.0554C32.5559 31.4148 30.5529 35.1224 30.5529 39.2977C30.5529 43.4735 32.5564 47.1814 35.6429 49.5409L36.8493 58.1361C36.9084 58.5579 37.2689 58.8711 37.6943 58.8711H49.2143C49.6397 58.8711 50.0002 58.5577 50.0593 58.1361L51.2659 49.5407C51.8826 49.0692 52.4537 48.5446 52.976 47.9718L53.1501 48.0568C53.5405 48.2477 53.9543 48.3375 54.3622 48.3375C55.3892 48.3375 56.378 47.7649 56.8584 46.7825C57.4991 45.4709 56.9984 43.9051 55.7561 43.1795ZM38.4375 21.3244H48.4712L49.3762 27.849C47.6006 26.9267 45.5895 26.3968 43.4543 26.3968C41.319 26.3968 39.3081 26.9265 37.5326 27.8488L38.4375 21.3244ZM48.4721 57.1644H38.4362L37.5356 50.7482C39.3105 51.6693 41.3201 52.1986 43.4543 52.1986C45.5885 52.1986 47.5983 51.6693 49.3732 50.748L48.4721 57.1644ZM43.4543 50.4917C37.2813 50.4917 32.2596 45.4701 32.2596 39.2975C32.2596 33.1249 37.2813 28.1033 43.4543 28.1033C49.6273 28.1033 54.6489 33.1249 54.6489 39.2975C54.6489 45.4701 49.6271 50.4917 43.4543 50.4917ZM43.4543 29.0044C37.7785 29.0044 33.1609 33.622 33.1609 39.2977C33.1609 44.9734 37.7785 49.591 43.4543 49.591C49.13 49.591 53.7476 44.9734 53.7476 39.2977C53.7476 33.622 49.13 29.0044 43.4543 29.0044ZM43.4543 47.8844C38.7198 47.8844 34.8676 44.0326 34.8676 39.2977C34.8676 34.5628 38.7198 30.711 43.4543 30.711C48.1888 30.711 52.0409 34.5628 52.0409 39.2977C52.0409 44.0326 48.1888 47.8844 43.4543 47.8844ZM38.8676 36.8444C38.6494 36.8444 38.4309 36.761 38.2643 36.5944C37.9311 36.2611 37.9311 35.721 38.2643 35.3877L40.6884 32.9636C41.0216 32.6304 41.5618 32.6304 41.895 32.9636C42.2282 33.2969 42.2282 33.837 41.895 34.1702L39.4709 36.5944C39.3043 36.761 39.0858 36.8444 38.8676 36.8444ZM45.735 33.3901C46.0682 33.7233 46.0682 34.2635 45.735 34.5967L40.3242 40.0075C40.1576 40.1741 39.9392 40.2575 39.7209 40.2575C39.5027 40.2575 39.2842 40.1741 39.1176 40.0075C38.7844 39.6742 38.7844 39.1341 39.1176 38.8009L44.5284 33.3901C44.8618 33.0569 45.4018 33.0569 45.735 33.3901ZM15.8223 46.9244C14.1756 46.9244 12.8356 48.2643 12.8356 49.911C12.8356 51.5578 14.1756 52.8977 15.8223 52.8977C17.469 52.8977 18.8089 51.5578 18.8089 49.911C18.8089 48.2643 17.4688 46.9244 15.8223 46.9244ZM15.8223 51.191C15.1164 51.191 14.5423 50.617 14.5423 49.911C14.5423 49.2051 15.1164 48.631 15.8223 48.631C16.5282 48.631 17.1023 49.2051 17.1023 49.911C17.1023 50.617 16.528 51.191 15.8223 51.191ZM34.593 9.88672L35.559 8.92416L34.5969 7.9584C34.2643 7.62432 34.2652 7.08416 34.5994 6.75179C34.9327 6.4192 35.4737 6.4192 35.8061 6.75349L36.7682 7.71925L37.734 6.75691C38.0676 6.42432 38.6082 6.42432 38.941 6.75861C39.2736 7.09269 39.2727 7.63285 38.9389 7.96523L37.9725 8.92821L38.935 9.8944C39.2676 10.2285 39.2668 10.7686 38.9325 11.101C38.7663 11.2676 38.5482 11.3502 38.3304 11.3502C38.1118 11.3502 37.8925 11.2668 37.7258 11.0993L36.7633 10.1331L35.798 11.095C35.6313 11.2608 35.4133 11.3442 35.1955 11.3442C34.9768 11.3442 34.7575 11.2608 34.5909 11.0933C34.2583 10.7593 34.2592 10.2193 34.593 9.88672ZM46.9689 12.3644C46.9689 11.6576 47.542 11.0844 48.2489 11.0844C48.9559 11.0844 49.5289 11.6576 49.5289 12.3644C49.5289 13.0711 48.9559 13.6444 48.2489 13.6444C47.542 13.6444 46.9689 13.0711 46.9689 12.3644ZM27.3423 53.3244C27.3423 54.0312 26.7693 54.6044 26.0623 54.6044C25.3553 54.6044 24.7823 54.0312 24.7823 53.3244C24.7823 52.6176 25.3553 52.0444 26.0623 52.0444C26.7693 52.0444 27.3423 52.6174 27.3423 53.3244Z" fill="current"/>
</svg>
