<svg width="24" height="24" viewBox="0 0 24 24" fill="none" xmlns="http://www.w3.org/2000/svg">
<path d="M11.6509 2.34999L6.36094 7.63999C6.16094 7.83999 6.16094 8.14999 6.36094 8.34999L7.65093 9.63999C7.85093 9.83999 8.16094 9.83999 8.36094 9.63999L11.6509 6.34999C11.8509 6.14999 12.1609 6.14999 12.3609 6.34999L15.6509 9.63999C15.8509 9.83999 16.1609 9.83999 16.3609 9.63999L17.6509 8.34999C17.8509 8.14999 17.8509 7.83999 17.6509 7.63999L12.3609 2.34999C12.1609 2.15999 11.8409 2.15999 11.6509 2.34999Z" fill="#FFC83A"/>
<path d="M11.6509 21.65L6.36094 16.36C6.16094 16.16 6.16094 15.85 6.36094 15.65L7.65093 14.36C7.85093 14.16 8.16094 14.16 8.36094 14.36L11.6509 17.65C11.8509 17.85 12.1609 17.85 12.3609 17.65L15.6509 14.36C15.8509 14.16 16.1609 14.16 16.3609 14.36L17.6509 15.65C17.8509 15.85 17.8509 16.16 17.6509 16.36L12.3609 21.65C12.1609 21.84 11.8409 21.84 11.6509 21.65Z" fill="#FFC83A"/>
<path d="M20.0992 10.1L21.6392 11.64C21.8392 11.84 21.8392 12.15 21.6392 12.35L20.0992 13.89C19.8992 14.09 19.5892 14.09 19.3892 13.89L17.8492 12.35C17.6492 12.15 17.6492 11.84 17.8492 11.64L19.3892 10.1C19.5892 9.90999 19.9092 9.90999 20.0992 10.1Z" fill="#FFC83A"/>
<path d="M4.59922 10.1L6.13921 11.64C6.33921 11.84 6.33921 12.15 6.13921 12.35L4.59922 13.89C4.39922 14.09 4.08921 14.09 3.88921 13.89L2.34922 12.35C2.14922 12.15 2.14922 11.84 2.34922 11.64L3.88921 10.1C4.08921 9.90999 4.40922 9.90999 4.59922 10.1Z" fill="#FFC83A"/>
<path d="M12.3507 9.88001L14.1207 11.65C14.3207 11.85 14.3207 12.16 14.1207 12.36L12.3507 14.13C12.1507 14.33 11.8407 14.33 11.6407 14.13L9.8707 12.36C9.6707 12.16 9.6707 11.85 9.8707 11.65L11.6407 9.88001C11.8407 9.68001 12.1607 9.68001 12.3507 9.88001Z" fill="#FFC83A"/>
</svg>
