<svg width="226" height="48" viewBox="0 0 226 48" fill="none" xmlns="http://www.w3.org/2000/svg">
<path d="M94.3298 0L92.6204 4.09373L91.6493 6.41959C90.5494 9.05656 87.963 10.7701 85.0992 10.7701H71.6225L68.9767 17.1107C67.8768 19.7477 65.2904 21.4661 62.4266 21.4661H50.585L55.0541 10.775L57.3035 5.38752L59.5529 0H94.3298Z" fill="white"/>
<path d="M98.6569 23.8477L96.0062 30.1882C94.9062 32.8252 92.3199 34.5388 89.4561 34.5388H78.7639L74.9835 43.6348C73.8835 46.2767 71.2972 48.0001 68.4284 48.0001H56.5967L66.6547 23.8477H98.6569Z" fill="white"/>
<path d="M12.1341 37.0003H0L4.44396 16.2003H10.2246L9.51285 19.5283H15.8837C17.0872 19.5283 18.0883 19.9385 18.8868 20.759C19.6853 21.5679 20.0846 22.5674 20.0846 23.7577C20.0846 24.0928 20.0441 24.4279 19.9631 24.763L18.4876 31.731C18.1867 33.1408 17.3997 34.3714 16.1267 35.423C14.8653 36.4745 13.5344 37.0003 12.1341 37.0003ZM14.1651 24.8843C14.1767 24.8034 14.1825 24.7283 14.1825 24.659C14.1825 24.0119 13.8642 23.6883 13.2277 23.6883H8.62753L6.6833 32.8403H11.2835C11.5844 32.8403 11.8795 32.719 12.1688 32.4763C12.4697 32.2221 12.6549 31.939 12.7243 31.627L14.1651 24.8843Z" fill="white"/>
<path d="M26.433 37.0003C25.2178 37.0003 24.211 36.5959 23.4125 35.787C22.614 34.9665 22.2147 33.967 22.2147 32.7883C22.2147 32.4532 22.2494 32.1181 22.3189 31.783L23.777 24.9017C24.0779 23.4803 24.8591 22.2554 26.1205 21.227C27.3935 20.187 28.736 19.667 30.1479 19.667H37.0047C38.2315 19.667 39.2441 20.0714 40.0426 20.8803C40.8411 21.6892 41.2404 22.683 41.2404 23.8617C41.2404 24.2083 41.2057 24.555 41.1362 24.9017L41.0842 25.1617C40.7833 26.583 40.0021 27.8137 38.7407 28.8537C37.4908 29.8821 36.1541 30.3963 34.7307 30.3963H28.3946L28.1168 31.6617C28.1053 31.7425 28.0995 31.8177 28.0995 31.887C28.0995 32.1643 28.1921 32.4012 28.3772 32.5977C28.5624 32.7825 28.7938 32.875 29.0716 32.875H39.435L38.5671 37.0003H26.433ZM34.4009 23.7923H31.0158C30.6802 23.7923 30.3677 23.9137 30.0784 24.1563C29.7891 24.3874 29.6097 24.6648 29.5403 24.9883L29.2799 26.271H33.8627C34.2446 26.271 34.586 26.115 34.8869 25.803C35.1994 25.491 35.3556 25.1443 35.3556 24.763C35.3556 24.1159 35.0374 23.7923 34.4009 23.7923Z" fill="white"/>
<path d="M106.061 37.0003L111.229 12.7363H118.704L113.536 37.0003H106.061Z" fill="white"/>
<path d="M138.24 18.7123L134.37 37.0003H126.39L130.284 18.7123H123.458L124.659 13.0003H146.292L145.09 18.7123H138.24Z" fill="white"/>
<path d="M165.139 18.7123L161.269 37.0003H153.289L157.183 18.7123H150.357L151.559 13.0003H173.191L171.989 18.7123H165.139Z" fill="white"/>
<path d="M181.284 37.0003C179.618 37.0003 178.232 36.4403 177.126 35.3203C176.036 34.2003 175.492 32.8243 175.492 31.1923C175.492 30.7123 175.54 30.2323 175.636 29.7523L177.679 20.2003C178.079 18.2963 179.153 16.6243 180.9 15.1843C182.646 13.7283 184.465 13.0003 186.356 13.0003H198.422L197.22 18.7123H187.557C187.109 18.7123 186.684 18.8803 186.284 19.2163C185.883 19.5363 185.643 19.9203 185.563 20.3683L185.178 22.1443H196.475L195.273 27.8563H183.952L183.592 29.6083C183.56 29.7043 183.544 29.8083 183.544 29.9203C183.544 30.2883 183.672 30.6083 183.928 30.8803C184.184 31.1523 184.497 31.2883 184.866 31.2883H194.528L193.326 37.0003H181.284Z" fill="white"/>
<path d="M217.59 27.8083L220.234 37.0003H212.086L209.466 27.8563H208.096L206.149 37.0003H198.145L203.241 13.0003H220.018C221.7 13.0003 223.094 13.5683 224.2 14.7043C225.322 15.8243 225.882 17.2083 225.882 18.8563C225.882 19.3203 225.834 19.7843 225.738 20.2483L225.666 20.6323C225.265 22.4883 224.288 24.0963 222.734 25.4563C221.179 26.8003 219.465 27.5843 217.59 27.8083ZM216.412 18.7123H210.043L209.322 22.1443H215.667C216.196 22.1443 216.669 21.9283 217.085 21.4963C217.518 21.0483 217.734 20.5603 217.734 20.0323C217.734 19.1523 217.294 18.7123 216.412 18.7123Z" fill="white"/>
</svg>
