<svg width="189" height="40" viewBox="0 0 189 40" fill="none" xmlns="http://www.w3.org/2000/svg">
<path d="M78.6083 0L77.1839 3.41144L76.3746 5.34966C75.458 7.54714 73.3027 8.97508 70.9162 8.97508H59.6856L57.4808 14.2589C56.5641 16.4564 54.4089 17.8884 52.0224 17.8884H42.1543L45.8786 8.9792L47.7531 4.4896L49.6276 0H78.6083Z" fill="url(#paint0_linear_2730_12023)"/>
<path d="M82.2143 19.8729L80.0053 25.1567C79.0887 27.3542 76.9334 28.7822 74.5469 28.7822H65.6367L62.4864 36.3622C61.5698 38.5638 59.4145 40 57.0239 40H47.1641L55.5457 19.8729H82.2143Z" fill="url(#paint1_linear_2730_12023)"/>
<path d="M10.1117 30.8334H0L3.7033 13.5001H8.52048L7.92737 16.2734H13.2364C14.2394 16.2734 15.0736 16.6153 15.739 17.299C16.4045 17.973 16.7372 18.806 16.7372 19.7978C16.7372 20.0771 16.7034 20.3564 16.6359 20.6356L15.4063 26.4423C15.1556 27.6171 14.4998 28.6427 13.4389 29.519C12.3877 30.3953 11.2787 30.8334 10.1117 30.8334ZM11.8043 20.7367C11.8139 20.6693 11.8187 20.6067 11.8187 20.549C11.8187 20.0097 11.5535 19.7401 11.0231 19.7401H7.1896L5.56941 27.3667H9.4029C9.65365 27.3667 9.89957 27.2656 10.1407 27.0634C10.3914 26.8516 10.5457 26.6156 10.6036 26.3556L11.8043 20.7367Z" fill="#31373E"/>
<path d="M22.0275 30.8334C21.0149 30.8334 20.1758 30.4964 19.5104 29.8223C18.845 29.1386 18.5123 28.3056 18.5123 27.3234C18.5123 27.0441 18.5412 26.7649 18.599 26.4856L19.8142 20.7512C20.0649 19.5667 20.7159 18.546 21.7671 17.689C22.8279 16.8223 23.9466 16.389 25.1232 16.389H30.8373C31.8596 16.389 32.7034 16.726 33.3688 17.4001C34.0343 18.0741 34.367 18.9023 34.367 19.8845C34.367 20.1734 34.3381 20.4623 34.2802 20.7512L34.2368 20.9678C33.9861 22.1523 33.3351 23.1778 32.2839 24.0445C31.2423 24.9016 30.1285 25.3301 28.9422 25.3301H23.6621L23.4307 26.3845C23.421 26.4519 23.4162 26.5145 23.4162 26.5723C23.4162 26.8034 23.4934 27.0008 23.6477 27.1645C23.802 27.3186 23.9949 27.3956 24.2263 27.3956H32.8625L32.1392 30.8334H22.0275ZM28.6674 19.8267H25.8465C25.5668 19.8267 25.3065 19.9278 25.0654 20.1301C24.8243 20.3227 24.6748 20.5538 24.6169 20.8234L24.3999 21.8923H28.2189C28.5372 21.8923 28.8217 21.7623 29.0724 21.5023C29.3328 21.2423 29.463 20.9534 29.463 20.6356C29.463 20.0964 29.1978 19.8267 28.6674 19.8267Z" fill="#31373E"/>
<path d="M88.3844 30.8334L92.6908 10.6134H98.9201L94.6137 30.8334H88.3844Z" fill="#31373E"/>
<path d="M115.2 15.5934L111.975 30.8334H105.325L108.57 15.5934H102.881L103.883 10.8334H121.91L120.908 15.5934H115.2Z" fill="#31373E"/>
<path d="M137.616 15.5934L134.391 30.8334H127.741L130.986 15.5934H125.298L126.299 10.8334H144.326L143.324 15.5934H137.616Z" fill="#31373E"/>
<path d="M151.07 30.8334C149.681 30.8334 148.526 30.3667 147.605 29.4334C146.697 28.5001 146.243 27.3534 146.243 25.9934C146.243 25.5934 146.283 25.1934 146.363 24.7934L148.066 16.8334C148.399 15.2467 149.294 13.8534 150.75 12.6534C152.205 11.4401 153.721 10.8334 155.296 10.8334H165.351L164.35 15.5934H156.298C155.924 15.5934 155.57 15.7334 155.236 16.0134C154.903 16.2801 154.702 16.6001 154.635 16.9734L154.315 18.4534H163.729L162.728 23.2134H153.293L152.993 24.6734C152.966 24.7534 152.953 24.8401 152.953 24.9334C152.953 25.2401 153.06 25.5067 153.273 25.7334C153.487 25.9601 153.747 26.0734 154.055 26.0734H162.107L161.105 30.8334H151.07Z" fill="#31373E"/>
<path d="M181.325 23.1734L183.528 30.8334H176.738L174.555 23.2134H173.413L171.791 30.8334H165.121L169.367 10.8334H183.348C184.75 10.8334 185.912 11.3067 186.833 12.2534C187.768 13.1867 188.235 14.3401 188.235 15.7134C188.235 16.1001 188.195 16.4867 188.115 16.8734L188.055 17.1934C187.721 18.7401 186.907 20.0801 185.611 21.2134C184.316 22.3334 182.887 22.9867 181.325 23.1734ZM180.344 15.5934H175.036L174.435 18.4534H179.723C180.163 18.4534 180.557 18.2734 180.904 17.9134C181.265 17.5401 181.445 17.1334 181.445 16.6934C181.445 15.9601 181.078 15.5934 180.344 15.5934Z" fill="#31373E"/>
<defs>
<linearGradient id="paint0_linear_2730_12023" x1="60.3813" y1="0" x2="60.3813" y2="17.8884" gradientUnits="userSpaceOnUse">
<stop offset="0.0208333" stop-color="#FF8A50"/>
<stop offset="0.669043" stop-color="#FF6D24"/>
</linearGradient>
<linearGradient id="paint1_linear_2730_12023" x1="64.6892" y1="19.8729" x2="64.6892" y2="40" gradientUnits="userSpaceOnUse">
<stop offset="0.0208333" stop-color="#FF8A50"/>
<stop offset="0.669043" stop-color="#FF6D24"/>
</linearGradient>
</defs>
</svg>
