<svg width="40" height="40" viewBox="0 0 40 40" fill="none" xmlns="http://www.w3.org/2000/svg">
<path d="M26.6663 6.25H13.333C12.6497 6.25 12.083 5.68333 12.083 5C12.083 4.31667 12.6497 3.75 13.333 3.75H26.6663C27.3497 3.75 27.9163 4.31667 27.9163 5C27.9163 5.68333 27.3497 6.25 26.6663 6.25Z" fill="#5A6178"/>
<path d="M26.6663 36.25H13.333C12.6497 36.25 12.083 35.6833 12.083 35C12.083 34.3167 12.6497 33.75 13.333 33.75H26.6663C27.3497 33.75 27.9163 34.3167 27.9163 35C27.9163 35.6833 27.3497 36.25 26.6663 36.25Z" fill="#5A6178"/>
<path d="M25.833 8.33301H14.1663C10.283 8.33301 8.33301 10.283 8.33301 14.1663V25.833C8.33301 29.7163 10.283 31.6663 14.1663 31.6663H25.833C29.7163 31.6663 31.6663 29.7163 31.6663 25.833V14.1663C31.6663 10.283 29.7163 8.33301 25.833 8.33301ZM24.1663 22.083H19.1663C18.483 22.083 17.9163 21.5163 17.9163 20.833V15.833C17.9163 15.1497 18.483 14.583 19.1663 14.583C19.8497 14.583 20.4163 15.1497 20.4163 15.833V19.583H24.1663C24.8497 19.583 25.4163 20.1497 25.4163 20.833C25.4163 21.5163 24.8497 22.083 24.1663 22.083Z" fill="#5A6178"/>
</svg>
