<svg width="25" height="25" viewBox="0 0 25 25" fill="none" xmlns="http://www.w3.org/2000/svg">
<path d="M10.4386 18.825C10.2486 18.825 10.0586 18.755 9.90859 18.605L3.83859 12.535C3.54859 12.245 3.54859 11.765 3.83859 11.475L9.90859 5.405C10.1986 5.115 10.6786 5.115 10.9686 5.405C11.2586 5.695 11.2586 6.175 10.9686 6.465L5.42859 12.005L10.9686 17.545C11.2586 17.835 11.2586 18.315 10.9686 18.605C10.8286 18.755 10.6286 18.825 10.4386 18.825Z" fill="#5A6178"/>
<path d="M21.3681 12.7539H4.53809C4.12809 12.7539 3.78809 12.4139 3.78809 12.0039C3.78809 11.5939 4.12809 11.2539 4.53809 11.2539H21.3681C21.7781 11.2539 22.1181 11.5939 22.1181 12.0039C22.1181 12.4139 21.7781 12.7539 21.3681 12.7539Z" fill="#5A6178"/>
</svg>
