<svg width="36" height="36" viewBox="0 0 36 36" fill="none" xmlns="http://www.w3.org/2000/svg">
<path d="M26.8393 30.8572C25.6208 30.8572 24.4297 30.4959 23.4166 29.8189C22.4035 29.142 21.6138 28.1798 21.1475 27.0541C20.6812 25.9283 20.5592 24.6896 20.7969 23.4946C21.0347 22.2995 21.6214 21.2018 22.483 20.3402C23.3446 19.4786 24.4423 18.8918 25.6374 18.6541C26.8325 18.4164 28.0712 18.5384 29.1969 19.0047C30.3226 19.471 31.2848 20.2606 31.9617 21.2738C32.6387 22.2869 33 23.478 33 24.6965C32.9982 26.3298 32.3486 27.8958 31.1936 29.0508C30.0386 30.2058 28.4727 30.8554 26.8393 30.8572ZM26.8393 20.6786C26.0446 20.6786 25.2678 20.9142 24.6071 21.3557C23.9464 21.7972 23.4314 22.4247 23.1273 23.1589C22.8232 23.8931 22.7436 24.7009 22.8986 25.4803C23.0537 26.2597 23.4363 26.9756 23.9982 27.5375C24.5601 28.0994 25.2761 28.4821 26.0554 28.6371C26.8348 28.7921 27.6427 28.7126 28.3769 28.4085C29.111 28.1044 29.7385 27.5894 30.18 26.9287C30.6215 26.2679 30.8571 25.4911 30.8571 24.6965C30.8559 23.6312 30.4322 22.61 29.679 21.8568C28.9257 21.1036 27.9045 20.6798 26.8393 20.6786ZM9.16072 30.8572C7.94224 30.8572 6.75113 30.4959 5.73801 29.8189C4.72488 29.142 3.93525 28.1798 3.46896 27.0541C3.00267 25.9283 2.88067 24.6896 3.11838 23.4946C3.35609 22.2995 3.94284 21.2018 4.80443 20.3402C5.66603 19.4786 6.76376 18.8918 7.95882 18.6541C9.15388 18.4164 10.3926 18.5384 11.5183 19.0047C12.644 19.471 13.6062 20.2606 14.2832 21.2738C14.9601 22.2869 15.3214 23.478 15.3214 24.6965C15.3197 26.3298 14.67 27.8958 13.515 29.0508C12.3601 30.2058 10.7941 30.8554 9.16072 30.8572ZM9.16072 20.6786C8.36606 20.6786 7.58925 20.9142 6.92852 21.3557C6.26778 21.7972 5.7528 22.4247 5.4487 23.1589C5.1446 23.8931 5.06503 24.7009 5.22006 25.4803C5.37509 26.2597 5.75776 26.9756 6.31966 27.5375C6.88157 28.0994 7.59748 28.4821 8.37687 28.6371C9.15626 28.7921 9.96412 28.7126 10.6983 28.4085C11.4325 28.1044 12.06 27.5894 12.5014 26.9287C12.9429 26.2679 13.1786 25.4911 13.1786 24.6965C13.1773 23.6312 12.7536 22.61 12.0004 21.8568C11.2472 21.1036 10.2259 20.6798 9.16072 20.6786ZM22.2857 9.4286C22.568 9.42958 22.8476 9.3746 23.1085 9.26684C23.3693 9.15908 23.6062 9.00068 23.8055 8.80079C24.0048 8.6009 24.1624 8.36349 24.2694 8.10229C24.3763 7.8411 24.4304 7.56129 24.4286 7.27905C24.4317 6.99822 24.3788 6.71959 24.273 6.45945C24.1671 6.1993 24.0105 5.96287 23.8122 5.76397C23.614 5.56507 23.378 5.4077 23.1182 5.30106C22.8584 5.19442 22.5799 5.14065 22.2991 5.14289C22.0177 5.14201 21.7389 5.19657 21.4786 5.30344C21.2182 5.41032 20.9815 5.56742 20.7819 5.76578C20.5823 5.96414 20.4237 6.19988 20.3152 6.45952C20.2067 6.71917 20.1504 6.99765 20.1496 7.27905C20.1487 7.56045 20.2032 7.83928 20.3101 8.0996C20.417 8.35992 20.5741 8.59664 20.7724 8.79624C20.9708 8.99585 21.2065 9.15443 21.4662 9.26293C21.7258 9.37143 22.0043 9.42772 22.2857 9.4286Z" fill="white"/>
<path d="M25.4697 13.7143H22.5394C22.4913 13.7143 22.4441 13.7013 22.4028 13.6768C22.3614 13.6523 22.3274 13.6171 22.3043 13.575L20.1789 9.67966C20.0291 9.39019 19.8133 9.14004 19.5489 8.94946C19.2845 8.75889 18.9789 8.63326 18.657 8.58272C18.335 8.53219 18.0056 8.55818 17.6956 8.65859C17.3855 8.759 17.1034 8.93101 16.8722 9.16069L12.1941 13.875C11.801 14.2761 11.578 14.8134 11.5713 15.375C11.5713 16.5402 12.415 16.9553 12.8101 17.1897C14.7186 18.2893 16.0626 19.0935 16.7999 19.5402C16.8391 19.564 16.8715 19.5975 16.894 19.6375C16.9165 19.6775 16.9284 19.7226 16.9284 19.7685V24.3971C16.9284 24.9736 17.3717 25.4685 17.9483 25.4973C18.0931 25.5043 18.2377 25.4818 18.3735 25.4313C18.5094 25.3807 18.6335 25.3031 18.7385 25.2032C18.8435 25.1033 18.9271 24.9832 18.9843 24.85C19.0415 24.7168 19.0711 24.5735 19.0713 24.4285V18.6696C19.0714 18.4995 19.031 18.3319 18.9534 18.1805C18.8759 18.0291 18.7634 17.8984 18.6253 17.7991L16.1476 16.0172C16.1165 15.9949 16.0906 15.9663 16.0715 15.9331C16.0523 15.9 16.0406 15.8632 16.0369 15.8251C16.0332 15.787 16.0377 15.7486 16.0501 15.7124C16.0625 15.6763 16.0825 15.6432 16.1088 15.6154L18.9213 12.616C18.9501 12.5852 18.9858 12.5616 19.0255 12.5472C19.0652 12.5327 19.1078 12.5279 19.1497 12.5331C19.1916 12.5382 19.2317 12.5532 19.2667 12.5768C19.3018 12.6005 19.3307 12.632 19.3512 12.6689L20.8124 15.306C20.9052 15.4732 21.0411 15.6124 21.206 15.7093C21.3708 15.8063 21.5586 15.8573 21.7499 15.8571H25.4999C25.645 15.8573 25.7887 15.828 25.9221 15.7709C26.0556 15.7139 26.1761 15.6303 26.2763 15.5253C26.3765 15.4203 26.4543 15.296 26.505 15.16C26.5557 15.024 26.5783 14.8791 26.5713 14.7341C26.5432 14.1576 26.0463 13.7143 25.4697 13.7143Z" fill="white"/>
</svg>
