<svg width="36" height="36" viewBox="0 0 36 36" fill="none" xmlns="http://www.w3.org/2000/svg">
<path d="M18.8376 24.8129C19.2999 24.8129 19.6746 24.4381 19.6746 23.9759C19.6746 23.5136 19.2999 23.1388 18.8376 23.1388C18.3753 23.1388 18.0005 23.5136 18.0005 23.9759C18.0005 24.4381 18.3753 24.8129 18.8376 24.8129Z" fill="white"/>
<path d="M25.5633 22.3318C26.0255 22.3318 26.4003 21.957 26.4003 21.4947C26.4003 21.0324 26.0255 20.6577 25.5633 20.6577C25.101 20.6577 24.7262 21.0324 24.7262 21.4947C24.7262 21.957 25.101 22.3318 25.5633 22.3318Z" fill="white"/>
<path d="M26.823 15.1875C27.2853 15.1875 27.66 14.8128 27.66 14.3505C27.66 13.8882 27.2853 13.5134 26.823 13.5134C26.3607 13.5134 25.9859 13.8882 25.9859 14.3505C25.9859 14.8128 26.3607 15.1875 26.823 15.1875Z" fill="white"/>
<path d="M15.3119 11.446C14.7893 12.1924 14.7091 13.1425 15.1035 13.9709L17.1246 15.3861C18.0379 15.4734 18.9033 15.0731 19.4259 14.3267C20.799 12.3658 19.9329 9.82816 19.2944 8.49005C19.1492 8.18592 18.85 8.00305 18.5134 8.01271C18.1779 8.02242 17.8908 8.22141 17.764 8.53212C17.5414 9.0776 17.3155 9.49836 17.0927 9.78274C16.814 10.1383 16.5894 10.2863 16.3516 10.443C16.058 10.6364 15.7253 10.8557 15.3119 11.446Z" fill="white"/>
<path d="M16.1195 16.726C15.7503 17.7855 14.8674 19.3776 13.1808 21.7863C9.82219 26.583 4.56499 32.7843 3.80762 32.2539C3.05026 31.7236 7.0795 24.6625 10.4381 19.8658C12.1248 17.4571 13.3188 16.0829 14.1882 15.3736L16.1195 16.726Z" fill="white"/>
<path d="M12.3322 25.7676C12.4298 26.1079 12.5588 26.4412 12.7203 26.7633C13.4784 28.2749 14.8686 29.3373 16.5345 29.6781C16.652 29.7022 16.7724 29.7251 16.8918 29.7462C17.661 29.8818 18.4318 29.9488 19.1969 29.9489C21.863 29.9489 24.4612 29.135 26.6908 27.5738C29.5601 25.5647 31.4753 22.5584 32.0836 19.1088C32.6918 15.6592 31.9204 12.1792 29.9112 9.3098C27.9021 6.44044 24.8958 4.52526 21.4462 3.91695C17.9968 3.30886 14.5166 4.08017 11.6472 6.08938C8.77782 8.09847 6.86264 11.1048 6.25433 14.5544L6.22899 14.6993C6.09412 15.4702 6.35383 16.2454 6.92375 16.7727C7.5194 17.3237 8.35422 17.5298 9.15701 17.3242C9.51778 17.2317 9.89496 17.2077 10.2683 17.2514C11.3876 15.7742 12.331 14.7283 13.1298 14.0765L13.3155 13.925C13.0172 12.7545 13.2349 11.4936 13.9405 10.4858C14.5371 9.63363 15.0748 9.27939 15.4306 9.04501C15.6198 8.92023 15.6648 8.8906 15.775 8.75003C15.8327 8.67643 15.9909 8.44624 16.214 7.89953C16.5892 6.98023 17.4729 6.36778 18.4655 6.33927C18.4899 6.33854 18.5145 6.33815 18.5388 6.33815C19.5156 6.33815 20.384 6.88636 20.8054 7.76912C22.1789 10.648 22.176 13.3179 20.7973 15.287C20.0931 16.2925 18.9859 16.9332 17.7788 17.0518L17.7004 17.2768C17.2461 18.5807 16.2163 20.3699 14.5521 22.7466C13.8707 23.7197 13.1146 24.7473 12.3322 25.7676ZM26.823 16.8616C25.4383 16.8616 24.3118 15.7351 24.3118 14.3504C24.3118 12.9658 25.4383 11.8393 26.823 11.8393C28.2076 11.8393 29.3341 12.9658 29.3341 14.3504C29.3341 15.7351 28.2076 16.8616 26.823 16.8616ZM23.0521 21.4947C23.0521 20.1101 24.1786 18.9836 25.5633 18.9836C26.9479 18.9836 28.0744 20.1101 28.0744 21.4947C28.0744 22.8794 26.9479 24.0059 25.5633 24.0059C24.1786 24.0059 23.0521 22.8794 23.0521 21.4947ZM16.3264 23.9759C16.3264 22.5912 17.4529 21.4647 18.8376 21.4647C20.2222 21.4647 21.3488 22.5912 21.3488 23.9759C21.3488 25.3605 20.2222 26.487 18.8376 26.487C17.4529 26.487 16.3264 25.3605 16.3264 23.9759Z" fill="white"/>
</svg>
