<svg width="38" height="15" viewBox="0 0 38 15" fill="none" xmlns="http://www.w3.org/2000/svg">
<rect width="38" height="15" rx="4" fill="#D9F2FD"/>
<path d="M7.18647 9.5V5.06H8.11647L9.32247 7.586L10.5465 5.06H11.4645V9.5H10.7745V6.104L9.65247 8.396H8.99847L7.87647 6.092V9.5H7.18647ZM13.6802 6.26C13.8802 6.26 14.0462 6.292 14.1782 6.356C14.3142 6.42 14.4222 6.494 14.5022 6.578C14.5822 6.662 14.6402 6.734 14.6762 6.794H14.7122V6.32H15.3962V9.5H14.7122V9.026H14.6762C14.6402 9.086 14.5822 9.158 14.5022 9.242C14.4222 9.326 14.3142 9.4 14.1782 9.464C14.0462 9.528 13.8802 9.56 13.6802 9.56C13.4402 9.56 13.2302 9.514 13.0502 9.422C12.8742 9.326 12.7262 9.2 12.6062 9.044C12.4862 8.884 12.3962 8.706 12.3362 8.51C12.2802 8.314 12.2522 8.114 12.2522 7.91C12.2522 7.706 12.2802 7.506 12.3362 7.31C12.3962 7.114 12.4862 6.938 12.6062 6.782C12.7262 6.622 12.8742 6.496 13.0502 6.404C13.2302 6.308 13.4402 6.26 13.6802 6.26ZM13.8302 6.83C13.6342 6.83 13.4702 6.884 13.3382 6.992C13.2062 7.096 13.1062 7.23 13.0382 7.394C12.9742 7.558 12.9422 7.73 12.9422 7.91C12.9422 8.09 12.9742 8.262 13.0382 8.426C13.1062 8.59 13.2062 8.726 13.3382 8.834C13.4702 8.938 13.6342 8.99 13.8302 8.99C14.0262 8.99 14.1882 8.938 14.3162 8.834C14.4482 8.726 14.5462 8.59 14.6102 8.426C14.6782 8.262 14.7122 8.09 14.7122 7.91C14.7122 7.73 14.6782 7.558 14.6102 7.394C14.5462 7.23 14.4482 7.096 14.3162 6.992C14.1882 6.884 14.0262 6.83 13.8302 6.83ZM16.0409 9.5L17.0549 7.916L16.0349 6.32H16.7609L17.5169 7.508L18.2789 6.32H19.0049L17.9669 7.916L18.9989 9.5H18.2729L17.5169 8.312L16.7669 9.5H16.0409ZM23.0409 10.748C22.6929 10.7 22.3869 10.58 22.1229 10.388C21.8589 10.196 21.6389 9.954 21.4629 9.662C21.2869 9.374 21.1529 9.054 21.0609 8.702C20.9729 8.35 20.9289 7.99 20.9289 7.622C20.9289 7.25 20.9729 6.89 21.0609 6.542C21.1529 6.19 21.2869 5.87 21.4629 5.582C21.6389 5.29 21.8589 5.048 22.1229 4.856C22.3869 4.664 22.6929 4.544 23.0409 4.496V5.12C22.8129 5.168 22.6109 5.27 22.4349 5.426C22.2589 5.582 22.1109 5.776 21.9909 6.008C21.8709 6.24 21.7789 6.494 21.7149 6.77C21.6549 7.046 21.6249 7.33 21.6249 7.622C21.6249 7.914 21.6549 8.198 21.7149 8.474C21.7789 8.75 21.8709 9.004 21.9909 9.236C22.1109 9.468 22.2589 9.662 22.4349 9.818C22.6109 9.974 22.8129 10.076 23.0409 10.124V10.748ZM25.2749 9.56C24.9429 9.56 24.6589 9.496 24.4229 9.368C24.1869 9.24 24.0069 9.07 23.8829 8.858C23.7589 8.646 23.6969 8.412 23.6969 8.156H24.3569C24.3569 8.404 24.4429 8.602 24.6149 8.75C24.7869 8.898 25.0069 8.972 25.2749 8.972C25.4349 8.972 25.5809 8.942 25.7129 8.882C25.8489 8.822 25.9569 8.734 26.0369 8.618C26.1169 8.502 26.1569 8.362 26.1569 8.198C26.1569 7.986 26.0849 7.816 25.9409 7.688C25.7969 7.56 25.6009 7.496 25.3529 7.496H24.7529V6.95H25.3529C25.5609 6.95 25.7349 6.89 25.8749 6.77C26.0189 6.646 26.0909 6.486 26.0909 6.29C26.0909 6.146 26.0529 6.022 25.9769 5.918C25.9049 5.81 25.8069 5.728 25.6829 5.672C25.5589 5.612 25.4229 5.582 25.2749 5.582C25.0349 5.582 24.8329 5.66 24.6689 5.816C24.5089 5.968 24.4289 6.166 24.4289 6.41H23.7809C23.7809 6.158 23.8409 5.926 23.9609 5.714C24.0809 5.498 24.2529 5.326 24.4769 5.198C24.7049 5.066 24.9749 5 25.2869 5C25.5389 5 25.7769 5.05 26.0009 5.15C26.2289 5.246 26.4129 5.386 26.5529 5.57C26.6969 5.754 26.7689 5.974 26.7689 6.23C26.7689 6.478 26.7029 6.684 26.5709 6.848C26.4429 7.012 26.2909 7.128 26.1149 7.196V7.226C26.3229 7.298 26.4969 7.418 26.6369 7.586C26.7809 7.754 26.8529 7.968 26.8529 8.228C26.8529 8.508 26.7789 8.748 26.6309 8.948C26.4869 9.144 26.2949 9.296 26.0549 9.404C25.8149 9.508 25.5549 9.56 25.2749 9.56ZM29.2844 9.554C29.0004 9.554 28.7484 9.494 28.5284 9.374C28.3124 9.254 28.1304 9.088 27.9824 8.876C27.8344 8.664 27.7224 8.422 27.6464 8.15C27.5704 7.874 27.5324 7.582 27.5324 7.274C27.5324 6.966 27.5704 6.676 27.6464 6.404C27.7224 6.128 27.8344 5.884 27.9824 5.672C28.1304 5.46 28.3124 5.294 28.5284 5.174C28.7484 5.054 29.0004 4.994 29.2844 4.994C29.5684 4.994 29.8184 5.054 30.0344 5.174C30.2544 5.294 30.4384 5.46 30.5864 5.672C30.7344 5.884 30.8464 6.128 30.9224 6.404C30.9984 6.676 31.0364 6.966 31.0364 7.274C31.0364 7.582 30.9984 7.874 30.9224 8.15C30.8464 8.422 30.7344 8.664 30.5864 8.876C30.4384 9.088 30.2544 9.254 30.0344 9.374C29.8184 9.494 29.5684 9.554 29.2844 9.554ZM29.2844 8.924C29.5804 8.924 29.8264 8.786 30.0224 8.51C30.2184 8.23 30.3164 7.818 30.3164 7.274C30.3164 6.734 30.2184 6.326 30.0224 6.05C29.8264 5.774 29.5804 5.636 29.2844 5.636C28.9884 5.636 28.7424 5.774 28.5464 6.05C28.3504 6.326 28.2524 6.734 28.2524 7.274C28.2524 7.814 28.3484 8.224 28.5404 8.504C28.7364 8.784 28.9844 8.924 29.2844 8.924ZM31.586 4.496C31.934 4.544 32.24 4.664 32.504 4.856C32.768 5.048 32.988 5.29 33.164 5.582C33.34 5.87 33.472 6.19 33.56 6.542C33.652 6.894 33.698 7.254 33.698 7.622C33.698 7.994 33.652 8.356 33.56 8.708C33.472 9.056 33.34 9.374 33.164 9.662C32.988 9.954 32.768 10.196 32.504 10.388C32.24 10.58 31.934 10.7 31.586 10.748V10.124C31.814 10.076 32.016 9.974 32.192 9.818C32.368 9.662 32.516 9.468 32.636 9.236C32.756 9.004 32.846 8.75 32.906 8.474C32.97 8.198 33.002 7.914 33.002 7.622C33.002 7.33 32.97 7.046 32.906 6.77C32.846 6.494 32.756 6.24 32.636 6.008C32.516 5.776 32.368 5.582 32.192 5.426C32.016 5.27 31.814 5.168 31.586 5.12V4.496Z" fill="#55C8FC"/>
</svg>
