<svg width="38" height="15" viewBox="0 0 38 15" fill="none" xmlns="http://www.w3.org/2000/svg">
<rect width="38" height="15" rx="4" fill="#D9F2FD"/>
<path d="M9.40913 9.5V5.06H10.3391L11.5451 7.586L12.7691 5.06H13.6871V9.5H12.9971V6.104L11.8751 8.396H11.2211L10.0991 6.092V9.5H9.40913ZM14.9665 5.774C14.8425 5.774 14.7405 5.732 14.6605 5.648C14.5805 5.564 14.5405 5.466 14.5405 5.354C14.5405 5.238 14.5805 5.14 14.6605 5.06C14.7405 4.976 14.8425 4.934 14.9665 4.934C15.0905 4.934 15.1925 4.976 15.2725 5.06C15.3565 5.14 15.3985 5.238 15.3985 5.354C15.3985 5.47 15.3565 5.57 15.2725 5.654C15.1925 5.734 15.0905 5.774 14.9665 5.774ZM14.6305 9.5V6.32H15.3145V9.5H14.6305ZM16.1929 9.5V6.32H16.8769V6.782H16.9129C16.9409 6.726 16.9889 6.658 17.0569 6.578C17.1249 6.494 17.2189 6.42 17.3389 6.356C17.4629 6.292 17.6189 6.26 17.8069 6.26C18.0429 6.26 18.2409 6.314 18.4009 6.422C18.5609 6.53 18.6809 6.674 18.7609 6.854C18.8449 7.034 18.8869 7.232 18.8869 7.448V9.5H18.2029V7.52C18.2029 7.328 18.1489 7.166 18.0409 7.034C17.9369 6.902 17.7809 6.836 17.5729 6.836C17.4089 6.836 17.2749 6.878 17.1709 6.962C17.0709 7.042 16.9969 7.148 16.9489 7.28C16.9009 7.408 16.8769 7.546 16.8769 7.694V9.5H16.1929ZM23.078 10.748C22.73 10.7 22.424 10.58 22.16 10.388C21.896 10.196 21.676 9.954 21.5 9.662C21.324 9.374 21.19 9.054 21.098 8.702C21.01 8.35 20.966 7.99 20.966 7.622C20.966 7.25 21.01 6.89 21.098 6.542C21.19 6.19 21.324 5.87 21.5 5.582C21.676 5.29 21.896 5.048 22.16 4.856C22.424 4.664 22.73 4.544 23.078 4.496V5.12C22.85 5.168 22.648 5.27 22.472 5.426C22.296 5.582 22.148 5.776 22.028 6.008C21.908 6.24 21.816 6.494 21.752 6.77C21.692 7.046 21.662 7.33 21.662 7.622C21.662 7.914 21.692 8.198 21.752 8.474C21.816 8.75 21.908 9.004 22.028 9.236C22.148 9.468 22.296 9.662 22.472 9.818C22.648 9.974 22.85 10.076 23.078 10.124V10.748ZM25.312 9.56C24.98 9.56 24.696 9.496 24.46 9.368C24.224 9.24 24.044 9.07 23.92 8.858C23.796 8.646 23.734 8.412 23.734 8.156H24.394C24.394 8.404 24.48 8.602 24.652 8.75C24.824 8.898 25.044 8.972 25.312 8.972C25.472 8.972 25.618 8.942 25.75 8.882C25.886 8.822 25.994 8.734 26.074 8.618C26.154 8.502 26.194 8.362 26.194 8.198C26.194 7.986 26.122 7.816 25.978 7.688C25.834 7.56 25.638 7.496 25.39 7.496H24.79V6.95H25.39C25.598 6.95 25.772 6.89 25.912 6.77C26.056 6.646 26.128 6.486 26.128 6.29C26.128 6.146 26.09 6.022 26.014 5.918C25.942 5.81 25.844 5.728 25.72 5.672C25.596 5.612 25.46 5.582 25.312 5.582C25.072 5.582 24.87 5.66 24.706 5.816C24.546 5.968 24.466 6.166 24.466 6.41H23.818C23.818 6.158 23.878 5.926 23.998 5.714C24.118 5.498 24.29 5.326 24.514 5.198C24.742 5.066 25.012 5 25.324 5C25.576 5 25.814 5.05 26.038 5.15C26.266 5.246 26.45 5.386 26.59 5.57C26.734 5.754 26.806 5.974 26.806 6.23C26.806 6.478 26.74 6.684 26.608 6.848C26.48 7.012 26.328 7.128 26.152 7.196V7.226C26.36 7.298 26.534 7.418 26.674 7.586C26.818 7.754 26.89 7.968 26.89 8.228C26.89 8.508 26.816 8.748 26.668 8.948C26.524 9.144 26.332 9.296 26.092 9.404C25.852 9.508 25.592 9.56 25.312 9.56ZM27.586 4.496C27.934 4.544 28.24 4.664 28.504 4.856C28.768 5.048 28.988 5.29 29.164 5.582C29.34 5.87 29.472 6.19 29.56 6.542C29.652 6.894 29.698 7.254 29.698 7.622C29.698 7.994 29.652 8.356 29.56 8.708C29.472 9.056 29.34 9.374 29.164 9.662C28.988 9.954 28.768 10.196 28.504 10.388C28.24 10.58 27.934 10.7 27.586 10.748V10.124C27.814 10.076 28.016 9.974 28.192 9.818C28.368 9.662 28.516 9.468 28.636 9.236C28.756 9.004 28.846 8.75 28.906 8.474C28.97 8.198 29.002 7.914 29.002 7.622C29.002 7.33 28.97 7.046 28.906 6.77C28.846 6.494 28.756 6.24 28.636 6.008C28.516 5.776 28.368 5.582 28.192 5.426C28.016 5.27 27.814 5.168 27.586 5.12V4.496Z" fill="#55C8FC"/>
</svg>
