<svg width="36" height="36" viewBox="0 0 36 36" fill="none" xmlns="http://www.w3.org/2000/svg">
<path d="M20.1433 8.71428C19.3576 8.71428 18.6852 8.43428 18.1261 7.87428C17.5661 7.31524 17.2861 6.64286 17.2861 5.85714C17.2861 5.07143 17.5661 4.39857 18.1261 3.83857C18.6852 3.27952 19.3576 3 20.1433 3C20.929 3 21.6018 3.27952 22.1618 3.83857C22.7209 4.39857 23.0004 5.07143 23.0004 5.85714C23.0004 6.64286 22.7209 7.31524 22.1618 7.87428C21.6018 8.43428 20.929 8.71428 20.1433 8.71428ZM20.8576 33.7143C20.4528 33.7143 20.1137 33.5771 19.8404 33.3029C19.5661 33.0295 19.429 32.6905 19.429 32.2857V25.1429L16.429 22.2857L15.6076 25.8571C15.4171 26.619 15.0004 27.2086 14.3576 27.6257C13.7147 28.0419 13.0123 28.1667 12.2504 28L6.57184 26.8571C6.16708 26.7857 5.85184 26.5833 5.62613 26.25C5.39946 25.9167 5.33375 25.5476 5.42898 25.1429C5.50041 24.7381 5.70279 24.4224 6.03613 24.1957C6.36946 23.97 6.73851 23.9048 7.14327 24L12.5718 25.1429L14.8576 13.5714L12.2861 14.5714V18C12.2861 18.4048 12.1495 18.7438 11.8761 19.0171C11.6018 19.2914 11.2623 19.4286 10.8576 19.4286C10.4528 19.4286 10.1133 19.2914 9.83898 19.0171C9.56565 18.7438 9.42898 18.4048 9.42898 18V14.6071C9.42898 14.0357 9.58375 13.5057 9.89327 13.0171C10.2028 12.5295 10.6195 12.1786 11.1433 11.9643L15.0718 10.2857C15.9052 9.92857 16.5185 9.69619 16.9118 9.58857C17.3042 9.4819 17.6671 9.42857 18.0004 9.42857C18.5004 9.42857 18.9647 9.55952 19.3933 9.82143C19.8218 10.0833 20.1671 10.4286 20.429 10.8571L21.8576 13.1429C22.3814 13.9762 23.0661 14.6905 23.9118 15.2857C24.7566 15.8809 25.7147 16.2738 26.7861 16.4643C27.1433 16.5119 27.4352 16.6667 27.6618 16.9286C27.8876 17.1905 28.0004 17.4881 28.0004 17.8214C28.0004 18.2738 27.8399 18.6548 27.519 18.9643C27.1971 19.2738 26.8218 19.3929 26.3933 19.3214C25.1314 19.1309 23.9647 18.7319 22.8933 18.1243C21.8218 17.5176 20.9052 16.7619 20.1433 15.8571L19.2861 20.1429L21.3933 22.1429C21.679 22.4286 21.8995 22.7438 22.0547 23.0886C22.209 23.4343 22.2861 23.8095 22.2861 24.2143V32.2857C22.2861 32.6905 22.1495 33.0295 21.8761 33.3029C21.6018 33.5771 21.2623 33.7143 20.8576 33.7143Z" fill="white"/>
</svg>
