<svg width="36" height="36" viewBox="0 0 36 36" fill="none" xmlns="http://www.w3.org/2000/svg">
<path d="M14.4301 4.20959C14.6045 4.42141 14.7113 4.68063 14.7367 4.95377C14.7622 5.22691 14.7052 5.50141 14.573 5.7418C13.5405 7.63737 13.0013 9.76214 13.005 11.9206C13.005 19.1013 18.8591 24.9158 26.0741 24.9158C27.0152 24.9158 27.9314 24.8176 28.8118 24.6301C29.0817 24.5716 29.3629 24.594 29.6201 24.6944C29.8774 24.7947 30.0994 24.9686 30.2584 25.1944C30.4263 25.4291 30.5118 25.7128 30.5018 26.0012C30.4918 26.2896 30.3868 26.5666 30.203 26.7891C28.8023 28.5096 27.0353 29.8958 25.0308 30.8468C23.0263 31.7977 20.8349 32.2893 18.6162 32.2858C10.3833 32.2858 3.71484 25.6533 3.71484 17.4816C3.71484 11.3313 7.4902 6.0561 12.8657 3.82029C13.1335 3.70713 13.4307 3.6839 13.7128 3.7541C13.9949 3.8243 14.2466 3.98414 14.4301 4.20959Z" fill="white"/>
<path d="M22.9916 9.33481C23.0173 9.25747 23.0666 9.19018 23.1326 9.14248C23.1987 9.09478 23.2781 9.06911 23.3595 9.06911C23.441 9.06911 23.5204 9.09478 23.5864 9.14248C23.6525 9.19018 23.7018 9.25747 23.7274 9.33481L24.4186 11.4099C24.7275 12.3349 25.4526 13.06 26.3777 13.3689L28.4529 14.06C28.5302 14.0856 28.5975 14.1349 28.6452 14.201C28.6929 14.267 28.7186 14.3464 28.7186 14.4279C28.7186 14.5093 28.6929 14.5887 28.6452 14.6548C28.5975 14.7208 28.5302 14.7701 28.4529 14.7957L26.3777 15.4869C25.9214 15.6389 25.5069 15.895 25.1668 16.2351C24.8268 16.5751 24.5706 16.9896 24.4186 17.4459L23.7274 19.5209C23.7018 19.5983 23.6525 19.6656 23.5864 19.7133C23.5204 19.761 23.441 19.7866 23.3595 19.7866C23.2781 19.7866 23.1987 19.761 23.1326 19.7133C23.0666 19.6656 23.0173 19.5983 22.9916 19.5209L22.3005 17.4459C22.1485 16.9896 21.8923 16.5751 21.5523 16.2351C21.2122 15.895 20.7976 15.6389 20.3414 15.4869L18.2662 14.7957C18.1889 14.7701 18.1216 14.7208 18.0739 14.6548C18.0262 14.5887 18.0005 14.5093 18.0005 14.4279C18.0005 14.3464 18.0262 14.267 18.0739 14.201C18.1216 14.1349 18.1889 14.0856 18.2662 14.06L20.3414 13.3689C20.7976 13.2169 21.2122 12.9607 21.5523 12.6207C21.8923 12.2807 22.1485 11.8661 22.3005 11.4099L22.9916 9.33481ZM28.4725 3.88994C28.4901 3.83909 28.5232 3.795 28.567 3.76379C28.6109 3.73259 28.6634 3.71582 28.7172 3.71582C28.771 3.71582 28.8235 3.73259 28.8673 3.76379C28.9112 3.795 28.9442 3.83909 28.9618 3.88994L29.4226 5.27214C29.628 5.89002 30.112 6.37397 30.7299 6.57934L32.1121 7.04007C32.163 7.0577 32.2071 7.09073 32.2383 7.13458C32.2695 7.17842 32.2863 7.23091 32.2863 7.28472C32.2863 7.33854 32.2695 7.39102 32.2383 7.43487C32.2071 7.47871 32.163 7.51175 32.1121 7.52938L30.7299 7.99011C30.4254 8.0914 30.1487 8.26229 29.9217 8.48921C29.6948 8.71612 29.5239 8.99281 29.4226 9.29731L28.9618 10.6795C28.9442 10.7304 28.9112 10.7744 28.8673 10.8057C28.8235 10.8369 28.771 10.8536 28.7172 10.8536C28.6634 10.8536 28.6109 10.8369 28.567 10.8057C28.5232 10.7744 28.4901 10.7304 28.4725 10.6795L28.0118 9.29731C27.9105 8.99281 27.7396 8.71612 27.5126 8.48921C27.2857 8.26229 27.009 8.0914 26.7045 7.99011L25.3222 7.52938C25.2714 7.51175 25.2273 7.47871 25.1961 7.43487C25.1649 7.39102 25.1481 7.33854 25.1481 7.28472C25.1481 7.23091 25.1649 7.17842 25.1961 7.13458C25.2273 7.09073 25.2714 7.0577 25.3222 7.04007L26.7045 6.57934C27.3224 6.37397 27.8064 5.89002 28.0118 5.27214L28.4725 3.89172V3.88994Z" fill="white"/>
</svg>
