<svg width="36" height="36" viewBox="0 0 36 36" fill="none" xmlns="http://www.w3.org/2000/svg">
<path d="M20.143 8.71428C21.7144 8.71428 23.0001 7.42857 23.0001 5.85714C23.0001 4.28571 21.7144 3 20.143 3C18.5716 3 17.2859 4.28571 17.2859 5.85714C17.2859 7.42857 18.5716 8.71428 20.143 8.71428ZM14.8573 13.5714L11.2001 32.0143C11.0144 32.8857 11.7001 33.7143 12.6001 33.7143H12.7144C13.3859 33.7143 13.9573 33.2571 14.1144 32.6L16.4287 22.2857L19.4287 25.1429V32.2857C19.4287 33.0714 20.0716 33.7143 20.8573 33.7143C21.643 33.7143 22.2859 33.0714 22.2859 32.2857V24.2286C22.2859 23.4429 21.9716 22.7 21.4001 22.1571L19.2859 20.1429L20.143 15.8571C21.7529 17.6976 23.9568 18.9158 26.3716 19.3C27.2287 19.4286 28.0001 18.7429 28.0001 17.8714C28.0001 17.1714 27.4859 16.5857 26.7859 16.4714C24.6144 16.1143 22.8144 14.8286 21.8573 13.1429L20.4287 10.8571C20.0429 10.2402 19.4502 9.78073 18.7566 9.56087C18.063 9.34101 17.3137 9.37513 16.643 9.65714L11.1716 11.9714C10.654 12.1926 10.2129 12.5611 9.90302 13.031C9.59316 13.5008 9.42822 14.0514 9.42871 14.6143V18C9.42871 18.7857 10.0716 19.4286 10.8573 19.4286C11.643 19.4286 12.2859 18.7857 12.2859 18V14.5714L14.8573 13.5714Z" fill="white"/>
</svg>
