<svg width="790" height="214" viewBox="0 0 790 214" fill="none" xmlns="http://www.w3.org/2000/svg">
<g filter="url(#filter0_d_2309_8173)">
<path d="M42.8347 70H16.776L24.6907 32.6667H50.7493C53.3876 32.6667 55.5653 33.5378 57.2827 35.28C59 37.0222 59.8587 39.1627 59.8587 41.7013C59.8587 42.448 59.784 43.1947 59.6347 43.9413C59.0622 46.6791 57.7556 49.056 55.7147 51.072C56.5111 52.4658 56.9093 53.984 56.9093 55.6267C56.9093 56.3733 56.8347 57.1324 56.6853 57.904L56.4987 58.7253C55.8516 61.7369 54.1591 64.3751 51.4213 66.64C48.7084 68.88 45.8462 70 42.8347 70ZM45.1493 41.552H35.256L34.136 46.8907H43.992C44.8133 46.8907 45.5476 46.5547 46.1947 45.8827C46.8667 45.1858 47.2027 44.4267 47.2027 43.6053C47.2027 42.2364 46.5182 41.552 45.1493 41.552ZM42.1253 55.776H32.232L31.112 61.1147H40.968C41.7893 61.1147 42.5236 60.7787 43.1707 60.1067C43.8427 59.4098 44.1787 58.6507 44.1787 57.8293C44.1787 56.4604 43.4942 55.776 42.1253 55.776ZM72.7277 70C70.1393 70 67.9864 69.1289 66.2691 67.3867C64.5766 65.6444 63.7304 63.504 63.7304 60.9653C63.7304 60.2187 63.8051 59.472 63.9544 58.7253L67.1277 43.8667C67.75 40.9049 69.4175 38.304 72.1304 36.064C74.8433 33.7991 77.6682 32.6667 80.6051 32.6667H99.3464L97.4797 41.552H82.4717C81.7748 41.552 81.1153 41.8133 80.4931 42.336C79.8708 42.8338 79.4975 43.4311 79.3731 44.128L78.7757 46.8907H96.3224L94.4557 55.776H76.8717L76.3117 58.5013C76.262 58.6507 76.2371 58.8124 76.2371 58.9867C76.2371 59.5591 76.4362 60.0569 76.8344 60.48C77.2326 60.9031 77.718 61.1147 78.2904 61.1147H93.2984L91.4317 70H72.7277ZM120.687 49.68L116.367 70H98.8206L106.767 32.6667C107.656 28.4 110.021 24.6667 113.861 21.4667C117.736 18.2667 121.79 16.6667 126.021 16.6667H152.794L150.127 29.36H128.687C127.692 29.36 126.75 29.7333 125.861 30.48C124.972 31.1911 124.438 32.0444 124.261 33.04L123.407 36.9867H148.474L145.807 49.68H120.687ZM152.073 70L163.54 16.08H180.127L168.66 70H152.073ZM223.474 29.36L214.887 70H197.181L205.821 29.36H190.674L193.341 16.6667H241.341L238.674 29.36H223.474ZM283.162 29.36L274.575 70H256.868L265.508 29.36H250.362L253.028 16.6667H301.028L298.362 29.36H283.162ZM318.986 70C315.288 70 312.213 68.7556 309.759 66.2667C307.342 63.7778 306.133 60.72 306.133 57.0933C306.133 56.0267 306.239 54.96 306.453 53.8933L310.986 32.6667C311.875 28.4356 314.257 24.72 318.133 21.52C322.008 18.2844 326.044 16.6667 330.239 16.6667H357.013L354.346 29.36H332.906C331.91 29.36 330.968 29.7333 330.079 30.48C329.19 31.1911 328.657 32.0444 328.479 33.04L327.626 36.9867H352.693L350.026 49.68H324.906L324.106 53.5733C324.035 53.7867 323.999 54.0178 323.999 54.2667C323.999 55.0844 324.284 55.7956 324.853 56.4C325.422 57.0044 326.115 57.3067 326.933 57.3067H348.373L345.706 70H318.986ZM399.545 49.5733L405.412 70H387.332L381.519 49.68H378.479L374.159 70H356.399L367.705 16.6667H404.932C408.665 16.6667 411.759 17.9289 414.212 20.4533C416.701 22.9422 417.945 26.0178 417.945 29.68C417.945 30.7111 417.839 31.7422 417.625 32.7733L417.465 33.6267C416.577 37.7511 414.408 41.3244 410.959 44.3467C407.51 47.3333 403.705 49.0756 399.545 49.5733ZM396.932 29.36H382.799L381.199 36.9867H395.279C396.452 36.9867 397.501 36.5067 398.425 35.5467C399.385 34.5511 399.865 33.4667 399.865 32.2933C399.865 30.3378 398.888 29.36 396.932 29.36Z" fill="white"/>
<path d="M40.28 198C34.7867 198 30.2 196.133 26.52 192.4C22.8933 188.613 21.08 184 21.08 178.56C21.08 177.013 21.2667 175.467 21.64 173.92L33.48 118H59.88L48.12 173.36C48.0133 173.733 47.96 174.107 47.96 174.48C47.96 175.707 48.3867 176.773 49.24 177.68C50.0933 178.533 51.1333 178.96 52.36 178.96H84.52L80.52 198H40.28ZM96.3991 198L113.599 117.12H138.479L121.279 198H96.3991ZM203.5 137.04L190.62 198H164.06L177.02 137.04H154.3L158.3 118H230.3L226.3 137.04H203.5ZM257.237 198C251.69 198 247.077 196.133 243.397 192.4C239.77 188.667 237.957 184.08 237.957 178.64C237.957 177.04 238.117 175.44 238.437 173.84L245.237 142C246.57 135.653 250.144 130.08 255.957 125.28C261.77 120.427 267.824 118 274.117 118H314.277L310.277 137.04H278.117C276.624 137.04 275.21 137.6 273.877 138.72C272.544 139.787 271.744 141.067 271.477 142.56L270.197 148.48H307.797L303.797 167.52H266.117L264.917 173.36C264.81 173.68 264.757 174.027 264.757 174.4C264.757 175.627 265.184 176.693 266.037 177.6C266.89 178.507 267.93 178.96 269.157 178.96H301.317L297.317 198H257.237ZM372.556 182.8H343.276L339.996 198H313.356L330.316 118H386.156C391.756 118 396.396 119.893 400.076 123.68C403.809 127.413 405.676 132 405.676 137.44C405.676 139.04 405.516 140.613 405.196 142.16L401.676 158.8C400.343 165.147 396.743 170.747 390.876 175.6C385.063 180.4 378.956 182.8 372.556 182.8ZM378.476 142.56C378.529 142.187 378.556 141.813 378.556 141.44C378.556 138.507 377.089 137.04 374.156 137.04H352.956L347.276 163.68H368.476C369.916 163.68 371.303 163.12 372.636 162C373.969 160.88 374.796 159.6 375.116 158.16L378.476 142.56ZM462.612 198L465.892 182.8H439.252L435.972 198H409.333L421.173 142.16C422.559 135.653 426.159 130 431.972 125.2C437.839 120.4 444.026 118 450.532 118H482.133C487.786 118 492.453 119.893 496.133 123.68C499.813 127.413 501.653 132 501.653 137.44C501.653 138.987 501.493 140.56 501.173 142.16L489.333 198H462.612ZM474.452 142.56C474.506 142.187 474.533 141.813 474.533 141.44C474.533 138.507 473.066 137.04 470.132 137.04H454.532C452.986 137.04 451.546 137.6 450.213 138.72C448.879 139.787 448.052 141.067 447.732 142.56L443.253 163.68H469.893L474.452 142.56ZM564.509 182.8H535.229L531.949 198H505.309L522.269 118H578.109C583.709 118 588.349 119.893 592.029 123.68C595.762 127.413 597.629 132 597.629 137.44C597.629 139.04 597.469 140.613 597.149 142.16L593.629 158.8C592.296 165.147 588.696 170.747 582.829 175.6C577.016 180.4 570.909 182.8 564.509 182.8ZM570.429 142.56C570.482 142.187 570.509 141.813 570.509 141.44C570.509 138.507 569.042 137.04 566.109 137.04H544.909L539.229 163.68H560.429C561.869 163.68 563.256 163.12 564.589 162C565.922 160.88 566.749 159.6 567.069 158.16L570.429 142.56ZM625.206 198C619.659 198 615.046 196.133 611.366 192.4C607.739 188.667 605.926 184.08 605.926 178.64C605.926 177.04 606.086 175.44 606.406 173.84L613.206 142C614.539 135.653 618.112 130.08 623.926 125.28C629.739 120.427 635.792 118 642.086 118H682.246L678.246 137.04H646.086C644.592 137.04 643.179 137.6 641.846 138.72C640.512 139.787 639.712 141.067 639.446 142.56L638.166 148.48H675.766L671.766 167.52H634.086L632.886 173.36C632.779 173.68 632.726 174.027 632.726 174.4C632.726 175.627 633.152 176.693 634.006 177.6C634.859 178.507 635.899 178.96 637.126 178.96H669.286L665.286 198H625.206ZM746.045 167.36L754.845 198H727.725L719.005 167.52H714.445L707.965 198H681.325L698.285 118H754.125C759.725 118 764.365 119.893 768.045 123.68C771.778 127.413 773.645 132.027 773.645 137.52C773.645 139.067 773.485 140.613 773.165 142.16L772.925 143.44C771.591 149.627 768.338 154.987 763.165 159.52C757.991 164 752.285 166.613 746.045 167.36ZM742.125 137.04H720.925L718.525 148.48H739.645C741.405 148.48 742.978 147.76 744.365 146.32C745.805 144.827 746.525 143.2 746.525 141.44C746.525 138.507 745.058 137.04 742.125 137.04Z" fill="#FF6D24"/>
</g>
<defs>
<filter id="filter0_d_2309_8173" x="0.776367" y="0.0800171" width="788.868" height="213.92" filterUnits="userSpaceOnUse" color-interpolation-filters="sRGB">
<feFlood flood-opacity="0" result="BackgroundImageFix"/>
<feColorMatrix in="SourceAlpha" type="matrix" values="0 0 0 0 0 0 0 0 0 0 0 0 0 0 0 0 0 0 127 0" result="hardAlpha"/>
<feOffset/>
<feGaussianBlur stdDeviation="8"/>
<feComposite in2="hardAlpha" operator="out"/>
<feColorMatrix type="matrix" values="0 0 0 0 0 0 0 0 0 0 0 0 0 0 0 0 0 0 0.8 0"/>
<feBlend mode="normal" in2="BackgroundImageFix" result="effect1_dropShadow_2309_8173"/>
<feBlend mode="normal" in="SourceGraphic" in2="effect1_dropShadow_2309_8173" result="shape"/>
</filter>
</defs>
</svg>
