<svg width="609" height="234" viewBox="0 0 609 234" fill="none" xmlns="http://www.w3.org/2000/svg">
<path fill-rule="evenodd" clip-rule="evenodd" d="M394.304 15.1998H317.579C313.899 15.1998 310.608 17.4853 309.328 20.9292L288.649 76.5668C286.517 82.3052 290.769 88.4072 296.901 88.4072H375.104C378.86 88.4072 382.202 86.028 383.425 82.4834L402.625 26.8458C404.594 21.1416 400.348 15.1998 394.304 15.1998ZM317.579 14.2238C313.49 14.2238 309.833 16.7631 308.411 20.5898L287.733 76.2273C285.363 82.6033 290.088 89.3833 296.901 89.3833H375.104C379.277 89.3833 382.99 86.7397 384.35 82.8013L403.55 27.1637C405.737 20.8257 401.02 14.2238 394.304 14.2238H317.579Z" fill="#FE683B"/>
<path fill-rule="evenodd" clip-rule="evenodd" d="M307.886 20.3952C309.39 16.3494 313.256 13.6654 317.578 13.6654H394.302C401.4 13.6654 406.389 20.6438 404.076 27.3458L384.876 82.9834C383.439 87.1475 379.513 89.9417 375.102 89.9417H296.899C289.699 89.9417 284.702 82.775 287.208 76.0328L307.886 20.3952ZM317.578 15.7582C314.131 15.7582 311.048 17.899 309.85 21.1238L289.171 76.7613C287.175 82.1335 291.155 87.8488 296.899 87.8488H375.102C378.62 87.8488 381.75 85.6202 382.896 82.3012L402.096 26.6636C403.939 21.3234 399.965 15.7582 394.302 15.7582H317.578Z" fill="#FE683B"/>
<path fill-rule="evenodd" clip-rule="evenodd" d="M323.059 1.53447H259.182C255.468 1.53447 252.154 3.86179 250.899 7.35105L233.696 55.1799C231.638 60.9034 235.887 66.9331 241.98 66.9331H307.086C310.874 66.9331 314.238 64.5135 315.436 60.9263L331.409 13.0974C333.308 7.40895 329.066 1.53447 323.059 1.53447ZM259.182 0.558372C255.055 0.558372 251.373 3.14428 249.978 7.02123L232.776 54.8501C230.489 61.2095 235.21 67.9092 241.98 67.9092H307.086C311.295 67.9092 315.032 65.2207 316.363 61.235L332.336 13.4061C334.447 7.08557 329.734 0.558372 323.059 0.558372H259.182Z" fill="#FE683B"/>
<path fill-rule="evenodd" clip-rule="evenodd" d="M249.453 6.83225C250.928 2.73319 254.821 0 259.183 0H323.059C330.114 0 335.098 6.89941 332.866 13.583L316.893 61.4118C315.486 65.626 311.535 68.4675 307.086 68.4675H241.98C234.826 68.4675 229.832 61.3858 232.251 54.6611L249.453 6.83225ZM259.183 2.09282C255.703 2.09282 252.6 4.27286 251.425 7.54001L234.222 55.3688C232.295 60.7271 236.273 66.3747 241.98 66.3747H307.086C310.635 66.3747 313.785 64.1082 314.906 60.7494L330.879 12.9206C332.658 7.59508 328.687 2.09282 323.059 2.09282H259.183Z" fill="#FE683B"/>
<path fill-rule="evenodd" clip-rule="evenodd" d="M495.104 134.284H392.539C388.853 134.284 385.557 136.576 384.282 140.028L356.143 216.164C354.023 221.9 358.275 227.989 364.4 227.989H468.976C472.738 227.989 476.084 225.603 477.303 222.051L503.43 145.915C505.387 140.214 501.142 134.284 495.104 134.284ZM392.539 133.308C388.443 133.308 384.782 135.855 383.364 139.69L355.225 215.826C352.87 222.199 357.594 228.965 364.4 228.965H468.976C473.156 228.965 476.873 226.314 478.228 222.367L504.355 146.232C506.529 139.897 501.813 133.308 495.104 133.308H392.539Z" fill="#FE683B"/>
<path d="M411.793 110.857L-186.171 110.858C-192.732 110.858 -196.503 103.395 -192.612 98.1129L-156.943 49.6904C-155.436 47.6434 -153.045 46.435 -150.502 46.435L436.37 46.435C444.377 46.435 449.137 55.3763 444.666 62.0188L411.793 110.857Z" fill="url(#paint0_linear_2730_12133)"/>
<path d="M430.81 123.547L-184.174 123.547C-187.521 123.547 -188.354 118.895 -185.215 117.733L-153.96 106.163C-153.627 106.04 -153.274 105.977 -152.918 105.977L436.934 105.977C439.331 105.977 440.76 108.65 439.428 110.643L430.81 123.547Z" fill="url(#paint1_linear_2730_12133)"/>
<path d="M416.704 55.2198L415.035 59.2157L414.087 61.486C413.013 64.0599 410.487 65.7325 407.691 65.7325H394.531L391.948 71.9215C390.874 74.4954 388.348 76.1729 385.552 76.1729H373.989L378.353 65.7373L380.55 60.4785L382.746 55.2198H416.704Z" fill="white"/>
<path d="M420.929 78.4973L418.341 84.6863C417.267 87.2603 414.741 88.9329 411.945 88.9329H401.505L397.813 97.8115C396.739 100.39 394.214 102.073 391.413 102.073H379.859L389.681 78.4973H420.929Z" fill="white"/>
<path d="M97.5813 219V220H98.3931L98.56 219.206L97.5813 219ZM57.864 215.011L57.1466 215.707L57.1517 215.713L57.864 215.011ZM54.2853 201.928L55.2631 202.138L55.2637 202.135L54.2853 201.928ZM63.0853 160.333V159.333H62.2748L62.107 160.126L63.0853 160.333ZM80.6853 160.333L81.6635 160.541L81.9199 159.333H80.6853V160.333ZM71.944 201.517L70.9657 201.31L70.9634 201.321L71.944 201.517ZM73.1173 205.917L72.3947 206.609L72.4024 206.617L72.4102 206.625L73.1173 205.917ZM100.045 207.267L101.024 207.472L101.277 206.267H100.045V207.267ZM97.5813 218H67.72V220H97.5813V218ZM67.72 218C64.0203 218 60.997 216.766 58.5763 214.309L57.1517 215.713C59.9719 218.575 63.5193 220 67.72 220V218ZM58.5814 214.314C56.148 211.808 54.9333 208.775 54.9333 205.155H52.9333C52.9333 209.278 54.3391 212.816 57.1466 215.707L58.5814 214.314ZM54.9333 205.155C54.9333 204.173 55.0423 203.168 55.2631 202.138L53.3075 201.719C53.059 202.878 52.9333 204.024 52.9333 205.155H54.9333ZM55.2637 202.135L64.0637 160.54L62.107 160.126L53.307 201.721L55.2637 202.135ZM63.0853 161.333H80.6853V159.333H63.0853V161.333ZM79.7071 160.126L70.9658 201.31L72.9222 201.725L81.6635 160.541L79.7071 160.126ZM70.9634 201.321C70.874 201.769 70.8267 202.206 70.8267 202.632H72.8267C72.8267 202.354 72.8576 202.048 72.9246 201.714L70.9634 201.321ZM70.8267 202.632C70.8267 204.17 71.3491 205.516 72.3947 206.609L73.84 205.226C73.1647 204.52 72.8267 203.676 72.8267 202.632H70.8267ZM72.4102 206.625C73.5066 207.721 74.8797 208.267 76.4613 208.267V206.267C75.3834 206.267 74.5272 205.913 73.8244 205.21L72.4102 206.625ZM76.4613 208.267H100.045V206.267H76.4613V208.267ZM99.0667 207.061L96.6027 218.795L98.56 219.206L101.024 207.472L99.0667 207.061ZM126.943 219V220H127.754L127.922 219.207L126.943 219ZM109.343 219L108.365 218.793L108.109 220H109.343V219ZM121.781 160.333V159.333H120.97L120.802 160.126L121.781 160.333ZM139.381 160.333L140.359 160.541L140.615 159.333H139.381V160.333ZM126.943 218H109.343V220H126.943V218ZM110.322 219.207L122.759 160.541L120.802 160.126L108.365 218.793L110.322 219.207ZM121.781 161.333H139.381V159.333H121.781V161.333ZM138.402 160.126L125.965 218.793L127.922 219.207L140.359 160.541L138.402 160.126ZM204.355 172.067V173.067H205.166L205.333 172.272L204.355 172.067ZM186.755 172.067V171.067H185.945L185.777 171.859L186.755 172.067ZM176.781 219V220H177.591L177.759 219.208L176.781 219ZM159.181 219L158.203 218.792L157.947 220H159.181V219ZM169.155 172.067L170.133 172.275L170.389 171.067H169.155V172.067ZM151.555 172.067L150.576 171.861L150.323 173.067H151.555V172.067ZM154.019 160.333V159.333H153.207L153.04 160.128L154.019 160.333ZM206.819 160.333L207.797 160.539L208.05 159.333H206.819V160.333ZM204.355 171.067H186.755V173.067H204.355V171.067ZM185.777 171.859L175.803 218.792L177.759 219.208L187.733 172.275L185.777 171.859ZM176.781 218H159.181V220H176.781V218ZM160.159 219.208L170.133 172.275L168.177 171.859L158.203 218.792L160.159 219.208ZM169.155 171.067H151.555V173.067H169.155V171.067ZM152.533 172.272L154.997 160.539L153.04 160.128L150.576 171.861L152.533 172.272ZM154.019 161.333H206.819V159.333H154.019V161.333ZM205.84 160.128L203.376 171.861L205.333 172.272L207.797 160.539L205.84 160.128ZM255.964 219V220H256.776L256.943 219.206L255.964 219ZM216.247 215.011L215.534 215.713L215.54 215.718L216.247 215.011ZM212.668 201.869L213.646 202.079L213.646 202.078L212.668 201.869ZM217.889 177.347L218.868 177.555L218.868 177.551L217.889 177.347ZM225.516 165.496L226.151 166.269L226.151 166.268L225.516 165.496ZM268.401 160.333L269.38 160.539L269.633 159.333H268.401V160.333ZM265.937 172.067V173.067H266.749L266.916 172.272L265.937 172.067ZM237.953 173.768L238.578 174.549L238.585 174.544L238.591 174.538L237.953 173.768ZM235.372 177.757L234.396 177.538L234.394 177.549L235.372 177.757ZM234.081 183.8L233.104 183.591L232.845 184.8H234.081V183.8ZM263.415 183.8L264.393 184.006L264.647 182.8H263.415V183.8ZM260.951 195.533V196.533H261.763L261.929 195.739L260.951 195.533ZM231.617 195.533V194.533H230.81L230.64 195.323L231.617 195.533ZM230.327 201.517L231.303 201.734L231.304 201.728L230.327 201.517ZM231.559 205.917L230.837 206.609L230.844 206.617L230.852 206.625L231.559 205.917ZM258.428 207.267L259.407 207.472L259.66 206.267H258.428V207.267ZM255.964 218H226.22V220H255.964V218ZM226.22 218C222.478 218 219.414 216.763 216.954 214.304L215.54 215.718C218.399 218.577 221.983 220 226.22 220V218ZM216.959 214.309C214.533 211.846 213.316 208.817 213.316 205.155H211.316C211.316 209.315 212.72 212.856 215.534 215.713L216.959 214.309ZM213.316 205.155C213.316 204.132 213.426 203.107 213.646 202.079L211.69 201.66C211.441 202.822 211.316 203.988 211.316 205.155H213.316ZM213.646 202.078L218.868 177.555L216.911 177.139L211.69 201.661L213.646 202.078ZM218.868 177.551C219.753 173.313 222.15 169.552 226.151 166.269L224.882 164.723C220.59 168.245 217.903 172.385 216.911 177.142L218.868 177.551ZM226.151 166.268C230.195 162.943 234.319 161.333 238.54 161.333V159.333C233.766 159.333 229.207 161.166 224.881 164.724L226.151 166.268ZM238.54 161.333H268.401V159.333H238.54V161.333ZM267.423 160.128L264.959 171.861L266.916 172.272L269.38 160.539L267.423 160.128ZM265.937 171.067H242.353V173.067H265.937V171.067ZM242.353 171.067C240.525 171.067 238.838 171.737 237.315 172.998L238.591 174.538C239.807 173.531 241.054 173.067 242.353 173.067V171.067ZM237.329 172.987C235.8 174.21 234.803 175.731 234.397 177.538L236.348 177.977C236.645 176.655 237.369 175.516 238.578 174.549L237.329 172.987ZM234.394 177.549L233.104 183.591L235.059 184.009L236.35 177.966L234.394 177.549ZM234.081 184.8H263.415V182.8H234.081V184.8ZM262.436 183.595L259.972 195.328L261.929 195.739L264.393 184.006L262.436 183.595ZM260.951 194.533H231.617V196.533H260.951V194.533ZM230.64 195.323L229.349 201.307L231.304 201.728L232.595 195.744L230.64 195.323ZM229.351 201.3C229.257 201.722 229.209 202.147 229.209 202.573H231.209C231.209 202.296 231.24 202.017 231.303 201.734L229.351 201.3ZM229.209 202.573C229.209 204.124 229.76 205.486 230.837 206.609L232.281 205.226C231.558 204.471 231.209 203.604 231.209 202.573H229.209ZM230.852 206.625C231.942 207.715 233.293 208.267 234.844 208.267V206.267C233.814 206.267 232.975 205.919 232.266 205.21L230.852 206.625ZM234.844 208.267H258.428V206.267H234.844V208.267ZM257.449 207.061L254.985 218.795L256.943 219.206L259.407 207.472L257.449 207.061ZM332.494 190.253L333.471 190.466L333.473 190.46L332.494 190.253ZM324.809 202.163L325.447 202.933L325.448 202.932L324.809 202.163ZM287.79 207.267V206.267H286.978L286.811 207.061L287.79 207.267ZM285.326 219V220H286.138L286.305 219.206L285.326 219ZM267.726 219L266.748 218.793L266.492 220H267.726V219ZM280.163 160.333V159.333H279.353L279.185 160.126L280.163 160.333ZM331.614 164.381L330.897 165.078L330.902 165.083L331.614 164.381ZM335.193 177.464L334.215 177.255L334.214 177.258L335.193 177.464ZM315.011 189.784L315.986 190.009L315.988 189.999L315.99 189.989L315.011 189.784ZM317.534 177.757L318.513 177.963L318.515 177.954L317.534 177.757ZM316.361 173.416L315.638 174.107L315.646 174.115L315.654 174.123L316.361 173.416ZM295.299 172.067V171.067H294.49L294.321 171.859L295.299 172.067ZM290.313 195.533L289.335 195.326L289.078 196.533H290.313V195.533ZM312.371 193.832L313.009 194.602L313.012 194.6L312.371 193.832ZM331.517 190.041C330.594 194.285 328.175 198.069 324.17 201.393L325.448 202.932C329.735 199.373 332.438 195.218 333.471 190.466L331.517 190.041ZM324.171 201.393C320.211 204.674 316.108 206.267 311.843 206.267V208.267C316.653 208.267 321.194 206.457 325.447 202.933L324.171 201.393ZM311.843 206.267H287.79V208.267H311.843V206.267ZM286.811 207.061L284.347 218.795L286.305 219.206L288.769 207.472L286.811 207.061ZM285.326 218H267.726V220H285.326V218ZM268.704 219.207L281.142 160.541L279.185 160.126L266.748 218.793L268.704 219.207ZM280.163 161.333H321.699V159.333H280.163V161.333ZM321.699 161.333C325.437 161.333 328.477 162.586 330.897 165.078L332.332 163.685C329.51 160.779 325.941 159.333 321.699 159.333V161.333ZM330.902 165.083C333.33 167.548 334.545 170.559 334.545 174.179H336.545C336.545 170.055 335.139 166.534 332.326 163.68L330.902 165.083ZM334.545 174.179C334.545 175.202 334.435 176.227 334.215 177.255L336.171 177.674C336.42 176.511 336.545 175.346 336.545 174.179H334.545ZM334.214 177.258L331.516 190.047L333.473 190.46L336.171 177.671L334.214 177.258ZM315.99 189.989L318.513 177.963L316.555 177.552L314.033 189.579L315.99 189.989ZM318.515 177.954C318.604 177.506 318.651 177.069 318.651 176.643H316.651C316.651 176.921 316.621 177.226 316.554 177.561L318.515 177.954ZM318.651 176.643C318.651 175.105 318.128 173.769 317.068 172.709L315.654 174.123C316.314 174.784 316.651 175.599 316.651 176.643H318.651ZM317.083 172.725C316.02 171.614 314.657 171.067 313.075 171.067V173.067C314.153 173.067 314.98 173.42 315.638 174.107L317.083 172.725ZM313.075 171.067H295.299V173.067H313.075V171.067ZM294.321 171.859L289.335 195.326L291.291 195.741L296.278 172.275L294.321 171.859ZM290.313 196.533H308.089V194.533H290.313V196.533ZM308.089 196.533C309.852 196.533 311.498 195.855 313.009 194.602L311.733 193.062C310.507 194.078 309.298 194.533 308.089 194.533V196.533ZM313.012 194.6C314.558 193.312 315.577 191.782 315.986 190.009L314.037 189.559C313.742 190.837 313.001 192.006 311.731 193.064L313.012 194.6ZM396.776 219V220H397.586L397.754 219.207L396.776 219ZM379.176 219L378.197 218.795L377.944 220H379.176V219ZM381.64 207.267L382.618 207.472L382.871 206.267H381.64V207.267ZM358.173 207.267V206.267H357.361L357.194 207.061L358.173 207.267ZM355.709 219V220H356.521L356.688 219.206L355.709 219ZM338.109 219L337.131 218.793L336.875 220H338.109V219ZM346.909 177.464L345.931 177.255L345.931 177.257L346.909 177.464ZM354.594 165.496L355.229 166.269L355.229 166.268L354.594 165.496ZM401.997 164.381L401.279 165.078L401.285 165.083L401.997 164.381ZM405.576 177.464L404.598 177.255L404.597 177.257L405.576 177.464ZM384.162 195.533V196.533H384.973L385.141 195.74L384.162 195.533ZM387.917 177.757L388.895 177.964L388.898 177.954L387.917 177.757ZM386.744 173.416L386.021 174.107L386.029 174.115L386.036 174.123L386.744 173.416ZM367.032 173.768L367.656 174.549L367.663 174.544L367.67 174.538L367.032 173.768ZM364.45 177.757L363.475 177.538L363.472 177.551L364.45 177.757ZM360.696 195.533L359.717 195.327L359.462 196.533H360.696V195.533ZM396.776 218H379.176V220H396.776V218ZM380.154 219.206L382.618 207.472L380.661 207.061L378.197 218.795L380.154 219.206ZM381.64 206.267H358.173V208.267H381.64V206.267ZM357.194 207.061L354.73 218.795L356.688 219.206L359.152 207.472L357.194 207.061ZM355.709 218H338.109V220H355.709V218ZM339.087 219.207L347.887 177.671L345.931 177.257L337.131 218.793L339.087 219.207ZM347.887 177.673C348.811 173.35 351.231 169.55 355.229 166.269L353.96 164.723C349.666 168.247 346.963 172.426 345.931 177.255L347.887 177.673ZM355.229 166.268C359.27 162.946 363.432 161.333 367.736 161.333V159.333C362.887 159.333 358.289 161.163 353.959 164.724L355.229 166.268ZM367.736 161.333H392.082V159.333H367.736V161.333ZM392.082 161.333C395.82 161.333 398.86 162.586 401.28 165.078L402.714 163.685C399.893 160.779 396.324 159.333 392.082 159.333V161.333ZM401.285 165.083C403.713 167.548 404.928 170.559 404.928 174.179H406.928C406.928 170.055 405.522 166.534 402.709 163.68L401.285 165.083ZM404.928 174.179C404.928 175.202 404.818 176.227 404.598 177.255L406.553 177.674C406.802 176.511 406.928 175.346 406.928 174.179H404.928ZM404.597 177.257L395.797 218.793L397.754 219.207L406.554 177.671L404.597 177.257ZM385.141 195.74L388.895 177.964L386.939 177.551L383.184 195.327L385.141 195.74ZM388.898 177.954C388.987 177.506 389.034 177.069 389.034 176.643H387.034C387.034 176.921 387.003 177.226 386.936 177.561L388.898 177.954ZM389.034 176.643C389.034 175.105 388.511 173.769 387.451 172.709L386.036 174.123C386.697 174.784 387.034 175.599 387.034 176.643H389.034ZM387.466 172.725C386.403 171.614 385.04 171.067 383.458 171.067V173.067C384.536 173.067 385.363 173.42 386.021 174.107L387.466 172.725ZM383.458 171.067H371.432V173.067H383.458V171.067ZM371.432 171.067C369.603 171.067 367.916 171.737 366.394 172.998L367.67 174.538C368.885 173.531 370.132 173.067 371.432 173.067V171.067ZM366.407 172.987C364.878 174.21 363.881 175.731 363.475 177.538L365.426 177.977C365.723 176.655 366.447 175.516 367.656 174.549L366.407 172.987ZM363.472 177.551L359.717 195.327L361.674 195.74L365.429 177.964L363.472 177.551ZM360.696 196.533H384.162V194.533H360.696V196.533ZM473.26 190.253L474.237 190.466L474.238 190.46L473.26 190.253ZM465.574 202.163L466.212 202.933L466.213 202.932L465.574 202.163ZM428.556 207.267V206.267H427.744L427.577 207.061L428.556 207.267ZM426.092 219V220H426.904L427.07 219.206L426.092 219ZM408.492 219L407.513 218.793L407.258 220H408.492V219ZM420.929 160.333V159.333H420.119L419.951 160.126L420.929 160.333ZM472.38 164.381L471.662 165.078L471.667 165.083L472.38 164.381ZM475.958 177.464L474.981 177.255L474.98 177.258L475.958 177.464ZM455.777 189.784L456.751 190.009L456.754 189.999L456.756 189.989L455.777 189.784ZM458.3 177.757L459.279 177.963L459.28 177.954L458.3 177.757ZM457.126 173.416L456.404 174.107L456.411 174.115L456.419 174.123L457.126 173.416ZM436.065 172.067V171.067H435.255L435.087 171.859L436.065 172.067ZM431.078 195.533L430.1 195.326L429.844 196.533H431.078V195.533ZM453.137 193.832L453.775 194.602L453.777 194.6L453.137 193.832ZM472.283 190.041C471.36 194.285 468.94 198.069 464.936 201.393L466.213 202.932C470.5 199.373 473.204 195.218 474.237 190.466L472.283 190.041ZM464.936 201.393C460.976 204.674 456.873 206.267 452.609 206.267V208.267C457.418 208.267 461.959 206.457 466.212 202.933L464.936 201.393ZM452.609 206.267H428.556V208.267H452.609V206.267ZM427.577 207.061L425.113 218.795L427.07 219.206L429.534 207.472L427.577 207.061ZM426.092 218H408.492V220H426.092V218ZM409.47 219.207L421.907 160.541L419.951 160.126L407.513 218.793L409.47 219.207ZM420.929 161.333H462.465V159.333H420.929V161.333ZM462.465 161.333C466.202 161.333 469.243 162.586 471.662 165.078L473.097 163.685C470.276 160.779 466.706 159.333 462.465 159.333V161.333ZM471.667 165.083C474.096 167.548 475.31 170.559 475.31 174.179H477.31C477.31 170.055 475.904 166.534 473.092 163.68L471.667 165.083ZM475.31 174.179C475.31 175.202 475.201 176.227 474.981 177.255L476.936 177.674C477.185 176.511 477.31 175.346 477.31 174.179H475.31ZM474.98 177.258L472.281 190.047L474.238 190.46L476.937 177.671L474.98 177.258ZM456.756 189.989L459.278 177.963L457.321 177.552L454.798 189.579L456.756 189.989ZM459.28 177.954C459.37 177.506 459.417 177.069 459.417 176.643H457.417C457.417 176.921 457.386 177.226 457.319 177.561L459.28 177.954ZM459.417 176.643C459.417 175.105 458.894 173.769 457.834 172.709L456.419 174.123C457.08 174.784 457.417 175.599 457.417 176.643H459.417ZM457.849 172.725C456.786 171.614 455.423 171.067 453.841 171.067V173.067C454.919 173.067 455.746 173.42 456.404 174.107L457.849 172.725ZM453.841 171.067H436.065V173.067H453.841V171.067ZM435.087 171.859L430.1 195.326L432.057 195.741L437.043 172.275L435.087 171.859ZM431.078 196.533H448.854V194.533H431.078V196.533ZM448.854 196.533C450.617 196.533 452.263 195.855 453.775 194.602L452.499 193.062C451.273 194.078 450.064 194.533 448.854 194.533V196.533ZM453.777 194.6C455.323 193.312 456.342 191.782 456.751 190.009L454.803 189.559C454.508 190.837 453.767 192.006 452.497 193.064L453.777 194.6ZM525.808 219V220H526.62L526.787 219.206L525.808 219ZM486.091 215.011L485.378 215.713L485.383 215.718L486.091 215.011ZM482.512 201.869L483.49 202.079L483.49 202.078L482.512 201.869ZM487.733 177.347L488.711 177.555L488.712 177.551L487.733 177.347ZM495.36 165.496L495.994 166.269L495.995 166.268L495.36 165.496ZM538.245 160.333L539.224 160.539L539.477 159.333H538.245V160.333ZM535.781 172.067V173.067H536.593L536.76 172.272L535.781 172.067ZM507.797 173.768L508.422 174.549L508.429 174.544L508.435 174.538L507.797 173.768ZM505.216 177.757L504.24 177.538L504.238 177.549L505.216 177.757ZM503.925 183.8L502.947 183.591L502.689 184.8H503.925V183.8ZM533.259 183.8L534.237 184.006L534.49 182.8H533.259V183.8ZM530.795 195.533V196.533H531.606L531.773 195.739L530.795 195.533ZM501.461 195.533V194.533H500.654L500.484 195.323L501.461 195.533ZM500.171 201.517L501.147 201.734L501.148 201.728L500.171 201.517ZM501.403 205.917L500.681 206.609L500.688 206.617L500.695 206.625L501.403 205.917ZM528.272 207.267L529.251 207.472L529.504 206.267H528.272V207.267ZM525.808 218H496.064V220H525.808V218ZM496.064 218C492.322 218 489.257 216.763 486.798 214.304L485.383 215.718C488.243 218.577 491.827 220 496.064 220V218ZM486.803 214.309C484.376 211.846 483.16 208.817 483.16 205.155H481.16C481.16 209.315 482.564 212.856 485.378 215.713L486.803 214.309ZM483.16 205.155C483.16 204.132 483.269 203.107 483.49 202.079L481.534 201.66C481.285 202.822 481.16 203.988 481.16 205.155H483.16ZM483.49 202.078L488.711 177.555L486.755 177.139L481.534 201.661L483.49 202.078ZM488.712 177.551C489.597 173.313 491.994 169.552 495.994 166.269L494.725 164.723C490.434 168.245 487.747 172.385 486.754 177.142L488.712 177.551ZM495.995 166.268C500.039 162.943 504.163 161.333 508.384 161.333V159.333C503.609 159.333 499.05 161.166 494.725 164.724L495.995 166.268ZM508.384 161.333H538.245V159.333H508.384V161.333ZM537.267 160.128L534.803 171.861L536.76 172.272L539.224 160.539L537.267 160.128ZM535.781 171.067H512.197V173.067H535.781V171.067ZM512.197 171.067C510.368 171.067 508.682 171.737 507.159 172.998L508.435 174.538C509.651 173.531 510.897 173.067 512.197 173.067V171.067ZM507.173 172.987C505.644 174.21 504.647 175.731 504.24 177.538L506.191 177.977C506.489 176.655 507.213 175.516 508.422 174.549L507.173 172.987ZM504.238 177.549L502.947 183.591L504.903 184.009L506.194 177.966L504.238 177.549ZM503.925 184.8H533.259V182.8H503.925V184.8ZM532.28 183.595L529.816 195.328L531.773 195.739L534.237 184.006L532.28 183.595ZM530.795 194.533H501.461V196.533H530.795V194.533ZM500.484 195.323L499.193 201.307L501.148 201.728L502.439 195.744L500.484 195.323ZM499.194 201.3C499.101 201.722 499.053 202.147 499.053 202.573H501.053C501.053 202.296 501.084 202.017 501.147 201.734L499.194 201.3ZM499.053 202.573C499.053 204.124 499.604 205.486 500.681 206.609L502.125 205.226C501.402 204.471 501.053 203.604 501.053 202.573H499.053ZM500.695 206.625C501.786 207.715 503.136 208.267 504.688 208.267V206.267C503.658 206.267 502.819 205.919 502.11 205.21L500.695 206.625ZM504.688 208.267H528.272V206.267H504.688V208.267ZM527.293 207.061L524.829 218.795L526.787 219.206L529.251 207.472L527.293 207.061ZM604.861 178.461L605.838 178.672L605.842 178.653L605.845 178.635L604.861 178.461ZM596.999 190.547L596.381 189.761L596.377 189.764L596.999 190.547ZM583.623 195.533V194.533H582.295L582.662 195.81L583.623 195.533ZM590.37 219V220H591.698L591.331 218.724L590.37 219ZM572.77 219L571.809 219.276L572.017 220H572.77V219ZM566.023 195.533L566.984 195.257L566.776 194.533H566.023V195.533ZM560.157 195.533V194.533H559.347L559.178 195.326L560.157 195.533ZM555.17 219V220H555.98L556.148 219.208L555.17 219ZM537.57 219L536.592 218.793L536.336 220H537.57V219ZM550.007 160.333V159.333H549.197L549.029 160.126L550.007 160.333ZM601.458 164.381L600.74 165.078L600.746 165.083L601.458 164.381ZM605.037 177.464L604.059 177.255L604.055 177.272L604.052 177.29L605.037 177.464ZM586.205 173.416L585.482 174.107L585.49 174.115L585.497 174.123L586.205 173.416ZM565.143 172.067V171.067H564.335L564.166 171.857L565.143 172.067ZM562.621 183.8L561.643 183.59L561.383 184.8H562.621V183.8ZM585.266 181.571L584.559 180.864L584.549 180.873L585.266 181.571ZM603.883 178.251C602.92 182.73 600.443 186.564 596.381 189.761L597.618 191.333C602.003 187.881 604.767 183.657 605.838 178.672L603.883 178.251ZM596.377 189.764C592.345 192.967 588.101 194.533 583.623 194.533V196.533C588.611 196.533 593.284 194.776 597.621 191.33L596.377 189.764ZM582.662 195.81L589.409 219.276L591.331 218.724L584.584 195.257L582.662 195.81ZM590.37 218H572.77V220H590.37V218ZM573.731 218.724L566.984 195.257L565.062 195.81L571.809 219.276L573.731 218.724ZM566.023 194.533H560.157V196.533H566.023V194.533ZM559.178 195.326L554.192 218.792L556.148 219.208L561.135 195.741L559.178 195.326ZM555.17 218H537.57V220H555.17V218ZM538.548 219.207L550.985 160.541L549.029 160.126L536.592 218.793L538.548 219.207ZM550.007 161.333H591.543V159.333H550.007V161.333ZM591.543 161.333C595.28 161.333 598.321 162.586 600.74 165.078L602.175 163.685C599.354 160.779 595.785 159.333 591.543 159.333V161.333ZM600.746 165.083C603.174 167.548 604.389 170.559 604.389 174.179H606.389C606.389 170.055 604.982 166.534 602.17 163.68L600.746 165.083ZM604.389 174.179C604.389 175.202 604.279 176.227 604.059 177.255L606.014 177.674C606.263 176.511 606.389 175.346 606.389 174.179H604.389ZM604.052 177.29L603.876 178.288L605.845 178.635L606.021 177.638L604.052 177.29ZM588.495 176.643C588.495 175.105 587.972 173.769 586.912 172.709L585.497 174.123C586.158 174.784 586.495 175.599 586.495 176.643H588.495ZM586.927 172.725C585.864 171.614 584.501 171.067 582.919 171.067V173.067C583.997 173.067 584.824 173.42 585.482 174.107L586.927 172.725ZM582.919 171.067H565.143V173.067H582.919V171.067ZM564.166 171.857L561.643 183.59L563.598 184.01L566.121 172.277L564.166 171.857ZM562.621 184.8H580.397V182.8H562.621V184.8ZM580.397 184.8C582.507 184.8 584.378 183.916 585.982 182.268L584.549 180.873C583.259 182.198 581.884 182.8 580.397 182.8V184.8ZM585.973 182.278C587.613 180.638 588.495 178.752 588.495 176.643H586.495C586.495 178.132 585.892 179.531 584.559 180.864L585.973 182.278Z" fill="#FF6D24"/>
<path d="M35.12 138.656L36.0979 138.865L36.0985 138.862L35.12 138.656ZM30.896 145.216L31.5304 145.989L31.5312 145.988L30.896 145.216ZM1.104 148L0.126007 147.791L-0.131836 149H1.104V148ZM9.296 109.6V108.6H8.48683L8.31801 109.391L9.296 109.6ZM18.896 109.6L19.8737 109.81L20.1339 108.6H18.896V109.6ZM17.52 116L16.5423 115.79L16.2821 117H17.52V116ZM35.984 118.176L35.2664 118.873L35.2717 118.878L35.984 118.176ZM37.936 125.28L36.9582 125.071L36.9575 125.074L37.936 125.28ZM25.552 138.464L24.5738 138.256L24.5724 138.263L25.552 138.464ZM28.304 125.504L29.2823 125.712L29.2846 125.7L28.304 125.504ZM27.664 123.136L26.9414 123.827L26.949 123.835L26.9569 123.843L27.664 123.136ZM16.176 122.4V121.4H15.3668L15.198 122.191L16.176 122.4ZM12.08 141.6L11.102 141.391L10.8442 142.6H12.08V141.6ZM24.144 140.672L24.782 141.442L24.7842 141.44L24.144 140.672ZM34.1421 138.447C33.6633 140.688 32.3977 142.686 30.2608 144.444L31.5312 145.988C33.9596 143.991 35.5101 141.616 36.0979 138.865L34.1421 138.447ZM30.2616 144.443C28.1468 146.179 25.9861 147 23.76 147V149C26.5259 149 29.1225 147.965 31.5304 145.989L30.2616 144.443ZM23.76 147H1.104V149H23.76V147ZM2.08199 148.209L10.274 109.809L8.31801 109.391L0.126007 147.791L2.08199 148.209ZM9.296 110.6H18.896V108.6H9.296V110.6ZM17.9183 109.39L16.5423 115.79L18.4977 116.21L19.8737 109.81L17.9183 109.39ZM17.52 117H30.64V115H17.52V117ZM30.64 117C32.5441 117 34.0601 117.63 35.2664 118.873L36.7016 117.48C35.0919 115.821 33.0452 115 30.64 115V117ZM35.2717 118.878C36.5092 120.134 37.128 121.66 37.128 123.52H39.128C39.128 121.156 38.3175 119.12 36.6963 117.474L35.2717 118.878ZM37.128 123.52C37.128 124.022 37.0723 124.538 36.9582 125.071L38.9138 125.49C39.0557 124.828 39.128 124.171 39.128 123.52H37.128ZM36.9575 125.074L34.1414 138.45L36.0985 138.862L38.9145 125.486L36.9575 125.074ZM26.5302 138.672L29.2822 125.712L27.3258 125.296L24.5738 138.256L26.5302 138.672ZM29.2846 125.7C29.3385 125.431 29.368 125.162 29.368 124.896H27.368C27.368 125.014 27.3548 125.151 27.3234 125.308L29.2846 125.7ZM29.368 124.896C29.368 123.945 29.0402 123.098 28.3711 122.429L26.9569 123.843C27.2264 124.113 27.368 124.439 27.368 124.896H29.368ZM28.3866 122.445C27.7148 121.742 26.8495 121.4 25.872 121.4V123.4C26.3452 123.4 26.6746 123.548 26.9414 123.827L28.3866 122.445ZM25.872 121.4H16.176V123.4H25.872V121.4ZM15.198 122.191L11.102 141.391L13.058 141.809L17.154 122.609L15.198 122.191ZM12.08 142.6H21.776V140.6H12.08V142.6ZM21.776 142.6C22.8785 142.6 23.8872 142.184 24.782 141.442L23.506 139.902C22.9075 140.398 22.3375 140.6 21.776 140.6V142.6ZM24.7842 141.44C25.6942 140.682 26.3076 139.757 26.5316 138.665L24.5724 138.263C24.455 138.835 24.1298 139.382 23.5038 139.904L24.7842 141.44ZM72.1986 148V149H73.0104L73.1773 148.206L72.1986 148ZM44.1346 145.824L43.4172 146.521L43.4223 146.526L44.1346 145.824ZM42.1826 138.688L43.1604 138.898L43.1611 138.895L42.1826 138.688ZM44.9986 125.344L44.0203 125.137L44.0202 125.138L44.9986 125.344ZM49.1906 118.784L49.8251 119.557L49.1906 118.784ZM75.0466 118.176L74.3343 118.878L74.3395 118.883L75.0466 118.176ZM76.9986 125.344L76.0194 125.141L76.0175 125.151L76.0158 125.16L76.9986 125.344ZM76.9026 125.856L77.8809 126.063L77.8833 126.052L77.8855 126.04L76.9026 125.856ZM72.7426 132.416L72.1046 131.646L72.7426 132.416ZM52.5186 135.2V134.2H51.7113L51.5411 134.989L52.5186 135.2ZM51.8146 138.464L50.8371 138.253L50.8355 138.261L50.834 138.268L51.8146 138.464ZM52.4546 140.864L51.732 141.555L51.7397 141.563L51.7475 141.571L52.4546 140.864ZM73.5426 141.6L74.5213 141.806L74.7744 140.6H73.5426V141.6ZM66.7266 123.136L65.9881 123.81L66.0035 123.827L66.0195 123.843L66.7266 123.136ZM55.9746 123.328L56.5993 124.109L56.606 124.104L56.6126 124.098L55.9746 123.328ZM54.5666 125.504L53.591 125.285L53.5887 125.295L54.5666 125.504ZM53.8626 128.8L52.8847 128.591L52.6265 129.8H53.8626V128.8ZM66.2466 127.616L66.9538 128.323L66.9631 128.314L66.2466 127.616ZM72.1986 147H49.5106V149H72.1986V147ZM49.5106 147C47.6064 147 46.0765 146.37 44.847 145.122L43.4223 146.526C45.0514 148.179 47.1055 149 49.5106 149V147ZM44.8521 145.127C43.6098 143.848 42.9906 142.308 42.9906 140.448H40.9906C40.9906 142.812 41.8008 144.856 43.4172 146.521L44.8521 145.127ZM42.9906 140.448C42.9906 139.947 43.0463 139.43 43.1604 138.898L41.2048 138.479C41.063 139.141 40.9906 139.798 40.9906 140.448H42.9906ZM43.1611 138.895L45.9771 125.551L44.0202 125.138L41.2042 138.482L43.1611 138.895ZM45.9769 125.551C46.4568 123.286 47.7139 121.29 49.8251 119.557L48.5562 118.011C46.1447 119.99 44.6071 122.367 44.0203 125.137L45.9769 125.551ZM49.8251 119.557C51.938 117.823 54.1092 117 56.3586 117V115C53.5734 115 50.9659 116.033 48.5562 118.011L49.8251 119.557ZM56.3586 117H69.6386V115H56.3586V117ZM69.6386 117C71.5672 117 73.1067 117.632 74.3343 118.878L75.7589 117.474C74.1278 115.819 72.062 115 69.6386 115V117ZM74.3395 118.883C75.5701 120.114 76.1906 121.636 76.1906 123.52H78.1906C78.1906 121.138 77.3818 119.097 75.7537 117.469L74.3395 118.883ZM76.1906 123.52C76.1906 124.046 76.1344 124.586 76.0194 125.141L77.9779 125.547C78.1189 124.865 78.1906 124.189 78.1906 123.52H76.1906ZM76.0158 125.16L75.9198 125.672L77.8855 126.04L77.9815 125.528L76.0158 125.16ZM75.9243 125.649C75.4438 127.917 74.1949 129.914 72.1046 131.646L73.3806 133.186C75.7704 131.206 77.2948 128.83 77.8809 126.063L75.9243 125.649ZM72.1046 131.646C70.0163 133.376 67.8468 134.2 65.5746 134.2V136.2C68.3798 136.2 70.9889 135.168 73.3806 133.186L72.1046 131.646ZM65.5746 134.2H52.5186V136.2H65.5746V134.2ZM51.5411 134.989L50.8371 138.253L52.7921 138.675L53.4961 135.411L51.5411 134.989ZM50.834 138.268C50.7801 138.538 50.7506 138.806 50.7506 139.072H52.7506C52.7506 138.954 52.7638 138.817 52.7952 138.66L50.834 138.268ZM50.7506 139.072C50.7506 140.023 51.0775 140.871 51.732 141.555L53.1773 140.173C52.8931 139.876 52.7506 139.529 52.7506 139.072H50.7506ZM51.7475 141.571C52.435 142.259 53.3015 142.6 54.2786 142.6V140.6C53.8051 140.6 53.4556 140.451 53.1617 140.157L51.7475 141.571ZM54.2786 142.6H73.5426V140.6H54.2786V142.6ZM72.564 141.395L71.22 147.795L73.1773 148.206L74.5213 141.806L72.564 141.395ZM68.4306 124.928C68.4306 123.965 68.1089 123.104 67.4337 122.429L66.0195 123.843C66.283 124.107 66.4306 124.441 66.4306 124.928H68.4306ZM67.4651 122.462C66.8031 121.737 65.9237 121.4 64.9346 121.4V123.4C65.4388 123.4 65.7541 123.554 65.9881 123.81L67.4651 122.462ZM64.9346 121.4H58.3746V123.4H64.9346V121.4ZM58.3746 121.4C57.2568 121.4 56.2368 121.812 55.3366 122.558L56.6126 124.098C57.2058 123.607 57.7858 123.4 58.3746 123.4V121.4ZM55.3499 122.547C54.4436 123.272 53.8376 124.189 53.591 125.285L55.5422 125.724C55.6797 125.113 56.0123 124.579 56.5993 124.109L55.3499 122.547ZM53.5887 125.295L52.8847 128.591L54.8406 129.009L55.5446 125.713L53.5887 125.295ZM53.8626 129.8H63.5586V127.8H53.8626V129.8ZM63.5586 129.8C64.8577 129.8 66.0001 129.277 66.9537 128.323L65.5395 126.909C64.9145 127.534 64.2649 127.8 63.5586 127.8V129.8ZM66.9631 128.314C67.9042 127.347 68.4306 126.21 68.4306 124.928H66.4306C66.4306 125.609 66.1677 126.264 65.5302 126.918L66.9631 128.314ZM120.973 128.8V129.8H121.785L121.952 129.006L120.973 128.8ZM96.9733 128.8V127.8H96.1634L95.9951 128.592L96.9733 128.8ZM92.8932 148V149H93.7031L93.8714 148.208L92.8932 148ZM78.4932 148L77.5151 147.792L77.2582 149H78.4932V148ZM85.7412 113.92L86.7194 114.128L86.7202 114.124L85.7412 113.92ZM91.9812 104.224L92.6157 104.997L92.6165 104.996L91.9812 104.224ZM127.069 100L128.048 100.206L128.301 99.0001H127.069V100ZM125.053 109.6V110.6H125.865L126.032 109.806L125.053 109.6ZM102.157 110.992L102.782 111.773L102.789 111.768L102.795 111.762L102.157 110.992ZM100.045 114.256L99.0696 114.037L99.0673 114.047L100.045 114.256ZM98.9893 119.2L98.0113 118.991L97.7531 120.2H98.9893V119.2ZM122.989 119.2L123.968 119.406L124.221 118.2H122.989V119.2ZM120.973 127.8H96.9733V129.8H120.973V127.8ZM95.9951 128.592L91.9151 147.792L93.8714 148.208L97.9514 129.008L95.9951 128.592ZM92.8932 147H78.4932V149H92.8932V147ZM79.4714 148.208L86.7194 114.128L84.7631 113.712L77.5151 147.792L79.4714 148.208ZM86.7202 114.124C87.434 110.704 89.3691 107.662 92.6157 104.997L91.3468 103.451C87.8094 106.354 85.5845 109.776 84.7623 113.716L86.7202 114.124ZM92.6165 104.996C95.8996 102.296 99.2339 101 102.637 101V99.0001C98.6806 99.0001 94.9109 100.52 91.346 103.452L92.6165 104.996ZM102.637 101H127.069V99.0001H102.637V101ZM126.091 99.7946L124.075 109.395L126.032 109.806L128.048 100.206L126.091 99.7946ZM125.053 108.6H105.757V110.6H125.053V108.6ZM105.757 108.6C104.213 108.6 102.793 109.167 101.519 110.222L102.795 111.762C103.762 110.961 104.742 110.6 105.757 110.6V108.6ZM101.533 110.211C100.253 111.235 99.4122 112.514 99.0696 114.037L101.021 114.476C101.254 113.438 101.822 112.541 102.782 111.773L101.533 110.211ZM99.0673 114.047L98.0113 118.991L99.9672 119.409L101.023 114.465L99.0673 114.047ZM98.9893 120.2H122.989V118.2H98.9893V120.2ZM122.011 118.995L119.995 128.595L121.952 129.006L123.968 119.406L122.011 118.995ZM140.917 148V149H141.727L141.895 148.207L140.917 148ZM126.517 148L125.538 147.793L125.282 149H126.517V148ZM136.693 100V99.0001H135.882L135.714 99.7927L136.693 100ZM151.093 100L152.071 100.207L152.327 99.0001H151.093V100ZM140.917 147H126.517V149H140.917V147ZM127.495 148.207L137.671 100.207L135.714 99.7927L125.538 147.793L127.495 148.207ZM136.693 101H151.093V99.0001H136.693V101ZM150.114 99.7927L139.938 147.793L141.895 148.207L152.071 100.207L150.114 99.7927ZM204.253 109.6V110.6H205.065L205.232 109.806L204.253 109.6ZM189.853 109.6V108.6H189.043L188.875 109.392L189.853 109.6ZM181.693 148V149H182.503L182.671 148.208L181.693 148ZM167.293 148L166.315 147.792L166.058 149H167.293V148ZM175.453 109.6L176.431 109.808L176.688 108.6H175.453V109.6ZM161.053 109.6L160.075 109.395L159.821 110.6H161.053V109.6ZM163.069 100V99.0001H162.257L162.091 99.7946L163.069 100ZM206.269 100L207.248 100.206L207.501 99.0001H206.269V100ZM204.253 108.6H189.853V110.6H204.253V108.6ZM188.875 109.392L180.715 147.792L182.671 148.208L190.831 109.808L188.875 109.392ZM181.693 147H167.293V149H181.693V147ZM168.271 148.208L176.431 109.808L174.475 109.392L166.315 147.792L168.271 148.208ZM175.453 108.6H161.053V110.6H175.453V108.6ZM162.032 109.806L164.048 100.206L162.091 99.7946L160.075 109.395L162.032 109.806ZM163.069 101H206.269V99.0001H163.069V101ZM205.291 99.7946L203.275 109.395L205.232 109.806L207.248 100.206L205.291 99.7946ZM257.48 109.6V110.6H258.292L258.458 109.806L257.48 109.6ZM243.08 109.6V108.6H242.27L242.102 109.392L243.08 109.6ZM234.92 148V149H235.73L235.898 148.208L234.92 148ZM220.52 148L219.542 147.792L219.285 149H220.52V148ZM228.68 109.6L229.658 109.808L229.915 108.6H228.68V109.6ZM214.28 109.6L213.301 109.395L213.048 110.6H214.28V109.6ZM216.296 100V99.0001H215.484L215.317 99.7946L216.296 100ZM259.496 100L260.474 100.206L260.728 99.0001H259.496V100ZM257.48 108.6H243.08V110.6H257.48V108.6ZM242.102 109.392L233.942 147.792L235.898 148.208L244.058 109.808L242.102 109.392ZM234.92 147H220.52V149H234.92V147ZM221.498 148.208L229.658 109.808L227.702 109.392L219.542 147.792L221.498 148.208ZM228.68 108.6H214.28V110.6H228.68V108.6ZM215.258 109.806L217.274 100.206L215.317 99.7946L213.301 109.395L215.258 109.806ZM216.296 101H259.496V99.0001H216.296V101ZM258.517 99.7946L256.501 109.395L258.458 109.806L260.474 100.206L258.517 99.7946ZM299.706 148V149H300.518L300.684 148.206L299.706 148ZM267.21 144.736L266.497 145.438L266.503 145.443L267.21 144.736ZM264.282 133.984L265.26 134.194L265.26 134.192L264.282 133.984ZM268.554 113.92L269.532 114.128L269.533 114.124L268.554 113.92ZM274.794 104.224L275.428 104.997L275.429 104.996L274.794 104.224ZM309.882 100L310.86 100.206L311.114 99.0001H309.882V100ZM307.866 109.6V110.6H308.678L308.844 109.806L307.866 109.6ZM284.97 110.992L285.594 111.773L285.601 111.768L285.608 111.762L284.97 110.992ZM282.858 114.256L281.882 114.037L281.88 114.047L282.858 114.256ZM281.802 119.2L280.824 118.991L280.566 120.2H281.802V119.2ZM305.802 119.2L306.78 119.406L307.034 118.2H305.802V119.2ZM303.786 128.8V129.8H304.598L304.764 129.006L303.786 128.8ZM279.786 128.8V127.8H278.978L278.808 128.589L279.786 128.8ZM278.73 133.696L279.706 133.913L279.707 133.907L278.73 133.696ZM279.738 137.296L279.016 137.988L279.023 137.996L279.031 138.003L279.738 137.296ZM301.722 138.4L302.7 138.606L302.954 137.4H301.722V138.4ZM299.706 147H275.37V149H299.706V147ZM275.37 147C272.353 147 269.893 146.005 267.917 144.029L266.503 145.443C268.878 147.819 271.858 149 275.37 149V147ZM267.922 144.034C265.972 142.055 264.994 139.623 264.994 136.672H262.994C262.994 140.121 264.16 143.065 266.497 145.438L267.922 144.034ZM264.994 136.672C264.994 135.848 265.082 135.022 265.26 134.194L263.304 133.775C263.098 134.738 262.994 135.704 262.994 136.672H264.994ZM265.26 134.192L269.532 114.128L267.576 113.712L263.304 133.776L265.26 134.192ZM269.533 114.124C270.246 110.704 272.182 107.662 275.428 104.997L274.159 103.451C270.622 106.354 268.397 109.776 267.575 113.716L269.533 114.124ZM275.429 104.996C278.712 102.296 282.046 101 285.45 101V99.0001C281.493 99.0001 277.723 100.52 274.159 103.452L275.429 104.996ZM285.45 101H309.882V99.0001H285.45V101ZM308.903 99.7946L306.887 109.395L308.844 109.806L310.86 100.206L308.903 99.7946ZM307.866 108.6H288.57V110.6H307.866V108.6ZM288.57 108.6C287.025 108.6 285.605 109.167 284.332 110.222L285.608 111.762C286.574 110.961 287.554 110.6 288.57 110.6V108.6ZM284.345 110.211C283.065 111.235 282.225 112.514 281.882 114.037L283.833 114.476C284.067 113.438 284.634 112.541 285.594 111.773L284.345 110.211ZM281.88 114.047L280.824 118.991L282.78 119.409L283.836 114.465L281.88 114.047ZM281.802 120.2H305.802V118.2H281.802V120.2ZM304.823 118.995L302.807 128.595L304.764 129.006L306.78 119.406L304.823 118.995ZM303.786 127.8H279.786V129.8H303.786V127.8ZM278.808 128.589L277.752 133.485L279.707 133.907L280.763 129.011L278.808 128.589ZM277.754 133.479C277.674 133.837 277.634 134.197 277.634 134.56H279.634C279.634 134.347 279.657 134.132 279.706 133.913L277.754 133.479ZM277.634 134.56C277.634 135.876 278.103 137.035 279.016 137.988L280.46 136.604C279.901 136.021 279.634 135.356 279.634 134.56H277.634ZM279.031 138.003C279.957 138.93 281.109 139.4 282.426 139.4V137.4C281.631 137.4 280.99 137.134 280.445 136.589L279.031 138.003ZM282.426 139.4H301.722V137.4H282.426V139.4ZM300.743 138.195L298.727 147.795L300.684 148.206L302.7 138.606L300.743 138.195ZM364.385 114.832L365.363 115.042L365.367 115.024L365.37 115.006L364.385 114.832ZM357.953 124.72L357.335 123.934L357.331 123.937L357.953 124.72ZM347.009 128.8V127.8H345.681L346.048 129.076L347.009 128.8ZM352.529 148V149H353.857L353.49 147.724L352.529 148ZM338.129 148L337.168 148.276L337.376 149H338.129V148ZM332.609 128.8L333.57 128.524L333.362 127.8H332.609V128.8ZM327.809 128.8V127.8H326.999L326.831 128.592L327.809 128.8ZM323.729 148V149H324.539L324.707 148.208L323.729 148ZM309.329 148L308.351 147.793L308.095 149H309.329V148ZM319.505 100V99.0001H318.695L318.527 99.7927L319.505 100ZM361.601 103.312L360.884 104.009L360.889 104.014L361.601 103.312ZM364.529 114.016L363.551 113.807L363.548 113.824L363.544 113.842L364.529 114.016ZM349.121 110.704L348.399 111.395L348.406 111.403L348.414 111.411L349.121 110.704ZM331.889 109.6V108.6H331.081L330.912 109.39L331.889 109.6ZM329.825 119.2L328.848 118.99L328.587 120.2H329.825V119.2ZM348.353 117.376L347.646 116.669L347.637 116.678L348.353 117.376ZM363.408 114.622C362.63 118.241 360.629 121.341 357.335 123.934L358.572 125.506C362.189 122.659 364.476 119.168 365.363 115.042L363.408 114.622ZM357.331 123.937C354.06 126.536 350.626 127.8 347.009 127.8V129.8C351.136 129.8 354.998 128.344 358.575 125.503L357.331 123.937ZM346.048 129.076L351.568 148.276L353.49 147.724L347.97 128.524L346.048 129.076ZM352.529 147H338.129V149H352.529V147ZM339.09 147.724L333.57 128.524L331.648 129.076L337.168 148.276L339.09 147.724ZM332.609 127.8H327.809V129.8H332.609V127.8ZM326.831 128.592L322.751 147.792L324.707 148.208L328.787 129.008L326.831 128.592ZM323.729 147H309.329V149H323.729V147ZM310.307 148.207L320.483 100.207L318.527 99.7927L308.351 147.793L310.307 148.207ZM319.505 101H353.489V99.0001H319.505V101ZM353.489 101C356.501 101 358.94 102.007 360.884 104.009L362.319 102.615C359.974 100.201 357.005 99.0001 353.489 99.0001V101ZM360.889 104.014C362.841 105.995 363.817 108.412 363.817 111.328H365.817C365.817 107.908 364.649 104.981 362.314 102.61L360.889 104.014ZM363.817 111.328C363.817 112.152 363.729 112.978 363.551 113.807L365.507 114.226C365.713 113.262 365.817 112.296 365.817 111.328H363.817ZM363.544 113.842L363.4 114.658L365.37 115.006L365.514 114.19L363.544 113.842ZM351.177 113.344C351.177 112.041 350.732 110.901 349.828 109.997L348.414 111.411C348.918 111.915 349.177 112.535 349.177 113.344H351.177ZM349.844 110.013C348.937 109.065 347.773 108.6 346.433 108.6V110.6C347.269 110.6 347.897 110.871 348.399 111.395L349.844 110.013ZM346.433 108.6H331.889V110.6H346.433V108.6ZM330.912 109.39L328.848 118.99L330.803 119.41L332.867 109.81L330.912 109.39ZM329.825 120.2H344.369V118.2H329.825V120.2ZM344.369 120.2C346.153 120.2 347.729 119.451 349.07 118.074L347.637 116.678C346.61 117.733 345.53 118.2 344.369 118.2V120.2ZM349.06 118.083C350.43 116.714 351.177 115.126 351.177 113.344H349.177C349.177 114.506 348.709 115.606 347.646 116.669L349.06 118.083Z" fill="#31373E"/>
<path d="M33.12 136.656C32.5867 139.152 31.1787 141.339 28.896 143.216C26.6347 145.072 24.256 146 21.76 146H-0.896L7.296 107.6H16.896L15.52 114H28.64C30.7947 114 32.576 114.725 33.984 116.176C35.4133 117.627 36.128 119.408 36.128 121.52C36.128 122.096 36.064 122.683 35.936 123.28L33.12 136.656ZM23.552 136.464L26.304 123.504C26.3467 123.291 26.368 123.088 26.368 122.896C26.368 122.192 26.1333 121.605 25.664 121.136C25.1947 120.645 24.5973 120.4 23.872 120.4H14.176L10.08 139.6H19.776C20.608 139.6 21.3973 139.291 22.144 138.672C22.912 138.032 23.3813 137.296 23.552 136.464ZM70.1986 146H47.5106C45.356 146 43.564 145.275 42.1346 143.824C40.7053 142.352 39.9906 140.56 39.9906 138.448C39.9906 137.872 40.0546 137.285 40.1826 136.688L42.9986 123.344C43.532 120.827 44.9293 118.64 47.1906 116.784C49.452 114.928 51.8413 114 54.3586 114H67.6386C69.8146 114 71.6173 114.725 73.0466 116.176C74.476 117.605 75.1906 119.387 75.1906 121.52C75.1906 122.117 75.1266 122.725 74.9986 123.344L74.9026 123.856C74.3693 126.373 72.9826 128.56 70.7426 130.416C68.5026 132.272 66.1133 133.2 63.5746 133.2H50.5186L49.8146 136.464C49.772 136.677 49.7506 136.88 49.7506 137.072C49.7506 137.776 49.9853 138.373 50.4546 138.864C50.9453 139.355 51.5533 139.6 52.2786 139.6H71.5426L70.1986 146ZM65.4306 122.928C65.4306 122.203 65.196 121.605 64.7266 121.136C64.2786 120.645 63.6813 120.4 62.9346 120.4H56.3746C55.5213 120.4 54.7213 120.709 53.9746 121.328C53.228 121.925 52.7586 122.651 52.5666 123.504L51.8626 126.8H61.5586C62.5613 126.8 63.4573 126.405 64.2466 125.616C65.036 124.805 65.4306 123.909 65.4306 122.928ZM118.973 126.8H94.9732L90.8932 146H76.4933L83.7412 111.92C84.5092 108.24 86.5893 105.008 89.9813 102.224C93.4052 99.4081 96.9572 98.0001 100.637 98.0001H125.069L123.053 107.6H103.757C102.477 107.6 101.277 108.064 100.157 108.992C99.0372 109.888 98.3333 110.976 98.0452 112.256L96.9892 117.2H120.989L118.973 126.8ZM138.917 146H124.517L134.693 98.0001H149.093L138.917 146ZM202.253 107.6H187.853L179.693 146H165.293L173.453 107.6H159.053L161.069 98.0001H204.269L202.253 107.6ZM255.48 107.6H241.08L232.92 146H218.52L226.68 107.6H212.28L214.296 98.0001H257.496L255.48 107.6ZM297.706 146H273.37C270.106 146 267.386 144.912 265.21 142.736C263.066 140.56 261.994 137.872 261.994 134.672C261.994 133.776 262.09 132.88 262.282 131.984L266.554 111.92C267.322 108.24 269.402 105.008 272.794 102.224C276.218 99.4081 279.77 98.0001 283.45 98.0001H307.882L305.866 107.6H286.57C285.29 107.6 284.09 108.064 282.97 108.992C281.85 109.888 281.146 110.976 280.858 112.256L279.802 117.2H303.802L301.786 126.8H277.786L276.73 131.696C276.666 131.984 276.634 132.272 276.634 132.56C276.634 133.616 277.002 134.528 277.738 135.296C278.474 136.032 279.37 136.4 280.426 136.4H299.722L297.706 146ZM362.385 112.832C361.553 116.704 359.409 120 355.953 122.72C352.529 125.44 348.881 126.8 345.009 126.8L350.529 146H336.129L330.609 126.8H325.809L321.729 146H307.329L317.505 98.0001H351.489C354.753 98.0001 357.457 99.1041 359.601 101.312C361.745 103.488 362.817 106.16 362.817 109.328C362.817 110.224 362.721 111.12 362.529 112.016L362.385 112.832ZM348.177 111.344C348.177 110.288 347.825 109.408 347.121 108.704C346.417 107.968 345.521 107.6 344.433 107.6H329.889L327.825 117.2H342.369C343.841 117.2 345.169 116.592 346.353 115.376C347.569 114.16 348.177 112.816 348.177 111.344Z" fill="#31373E"/>
<path d="M95.5813 217H65.72C61.7698 217 58.4844 215.67 55.864 213.011C53.2436 210.312 51.9333 207.027 51.9333 203.155C51.9333 202.099 52.0507 201.023 52.2853 199.928L61.0853 158.333H78.6853L69.944 199.517C69.8658 199.909 69.8267 200.28 69.8267 200.632C69.8267 201.923 70.2569 203.018 71.1173 203.917C72.0169 204.817 73.1316 205.267 74.4613 205.267H98.0453L95.5813 217ZM124.943 217H107.343L119.781 158.333H137.381L124.943 217ZM202.355 170.067H184.755L174.781 217H157.181L167.155 170.067H149.555L152.019 158.333H204.819L202.355 170.067ZM253.964 217H224.22C220.231 217 216.906 215.67 214.247 213.011C211.626 210.351 210.316 207.066 210.316 203.155C210.316 202.06 210.433 200.965 210.668 199.869L215.889 175.347C216.828 170.849 219.37 166.899 223.516 163.496C227.701 160.054 232.042 158.333 236.54 158.333H266.401L263.937 170.067H240.353C238.789 170.067 237.322 170.634 235.953 171.768C234.585 172.863 233.724 174.193 233.372 175.757L232.081 181.8H261.415L258.951 193.533H229.617L228.327 199.517C228.249 199.869 228.209 200.221 228.209 200.573C228.209 201.864 228.659 202.979 229.559 203.917C230.458 204.817 231.553 205.267 232.844 205.267H256.428L253.964 217ZM330.494 188.253C329.516 192.751 326.955 196.721 322.809 200.163C318.702 203.565 314.38 205.267 309.843 205.267H285.79L283.326 217H265.726L278.163 158.333H319.699C323.689 158.333 326.994 159.683 329.614 162.381C332.235 165.041 333.545 168.307 333.545 172.179C333.545 173.274 333.427 174.369 333.193 175.464L330.494 188.253ZM313.011 187.784L315.534 175.757C315.612 175.366 315.651 174.995 315.651 174.643C315.651 173.352 315.221 172.277 314.361 171.416C313.5 170.517 312.405 170.067 311.075 170.067H293.299L288.313 193.533H306.089C307.575 193.533 309.003 192.966 310.371 191.832C311.779 190.659 312.659 189.309 313.011 187.784ZM394.776 217H377.176L379.64 205.267H356.173L353.709 217H336.109L344.909 175.464C345.887 170.888 348.448 166.899 352.594 163.496C356.779 160.054 361.16 158.333 365.736 158.333H390.082C394.072 158.333 397.376 159.683 399.997 162.381C402.617 165.041 403.928 168.307 403.928 172.179C403.928 173.274 403.81 174.369 403.576 175.464L394.776 217ZM382.162 193.533L385.917 175.757C385.995 175.366 386.034 174.995 386.034 174.643C386.034 173.352 385.604 172.277 384.744 171.416C383.883 170.517 382.788 170.067 381.458 170.067H369.432C367.867 170.067 366.4 170.634 365.032 171.768C363.663 172.863 362.802 174.193 362.45 175.757L358.696 193.533H382.162ZM471.26 188.253C470.282 192.751 467.72 196.721 463.574 200.163C459.468 203.565 455.146 205.267 450.609 205.267H426.556L424.092 217H406.492L418.929 158.333H460.465C464.454 158.333 467.759 159.683 470.38 162.381C473 165.041 474.31 168.307 474.31 172.179C474.31 173.274 474.193 174.369 473.958 175.464L471.26 188.253ZM453.777 187.784L456.3 175.757C456.378 175.366 456.417 174.995 456.417 174.643C456.417 173.352 455.987 172.277 455.126 171.416C454.266 170.517 453.171 170.067 451.841 170.067H434.065L429.078 193.533H446.854C448.341 193.533 449.768 192.966 451.137 191.832C452.545 190.659 453.425 189.309 453.777 187.784ZM523.808 217H494.064C490.075 217 486.75 215.67 484.091 213.011C481.47 210.351 480.16 207.066 480.16 203.155C480.16 202.06 480.277 200.965 480.512 199.869L485.733 175.347C486.672 170.849 489.214 166.899 493.36 163.496C497.545 160.054 501.886 158.333 506.384 158.333H536.245L533.781 170.067H510.197C508.633 170.067 507.166 170.634 505.797 171.768C504.428 172.863 503.568 174.193 503.216 175.757L501.925 181.8H531.259L528.795 193.533H499.461L498.171 199.517C498.092 199.869 498.053 200.221 498.053 200.573C498.053 201.864 498.503 202.979 499.403 203.917C500.302 204.817 501.397 205.267 502.688 205.267H526.272L523.808 217ZM602.861 176.461C601.844 181.194 599.223 185.222 594.999 188.547C590.814 191.871 586.356 193.533 581.623 193.533L588.37 217H570.77L564.023 193.533H558.157L553.17 217H535.57L548.007 158.333H589.543C593.533 158.333 596.837 159.683 599.458 162.381C602.078 165.041 603.389 168.307 603.389 172.179C603.389 173.274 603.271 174.369 603.037 175.464L602.861 176.461ZM585.495 174.643C585.495 173.352 585.065 172.277 584.205 171.416C583.344 170.517 582.249 170.067 580.919 170.067H563.143L560.621 181.8H578.397C580.196 181.8 581.819 181.057 583.266 179.571C584.752 178.085 585.495 176.442 585.495 174.643Z" fill="#FF6D24"/>
<defs>
<linearGradient id="paint0_linear_2730_12133" x1="242.949" y1="78.6462" x2="436.534" y2="77.9277" gradientUnits="userSpaceOnUse">
<stop stop-color="#FF6D24" stop-opacity="0"/>
<stop offset="1" stop-color="#FF6D24"/>
</linearGradient>
<linearGradient id="paint1_linear_2730_12133" x1="285.696" y1="105.977" x2="428.818" y2="105.781" gradientUnits="userSpaceOnUse">
<stop stop-color="#FF6D24" stop-opacity="0"/>
<stop offset="1" stop-color="#FF6D24"/>
</linearGradient>
</defs>
</svg>
