<svg width="48" height="48" viewBox="0 0 48 48" fill="none" xmlns="http://www.w3.org/2000/svg">
<path d="M24 3C12.4031 3 3 12.4031 3 24C3 35.5969 12.4031 45 24 45C35.5969 45 45 35.5969 45 24C45 12.4031 35.5969 3 24 3ZM36 14.8922L34.0875 16.725C33.9188 16.8516 33.8391 17.0578 33.8719 17.2594V30.7453C33.8391 30.9516 33.9188 31.1578 34.0875 31.2797L35.9625 33.1125V33.5203H26.55V33.1312L28.4859 31.2516C28.6781 31.0594 28.6781 31.0031 28.6781 30.7172V19.8047L23.2875 33.4734H22.5609L16.2891 19.8047V28.9688C16.2328 29.3531 16.3687 29.7422 16.6406 30.0188L19.1625 33.0703V33.4781H12V33.0703L14.5219 30.0188C14.6547 29.8815 14.7536 29.715 14.8106 29.5327C14.8676 29.3504 14.8811 29.1572 14.85 28.9688V18.375C14.8828 18.0797 14.7703 17.7937 14.5453 17.5922L12.3047 14.8922V14.4844H19.2656L24.6375 26.2734L29.3672 14.4938H36V14.8922Z" fill="#F8F9FB"/>
</svg>
