<svg width="49" height="48" viewBox="0 0 49 48" fill="none" xmlns="http://www.w3.org/2000/svg">
<path d="M24.1157 4C13.0757 4 4.11572 12.96 4.11572 24C4.11572 35.04 13.0757 44 24.1157 44C35.1557 44 44.1157 35.04 44.1157 24C44.1157 12.96 35.1557 4 24.1157 4ZM32.1757 25.06L26.1757 31.06C25.8757 31.36 25.4957 31.5 25.1157 31.5C24.7357 31.5 24.3557 31.36 24.0557 31.06C23.4757 30.48 23.4757 29.52 24.0557 28.94L27.4957 25.5H17.1157C16.2957 25.5 15.6157 24.82 15.6157 24C15.6157 23.18 16.2957 22.5 17.1157 22.5H27.4957L24.0557 19.06C23.4757 18.48 23.4757 17.52 24.0557 16.94C24.6357 16.36 25.5957 16.36 26.1757 16.94L32.1757 22.94C32.7557 23.52 32.7557 24.48 32.1757 25.06Z" fill="white"/>
</svg>
