<svg width="48" height="56" viewBox="0 0 48 56" fill="none" xmlns="http://www.w3.org/2000/svg">
<path d="M24 10C12.4031 10 3 19.4031 3 31C3 42.5969 12.4031 52 24 52C35.5969 52 45 42.5969 45 31C45 19.4031 35.5969 10 24 10ZM34.0922 25.8297C34.1062 26.05 34.1062 26.2797 34.1062 26.5047C34.1062 33.3859 28.8656 41.3125 19.2891 41.3125C16.3359 41.3125 13.5984 40.4547 11.2922 38.9781C11.7141 39.025 12.1172 39.0437 12.5484 39.0437C14.9859 39.0437 17.2266 38.2188 19.0125 36.8219C16.725 36.775 14.8031 35.275 14.1469 33.2125C14.9484 33.3297 15.6703 33.3297 16.4953 33.1188C15.3175 32.8795 14.2588 32.2398 13.4991 31.3084C12.7395 30.377 12.3257 29.2113 12.3281 28.0094V27.9437C13.0172 28.3328 13.8281 28.5719 14.6766 28.6047C13.9633 28.1293 13.3784 27.4854 12.9736 26.7298C12.5689 25.9743 12.3568 25.1306 12.3563 24.2734C12.3563 23.3031 12.6094 22.4172 13.0641 21.6484C14.3714 23.2578 16.0028 24.5741 17.8522 25.5117C19.7016 26.4493 21.7275 26.9873 23.7984 27.0906C23.0625 23.5516 25.7063 20.6875 28.8844 20.6875C30.3844 20.6875 31.7344 21.3156 32.6859 22.3281C33.8625 22.1078 34.9875 21.6672 35.9906 21.0766C35.6016 22.2812 34.7859 23.2984 33.7031 23.9406C34.7531 23.8281 35.7656 23.5375 36.7031 23.1297C35.9953 24.1703 35.1094 25.0938 34.0922 25.8297Z" fill="white"/>
</svg>
