<svg width="49" height="48" viewBox="0 0 49 48" fill="none" xmlns="http://www.w3.org/2000/svg">
<path d="M16.5 12.3109C16.5 10.0171 14.6338 8.15088 12.34 8.15088C10.0462 8.15088 8.18 10.0171 8.18 12.3109C8.18 14.6046 10.0462 16.4709 12.34 16.4709C14.6338 16.4709 16.5 14.6046 16.5 12.3109ZM9.46 12.3109C9.46 10.7227 10.7518 9.43088 12.34 9.43088C13.9282 9.43088 15.22 10.7227 15.22 12.3109C15.22 13.899 13.9282 15.1909 12.34 15.1909C10.7518 15.1909 9.46 13.8989 9.46 12.3109ZM19.6226 11.8034L20.075 11.3509L19.6226 10.8984C19.3726 10.6485 19.3726 10.2434 19.6226 9.99344C19.8725 9.74352 20.2776 9.74352 20.5275 9.99344L20.98 10.4458L21.4325 9.99328C21.6824 9.74336 22.0875 9.74336 22.3374 9.99328C22.5874 10.2432 22.5874 10.6483 22.3374 10.8982L21.885 11.3507L22.3374 11.8032C22.5874 12.0531 22.5874 12.4582 22.3374 12.7082C22.2125 12.8331 22.0486 12.8957 21.885 12.8957C21.7213 12.8957 21.5574 12.8331 21.4325 12.7082L20.98 12.2558L20.5275 12.7083C20.4026 12.8333 20.2387 12.8958 20.075 12.8958C19.9114 12.8958 19.7475 12.8333 19.6226 12.7083C19.3725 12.4584 19.3725 12.0533 19.6226 11.8034ZM20.3483 5.97344C20.3483 5.59552 20.6547 5.28912 21.0325 5.28912C21.4102 5.28912 21.7168 5.59552 21.7168 5.97344C21.7168 6.3512 21.4104 6.6576 21.0325 6.6576C20.6546 6.6576 20.3483 6.35136 20.3483 5.97344ZM12.9842 14.3378C12.4563 14.3378 12.0283 13.9098 12.0283 13.3819C12.0283 12.8541 12.4563 12.4261 12.9842 12.4261C13.5122 12.4261 13.94 12.8541 13.94 13.3819C13.94 13.9098 13.512 14.3378 12.9842 14.3378ZM12.1168 11.0934C12.1168 11.4712 11.8104 11.7776 11.4325 11.7776C11.0546 11.7776 10.7483 11.4712 10.7483 11.0934C10.7483 10.7155 11.0547 10.4091 11.4325 10.4091C11.8102 10.4091 12.1168 10.7155 12.1168 11.0934ZM32.2419 32.5578L30.4707 30.3778C30.427 30.324 30.375 30.2778 30.317 30.241L30.235 29.5003C30.2026 29.216 30.0194 29.0291 29.765 28.7704C29.7131 28.7179 29.6594 28.6648 29.6144 28.6166V28.151C29.6144 27.7973 29.3282 27.511 28.9744 27.511H28.675C28.4501 27.511 28.2419 27.6291 28.1262 27.8216L27.5318 28.8122L27.3456 28.719C27.3856 28.4496 27.32 28.1715 27.1587 27.9472C26.9613 27.6741 26.6424 27.5109 26.3056 27.5109H25.3331C24.9312 27.5109 24.5706 27.7341 24.3925 28.0922L24.1282 28.6203C23.115 28.4947 22.7938 28.6298 22.597 28.9059L21.3957 30.5872C21.1138 30.744 20.2451 31.1934 19.4669 31.5898C19.215 31.7154 19.0275 31.9323 18.9387 32.1992C18.8499 32.4654 18.8706 32.7504 18.9938 32.996C19.495 34.0197 20.0426 35.1622 20.2082 35.5422L20.1662 35.8328C20.1237 36.1347 20.2138 36.4397 20.4138 36.6702C20.7512 37.059 21.3757 37.1358 21.7906 36.8552L22.4256 36.4326H22.7187C23.2469 36.4326 23.685 36.0414 23.7594 35.5339H25.4712C25.6538 35.6802 26.0056 35.9939 26.2893 36.2602C26.3398 36.307 26.3968 36.3451 26.4592 36.3739C26.696 36.4834 26.9605 36.6238 27.1067 36.7165L27.2261 37.4339C27.3429 37.9034 27.7629 38.2307 28.2467 38.2307H28.8699C29.2699 38.2307 29.6299 38.0082 29.8112 37.6482L30.0843 37.6314C30.6037 37.6314 30.8362 37.1402 30.9611 36.8757L30.9968 36.8019C31.0099 36.7787 31.0218 36.755 31.0318 36.7307L32.3819 33.4926C32.3982 33.4539 32.4107 33.4133 32.4187 33.372C32.4686 33.1238 32.4269 32.8658 32.3013 32.6451C32.2837 32.6146 32.2637 32.5851 32.2419 32.5578ZM29.8626 36.2102C29.8451 36.244 29.8251 36.2846 29.8045 36.3283C29.8008 36.3358 29.797 36.3434 29.7939 36.3515H29.6782C29.2782 36.3515 28.9182 36.5741 28.737 36.9341L28.4419 36.9509L28.3251 36.2502C28.2789 36.0634 28.2088 35.7834 27.0894 35.2552C26.0138 34.2539 25.8931 34.2539 25.6576 34.2539H23.5426C23.0144 34.2539 22.5757 34.6451 22.5019 35.1526H22.3563C22.1482 35.1526 21.9469 35.2139 21.7738 35.3294L21.5056 35.5075C21.525 35.3032 21.4355 35.0757 20.2406 32.6318C22.2338 31.6162 22.2531 31.5886 22.3619 31.4362L23.4918 29.8542C23.6387 29.8574 23.8544 29.8749 24.0462 29.8998C24.5174 29.9979 24.9837 29.771 25.1994 29.3398L25.4744 28.7904H26.0307C26.0126 29.196 26.2326 29.5923 26.6101 29.7816L27.1482 30.051C27.6381 30.2947 28.24 30.1192 28.5206 29.651L28.6426 29.4474C28.7062 29.5186 28.777 29.5906 28.852 29.6661C28.897 29.7123 28.9426 29.7566 28.9802 29.7973L29.0589 30.5085C29.0963 30.8379 29.2877 31.1278 29.5658 31.2941L31.1163 33.2022L29.8626 36.2102ZM27.0374 22.504L28.9338 22.3859L30.6888 21.8291C31.0282 21.721 31.3862 21.9091 31.4925 22.2454C31.5994 22.5822 31.4131 22.9422 31.0762 23.0491L29.2461 23.6298C29.1962 23.6454 29.1442 23.6554 29.0923 23.6586L27.1173 23.7818C27.1035 23.7824 27.0898 23.783 27.0766 23.783C26.7416 23.783 26.4597 23.5218 26.4386 23.183C26.4168 22.8296 26.685 22.5258 27.0374 22.504ZM22.7675 22.8434C22.5176 22.5934 22.5176 22.1883 22.7675 21.9384L23.2475 21.4584C23.4974 21.2085 23.9026 21.2085 24.1525 21.4584C24.4024 21.7083 24.4024 22.1134 24.1525 22.3634L23.6725 22.8434C23.5475 22.9683 23.3837 23.0309 23.22 23.0309C23.0563 23.0309 22.8925 22.9683 22.7675 22.8434ZM23.8931 19.2333C23.9462 19.3939 24.0619 19.527 24.2138 19.6032L25.897 20.4445L26.2933 21.6333C26.3514 21.809 26.4838 21.9507 26.6552 22.0221C26.7339 22.0546 26.8171 22.0709 26.9002 22.0709C26.9982 22.0709 27.0965 22.0483 27.1864 22.0034L28.1464 21.5234C28.4045 21.3939 28.5445 21.1083 28.4877 20.8253L28.0077 18.4253C27.9608 18.1902 27.7864 18.0016 27.5558 17.9354L24.1958 16.9754C23.9683 16.9122 23.7221 16.9766 23.5578 17.1485C23.3941 17.3197 23.3378 17.5678 23.4134 17.7934L23.8931 19.2333ZM26.8288 19.0589L26.9413 19.6189C26.8806 19.5346 26.8006 19.4658 26.7062 19.4182L25.023 18.577L25.0106 18.5395L26.8288 19.0589ZM23.2538 25.3634L22.2938 24.8834C21.9774 24.7253 21.8494 24.3408 22.0075 24.0246C22.1662 23.7083 22.5507 23.581 22.8662 23.7384L23.8262 24.2184C24.1426 24.3765 24.2706 24.761 24.1125 25.0771C24 25.3014 23.7744 25.4309 23.5394 25.4309C23.4432 25.4309 23.3456 25.409 23.2538 25.3634ZM30.1275 20.2834C29.8776 20.0334 29.8776 19.6283 30.1275 19.3784L30.6075 18.8984C30.8574 18.6485 31.2626 18.6485 31.5125 18.8984C31.7624 19.1483 31.7624 19.5534 31.5125 19.8034L31.0325 20.2834C30.9075 20.4083 30.7437 20.4709 30.58 20.4709C30.4163 20.4709 30.2525 20.4083 30.1275 20.2834ZM40.82 15.8309C40.82 13.3608 38.8101 11.3509 36.34 11.3509C33.8848 11.3509 31.8861 13.3374 31.8622 15.787C30.0594 14.9792 28.0899 14.5509 26.1 14.5509C18.3363 14.5509 12.02 20.8672 12.02 28.6309C12.02 36.3946 18.3363 42.7109 26.1 42.7109C33.8637 42.7109 40.18 36.3946 40.18 28.6309C40.18 26.1237 39.5098 23.6814 38.252 21.5325C39.5093 20.1629 40.82 17.9422 40.82 15.8309ZM36.34 12.6309C38.1043 12.6309 39.54 14.0666 39.54 15.8309C39.54 18.4597 37.1157 21.1203 36.34 21.5571C35.5643 21.1203 33.14 18.4597 33.14 15.8309C33.14 14.0664 34.5757 12.6309 36.34 12.6309ZM19.3906 17.7509L20.5368 20.329L19.6869 21.1784L17.1826 20.344C16.9875 20.2771 16.7731 20.3109 16.6058 20.4315C16.4389 20.5522 16.3402 20.7453 16.3402 20.9509V23.8309C16.3402 24.0253 16.4283 24.209 16.5802 24.3309L18.9802 26.2509C19.0602 26.3146 19.1546 26.3584 19.2546 26.3784L21.14 26.7552V27.0309H19.165L17.4325 25.2984C17.343 25.209 17.2293 25.1483 17.1056 25.1234L15.1024 24.7227L14.6547 22.9331C15.7234 20.7957 17.3686 19.0024 19.3906 17.7509ZM26.1 41.4309C19.0419 41.4309 13.3 35.689 13.3 28.6309C13.3 27.3544 13.4933 26.1235 13.8427 24.9594L13.9594 25.4259C14.0194 25.6659 14.2118 25.8502 14.4544 25.8984L16.6643 26.3403L18.4475 28.1235C18.5675 28.2435 18.7301 28.311 18.9 28.311H21.78C22.1338 28.311 22.42 28.0248 22.42 27.671V26.231C22.42 25.9261 22.2043 25.6635 21.9056 25.6035L19.6581 25.1541L17.62 23.5234V21.839L19.6574 22.5178C19.8869 22.5958 20.1411 22.5346 20.3125 22.3634L21.7525 20.9234C21.94 20.7358 21.9925 20.4528 21.885 20.2109L20.516 17.1309C22.2062 16.3067 24.0963 15.8309 26.1 15.8309C28.1795 15.8309 30.2347 16.3435 32.0613 17.3062C32.7936 20.1946 35.3814 22.8709 36.34 22.8709C36.5742 22.8709 36.9091 22.7037 37.2877 22.42C38.3408 24.3136 38.9 26.4453 38.9 28.6309C38.9 35.689 33.1581 41.4309 26.1 41.4309ZM38.9 15.8309C38.9 14.419 37.7518 13.2709 36.34 13.2709C34.9282 13.2709 33.78 14.419 33.78 15.8309C33.78 17.2427 34.9282 18.3909 36.34 18.3909C37.7518 18.3909 38.9 17.2427 38.9 15.8309Z" fill="current"/>
</svg>
