<svg width="64" height="64" viewBox="0 0 64 64" fill="current" xmlns="http://www.w3.org/2000/svg">
<path d="M49.9199 14.9333C49.9199 13.0513 48.389 11.52 46.5066 11.52C44.6241 11.52 43.0932 13.0513 43.0932 14.9333C43.0932 16.8153 44.6241 18.3466 46.5066 18.3466C48.389 18.3466 49.9199 16.8153 49.9199 14.9333ZM46.5066 24.32C48.0016 24.32 52.4799 19.4404 52.4799 14.9333C52.4799 11.6396 49.8 8.95996 46.5066 8.95996C43.2131 8.95996 40.5332 11.6396 40.5332 14.9333C40.5332 19.4404 45.0115 24.32 46.5066 24.32ZM46.5066 10.6666C48.859 10.6666 50.7732 12.5809 50.7732 14.9333C50.7732 18.4384 47.5408 21.9863 46.5066 22.5683C45.4723 21.9861 42.2399 18.4384 42.2399 14.9333C42.2399 12.5809 44.1541 10.6666 46.5066 10.6666ZM14.9332 16.64C16.3449 16.64 17.4932 15.4916 17.4932 14.08C17.4932 12.6683 16.3449 11.52 14.9332 11.52C13.5216 11.52 12.3732 12.6683 12.3732 14.08C12.3732 15.4916 13.5216 16.64 14.9332 16.64ZM14.9332 13.2266C15.4041 13.2266 15.7866 13.6096 15.7866 14.08C15.7866 14.5504 15.4041 14.9333 14.9332 14.9333C14.4624 14.9333 14.0799 14.5504 14.0799 14.08C14.0799 13.6096 14.4624 13.2266 14.9332 13.2266ZM20.9066 29.44C18.5541 29.44 16.6399 31.3542 16.6399 33.7066C16.6399 36.0591 18.5541 37.9733 20.9066 37.9733C23.259 37.9733 25.1732 36.0591 25.1732 33.7066C25.1732 31.3542 23.259 29.44 20.9066 29.44ZM20.9066 36.2666C19.4949 36.2666 18.3466 35.1183 18.3466 33.7066C18.3466 32.295 19.4949 31.1466 20.9066 31.1466C22.3182 31.1466 23.4666 32.295 23.4666 33.7066C23.4666 35.1183 22.3182 36.2666 20.9066 36.2666ZM20.9066 22.6133C14.7899 22.6133 9.81323 27.5895 9.81323 33.7066C9.81323 42.5167 18.5625 51.6266 20.9066 51.6266C23.2507 51.6266 31.9999 42.5167 31.9999 33.7066C31.9999 27.5895 27.0233 22.6133 20.9066 22.6133ZM20.9398 49.9221C19.5242 49.6738 11.5199 41.6842 11.5199 33.7066C11.5199 28.5307 15.7307 24.32 20.9066 24.32C26.0825 24.32 30.2932 28.5307 30.2932 33.7066C30.2932 41.6842 22.289 49.6738 20.9398 49.9221ZM20.9066 26.88C17.1423 26.88 14.0799 29.9424 14.0799 33.7066C14.0799 37.4709 17.1423 40.5333 20.9066 40.5333C24.6708 40.5333 27.7332 37.4709 27.7332 33.7066C27.7332 29.9424 24.6708 26.88 20.9066 26.88ZM20.9066 38.8266C18.0833 38.8266 15.7866 36.5299 15.7866 33.7066C15.7866 30.8834 18.0833 28.5866 20.9066 28.5866C23.7298 28.5866 26.0266 30.8834 26.0266 33.7066C26.0266 36.5299 23.7298 38.8266 20.9066 38.8266ZM25.9233 17.2433L26.5266 16.64L25.9233 16.0367C25.5901 15.7034 25.5901 15.1633 25.9233 14.83C26.2565 14.4968 26.7967 14.4968 27.1299 14.83L27.7332 15.4333L28.3365 14.83C28.6698 14.4968 29.2099 14.4968 29.5431 14.83C29.8764 15.1633 29.8764 15.7034 29.5431 16.0367L28.9398 16.64L29.5431 17.2433C29.8764 17.5765 29.8764 18.1167 29.5431 18.4499C29.3765 18.6165 29.1581 18.6999 28.9398 18.6999C28.7216 18.6999 28.5032 18.6165 28.3365 18.4499L27.7332 17.8466L27.1299 18.4499C26.9633 18.6165 26.7449 18.6999 26.5266 18.6999C26.3084 18.6999 26.0899 18.6165 25.9233 18.4499C25.5899 18.1167 25.5899 17.5767 25.9233 17.2433ZM34.8737 12.8C34.8737 12.2662 35.3064 11.8336 35.8399 11.8336C36.3734 11.8336 36.8061 12.2662 36.8061 12.8C36.8061 13.3335 36.3734 13.7661 35.8399 13.7661C35.3064 13.7661 34.8737 13.3335 34.8737 12.8ZM52.334 43.1782C52.6698 43.5091 52.6732 44.049 52.3423 44.3848C52.1757 44.554 51.9549 44.6389 51.7347 44.6389C51.518 44.6389 51.3023 44.5572 51.1355 44.3931C50.4421 43.7094 49.5679 43.2757 48.6087 43.139C48.1428 43.0724 47.8179 42.6402 47.8845 42.1736C47.951 41.7073 48.3837 41.3907 48.8502 41.4491C50.1733 41.6379 51.3782 42.2357 52.334 43.1782ZM38.8374 31.8754C38.9166 30.5386 39.4124 29.2887 40.2717 28.2604C40.5742 27.8993 41.1118 27.85 41.4742 28.1529C41.8358 28.455 41.8834 28.993 41.5818 29.3546C40.9584 30.1004 40.5985 31.0071 40.5409 31.9763C40.5142 32.4296 40.1384 32.7793 39.6901 32.7793C39.6735 32.7793 39.656 32.7788 39.6394 32.7776C39.1683 32.75 38.8091 32.3458 38.8374 31.8754ZM52.0099 52.449C52.3067 52.8149 52.2516 53.3523 51.8858 53.6495C50.8458 54.494 49.589 54.9723 48.2508 55.0331C48.2382 55.0336 48.225 55.034 48.2115 55.034C47.7582 55.034 47.3806 54.6769 47.3599 54.2195C47.3381 53.7487 47.7031 53.3495 48.174 53.3282C49.144 53.2844 50.0547 52.9374 50.8091 52.3244C51.1766 52.0275 51.7123 52.0842 52.0099 52.449ZM47.3599 26.88C47.3599 27.3512 46.9782 27.7333 46.5066 27.7333H45.0474C44.6849 27.7337 44.324 27.7766 43.9758 27.8613C43.9075 27.8779 43.8399 27.8854 43.7733 27.8854C43.3891 27.8854 43.0399 27.6236 42.945 27.2332C42.8334 26.7754 43.115 26.314 43.5724 26.2028C44.0524 26.0861 44.5482 26.0271 45.0465 26.0266H46.5066C46.9782 26.0266 47.3599 26.4087 47.3599 26.88ZM46.1725 42.24C46.1725 42.7112 45.7908 43.0933 45.3191 43.0933H45.0476C43.8184 43.0933 42.6301 42.7353 41.611 42.0582C41.2185 41.7973 41.1118 41.2678 41.3727 40.8753C41.6336 40.4823 42.1618 40.3765 42.5561 40.6366C43.2944 41.1274 44.1561 41.3866 45.0478 41.3866H45.3194C45.7908 41.3866 46.1725 41.7687 46.1725 42.24ZM54.1866 47.6074V48.8192C54.1857 49.348 54.1192 49.8722 53.989 50.3776C53.8898 50.7626 53.5432 51.018 53.1632 51.018C53.0924 51.018 53.0207 51.0092 52.949 50.9909C52.4931 50.8734 52.2181 50.4081 52.3357 49.9518C52.4306 49.5842 52.479 49.2025 52.4799 48.8177V47.6076C52.4799 47.3726 52.4616 47.1351 52.4249 46.9011C52.3523 46.4352 52.6715 45.9989 53.1374 45.9266C53.6033 45.8566 54.0392 46.1736 54.1115 46.6387C54.1616 46.9591 54.1866 47.2849 54.1866 47.6074ZM45.6532 54.1866C45.6532 54.6579 45.2716 55.04 44.7999 55.04H41.3866C40.9149 55.04 40.5332 54.6579 40.5332 54.1866C40.5332 53.7154 40.9149 53.3333 41.3866 53.3333H44.7999C45.2716 53.3333 45.6532 53.7154 45.6532 54.1866ZM25.1732 54.1866C25.1732 54.6579 24.7916 55.04 24.3199 55.04H20.9066C20.4349 55.04 20.0532 54.6579 20.0532 54.1866C20.0532 53.7154 20.4349 53.3333 20.9066 53.3333H24.3199C24.7916 53.3333 25.1732 53.7154 25.1732 54.1866ZM40.2975 39.5155C40.2009 39.5509 40.1017 39.568 40.0042 39.568C39.6558 39.568 39.3292 39.3533 39.2025 39.0071C38.9533 38.3251 38.8266 37.6068 38.8266 36.8725V35.3391C38.8266 34.8678 39.2082 34.4857 39.6799 34.4857C40.1516 34.4857 40.5332 34.8678 40.5332 35.3391V36.8725C40.5332 37.4063 40.625 37.927 40.8057 38.4213C40.9674 38.8638 40.74 39.3538 40.2975 39.5155ZM31.9999 54.1866C31.9999 54.6579 31.6182 55.04 31.1466 55.04H27.7332C27.2616 55.04 26.8799 54.6579 26.8799 54.1866C26.8799 53.7154 27.2616 53.3333 27.7332 53.3333H31.1466C31.6182 53.3333 31.9999 53.7154 31.9999 54.1866ZM38.8266 54.1866C38.8266 54.6579 38.4449 55.04 37.9732 55.04H34.5599C34.0882 55.04 33.7066 54.6579 33.7066 54.1866C33.7066 53.7154 34.0882 53.3333 34.5599 53.3333H37.9732C38.4449 53.3333 38.8266 53.7154 38.8266 54.1866Z" fill="current"/>
</svg>
