<svg width="64" height="64" viewBox="0 0 64 64" fill="none" xmlns="http://www.w3.org/2000/svg">
<path d="M40.2375 28.2874L41.025 27.4999L40.2375 26.7124C39.9 26.3749 39.9 25.8374 40.2375 25.4999C40.575 25.1624 41.1125 25.1624 41.45 25.4999L42.2375 26.2874L43.025 25.4999C43.3625 25.1624 43.9 25.1624 44.2375 25.4999C44.575 25.8374 44.575 26.3749 44.2375 26.7124L43.45 27.4999L44.2375 28.2874C44.575 28.6249 44.575 29.1624 44.2375 29.4999C44.075 29.6624 43.85 29.7499 43.6375 29.7499C43.425 29.7499 43.2 29.6624 43.0375 29.4999L42.25 28.7124L41.4625 29.4999C41.3 29.6624 41.075 29.7499 40.8625 29.7499C40.65 29.7499 40.425 29.6624 40.2625 29.4999C39.9125 29.1624 39.9125 28.6249 40.2375 28.2874ZM58.875 41.3874V43.5249C58.875 43.6374 58.85 43.7374 58.8125 43.8499C58.625 44.3124 56.925 48.3374 54.1875 49.1374L47.175 51.1749C47.1 51.1999 47.0125 51.2124 46.9375 51.2124H7.8C6.325 51.2124 5.125 50.0499 5.125 48.6374C5.125 48.5249 5.15 48.4249 5.1875 48.3249L6.8375 44.2249C6.8625 39.6249 8.0875 35.1249 10.35 31.1499C10.575 30.7499 11.0625 30.6124 11.475 30.8124L14.6625 32.4124L22.875 31.5374C23.5125 31.4749 24.075 31.1374 24.45 30.6124C24.8125 30.0874 24.9375 29.4374 24.775 28.8249C24.6 28.1499 24.725 27.4499 25.1125 26.8999C25.5 26.3499 26.1125 25.9874 26.8 25.9124L27.8375 25.7999C28.475 25.7249 29 26.1749 31.6125 28.5624C34.8875 31.5374 40.35 36.5124 44.1875 37.6124C50.0375 39.2874 58.0875 40.5624 58.1625 40.5749C58.575 40.6124 58.875 40.9624 58.875 41.3874ZM10.025 35.9374C12.4875 37.2999 15.325 39.6999 16.475 43.7499L20.5 43.8499L46.85 45.4499L57.175 42.8499V42.1124C55.05 41.7499 48.6375 40.6249 43.7125 39.2249C43.625 39.1999 43.5375 39.1624 43.45 39.1374L42.55 40.8374C42.4 41.1249 42.1 41.2874 41.8 41.2874C41.6625 41.2874 41.525 41.2499 41.4 41.1874C40.9875 40.9624 40.825 40.4499 41.05 40.0374L41.8625 38.4999C41.475 38.3124 41.0875 38.1124 40.6875 37.8749L39.5875 40.0749C39.4375 40.3749 39.1375 40.5499 38.825 40.5499C38.7 40.5499 38.5625 40.5249 38.45 40.4624C38.025 40.2499 37.8625 39.7374 38.0625 39.3124L39.2375 36.9749C38.9 36.7499 38.55 36.5124 38.2 36.2624L36.6 39.2249C36.45 39.5124 36.15 39.6749 35.85 39.6749C35.7125 39.6749 35.575 39.6374 35.45 39.5749C35.0375 39.3499 34.875 38.8374 35.1 38.4124L36.8125 35.2374C36.425 34.9374 36.0375 34.6249 35.65 34.3124L33.625 37.5374C33.4625 37.7999 33.1875 37.9374 32.9 37.9374C32.75 37.9374 32.5875 37.8999 32.45 37.8124C32.05 37.5624 31.925 37.0374 32.175 36.6374L34.3125 33.2249C32.9125 32.0249 31.5875 30.8374 30.4625 29.7999C29.425 28.8499 28.25 27.7874 27.8125 27.4999L26.9875 27.5874C26.775 27.6124 26.6125 27.6999 26.5125 27.8499C26.4125 27.9999 26.3875 28.1874 26.4375 28.3874C26.7125 29.4874 26.5 30.6499 25.85 31.5749C25.2 32.4999 24.1875 33.0999 23.0625 33.2249L14.6 34.1249C14.4375 34.1499 14.275 34.1124 14.125 34.0374L11.45 32.6999C10.8875 33.7499 10.425 34.8249 10.025 35.9374ZM56.425 44.7999L47.15 47.1374C47.0875 47.1499 47.0125 47.1624 46.9375 47.1624C46.925 47.1624 46.9 47.1624 46.8875 47.1624L20.4375 45.5499L8.25 45.2374L6.8375 48.7499C6.9125 49.1624 7.3125 49.4874 7.8 49.4874H13.65V48.6374C13.65 48.1624 14.0375 47.7874 14.5 47.7874C14.975 47.7874 15.35 48.1749 15.35 48.6374V49.4874H17.9125V48.6374C17.9125 48.1624 18.3 47.7874 18.7625 47.7874C19.2375 47.7874 19.6125 48.1749 19.6125 48.6374V49.4874H22.175V48.6374C22.175 48.1624 22.5625 47.7874 23.025 47.7874C23.5 47.7874 23.875 48.1749 23.875 48.6374V49.4874H26.4375V48.6374C26.4375 48.1624 26.825 47.7874 27.2875 47.7874C27.7625 47.7874 28.1375 48.1749 28.1375 48.6374V49.4874H30.7V48.6374C30.7 48.1624 31.0875 47.7874 31.55 47.7874C32.0125 47.7874 32.4 48.1749 32.4 48.6374V49.4874H34.9625V48.6374C34.9625 48.1624 35.35 47.7874 35.8125 47.7874C36.2875 47.7874 36.6625 48.1749 36.6625 48.6374V49.4874H46.775L53.675 47.4874C54.775 47.1749 55.75 45.9374 56.425 44.7999ZM52.05 29.8624C52.525 29.8624 52.9 29.4749 52.9 29.0124C52.9 28.5374 52.5125 28.1624 52.05 28.1624C51.575 28.1624 51.2 28.5499 51.2 29.0124C51.2 29.4874 51.5875 29.8624 52.05 29.8624ZM15.7875 28.3499C16.2625 28.3499 16.6375 27.9624 16.6375 27.4999C16.6375 27.0249 16.25 26.6499 15.7875 26.6499C15.3125 26.6499 14.9375 27.0374 14.9375 27.4999C14.9375 27.9624 15.3125 28.3499 15.7875 28.3499ZM18.875 42.2124C18.725 41.9374 18.75 41.5999 18.925 41.3374L21.525 37.4999C21.8375 37.0374 22.625 37.0374 22.9375 37.4999L24.7875 40.2374L26.6375 37.4999C26.95 37.0374 27.7375 37.0374 28.05 37.4999L30.65 41.3374C30.825 41.5999 30.85 41.9374 30.7 42.2124C30.55 42.4874 30.2625 42.6624 29.95 42.6624H19.625C19.3125 42.6624 19.025 42.4874 18.875 42.2124ZM26.35 40.9624H28.3375L27.35 39.4999L26.35 40.9624ZM21.2375 40.9624H23.225L22.2375 39.4999L21.2375 40.9624Z" fill="current"/>
<path d="M48.475 6.8374H15.525C14.025 6.8374 12.8 8.0624 12.8 9.5624V19.4624C12.8 20.9624 14.025 22.1874 15.525 22.1874H29.25L31.35 25.2249C31.5125 25.4499 31.775 25.5874 32.05 25.5874H32.0625C32.35 25.5874 32.6125 25.4374 32.7625 25.1999L34.7 22.1874H48.4625C49.9625 22.1874 51.1875 20.9624 51.1875 19.4624V9.5624C51.2 8.0624 49.975 6.8374 48.475 6.8374ZM49.4875 19.4624C49.4875 20.0249 49.025 20.4874 48.4625 20.4874H34.2375C33.95 20.4874 33.675 20.6374 33.525 20.8749L32.025 23.1999L30.4 20.8499C30.2375 20.6249 29.975 20.4874 29.7 20.4874H15.525C14.9625 20.4874 14.5 20.0249 14.5 19.4624V9.5624C14.5 8.9999 14.9625 8.5374 15.525 8.5374H48.4625C49.025 8.5374 49.4875 8.9999 49.4875 9.5624V19.4624Z" fill="current"/>
<path d="M30.725 12.8124C31.2 12.8124 31.575 12.4249 31.575 11.9624C31.575 11.4999 31.1875 11.1124 30.725 11.1124H28.1625C27.6875 11.1124 27.3125 11.4999 27.3125 11.9624V17.0874C27.3125 17.5624 27.7 17.9374 28.1625 17.9374H30.725C31.2 17.9374 31.575 17.5499 31.575 17.0874C31.575 16.6124 31.1875 16.2374 30.725 16.2374H29.0125V15.3749H30.725C31.2 15.3749 31.575 14.9874 31.575 14.5249C31.575 14.0624 31.1875 13.6749 30.725 13.6749H29.0125V12.8249H30.725V12.8124Z" fill="current"/>
<path d="M36.6875 11.0999C36.2125 11.0999 35.8375 11.4874 35.8375 11.9499V13.2999L33.875 11.3374C33.625 11.0874 33.2625 11.0249 32.95 11.1499C32.625 11.2874 32.425 11.5874 32.425 11.9374V17.0624C32.425 17.5374 32.8125 17.9124 33.275 17.9124C33.7375 17.9124 34.125 17.5249 34.125 17.0624V13.9999L35.8375 15.7124V17.0624C35.8375 17.5374 36.225 17.9124 36.6875 17.9124C37.15 17.9124 37.5375 17.5249 37.5375 17.0624V11.9374C37.55 11.4874 37.1625 11.0999 36.6875 11.0999Z" fill="current"/>
<path d="M42.6625 11.0999H39.25C38.775 11.0999 38.4 11.4874 38.4 11.9499C38.4 12.4124 38.7875 12.7999 39.25 12.7999H40.1V17.0624C40.1 17.5374 40.4875 17.9124 40.95 17.9124C41.4125 17.9124 41.8 17.5249 41.8 17.0624V12.7999H42.65C43.125 12.7999 43.5 12.4124 43.5 11.9499C43.5 11.4874 43.1375 11.0999 42.6625 11.0999Z" fill="current"/>
<path d="M24.9875 11.0999H22.1875C21.7125 11.0999 21.3375 11.4874 21.3375 11.9499V17.0749C21.3375 17.5499 21.725 17.9249 22.1875 17.9249C22.65 17.9249 23.0375 17.5374 23.0375 17.0749V15.7249L25 17.6874C25.1625 17.8499 25.3875 17.9374 25.6 17.9374C25.8125 17.9374 26.0375 17.8499 26.2 17.6874C26.5375 17.3499 26.5375 16.8124 26.2 16.4749L25.0875 15.3624C25.85 15.3124 26.45 14.6749 26.45 13.8999V12.5624C26.45 11.7624 25.8 11.0999 24.9875 11.0999ZM24.75 13.6624H23.0375V12.8124H24.75V13.6624Z" fill="current"/>
</svg>
