<svg width="48" height="48" viewBox="0 0 48 48" fill="none" xmlns="http://www.w3.org/2000/svg">
<path d="M30.1781 21.2156L30.7688 20.625L30.1781 20.0344C29.925 19.7812 29.925 19.3781 30.1781 19.125C30.4312 18.8719 30.8344 18.8719 31.0875 19.125L31.6781 19.7156L32.2688 19.125C32.5219 18.8719 32.925 18.8719 33.1781 19.125C33.4312 19.3781 33.4312 19.7812 33.1781 20.0344L32.5875 20.625L33.1781 21.2156C33.4312 21.4687 33.4312 21.8719 33.1781 22.125C33.0562 22.2469 32.8875 22.3125 32.7281 22.3125C32.5688 22.3125 32.4 22.2469 32.2781 22.125L31.6875 21.5344L31.0969 22.125C30.975 22.2469 30.8062 22.3125 30.6469 22.3125C30.4875 22.3125 30.3188 22.2469 30.1969 22.125C29.9344 21.8719 29.9344 21.4687 30.1781 21.2156ZM44.1562 31.0406V32.6437C44.1562 32.7281 44.1375 32.8031 44.1094 32.8875C43.9688 33.2344 42.6938 36.2531 40.6406 36.8531L35.3813 38.3812C35.325 38.4 35.2594 38.4094 35.2031 38.4094H5.85C4.74375 38.4094 3.84375 37.5375 3.84375 36.4781C3.84375 36.3937 3.8625 36.3187 3.89062 36.2437L5.12813 33.1687C5.14688 29.7187 6.06563 26.3437 7.7625 23.3625C7.93125 23.0625 8.29688 22.9594 8.60625 23.1094L10.9969 24.3094L17.1562 23.6531C17.6344 23.6062 18.0563 23.3531 18.3375 22.9594C18.6094 22.5656 18.7031 22.0781 18.5813 21.6187C18.45 21.1125 18.5437 20.5875 18.8344 20.175C19.125 19.7625 19.5844 19.4906 20.1 19.4344L20.8781 19.35C21.3563 19.2937 21.75 19.6312 23.7094 21.4219C26.1656 23.6531 30.2625 27.3844 33.1406 28.2094C37.5281 29.4656 43.5656 30.4219 43.6219 30.4312C43.9313 30.4594 44.1562 30.7219 44.1562 31.0406ZM7.51875 26.9531C9.36562 27.975 11.4938 29.775 12.3562 32.8125L15.375 32.8875L35.1375 34.0875L42.8813 32.1375V31.5844C41.2875 31.3125 36.4781 30.4687 32.7844 29.4187C32.7188 29.4 32.6531 29.3719 32.5875 29.3531L31.9125 30.6281C31.8 30.8437 31.575 30.9656 31.35 30.9656C31.2469 30.9656 31.1438 30.9375 31.05 30.8906C30.7406 30.7219 30.6187 30.3375 30.7875 30.0281L31.3969 28.875C31.1063 28.7344 30.8156 28.5844 30.5156 28.4062L29.6906 30.0562C29.5781 30.2812 29.3531 30.4125 29.1187 30.4125C29.025 30.4125 28.9219 30.3937 28.8375 30.3469C28.5188 30.1875 28.3969 29.8031 28.5469 29.4844L29.4281 27.7312C29.175 27.5625 28.9125 27.3844 28.65 27.1969L27.45 29.4187C27.3375 29.6344 27.1125 29.7562 26.8875 29.7562C26.7844 29.7562 26.6812 29.7281 26.5875 29.6812C26.2781 29.5125 26.1562 29.1281 26.325 28.8094L27.6094 26.4281C27.3188 26.2031 27.0281 25.9687 26.7375 25.7344L25.2188 28.1531C25.0969 28.35 24.8906 28.4531 24.675 28.4531C24.5625 28.4531 24.4406 28.425 24.3375 28.3594C24.0375 28.1719 23.9438 27.7781 24.1313 27.4781L25.7344 24.9187C24.6844 24.0187 23.6906 23.1281 22.8469 22.35C22.0688 21.6375 21.1875 20.8406 20.8594 20.625L20.2406 20.6906C20.0813 20.7094 19.9594 20.775 19.8844 20.8875C19.8094 21 19.7906 21.1406 19.8281 21.2906C20.0344 22.1156 19.875 22.9875 19.3875 23.6812C18.9 24.375 18.1406 24.825 17.2969 24.9187L10.95 25.5937C10.8281 25.6125 10.7063 25.5844 10.5938 25.5281L8.5875 24.525C8.16563 25.3125 7.81875 26.1187 7.51875 26.9531ZM42.3188 33.6L35.3625 35.3531C35.3156 35.3625 35.2594 35.3719 35.2031 35.3719C35.1938 35.3719 35.175 35.3719 35.1656 35.3719L15.3281 34.1625L6.1875 33.9281L5.12813 36.5625C5.18438 36.8719 5.48438 37.1156 5.85 37.1156H10.2375V36.4781C10.2375 36.1219 10.5281 35.8406 10.875 35.8406C11.2313 35.8406 11.5125 36.1312 11.5125 36.4781V37.1156H13.4344V36.4781C13.4344 36.1219 13.725 35.8406 14.0719 35.8406C14.4281 35.8406 14.7094 36.1312 14.7094 36.4781V37.1156H16.6312V36.4781C16.6312 36.1219 16.9219 35.8406 17.2688 35.8406C17.625 35.8406 17.9062 36.1312 17.9062 36.4781V37.1156H19.8281V36.4781C19.8281 36.1219 20.1187 35.8406 20.4656 35.8406C20.8219 35.8406 21.1031 36.1312 21.1031 36.4781V37.1156H23.025V36.4781C23.025 36.1219 23.3156 35.8406 23.6625 35.8406C24.0094 35.8406 24.3 36.1312 24.3 36.4781V37.1156H26.2219V36.4781C26.2219 36.1219 26.5125 35.8406 26.8594 35.8406C27.2156 35.8406 27.4969 36.1312 27.4969 36.4781V37.1156H35.0813L40.2563 35.6156C41.0812 35.3812 41.8125 34.4531 42.3188 33.6ZM39.0375 22.3969C39.3937 22.3969 39.675 22.1062 39.675 21.7594C39.675 21.4031 39.3844 21.1219 39.0375 21.1219C38.6813 21.1219 38.4 21.4125 38.4 21.7594C38.4 22.1156 38.6906 22.3969 39.0375 22.3969ZM11.8406 21.2625C12.1969 21.2625 12.4781 20.9719 12.4781 20.625C12.4781 20.2687 12.1875 19.9875 11.8406 19.9875C11.4844 19.9875 11.2031 20.2781 11.2031 20.625C11.2031 20.9719 11.4844 21.2625 11.8406 21.2625ZM14.1562 31.6594C14.0437 31.4531 14.0625 31.2 14.1937 31.0031L16.1438 28.125C16.3781 27.7781 16.9688 27.7781 17.2031 28.125L18.5906 30.1781L19.9781 28.125C20.2125 27.7781 20.8031 27.7781 21.0375 28.125L22.9875 31.0031C23.1187 31.2 23.1375 31.4531 23.025 31.6594C22.9125 31.8656 22.6969 31.9969 22.4625 31.9969H14.7188C14.4844 31.9969 14.2688 31.8656 14.1562 31.6594ZM19.7625 30.7219H21.2531L20.5125 29.625L19.7625 30.7219ZM15.9281 30.7219H17.4187L16.6781 29.625L15.9281 30.7219Z" fill="current"/>
<path d="M36.3563 5.12811H11.6438C10.5188 5.12811 9.6 6.04686 9.6 7.17186V14.5969C9.6 15.7219 10.5188 16.6406 11.6438 16.6406H21.9375L23.5125 18.9187C23.6344 19.0875 23.8313 19.1906 24.0375 19.1906H24.0469C24.2625 19.1906 24.4594 19.0781 24.5719 18.9L26.025 16.6406H36.3469C37.4719 16.6406 38.3906 15.7219 38.3906 14.5969V7.17186C38.4 6.04686 37.4813 5.12811 36.3563 5.12811ZM37.1156 14.5969C37.1156 15.0187 36.7688 15.3656 36.3469 15.3656H25.6781C25.4625 15.3656 25.2563 15.4781 25.1438 15.6562L24.0188 17.4L22.8 15.6375C22.6781 15.4687 22.4813 15.3656 22.275 15.3656H11.6438C11.2219 15.3656 10.875 15.0187 10.875 14.5969V7.17186C10.875 6.74999 11.2219 6.40311 11.6438 6.40311H36.3469C36.7688 6.40311 37.1156 6.74999 37.1156 7.17186V14.5969Z" fill="current"/>
<path d="M23.0438 9.60936C23.4 9.60936 23.6812 9.31874 23.6812 8.97186C23.6812 8.62499 23.3906 8.33436 23.0438 8.33436H21.1219C20.7656 8.33436 20.4844 8.62499 20.4844 8.97186V12.8156C20.4844 13.1719 20.775 13.4531 21.1219 13.4531H23.0438C23.4 13.4531 23.6812 13.1625 23.6812 12.8156C23.6812 12.4594 23.3906 12.1781 23.0438 12.1781H21.7594V11.5312H23.0438C23.4 11.5312 23.6812 11.2406 23.6812 10.8937C23.6812 10.5469 23.3906 10.2562 23.0438 10.2562H21.7594V9.61874H23.0438V9.60936Z" fill="current"/>
<path d="M27.5156 8.32499C27.1594 8.32499 26.8781 8.61561 26.8781 8.96249V9.97499L25.4062 8.50311C25.2188 8.31561 24.9469 8.26874 24.7125 8.36249C24.4688 8.46561 24.3188 8.69061 24.3188 8.95311V12.7969C24.3188 13.1531 24.6094 13.4344 24.9563 13.4344C25.3031 13.4344 25.5938 13.1437 25.5938 12.7969V10.5L26.8781 11.7844V12.7969C26.8781 13.1531 27.1688 13.4344 27.5156 13.4344C27.8625 13.4344 28.1531 13.1437 28.1531 12.7969V8.95311C28.1625 8.61561 27.8719 8.32499 27.5156 8.32499Z" fill="current"/>
<path d="M31.9969 8.32499H29.4375C29.0813 8.32499 28.8 8.61561 28.8 8.96249C28.8 9.30936 29.0906 9.59999 29.4375 9.59999H30.075V12.7969C30.075 13.1531 30.3656 13.4344 30.7125 13.4344C31.0594 13.4344 31.35 13.1437 31.35 12.7969V9.59999H31.9875C32.3438 9.59999 32.625 9.30936 32.625 8.96249C32.625 8.61561 32.3531 8.32499 31.9969 8.32499Z" fill="current"/>
<path d="M18.7406 8.32499H16.6406C16.2844 8.32499 16.0031 8.61561 16.0031 8.96249V12.8062C16.0031 13.1625 16.2937 13.4437 16.6406 13.4437C16.9875 13.4437 17.2781 13.1531 17.2781 12.8062V11.7937L18.75 13.2656C18.8719 13.3875 19.0406 13.4531 19.2 13.4531C19.3594 13.4531 19.5281 13.3875 19.65 13.2656C19.9031 13.0125 19.9031 12.6094 19.65 12.3562L18.8156 11.5219C19.3875 11.4844 19.8375 11.0062 19.8375 10.425V9.42186C19.8375 8.82186 19.35 8.32499 18.7406 8.32499ZM18.5625 10.2469H17.2781V9.60936H18.5625V10.2469Z" fill="current"/>
</svg>
