<svg width="38" height="48" viewBox="0 0 38 48" fill="none" xmlns="http://www.w3.org/2000/svg">
<path d="M23.5667 13.9419C23.5667 11.8694 22.4376 10.0597 20.7653 9.08272C20.2776 7.91984 19.96 6.18112 19.8389 5.51504C19.6973 4.7344 19.0782 4.13008 18.2979 4.01184C16.8373 3.79184 12.3157 3.7912 10.855 4.01248C10.075 4.12992 9.456 4.7344 9.3144 5.51504C9.1832 6.2376 8.8216 8.01792 8.27168 9.18992C6.69696 10.189 5.64656 11.943 5.64656 13.9419V23.4045C5.64656 25.3614 6.65168 27.0867 8.17168 28.0955C8.7912 29.2741 9.20224 31.3528 9.3144 31.972C9.456 32.7526 10.075 33.357 10.8554 33.4752C11.5856 33.5853 13.081 33.6402 14.5763 33.6402C16.072 33.6402 17.5678 33.5851 18.2982 33.4746C19.0782 33.3571 19.6973 32.7526 19.8389 31.972C19.9712 31.243 20.3163 29.3614 20.853 28.2104C22.4765 27.2219 23.5667 25.4405 23.5667 23.4045V13.9419ZM10.5738 5.74384C10.6178 5.50128 10.8078 5.31376 11.0459 5.27824C12.3987 5.07392 16.7541 5.07456 18.1069 5.2776C18.3453 5.31392 18.5354 5.50128 18.5794 5.74384C18.7304 6.57504 18.9277 7.55488 19.1941 8.45968C18.7894 8.36688 18.3699 8.31328 17.9376 8.31328H11.2757C10.8022 8.31328 10.3446 8.3784 9.90496 8.48912C10.247 7.41424 10.4742 6.29232 10.5738 5.74384ZM18.5795 31.7432C18.5355 31.9858 18.3454 32.1733 18.1074 32.2088C16.7539 32.4125 12.3986 32.412 11.0464 32.2094C10.808 32.1731 10.6179 31.9858 10.5739 31.7432C10.4662 31.1501 10.2222 29.9563 9.85424 28.8443C10.3093 28.9634 10.784 29.0333 11.2758 29.0333H17.9378C18.3862 29.0333 18.8205 28.975 19.2389 28.8754C18.9522 29.8109 18.7416 30.8499 18.5795 31.7432ZM22.2867 23.4045C22.2867 25.8026 20.3358 27.7533 17.9376 27.7533H11.2757C8.8776 27.7533 6.92656 25.8027 6.92656 23.4045V13.9419C6.92656 11.5438 8.87744 9.59312 11.2757 9.59312H17.9376C20.3357 9.59312 22.2867 11.5437 22.2867 13.9419V23.4045ZM9.03824 14.3258C8.78832 14.0758 8.78832 13.6707 9.03824 13.4208L10.8563 11.6027C11.1062 11.3528 11.5114 11.3528 11.7613 11.6027C12.0112 11.8526 12.0112 12.2578 11.7613 12.5077L9.9432 14.3258C9.81824 14.4507 9.6544 14.5133 9.49072 14.5133C9.32704 14.5133 9.1632 14.4507 9.03824 14.3258ZM14.3213 12.2426C14.5712 12.4925 14.5712 12.8976 14.3213 13.1475L9.9432 17.5258C9.81824 17.6507 9.6544 17.7133 9.49072 17.7133C9.32704 17.7133 9.1632 17.6507 9.03824 17.5258C8.78832 17.2758 8.78832 16.8707 9.03824 16.6208L13.4163 12.2427C13.6664 11.9926 14.0714 11.9926 14.3213 12.2426ZM42.3171 32.3846C42.608 31.4653 42.7666 30.4877 42.7666 29.4733C42.7666 28.4608 42.6086 27.4846 42.3189 26.5667C43.2488 26.023 43.6242 24.8488 43.1438 23.8651C42.6406 22.8357 41.3933 22.4058 40.3619 22.9094L40.2354 22.9714C39.8429 22.5406 39.4138 22.1461 38.9502 21.7917L38.0448 15.2651C38.0008 14.9488 37.7301 14.7133 37.4107 14.7133H28.7707C28.4514 14.7133 28.1806 14.949 28.1366 15.2651L27.2314 21.7915C24.917 23.5611 23.4147 26.3418 23.4147 29.4733C23.4147 32.6051 24.9173 35.3861 27.2322 37.1557L28.137 43.6021C28.1813 43.9184 28.4517 44.1533 28.7707 44.1533H37.4107C37.7298 44.1533 38.0002 43.9183 38.0445 43.6021L38.9494 37.1555C39.412 36.8019 39.8403 36.4085 40.232 35.9789L40.3626 36.0426C40.6554 36.1858 40.9658 36.2531 41.2717 36.2531C42.0419 36.2531 42.7835 35.8237 43.1438 35.0869C43.6243 34.1032 43.2488 32.9288 42.3171 32.3846ZM29.3282 15.9933H36.8534L37.5322 20.8867C36.2005 20.195 34.6922 19.7976 33.0907 19.7976C31.4893 19.7976 29.9811 20.1949 28.6494 20.8866L29.3282 15.9933ZM36.8541 42.8733H29.3272L28.6517 38.0611C29.9829 38.752 31.4901 39.149 33.0907 39.149C34.6914 39.149 36.1987 38.752 37.5299 38.061L36.8541 42.8733ZM33.0907 37.8688C28.461 37.8688 24.6947 34.1026 24.6947 29.4731C24.6947 24.8437 28.461 21.0774 33.0907 21.0774C37.7205 21.0774 41.4867 24.8437 41.4867 29.4731C41.4867 34.1026 37.7203 37.8688 33.0907 37.8688ZM33.0907 21.7533C28.8339 21.7533 25.3707 25.2165 25.3707 29.4733C25.3707 33.7301 28.8339 37.1933 33.0907 37.1933C37.3475 37.1933 40.8107 33.7301 40.8107 29.4733C40.8107 25.2165 37.3475 21.7533 33.0907 21.7533ZM33.0907 35.9133C29.5398 35.9133 26.6507 33.0245 26.6507 29.4733C26.6507 25.9221 29.5398 23.0333 33.0907 23.0333C36.6416 23.0333 39.5307 25.9221 39.5307 29.4733C39.5307 33.0245 36.6416 35.9133 33.0907 35.9133ZM29.6507 27.6333C29.487 27.6333 29.3232 27.5707 29.1982 27.4458C28.9483 27.1958 28.9483 26.7907 29.1982 26.5408L31.0163 24.7227C31.2662 24.4728 31.6714 24.4728 31.9213 24.7227C32.1712 24.9726 32.1712 25.3778 31.9213 25.6277L30.1032 27.4458C29.9782 27.5707 29.8144 27.6333 29.6507 27.6333ZM34.8013 25.0426C35.0512 25.2925 35.0512 25.6976 34.8013 25.9475L30.7432 30.0056C30.6182 30.1306 30.4544 30.1931 30.2907 30.1931C30.127 30.1931 29.9632 30.1306 29.8382 30.0056C29.5883 29.7557 29.5883 29.3506 29.8382 29.1006L33.8963 25.0426C34.1464 24.7926 34.5514 24.7926 34.8013 25.0426ZM12.3667 35.1933C11.1317 35.1933 10.1267 36.1982 10.1267 37.4333C10.1267 38.6683 11.1317 39.6733 12.3667 39.6733C13.6018 39.6733 14.6067 38.6683 14.6067 37.4333C14.6067 36.1982 13.6016 35.1933 12.3667 35.1933ZM12.3667 38.3933C11.8373 38.3933 11.4067 37.9627 11.4067 37.4333C11.4067 36.9038 11.8373 36.4733 12.3667 36.4733C12.8962 36.4733 13.3267 36.9038 13.3267 37.4333C13.3267 37.9627 12.896 38.3933 12.3667 38.3933ZM26.4448 7.41504L27.1693 6.69312L26.4477 5.9688C26.1982 5.71824 26.1989 5.31312 26.4496 5.06384C26.6995 4.8144 27.1053 4.8144 27.3546 5.06512L28.0762 5.78944L28.8005 5.06768C29.0507 4.81824 29.4562 4.81824 29.7058 5.06896C29.9552 5.31952 29.9546 5.72464 29.7042 5.97392L28.9794 6.69616L29.7013 7.4208C29.9507 7.67136 29.9501 8.07648 29.6994 8.32576C29.5747 8.45072 29.4112 8.51264 29.2478 8.51264C29.0838 8.51264 28.9194 8.45008 28.7944 8.32448L28.0725 7.59984L27.3485 8.32128C27.2235 8.4456 27.06 8.50816 26.8966 8.50816C26.7326 8.50816 26.5682 8.4456 26.4432 8.32C26.1938 8.06944 26.1944 7.66448 26.4448 7.41504ZM35.7267 9.27328C35.7267 8.7432 36.1565 8.31328 36.6867 8.31328C37.217 8.31328 37.6467 8.7432 37.6467 9.27328C37.6467 9.80336 37.217 10.2333 36.6867 10.2333C36.1565 10.2333 35.7267 9.80336 35.7267 9.27328ZM21.0067 39.9933C21.0067 40.5234 20.577 40.9533 20.0467 40.9533C19.5165 40.9533 19.0867 40.5234 19.0867 39.9933C19.0867 39.4632 19.5165 39.0333 20.0467 39.0333C20.577 39.0333 21.0067 39.463 21.0067 39.9933Z" fill="current"/>
</svg>
