<svg width="48" height="48" viewBox="0 0 48 48" fill="none" xmlns="http://www.w3.org/2000/svg">
<path d="M23.0666 13.9419C23.0666 11.8694 21.9375 10.0597 20.2652 9.08272C19.7775 7.91984 19.4599 6.18112 19.3388 5.51504C19.1972 4.7344 18.5782 4.13008 17.7978 4.01184C16.3372 3.79184 11.8156 3.7912 10.355 4.01248C9.57496 4.12992 8.95592 4.7344 8.81432 5.51504C8.68312 6.2376 8.32152 8.01792 7.7716 9.18992C6.19688 10.189 5.14648 11.943 5.14648 13.9419V23.4045C5.14648 25.3614 6.1516 27.0867 7.6716 28.0955C8.29112 29.2741 8.70216 31.3528 8.81432 31.972C8.95592 32.7526 9.57496 33.357 10.3553 33.4752C11.0855 33.5853 12.5809 33.6402 14.0762 33.6402C15.5719 33.6402 17.0678 33.5851 17.7982 33.4746C18.5782 33.3571 19.1972 32.7526 19.3388 31.972C19.4711 31.243 19.8162 29.3614 20.3529 28.2104C21.9764 27.2219 23.0666 25.4405 23.0666 23.4045V13.9419ZM10.0737 5.74384C10.1177 5.50128 10.3078 5.31376 10.5458 5.27824C11.8986 5.07392 16.254 5.07456 17.6068 5.2776C17.8452 5.31392 18.0353 5.50128 18.0793 5.74384C18.2303 6.57504 18.4276 7.55488 18.694 8.45968C18.2894 8.36688 17.8698 8.31328 17.4375 8.31328H10.7756C10.3022 8.31328 9.84456 8.3784 9.40488 8.48912C9.74696 7.41424 9.97416 6.29232 10.0737 5.74384ZM18.0794 31.7432C18.0354 31.9858 17.8454 32.1733 17.6073 32.2088C16.2538 32.4125 11.8985 32.412 10.5463 32.2094C10.3079 32.1731 10.1178 31.9858 10.0738 31.7432C9.96616 31.1501 9.72216 29.9563 9.35416 28.8443C9.8092 28.9634 10.2839 29.0333 10.7758 29.0333H17.4377C17.8862 29.0333 18.3204 28.975 18.7388 28.8754C18.4521 29.8109 18.2415 30.8499 18.0794 31.7432V31.7432ZM21.7866 23.4045C21.7866 25.8026 19.8358 27.7533 17.4375 27.7533H10.7756C8.37752 27.7533 6.42648 25.8027 6.42648 23.4045V13.9419C6.42648 11.5438 8.37736 9.59312 10.7756 9.59312H17.4375C19.8356 9.59312 21.7866 11.5437 21.7866 13.9419V23.4045ZM8.53816 14.3258C8.28824 14.0758 8.28824 13.6707 8.53816 13.4208L10.3562 11.6027C10.6062 11.3528 11.0113 11.3528 11.2612 11.6027C11.5111 11.8526 11.5111 12.2578 11.2612 12.5077L9.44312 14.3258C9.31816 14.4507 9.15432 14.5133 8.99064 14.5133C8.82696 14.5133 8.66312 14.4507 8.53816 14.3258ZM13.8212 12.2426C14.0711 12.4925 14.0711 12.8976 13.8212 13.1475L9.44312 17.5258C9.31816 17.6507 9.15432 17.7133 8.99064 17.7133C8.82696 17.7133 8.66312 17.6507 8.53816 17.5258C8.28824 17.2758 8.28824 16.8707 8.53816 16.6208L12.9162 12.2427C13.1663 11.9926 13.5713 11.9926 13.8212 12.2426ZM41.817 32.3846C42.1079 31.4653 42.2665 30.4877 42.2665 29.4733C42.2665 28.4608 42.1086 27.4846 41.8188 26.5667C42.7487 26.023 43.1241 24.8488 42.6438 23.8651C42.1406 22.8357 40.8932 22.4058 39.8618 22.9094L39.7353 22.9714C39.3428 22.5406 38.9137 22.1461 38.4502 21.7917L37.5447 15.2651C37.5007 14.9488 37.23 14.7133 36.9106 14.7133H28.2706C27.9513 14.7133 27.6806 14.949 27.6366 15.2651L26.7313 21.7915C24.4169 23.5611 22.9146 26.3418 22.9146 29.4733C22.9146 32.6051 24.4172 35.3861 26.7321 37.1557L27.6369 43.6021C27.6812 43.9184 27.9516 44.1533 28.2706 44.1533H36.9106C37.2297 44.1533 37.5001 43.9183 37.5444 43.6021L38.4494 37.1555C38.9119 36.8019 39.3402 36.4085 39.7319 35.9789L39.8625 36.0426C40.1553 36.1858 40.4657 36.2531 40.7716 36.2531C41.5418 36.2531 42.2834 35.8237 42.6438 35.0869C43.1242 34.1032 42.7487 32.9288 41.817 32.3846V32.3846ZM28.8281 15.9933H36.3534L37.0321 20.8867C35.7004 20.195 34.1921 19.7976 32.5906 19.7976C30.9892 19.7976 29.481 20.1949 28.1494 20.8866L28.8281 15.9933ZM36.354 42.8733H28.8271L28.1516 38.0611C29.4828 38.752 30.99 39.149 32.5906 39.149C34.1913 39.149 35.6986 38.752 37.0298 38.061L36.354 42.8733ZM32.5906 37.8688C27.9609 37.8688 24.1946 34.1026 24.1946 29.4731C24.1946 24.8437 27.9609 21.0774 32.5906 21.0774C37.2204 21.0774 40.9866 24.8437 40.9866 29.4731C40.9866 34.1026 37.2202 37.8688 32.5906 37.8688V37.8688ZM32.5906 21.7533C28.3338 21.7533 24.8706 25.2165 24.8706 29.4733C24.8706 33.7301 28.3338 37.1933 32.5906 37.1933C36.8474 37.1933 40.3106 33.7301 40.3106 29.4733C40.3106 25.2165 36.8474 21.7533 32.5906 21.7533ZM32.5906 35.9133C29.0398 35.9133 26.1506 33.0245 26.1506 29.4733C26.1506 25.9221 29.0398 23.0333 32.5906 23.0333C36.1415 23.0333 39.0306 25.9221 39.0306 29.4733C39.0306 33.0245 36.1415 35.9133 32.5906 35.9133ZM29.1506 27.6333C28.987 27.6333 28.8231 27.5707 28.6982 27.4458C28.4482 27.1958 28.4482 26.7907 28.6982 26.5408L30.5162 24.7227C30.7662 24.4728 31.1713 24.4728 31.4212 24.7227C31.6711 24.9726 31.6711 25.3778 31.4212 25.6277L29.6031 27.4458C29.4782 27.5707 29.3143 27.6333 29.1506 27.6333ZM34.3012 25.0426C34.5511 25.2925 34.5511 25.6976 34.3012 25.9475L30.2431 30.0056C30.1182 30.1306 29.9543 30.1931 29.7906 30.1931C29.627 30.1931 29.4631 30.1306 29.3382 30.0056C29.0882 29.7557 29.0882 29.3506 29.3382 29.1006L33.3962 25.0426C33.6463 24.7926 34.0513 24.7926 34.3012 25.0426ZM11.8666 35.1933C10.6316 35.1933 9.62664 36.1982 9.62664 37.4333C9.62664 38.6683 10.6316 39.6733 11.8666 39.6733C13.1017 39.6733 14.1066 38.6683 14.1066 37.4333C14.1066 36.1982 13.1015 35.1933 11.8666 35.1933ZM11.8666 38.3933C11.3372 38.3933 10.9066 37.9627 10.9066 37.4333C10.9066 36.9038 11.3372 36.4733 11.8666 36.4733C12.3961 36.4733 12.8266 36.9038 12.8266 37.4333C12.8266 37.9627 12.3959 38.3933 11.8666 38.3933ZM25.9447 7.41504L26.6692 6.69312L25.9476 5.9688C25.6982 5.71824 25.6988 5.31312 25.9495 5.06384C26.1994 4.8144 26.6052 4.8144 26.8545 5.06512L27.5761 5.78944L28.3004 5.06768C28.5506 4.81824 28.9561 4.81824 29.2057 5.06896C29.4551 5.31952 29.4545 5.72464 29.2041 5.97392L28.4793 6.69616L29.2012 7.4208C29.4506 7.67136 29.45 8.07648 29.1993 8.32576C29.0746 8.45072 28.9111 8.51264 28.7478 8.51264C28.5838 8.51264 28.4193 8.45008 28.2943 8.32448L27.5724 7.59984L26.8484 8.32128C26.7234 8.4456 26.5599 8.50816 26.3966 8.50816C26.2326 8.50816 26.0681 8.4456 25.9431 8.32C25.6937 8.06944 25.6943 7.66448 25.9447 7.41504V7.41504ZM35.2266 9.27328C35.2266 8.7432 35.6564 8.31328 36.1866 8.31328C36.7169 8.31328 37.1466 8.7432 37.1466 9.27328C37.1466 9.80336 36.7169 10.2333 36.1866 10.2333C35.6564 10.2333 35.2266 9.80336 35.2266 9.27328ZM20.5066 39.9933C20.5066 40.5234 20.0769 40.9533 19.5466 40.9533C19.0164 40.9533 18.5866 40.5234 18.5866 39.9933C18.5866 39.4632 19.0164 39.0333 19.5466 39.0333C20.0769 39.0333 20.5066 39.463 20.5066 39.9933Z" fill="current"/>









</svg>
