<svg width="20" height="20" viewBox="0 0 20 20" fill="none" xmlns="http://www.w3.org/2000/svg">
<path d="M18.3334 8.12499C17.9917 8.12499 17.7084 7.84166 17.7084 7.49999V5.83332C17.7084 3.68332 16.3167 2.29166 14.1667 2.29166H5.83341C3.68341 2.29166 2.29175 3.68332 2.29175 5.83332V7.49999C2.29175 7.84166 2.00841 8.12499 1.66675 8.12499C1.32508 8.12499 1.04175 7.84166 1.04175 7.49999V5.83332C1.04175 2.96666 2.96675 1.04166 5.83341 1.04166H14.1667C17.0334 1.04166 18.9584 2.96666 18.9584 5.83332V7.49999C18.9584 7.84166 18.6751 8.12499 18.3334 8.12499Z" fill="#A7ACB8"/>
<path d="M14.1667 18.9583H5.83341C2.96675 18.9583 1.04175 17.0333 1.04175 14.1667V12.5C1.04175 12.1583 1.32508 11.875 1.66675 11.875C2.00841 11.875 2.29175 12.1583 2.29175 12.5V14.1667C2.29175 16.3167 3.68341 17.7083 5.83341 17.7083H14.1667C16.3167 17.7083 17.7084 16.3167 17.7084 14.1667V12.5C17.7084 12.1583 17.9917 11.875 18.3334 11.875C18.6751 11.875 18.9584 12.1583 18.9584 12.5V14.1667C18.9584 17.0333 17.0334 18.9583 14.1667 18.9583Z" fill="#A7ACB8"/>
<path d="M10 10.9C9.89167 10.9 9.78334 10.8749 9.68334 10.8166L5.26668 8.2666C4.96668 8.0916 4.86668 7.70829 5.04168 7.40829C5.21668 7.10829 5.60001 7.00827 5.89168 7.18327L9.99168 9.55825L14.0667 7.19996C14.3667 7.02496 14.75 7.13326 14.9167 7.42492C15.0917 7.72492 14.9833 8.10828 14.6917 8.28328L10.3083 10.8166C10.2167 10.8666 10.1083 10.9 10 10.9Z" fill="#A7ACB8"/>
<path d="M10 15.4333C9.65833 15.4333 9.375 15.15 9.375 14.8083V10.275C9.375 9.9333 9.65833 9.64996 10 9.64996C10.3417 9.64996 10.625 9.9333 10.625 10.275V14.8083C10.625 15.15 10.3417 15.4333 10 15.4333Z" fill="#A7ACB8"/>
<path d="M10.0002 15.625C9.51686 15.625 9.04186 15.5167 8.65852 15.3084L5.99186 13.8251C5.19186 13.3834 4.5752 12.325 4.5752 11.4084V8.58337C4.5752 7.67503 5.20019 6.61673 5.99186 6.16673L8.65852 4.68337C9.42519 4.25837 10.5752 4.25837 11.3419 4.68337L14.0085 6.16673C14.8085 6.6084 15.4252 7.6667 15.4252 8.58337V11.4084C15.4252 12.3167 14.8002 13.3751 14.0085 13.8251L11.3419 15.3084C10.9585 15.5167 10.4835 15.625 10.0002 15.625ZM9.26685 5.78338L6.60019 7.26669C6.19186 7.49169 5.8252 8.12503 5.8252 8.58337V11.4084C5.8252 11.875 6.19186 12.5001 6.60019 12.7251L9.26685 14.2084C9.65019 14.4167 10.3502 14.4167 10.7335 14.2084L13.4002 12.7251C13.8085 12.5001 14.1752 11.8667 14.1752 11.4084V8.58337C14.1752 8.1167 13.8085 7.49169 13.4002 7.26669L10.7335 5.78338C10.3502 5.57505 9.65019 5.57505 9.26685 5.78338Z" fill="#A7ACB8"/>
</svg>
