<svg width="32" height="32" viewBox="0 0 32 32" fill="none" xmlns="http://www.w3.org/2000/svg">
<path d="M8.00032 25.3334C10.9458 25.3334 13.3337 22.9456 13.3337 20.0001C13.3337 17.0546 10.9458 14.6667 8.00032 14.6667C5.05481 14.6667 2.66699 17.0546 2.66699 20.0001C2.66699 22.9456 5.05481 25.3334 8.00032 25.3334Z" stroke="#A7ACB8" stroke-width="2" stroke-linecap="round" stroke-linejoin="round"/>
<path d="M24.0003 25.3334C26.9458 25.3334 29.3337 22.9456 29.3337 20.0001C29.3337 17.0546 26.9458 14.6667 24.0003 14.6667C21.0548 14.6667 18.667 17.0546 18.667 20.0001C18.667 22.9456 21.0548 25.3334 24.0003 25.3334Z" stroke="#A7ACB8" stroke-width="2" stroke-linecap="round" stroke-linejoin="round"/>
<path d="M25.3333 6.66675H26C26.5304 6.66675 27.0391 6.87746 27.4142 7.25253C27.7893 7.62761 28 8.13632 28 8.66675C28 9.19718 27.7893 9.70589 27.4142 10.081C27.0391 10.456 26.5304 10.6667 26 10.6667H25.3333M8 20.0001L10.6667 10.6667H20.6667L8 20.0001ZM8 6.66675H12H8ZM24 20.0001L20 6.66675H25.3333L24 20.0001Z" stroke="#A7ACB8" stroke-width="2" stroke-linecap="round" stroke-linejoin="round"/>
</svg>
