<svg width="32" height="32" viewBox="0 0 32 32" fill="none" xmlns="http://www.w3.org/2000/svg">
<path d="M24.0454 16.9327C24.0747 14.6683 25.2977 12.5257 27.2378 11.3397C26.0139 9.60156 23.9639 8.49954 21.8311 8.43318C19.5563 8.19575 17.3509 9.78674 16.1917 9.78674C15.0101 9.78674 13.2253 8.45676 11.3034 8.49608C8.79831 8.57656 6.46291 9.99283 5.24411 12.1707C2.62419 16.6812 4.57842 23.3101 7.08808 26.956C8.34372 28.7414 9.81121 30.7356 11.7314 30.6649C13.6104 30.5874 14.3122 29.4734 16.5803 29.4734C18.8273 29.4734 19.4857 30.6649 21.4449 30.6199C23.4611 30.5874 24.7315 28.8267 25.9431 27.0244C26.8452 25.7523 27.5394 24.3464 28 22.8587C25.6305 21.8621 24.0482 19.491 24.0454 16.9327Z" fill="#31373E"/>
<path d="M20.3449 6.03543C21.4443 4.72312 21.9859 3.03636 21.8547 1.33337C20.1752 1.50879 18.6237 2.307 17.5095 3.56896C16.42 4.80196 15.853 6.45903 15.9602 8.09693C17.6403 8.11413 19.2921 7.33756 20.3449 6.03543Z" fill="#31373E"/>
</svg>
