<svg width="22" height="27" viewBox="0 0 22 27" fill="none" xmlns="http://www.w3.org/2000/svg">
<path d="M18.375 14.3267C18.4019 12.3196 19.5229 10.4205 21.3013 9.36924C20.1794 7.82862 18.3002 6.85183 16.3451 6.79301C14.2599 6.58256 12.2384 7.99276 11.1758 7.99276C10.0926 7.99276 8.45655 6.81391 6.69481 6.84876C4.39845 6.92009 2.25766 8.17542 1.14044 10.1058C-1.26116 14.1037 0.530216 19.9794 2.83074 23.211C3.98175 24.7934 5.32694 26.5611 7.0871 26.4984C8.80951 26.4297 9.4528 25.4423 11.5319 25.4423C13.5917 25.4423 14.1953 26.4984 15.9911 26.4585C17.8394 26.4297 19.0038 24.8691 20.1145 23.2716C20.9415 22.1441 21.5778 20.8979 22 19.5792C19.828 18.6959 18.3775 16.5942 18.375 14.3267Z" fill="white"/>
<path d="M14.9828 4.66773C15.9906 3.50454 16.487 2.00947 16.3668 0.5C14.8272 0.655481 13.4051 1.36298 12.3837 2.48154C11.385 3.57443 10.8652 5.0432 10.9635 6.49497C12.5036 6.51022 14.0177 5.82189 14.9828 4.66773Z" fill="white"/>
</svg>
