<svg width="48" height="48" viewBox="0 0 48 48" fill="none" xmlns="http://www.w3.org/2000/svg">
<circle cx="24" cy="24" r="10" fill="white"/>
<path d="M24 4C12.96 4 4 12.96 4 24C4 35.04 12.96 44 24 44C35.04 44 44 35.04 44 24C44 12.96 35.04 4 24 4ZM31.06 24.06C30.76 24.36 30.38 24.5 30 24.5C29.62 24.5 29.24 24.36 28.94 24.06L25.5 20.62V31C25.5 31.82 24.82 32.5 24 32.5C23.18 32.5 22.5 31.82 22.5 31V20.62L19.06 24.06C18.48 24.64 17.52 24.64 16.94 24.06C16.36 23.48 16.36 22.52 16.94 21.94L22.94 15.94C23.52 15.36 24.48 15.36 25.06 15.94L31.06 21.94C31.64 22.52 31.64 23.48 31.06 24.06Z" fill="url(#paint0_linear_2490_11669)"/>
<defs>
<linearGradient id="paint0_linear_2490_11669" x1="24" y1="4" x2="24" y2="44" gradientUnits="userSpaceOnUse">
<stop offset="0.0208333" stop-color="#FF8A50"/>
<stop offset="0.669043" stop-color="#FF6D24"/>
</linearGradient>
</defs>
</svg>
