<svg width="22" height="17" viewBox="0 0 22 17" fill="none" xmlns="http://www.w3.org/2000/svg">
<path d="M2.22875 9.88886L16.5902 9.89004L12.6185 13.8617C12.0052 14.475 12.0055 15.479 12.6186 16.0921C13.2317 16.7052 14.2357 16.7054 14.849 16.0922L21.5123 9.42886C21.6758 9.26536 21.7957 9.07407 21.872 8.86982C21.9377 8.69667 21.9738 8.50917 21.9738 8.31365C21.9738 8.11934 21.9381 7.93295 21.8731 7.76069C21.7968 7.55523 21.6765 7.36281 21.5122 7.19848L14.8478 0.534048C14.2347 -0.0790444 13.2306 -0.0792776 12.6174 0.533967C12.0041 1.14721 12.0044 2.15126 12.6175 2.76435L16.5898 6.73667L2.22879 6.73548C1.36147 6.73541 0.65201 7.44486 0.652081 8.31218C0.652117 8.75501 0.832654 9.14635 1.11362 9.42732C1.39459 9.70828 1.78593 9.88882 2.22875 9.88886Z" fill="#FF6D24"/>
</svg>
