<svg width="76" height="21" viewBox="0 0 76 21" fill="none" xmlns="http://www.w3.org/2000/svg">
<path d="M74.8996 6.3335C74.94 6.33162 74.9804 6.33805 75.0182 6.35238C75.056 6.36672 75.0903 6.38864 75.119 6.41676C75.1754 6.47975 75.2042 6.56217 75.1991 6.64601V8.5384C75.2042 8.62224 75.1754 8.70466 75.119 8.76765C75.0903 8.79577 75.056 8.81769 75.0182 8.83202C74.9804 8.84636 74.94 8.85279 74.8996 8.85091H73.2964V16.3729C73.3014 16.4567 73.2726 16.5391 73.2163 16.6021C73.1877 16.6305 73.1534 16.6525 73.1156 16.6669C73.0777 16.6812 73.0373 16.6875 72.9968 16.6854H70.5925C70.5521 16.6873 70.5117 16.6808 70.4739 16.6665C70.4361 16.6522 70.4018 16.6302 70.3731 16.6021C70.3167 16.5391 70.2879 16.4567 70.293 16.3729V8.85091H68.6887C68.6482 8.85279 68.6078 8.84636 68.5701 8.83202C68.5323 8.81769 68.4979 8.79577 68.4692 8.76765C68.4134 8.70431 68.3847 8.62214 68.3891 8.5384V6.64601C68.3847 6.56226 68.4134 6.4801 68.4692 6.41676C68.4979 6.38864 68.5323 6.36672 68.5701 6.35238C68.6078 6.33805 68.6482 6.33162 68.6887 6.3335H70.2919V3.68307C70.2868 3.59923 70.3156 3.51681 70.372 3.45382C70.4007 3.4257 70.435 3.40378 70.4728 3.38945C70.5106 3.37511 70.551 3.36868 70.5914 3.37056H72.9957C73.0362 3.36841 73.0766 3.37472 73.1145 3.38907C73.1523 3.40341 73.1866 3.42548 73.2152 3.45382C73.2715 3.51681 73.3003 3.59923 73.2953 3.68307V6.3335H74.8996Z" fill="white"/>
<path d="M67.9838 11.3337C67.9838 11.7922 67.9377 12.1242 67.8445 12.3329C67.7512 12.5416 67.557 12.6238 67.2629 12.6238H61.3131C61.4312 13.1373 61.7381 13.5896 62.1746 13.8933C62.6135 14.1701 63.1676 14.3089 63.837 14.3096C64.1553 14.3115 64.4722 14.2693 64.7785 14.1842C65.1204 14.0699 65.4443 13.909 65.7409 13.7062C65.7706 13.6767 65.8066 13.6541 65.8462 13.64C65.8859 13.6259 65.9282 13.6206 65.9702 13.6245C66.0122 13.6285 66.0527 13.6415 66.089 13.6627C66.1252 13.684 66.1562 13.7128 66.1798 13.7473L67.2223 14.7876C67.2757 14.8437 67.3045 14.9183 67.3024 14.9952C67.2966 15.0907 67.2533 15.1803 67.1817 15.245C66.7108 15.7376 66.1458 16.1337 65.5192 16.4107C64.8927 16.676 64.2171 16.8104 63.5352 16.8054C62.5848 16.8188 61.649 16.5742 60.8303 16.0982C60.0516 15.6364 59.4148 14.9749 58.9879 14.1842C58.5446 13.3655 58.3182 12.4497 58.3295 11.5219C58.3188 10.5958 58.5389 9.68123 58.9703 8.85845C59.3877 8.07871 60.011 7.42452 60.7744 6.96498C61.5356 6.49327 62.4188 6.24774 63.318 6.25777C64.1841 6.2421 65.0352 6.48116 65.7628 6.94444C66.4724 7.4022 67.0416 8.04236 67.4088 8.79574C67.7972 9.58646 67.9941 10.4553 67.9838 11.3337ZM63.3355 8.89955C62.8468 8.88853 62.3704 9.05129 61.9935 9.35804C61.6189 9.64641 61.3786 10.0761 61.2725 10.647H65.3195C65.2266 10.0797 64.9994 9.65001 64.6381 9.35804C64.2764 9.05163 63.8123 8.88826 63.3355 8.89955Z" fill="white"/>
<path d="M57.0175 6.48703C57.058 6.48481 57.0985 6.49108 57.1363 6.50544C57.1741 6.51979 57.2085 6.54189 57.237 6.57029C57.2649 6.60125 57.2864 6.63735 57.3001 6.6765C57.3139 6.71566 57.3196 6.7571 57.3171 6.79846V16.5978C57.3171 17.6071 57.0501 18.4253 56.516 19.0525C56.0035 19.6848 55.3141 20.1551 54.5331 20.4053C53.7461 20.6681 52.9204 20.8014 52.0894 20.8C51.2663 20.803 50.4481 20.6767 49.6654 20.4258C48.966 20.2208 48.3083 19.897 47.722 19.4688C47.6837 19.4439 47.6525 19.4098 47.6314 19.3697C47.6103 19.3295 47.5999 19.2847 47.6013 19.2396C47.5969 19.1747 47.6109 19.1099 47.6419 19.0525L48.4232 17.5937C48.5033 17.4856 48.5834 17.4272 48.6635 17.4272C48.7201 17.4244 48.7761 17.4392 48.8237 17.4694C49.2583 17.7377 49.731 17.9411 50.2261 18.0728C50.7555 18.202 51.2993 18.2656 51.8447 18.262C52.4956 18.2716 53.138 18.116 53.7101 17.81C54.2705 17.518 54.5507 17.0256 54.5507 16.3328V15.3758C53.776 16.2907 52.8147 16.7481 51.6669 16.7481C50.8048 16.7577 49.9598 16.5113 49.2418 16.0409C48.5136 15.5611 47.9263 14.901 47.5388 14.1269C47.1435 13.3079 46.9385 12.4125 46.9385 11.5056C46.9385 10.5988 47.1435 9.70335 47.5388 8.88441C47.9263 8.11026 48.5136 7.45017 49.2418 6.9704C49.9598 6.49996 50.8048 6.25352 51.6669 6.26318C52.7643 6.26318 53.6992 6.71411 54.4717 7.61597L54.5309 6.80386C54.5584 6.59624 54.6582 6.49243 54.8316 6.49243L57.0175 6.48703ZM52.0488 13.8933C52.3484 13.8946 52.6445 13.8294 52.915 13.7025C53.1855 13.5756 53.4236 13.3902 53.6114 13.1601C54.0322 12.6991 54.2631 12.0998 54.2588 11.4797C54.2676 10.8646 54.0381 10.2694 53.6169 9.81546C53.4286 9.58634 53.1903 9.40194 52.9198 9.27596C52.6493 9.14997 52.3535 9.08563 52.0543 9.08771C51.7539 9.08345 51.4564 9.14464 51.1828 9.26689C50.9093 9.38915 50.6665 9.56946 50.4719 9.79492C50.0444 10.2532 49.8145 10.8574 49.8311 11.4797C49.8124 12.1125 50.0339 12.7294 50.4522 13.2099C50.6526 13.4304 50.8991 13.6057 51.1746 13.7236C51.4502 13.8416 51.7484 13.8995 52.0488 13.8933Z" fill="white"/>
<path d="M45.9329 6.33345C45.9734 6.33157 46.0137 6.338 46.0515 6.35234C46.0893 6.36667 46.1237 6.3886 46.1524 6.41672C46.2081 6.48006 46.2368 6.56222 46.2325 6.64596V8.53835C46.2368 8.6221 46.2081 8.70426 46.1524 8.7676C46.1237 8.79572 46.0893 8.81764 46.0515 8.83198C46.0137 8.84631 45.9734 8.85274 45.9329 8.85086H44.3297V16.3728C44.3348 16.4567 44.306 16.5391 44.2496 16.6021C44.221 16.6303 44.1866 16.6523 44.1488 16.6666C44.111 16.681 44.0706 16.6874 44.0301 16.6853H41.627C41.5866 16.6872 41.5462 16.6807 41.5084 16.6664C41.4706 16.652 41.4363 16.6301 41.4075 16.6021C41.3522 16.5386 41.3238 16.4564 41.3285 16.3728V8.85086H39.722C39.6816 8.85274 39.6412 8.84631 39.6034 8.83198C39.5656 8.81764 39.5313 8.79572 39.5026 8.7676C39.4462 8.70461 39.4174 8.6222 39.4224 8.53835V6.64596C39.4174 6.56212 39.4462 6.4797 39.5026 6.41672C39.5313 6.3886 39.5656 6.36667 39.6034 6.35234C39.6412 6.338 39.6816 6.33157 39.722 6.33345H41.3252V3.68302C41.3206 3.59942 41.3489 3.51728 41.4042 3.45377C41.433 3.42571 41.4673 3.40382 41.5051 3.38949C41.5429 3.37516 41.5833 3.3687 41.6237 3.37051H44.0268C44.0673 3.3685 44.1077 3.37487 44.1455 3.38921C44.1833 3.40355 44.2177 3.42555 44.2463 3.45377C44.3027 3.51676 44.3315 3.59918 44.3264 3.68302V6.33345H45.9329Z" fill="white"/>
<path d="M36.8108 5.48241C36.5971 5.48689 36.3849 5.44659 36.1881 5.3642C35.9914 5.2818 35.8147 5.15918 35.6696 5.00444C35.3659 4.68145 35.2008 4.25521 35.2087 3.81494C35.2022 3.59652 35.2396 3.37899 35.3187 3.17485C35.3978 2.97071 35.517 2.78399 35.6696 2.62544C35.8137 2.46774 35.9898 2.34165 36.1865 2.25534C36.3832 2.16902 36.5961 2.12442 36.8114 2.12442C37.0267 2.12442 37.2396 2.16902 37.4363 2.25534C37.633 2.34165 37.8091 2.46774 37.9532 2.62544C38.1057 2.78399 38.225 2.97071 38.3041 3.17485C38.3832 3.37899 38.4206 3.59652 38.414 3.81494C38.422 4.25521 38.2569 4.68145 37.9532 5.00444C37.8079 5.15926 37.631 5.28193 37.4341 5.36433C37.2372 5.44672 37.0247 5.48697 36.8108 5.48241ZM35.3086 6.63839C35.3035 6.55454 35.3323 6.47213 35.3887 6.40914C35.4174 6.38102 35.4518 6.35909 35.4895 6.34476C35.5273 6.33043 35.5677 6.32399 35.6082 6.32587H38.0124C38.0529 6.32399 38.0933 6.33043 38.131 6.34476C38.1688 6.35909 38.2032 6.38102 38.2319 6.40914C38.2883 6.47213 38.3171 6.55454 38.312 6.63839V16.3653C38.3171 16.4491 38.2883 16.5315 38.2319 16.5945C38.2032 16.6226 38.1688 16.6445 38.131 16.6589C38.0933 16.6732 38.0529 16.6796 38.0124 16.6778H35.6038C35.5633 16.6796 35.5229 16.6732 35.4852 16.6589C35.4474 16.6445 35.413 16.6226 35.3843 16.5945C35.3279 16.5315 35.2991 16.4491 35.3042 16.3653L35.3086 6.63839Z" fill="white"/>
<path d="M31.4528 8.91578C32.212 9.13113 32.8841 9.57455 33.3753 10.1842C33.9257 10.8298 34.218 11.6511 34.1972 12.494C34.1972 13.8947 33.7631 14.9487 32.8947 15.6559C32.0395 16.3494 30.7308 16.6962 28.9685 16.6962H24.0393C23.9988 16.6981 23.9584 16.6916 23.9206 16.6773C23.8829 16.663 23.8485 16.6411 23.8198 16.6129C23.764 16.5496 23.7353 16.4674 23.7397 16.3837V2.4449C23.7356 2.36152 23.7643 2.2798 23.8198 2.21673C23.8484 2.18839 23.8827 2.16632 23.9205 2.15197C23.9583 2.13762 23.9988 2.13132 24.0393 2.13347H28.9476C29.8299 2.13347 30.5845 2.29964 31.2114 2.63198C31.8179 2.93187 32.3202 3.40276 32.6544 3.98476C32.992 4.56719 33.1652 5.22809 33.1559 5.89878C33.1706 6.56361 32.997 7.21931 32.6544 7.79224C32.334 8.33293 31.9335 8.70744 31.4528 8.91578ZM30.2458 6.3151C30.2458 5.42766 29.7183 4.98358 28.6634 4.98286H26.844V7.77062H28.6678C29.1616 7.77062 29.549 7.65275 29.8299 7.41701C30.1101 7.16686 30.2501 6.79955 30.2501 6.3151H30.2458ZM29.0837 13.8457C29.6982 13.8457 30.1858 13.7015 30.5464 13.4132C30.9071 13.1248 31.0874 12.6879 31.0874 12.1026C31.0874 11.5338 30.9071 11.1178 30.5464 10.8547C30.1858 10.5764 29.6982 10.4376 29.0837 10.4383H26.844V13.85L29.0837 13.8457Z" fill="white"/>
<path d="M6.56237 0.832554C6.68657 0.695712 6.83882 0.586397 7.00906 0.511834C7.17931 0.437271 7.36367 0.399157 7.54996 0.400008H9.96409C10.0334 0.402368 10.1006 0.424241 10.1577 0.463042C10.2148 0.501843 10.2595 0.555948 10.2864 0.61896C10.3133 0.681973 10.3213 0.751259 10.3095 0.818621C10.2977 0.885983 10.2665 0.948605 10.2198 0.999085L5.4398 6.22748H8.07339L10.7575 9.14717H5.4398L10.7629 14.9757H7.54558C7.35928 14.9766 7.17492 14.9385 7.00467 14.8639C6.83443 14.7893 6.68218 14.68 6.55798 14.5432L1.16241 8.61838C0.928884 8.36073 0.799805 8.02737 0.799805 7.68191C0.799805 7.33646 0.928884 7.0031 1.16241 6.74545L6.56237 0.832554Z" fill="white"/>
<path d="M13.9871 20.363C13.8626 20.4996 13.7103 20.6086 13.5401 20.6832C13.3699 20.7577 13.1857 20.796 12.9995 20.7956H10.5854C10.5161 20.793 10.4491 20.771 10.3921 20.7321C10.3352 20.6933 10.2907 20.6391 10.2639 20.5762C10.2372 20.5132 10.2292 20.444 10.2411 20.3767C10.2529 20.3094 10.284 20.2469 10.3308 20.1965L15.1063 14.967H12.4728L9.7832 12.0571H15.1063L9.7832 6.22745H12.9995C13.1857 6.22728 13.3698 6.2657 13.54 6.34022C13.7101 6.41474 13.8624 6.52369 13.9871 6.65999L19.3859 12.5729C19.6195 12.8305 19.7485 13.1639 19.7485 13.5094C19.7485 13.8548 19.6195 14.1882 19.3859 14.4458L13.9871 20.363Z" fill="white"/>
</svg>
