<svg width="32" height="32" viewBox="0 0 32 32" fill="none" xmlns="http://www.w3.org/2000/svg">
<path d="M15.9997 30.6666C24.087 30.6666 30.6663 24.0873 30.6663 15.9999C29.861 -3.4574 2.13567 -3.45206 1.33301 15.9999C1.33301 24.0873 7.91234 30.6666 15.9997 30.6666Z" fill="#FFD757"/>
<path d="M15.528 13.5285C12.6026 16.5552 12.6053 15.4465 15.528 18.4705C15.7886 18.7312 16.21 18.7312 16.4706 18.4705L18.4706 16.4712C18.7286 16.2232 18.7293 15.7765 18.4706 15.5285L16.4706 13.5285C16.21 13.2678 15.7886 13.2678 15.528 13.5285Z" fill="#F7F7F7"/>
<path d="M11.5285 15.1379C11.7785 15.3879 12.2212 15.3879 12.4712 15.1379L15.9998 11.6093L19.5285 15.1379C19.7765 15.3959 20.2232 15.3966 20.4712 15.1379L22.4712 13.1379C22.7318 12.8773 22.7318 12.4559 22.4712 12.1953L16.4712 6.19526C16.2105 5.93459 15.7892 5.93459 15.5285 6.19526L9.52851 12.1953C9.26784 12.4559 9.26784 12.8773 9.52851 13.1379L11.5285 15.1379Z" fill="#F7F7F7"/>
<path d="M25.8044 15.5279C22.7777 12.6039 23.8871 12.6059 20.8617 15.5279C20.6037 15.7759 20.6031 16.2226 20.8617 16.4706L22.8617 18.4706C23.1224 18.7313 23.5437 18.7313 23.8044 18.4706L25.8044 16.4706C26.0624 16.2226 26.0631 15.7759 25.8044 15.5279Z" fill="#F7F7F7"/>
<path d="M6.19473 15.5279C9.22139 12.6039 8.11206 12.6059 11.1374 15.5279C11.3954 15.7759 11.3961 16.2226 11.1374 16.4706L9.13739 18.4706C8.87673 18.7313 8.45539 18.7313 8.19473 18.4706L6.19473 16.4706C5.93673 16.2226 5.93606 15.7759 6.19473 15.5279Z" fill="#F7F7F7"/>
<path d="M20.4712 16.862C20.2212 16.612 19.7785 16.612 19.5285 16.862L15.9998 20.3906L12.4712 16.862C12.2232 16.604 11.7765 16.6033 11.5285 16.862L9.52851 18.862C9.26784 19.1226 9.26784 19.544 9.52851 19.8046L15.5285 25.8046C15.7892 26.0653 16.2105 26.0653 16.4712 25.8046L22.4712 19.8046C22.7318 19.544 22.7318 19.1226 22.4712 18.862L20.4712 16.862Z" fill="#F7F7F7"/>
</svg>
