<svg width="32" height="32" viewBox="0 0 32 32" fill="none" xmlns="http://www.w3.org/2000/svg">
<path d="M29.9046 9.52179L11.8079 6.66666C10.481 7.11958 7.56222 8.01918 5.24801 8.73245C4.21159 9.05189 3.29643 9.33395 2.69982 9.52179L15.9996 14.0138L18.0191 13.3298L29.9046 9.52179Z" fill="#5A6178"/>
<path d="M4.95703 11.5786L1.33301 10.356V21.9078L5.93859 23.4622L9.01419 21.2146L4.95703 11.5786Z" fill="#5A6178"/>
<path d="M11.8082 21.9803L8.58842 12.8037L15.4328 15.1127V26.6667L9.04003 24.509L11.8082 21.9803Z" fill="#5A6178"/>
<path fill-rule="evenodd" clip-rule="evenodd" d="M30.6663 10.3559L29.9047 21.9077L16.5645 26.6665V15.1125L30.6663 10.3559ZM26.821 13.4167L26.5045 14.5375C26.3746 14.9978 26.1089 15.3912 25.8314 15.5353L24.5256 16.2137L24.2132 17.3207C24.0833 17.781 23.8175 18.1751 23.54 18.3193L22.3927 18.9154L23.4514 15.1673L26.821 13.4167ZM26.7165 17.9684L27.0294 16.8612L23.9286 18.4722L22.7405 22.6877L23.8869 22.0921C24.1649 21.9477 24.4307 21.5528 24.5607 21.0917L25.0074 19.5045L26.0434 18.9663C26.3208 18.8221 26.5866 18.4287 26.7165 17.9684Z" fill="#5A6178"/>
</svg>
