<svg width="20" height="20" viewBox="0 0 20 20" fill="none" xmlns="http://www.w3.org/2000/svg">
<path d="M9.99979 11.0833C9.89146 11.0833 9.78312 11.0583 9.68312 11L2.3248 6.74169C2.0248 6.56669 1.92478 6.18333 2.09978 5.88333C2.27478 5.58333 2.64978 5.48331 2.95811 5.65831L9.99979 9.73332L16.9998 5.68334C17.2998 5.50834 17.6831 5.61669 17.8581 5.90835C18.0331 6.20835 17.9248 6.59166 17.6331 6.76666L10.3248 11C10.2165 11.05 10.1081 11.0833 9.99979 11.0833Z" fill="#A7ACB8"/>
<path d="M10 18.6334C9.65833 18.6334 9.375 18.35 9.375 18.0084V10.45C9.375 10.1084 9.65833 9.82504 10 9.82504C10.3417 9.82504 10.625 10.1084 10.625 10.45V18.0084C10.625 18.35 10.3417 18.6334 10 18.6334Z" fill="#A7ACB8"/>
<path d="M10 18.9583C9.26669 18.9583 8.54168 18.8 7.96668 18.4833L3.51669 16.0083C2.30835 15.3417 1.3667 13.7333 1.3667 12.35V7.64164C1.3667 6.2583 2.30835 4.65834 3.51669 3.98334L7.96668 1.51666C9.10835 0.883323 10.8917 0.883323 12.0334 1.51666L16.4834 3.99163C17.6917 4.6583 18.6333 6.26664 18.6333 7.64998V12.3583C18.6333 13.7417 17.6917 15.3416 16.4834 16.0166L12.0334 18.4833C11.4584 18.8 10.7334 18.9583 10 18.9583ZM10 2.29165C9.47502 2.29165 8.95836 2.39999 8.57503 2.60832L4.12503 5.0833C3.32503 5.5333 2.6167 6.72498 2.6167 7.64998V12.3583C2.6167 13.275 3.32503 14.475 4.12503 14.925L8.57503 17.4C9.33336 17.825 10.6667 17.825 11.425 17.4L15.875 14.925C16.675 14.475 17.3833 13.2833 17.3833 12.3583V7.64998C17.3833 6.73331 16.675 5.5333 15.875 5.0833L11.425 2.60832C11.0417 2.39999 10.525 2.29165 10 2.29165Z" fill="#A7ACB8"/>
<path d="M14.1667 11.6584C13.8251 11.6584 13.5417 11.375 13.5417 11.0334V8.35005L5.94174 3.96671C5.64174 3.79171 5.54172 3.40836 5.71672 3.1167C5.89172 2.8167 6.26674 2.71668 6.56674 2.89168L14.4751 7.45838C14.6667 7.56671 14.7917 7.77502 14.7917 8.00002V11.05C14.7917 11.375 14.5084 11.6584 14.1667 11.6584Z" fill="#A7ACB8"/>
</svg>
