<svg width="24" height="24" viewBox="0 0 24 24" fill="none" xmlns="http://www.w3.org/2000/svg">
<path d="M11.4 2.35L6.25001 7.5C6.05001 7.7 6.05001 8.01 6.25001 8.21L7.98002 9.94C8.18002 10.14 8.49001 10.14 8.69001 9.94L13.84 4.79C14.04 4.59 14.04 4.28 13.84 4.08L12.11 2.35C11.91 2.16 11.6 2.16 11.4 2.35Z" fill="#FFC83A"/>
<path d="M15.3 6.26L6.25001 15.31C6.05001 15.51 6.05001 15.82 6.25001 16.02L7.98002 17.75C8.18002 17.95 8.49001 17.95 8.69001 17.75L17.74 8.7C17.94 8.5 17.94 8.19 17.74 7.99L16.01 6.26C15.82 6.06 15.5 6.06 15.3 6.26Z" fill="#FFC83A"/>
<path d="M19.21 10.16L10.16 19.21C9.96001 19.41 9.96001 19.72 10.16 19.92L11.89 21.65C12.09 21.85 12.4 21.85 12.6 21.65L21.65 12.6C21.85 12.4 21.85 12.09 21.65 11.89L19.92 10.16C19.72 9.96 19.4 9.96 19.21 10.16Z" fill="#FFC83A"/>
<path d="M4.09 13.84L2.35999 12.11C2.15999 11.91 2.15999 11.6 2.35999 11.4L4.09 9.67C4.29 9.47 4.59999 9.47 4.79999 9.67L6.53 11.4C6.73 11.6 6.73 11.91 6.53 12.11L4.79999 13.84C4.59999 14.04 4.28 14.04 4.09 13.84Z" fill="#FFC83A"/>
</svg>
