<svg width="25" height="24" viewBox="0 0 25 24" fill="none" xmlns="http://www.w3.org/2000/svg">
<path d="M22.5 8.5C22.5 11.76 20.1 14.45 16.98 14.92V14.86C16.67 10.98 13.52 7.83 9.60996 7.52H9.57996C10.05 4.4 12.74 2 16 2C19.59 2 22.5 4.91 22.5 8.5Z" fill="#5A6178"/>
<path d="M15.48 14.98C15.23 11.81 12.69 9.27 9.52 9.02C9.35 9.01 9.17 9 9 9C5.41 9 2.5 11.91 2.5 15.5C2.5 19.09 5.41 22 9 22C12.59 22 15.5 19.09 15.5 15.5C15.5 15.33 15.49 15.15 15.48 14.98ZM9.88 16.38L9 18L8.12 16.38L6.5 15.5L8.12 14.62L9 13L9.88 14.62L11.5 15.5L9.88 16.38Z" fill="#5A6178"/>
</svg>
