<svg width="32" height="32" viewBox="0 0 32 32" fill="none" xmlns="http://www.w3.org/2000/svg">
<path d="M22.6667 8.00008C24.1394 8.00008 25.3333 6.80617 25.3333 5.33341C25.3333 3.86066 24.1394 2.66675 22.6667 2.66675C21.1939 2.66675 20 3.86066 20 5.33341C20 6.80617 21.1939 8.00008 22.6667 8.00008Z" fill="#A7ACB8"/>
<path d="M21.036 14.6253C21.3421 15.0814 21.7811 15.4323 22.2935 15.6302C22.8059 15.8282 23.3667 15.8637 23.9 15.732L28.3213 14.6266L27.6773 12.04L23.256 13.1453L21.4173 10.3893C21.0245 9.80071 20.4148 9.39139 19.7213 9.25062L14.5933 8.22396C14.0197 8.10883 13.424 8.18577 12.8984 8.4429C12.3729 8.70003 11.9465 9.12305 11.6853 9.64662L9.47467 14.068L11.86 15.2613L14.0707 10.8386L16.6933 11.364L9.912 22.6666H4V25.3333H9.912C10.8427 25.3333 11.7187 24.8373 12.1987 24.0386L14.756 19.7773L21.648 21.156L24.0693 28.4213L26.5973 27.5773L24.1773 20.3133C24.028 19.8673 23.7637 19.4686 23.4112 19.1573C23.0587 18.8459 22.6304 18.633 22.1693 18.54L18.1173 17.7306L20.48 13.792L21.036 14.6253Z" fill="#A7ACB8"/>
</svg>
