<svg width="32" height="32" viewBox="0 0 32 32" fill="none" xmlns="http://www.w3.org/2000/svg">
<path d="M17.3337 8.00008C18.8064 8.00008 20.0003 6.80617 20.0003 5.33341C20.0003 3.86066 18.8064 2.66675 17.3337 2.66675C15.8609 2.66675 14.667 3.86066 14.667 5.33341C14.667 6.80617 15.8609 8.00008 17.3337 8.00008Z" fill="#A7ACB8"/>
<path d="M18.6376 16.3599C18.9643 16.8506 19.4523 17.2226 20.0123 17.4093L23.579 18.5986L24.423 16.0706L20.8563 14.8813L18.639 11.5546C18.381 11.1694 18.0278 10.8576 17.6136 10.6493L15.7016 9.69325C15.1328 9.40888 14.4808 9.33838 13.8643 9.49459L9.60697 10.5573C9.23329 10.6504 8.88418 10.8232 8.58361 11.0639C8.28303 11.3047 8.0381 11.6076 7.86563 11.9519L5.47363 16.7373L7.85897 17.9306L10.251 13.1453L13.215 12.4039L10.8096 23.5319L5.91097 26.9013L7.42163 29.0986L12.3216 25.7279C12.883 25.3413 13.2723 24.7613 13.415 24.0946L14.1043 20.9106L17.4603 23.4279L18.6936 29.5946L21.3083 29.0706L20.075 22.9013C19.9455 22.2586 19.5838 21.6861 19.059 21.2933L16.1643 19.1226L17.027 13.9426L18.6376 16.3599Z" fill="#A7ACB8"/>
</svg>
