<svg width="68" height="22" viewBox="0 0 68 22" fill="none" xmlns="http://www.w3.org/2000/svg">
<g clip-path="url(#clip0_2694_9608)">
<path d="M51.7711 0.200012C51.7735 0.277158 51.7783 0.354305 51.7783 0.43238C51.7783 5.81371 51.7804 11.1949 51.7846 16.5759C51.7846 16.8041 51.7216 16.8548 51.496 16.8501C50.5021 16.8376 49.5087 16.8431 48.5134 16.8464C48.3787 16.8464 48.2964 16.8431 48.2969 16.6684C48.3023 11.1947 48.3041 5.72108 48.3022 0.247415C48.303 0.231794 48.3051 0.216259 48.3084 0.200942L51.7711 0.200012Z" fill="white"/>
<path d="M15.1025 5.1462H16.9763C17.5454 5.1462 18.1145 5.15085 18.6836 5.14295C18.8313 5.14295 18.9044 5.18385 18.9698 5.31723C20.0118 7.43611 21.058 9.55252 22.1083 11.6665C22.128 11.7055 22.153 11.7422 22.1958 11.8147C22.4619 11.27 22.712 10.7588 22.9622 10.2476L25.3651 5.32373C25.4074 5.23729 25.4248 5.14202 25.572 5.14295C26.7818 5.14899 27.9912 5.1462 29.2391 5.1462C29.1347 5.34604 29.0467 5.52171 28.9505 5.69506C27.2956 8.73133 25.6401 11.7676 23.984 14.8039C23.925 14.9217 23.898 15.052 23.9056 15.1826C23.9056 17.306 23.9031 19.4294 23.9128 21.5528C23.9128 21.7666 23.8483 21.8014 23.6463 21.7996C22.6447 21.7893 21.6428 21.7893 20.6406 21.7996C20.4549 21.7996 20.4193 21.7489 20.4198 21.5802C20.426 19.4722 20.4198 17.3641 20.4274 15.2561C20.4281 15.0498 20.3742 14.8467 20.2706 14.6663C18.558 11.5284 16.8483 8.38898 15.1415 5.24798C15.1309 5.22893 15.1256 5.20708 15.1025 5.1462Z" fill="white"/>
<path d="M67.5962 5.15829C67.5962 6.0371 67.5899 6.91592 67.601 7.79473C67.601 7.99085 67.563 8.05452 67.3427 8.05266C65.9745 8.04151 64.6064 8.04616 63.2382 8.04895C63.1555 8.04895 63.0626 8.01316 62.9881 8.08241C62.9832 8.17535 62.9751 8.2683 62.9751 8.35892C62.9751 12.7528 62.9768 17.1471 62.9804 21.5416C62.9804 21.7619 62.9125 21.8014 62.7033 21.7991C61.7091 21.7889 60.7149 21.7889 59.7207 21.7991C59.5138 21.8014 59.4763 21.7415 59.4768 21.5546C59.4822 17.1452 59.4851 12.7355 59.4854 8.32546C59.4854 8.12284 59.4445 8.05592 59.217 8.05824C57.8305 8.06986 56.4436 8.06196 55.0567 8.06661C54.9023 8.06661 54.8301 8.04755 54.8321 7.87095C54.8422 7.02141 54.8402 6.17188 54.8321 5.32234C54.8321 5.17967 54.8701 5.14249 55.0187 5.14249C59.179 5.14682 63.3394 5.14806 67.5 5.1462C67.5323 5.14837 67.5644 5.15241 67.5962 5.15829Z" fill="white"/>
<path d="M44.514 16.8125C44.4866 15.8751 44.2047 15.0265 43.5659 14.3029C43.1704 13.8558 42.6788 13.53 42.1044 13.2559C42.6582 12.9806 43.1375 12.5838 43.5038 12.0973C44.1961 11.1878 44.374 10.1668 44.2206 9.06905C44.044 7.80496 43.46 6.77511 42.3502 6.05477C41.3193 5.38601 40.1546 5.15179 38.9346 5.14714C36.5774 5.13877 34.2202 5.14714 31.863 5.14017C31.6614 5.14017 31.6152 5.19082 31.6152 5.38183C31.621 10.7728 31.621 16.1637 31.6152 21.5546C31.6152 21.7377 31.6455 21.8005 31.8558 21.8C34.2524 21.7917 36.6491 21.7901 39.0458 21.7954C39.5664 21.7997 40.0861 21.7512 40.5962 21.6508C41.8244 21.4004 42.8842 20.8747 43.6375 19.8728C44.3264 18.9596 44.5477 17.9185 44.514 16.8125ZM35.1145 9.97575C35.1145 9.39715 35.1145 8.81855 35.1121 8.23996C35.1121 8.12377 35.1208 8.05964 35.2742 8.06103C36.4591 8.07033 37.6449 8.0536 38.8293 8.08009C39.7914 8.101 40.5106 8.65404 40.7189 9.46965C41.0229 10.6594 40.2629 11.7083 39.0015 11.8342C38.0832 11.9272 37.1619 11.8589 36.2421 11.8765C35.9222 11.883 35.6013 11.8709 35.28 11.8807C35.1395 11.8853 35.1082 11.8398 35.1097 11.7115C35.1184 11.1329 35.1145 10.5543 35.1145 9.97575ZM39.2223 18.8401C38.8779 18.8866 38.5349 18.8764 38.1914 18.8778C37.2456 18.8819 36.3003 18.8722 35.3531 18.8847C35.1458 18.8875 35.1058 18.8285 35.1097 18.6417C35.1232 18.0473 35.115 17.4529 35.115 16.8585C35.115 16.2483 35.1203 15.6386 35.1111 15.0288C35.1082 14.8638 35.141 14.8034 35.331 14.8048C36.4928 14.8141 37.655 14.7955 38.8168 14.8146C39.6216 14.8276 40.3355 15.0641 40.7593 15.7905C41.364 16.825 41.0321 18.5947 39.2223 18.8401Z" fill="white"/>
<path d="M13.3023 16.6935C13.2208 15.1943 12.4938 14.0846 11.1211 13.3646C11.0562 13.3307 10.9696 13.3223 10.935 13.2382C11.4124 12.9979 11.8331 12.6644 12.1703 12.259C12.8963 11.4002 13.1488 10.4084 13.0464 9.32046C12.9136 7.93323 12.3209 6.79276 11.0841 6.01712C10.0594 5.37439 8.9092 5.15132 7.70654 5.14806C5.36712 5.14156 3.02722 5.14806 0.687798 5.14806C0.607941 5.14806 0.528566 5.1555 0.447266 5.15968L0.448709 21.787C0.536744 21.7893 0.624779 21.794 0.712814 21.794C3.04406 21.794 5.37562 21.794 7.7075 21.794C8.26753 21.8019 8.82691 21.7541 9.3768 21.6513C10.4861 21.4306 11.468 20.9812 12.2151 20.1363C13.0954 19.1441 13.3716 17.9655 13.3023 16.6935ZM3.90228 11.6744C3.91671 11.1032 3.90757 10.532 3.90757 9.96087C3.90757 9.38227 3.90757 8.80321 3.90757 8.22462C3.90757 8.11261 3.92633 8.06242 4.06199 8.06335C5.24733 8.07172 6.43316 8.05592 7.61802 8.08101C8.57246 8.101 9.28251 8.63591 9.50813 9.44408C9.83862 10.6278 9.07084 11.7069 7.80468 11.8356C6.9022 11.9286 5.99635 11.8607 5.09243 11.8784C4.77204 11.8849 4.45117 11.87 4.1303 11.8835C3.9576 11.8886 3.89747 11.8542 3.90228 11.6725V11.6744ZM8.02116 18.8359C7.85506 18.8606 7.68743 18.8744 7.5194 18.8773C6.3812 18.8773 5.24252 18.8745 4.10384 18.8805C3.95183 18.8805 3.90035 18.8499 3.90276 18.6947C3.91286 18.077 3.90709 17.4589 3.90709 16.8413C3.90709 16.2237 3.91142 15.6056 3.90372 14.9875C3.90372 14.848 3.94028 14.8048 4.09085 14.8057C5.26898 14.8118 6.44807 14.7941 7.62572 14.8141C8.43199 14.8281 9.14108 15.0748 9.56153 15.8012C10.158 16.832 9.81649 18.5989 8.02116 18.8359Z" fill="white"/>
</g>
<defs>
<clipPath id="clip0_2694_9608">
<rect x="0.400391" y="0.200012" width="67.2" height="21.6" fill="white"/>
</clipPath>
</defs>
</svg>
