<svg width="48" height="48" viewBox="0 0 48 48" fill="none" xmlns="http://www.w3.org/2000/svg">
<path opacity="0.4" d="M24 44C35.0457 44 44 35.0457 44 24C44 12.9543 35.0457 4 24 4C12.9543 4 4 12.9543 4 24C4 35.0457 12.9543 44 24 44Z" fill="#FF6F61"/>
<path d="M26.1197 24L30.7197 19.4C31.2997 18.82 31.2997 17.86 30.7197 17.28C30.1397 16.7 29.1797 16.7 28.5997 17.28L23.9997 21.88L19.3997 17.28C18.8197 16.7 17.8597 16.7 17.2797 17.28C16.6997 17.86 16.6997 18.82 17.2797 19.4L21.8797 24L17.2797 28.6C16.6997 29.18 16.6997 30.14 17.2797 30.72C17.5797 31.02 17.9597 31.16 18.3397 31.16C18.7197 31.16 19.0997 31.02 19.3997 30.72L23.9997 26.12L28.5997 30.72C28.8997 31.02 29.2797 31.16 29.6597 31.16C30.0397 31.16 30.4197 31.02 30.7197 30.72C31.2997 30.14 31.2997 29.18 30.7197 28.6L26.1197 24Z" fill="#FF6F61"/>
</svg>
