<svg width="21" height="20" viewBox="0 0 21 20" fill="none" xmlns="http://www.w3.org/2000/svg">
<path opacity="0.4" d="M15.5 17.0833H14.6667V16.875C14.6667 15.9583 13.9167 15.2083 13 15.2083H11.125V13.3C10.9167 13.325 10.7083 13.3333 10.5 13.3333C10.2917 13.3333 10.0833 13.325 9.875 13.3V15.2083H8C7.08333 15.2083 6.33333 15.9583 6.33333 16.875V17.0833H5.5C5.15833 17.0833 4.875 17.3667 4.875 17.7083C4.875 18.05 5.15833 18.3333 5.5 18.3333H15.5C15.8417 18.3333 16.125 18.05 16.125 17.7083C16.125 17.3667 15.8417 17.0833 15.5 17.0833Z" fill="url(#paint0_radial_3789_13297)"/>
<path opacity="0.4" d="M5.0999 9.70001C4.5499 9.49167 4.06657 9.15001 3.68324 8.76667C2.90824 7.90834 2.3999 6.88334 2.3999 5.68334C2.3999 4.48334 3.34157 3.54167 4.54157 3.54167H5.00824C4.79157 3.98334 4.66657 4.47501 4.66657 5.00001V7.50001C4.66657 8.28334 4.81657 9.02501 5.0999 9.70001Z" fill="url(#paint1_radial_3789_13297)"/>
<path opacity="0.4" d="M18.5999 5.68334C18.5999 6.88334 18.0916 7.90834 17.3166 8.76667C16.9332 9.15001 16.4499 9.49167 15.8999 9.70001C16.1832 9.02501 16.3332 8.28334 16.3332 7.50001V5.00001C16.3332 4.47501 16.2082 3.98334 15.9916 3.54167H16.4582C17.6582 3.54167 18.5999 4.48334 18.5999 5.68334Z" fill="url(#paint2_radial_3789_13297)"/>
<path d="M13.0001 1.66667H8.00008C6.15841 1.66667 4.66675 3.15834 4.66675 5.00001V7.5C4.66675 10.725 7.27508 13.3333 10.5001 13.3333C13.7251 13.3333 16.3334 10.725 16.3334 7.5V5.00001C16.3334 3.15834 14.8417 1.66667 13.0001 1.66667ZM12.8667 7.04167L12.3501 7.675C12.2667 7.76667 12.2084 7.95 12.2167 8.075L12.2667 8.89167C12.3001 9.39167 11.9417 9.65 11.4751 9.46667L10.7167 9.16667C10.6001 9.125 10.4001 9.125 10.2834 9.16667L9.52508 9.46667C9.05841 9.65 8.70008 9.39167 8.73341 8.89167L8.78341 8.075C8.79175 7.95 8.73341 7.76667 8.65008 7.675L8.13341 7.04167C7.80841 6.65834 7.95008 6.23334 8.43341 6.10834L9.22508 5.90834C9.35008 5.87501 9.50008 5.75834 9.56675 5.65001L10.0084 4.96667C10.2834 4.54167 10.7167 4.54167 10.9917 4.96667L11.4334 5.65001C11.5001 5.75834 11.6501 5.87501 11.7751 5.90834L12.5667 6.10834C13.0501 6.23334 13.1917 6.65834 12.8667 7.04167Z" fill="url(#paint3_radial_3789_13297)"/>
<path opacity="0.4" d="M12.8668 7.04167L12.3501 7.675C12.2668 7.76667 12.2084 7.95 12.2168 8.075L12.2668 8.89167C12.3001 9.39167 11.9418 9.65 11.4751 9.46667L10.7168 9.16667C10.6001 9.125 10.4001 9.125 10.2834 9.16667L9.52511 9.46667C9.05845 9.65 8.70011 9.39167 8.73345 8.89167L8.78345 8.075C8.79178 7.95 8.73345 7.76667 8.65011 7.675L8.13345 7.04167C7.80845 6.65833 7.95011 6.23334 8.43345 6.10834L9.22511 5.90834C9.35011 5.875 9.50011 5.75834 9.56678 5.65L10.0084 4.96667C10.2834 4.54167 10.7168 4.54167 10.9918 4.96667L11.4334 5.65C11.5001 5.75834 11.6501 5.875 11.7751 5.90834L12.5668 6.10834C13.0501 6.23334 13.1918 6.65833 12.8668 7.04167Z" fill="url(#paint4_radial_3789_13297)"/>
<defs>
<radialGradient id="paint0_radial_3789_13297" cx="0" cy="0" r="1" gradientUnits="userSpaceOnUse" gradientTransform="translate(7.33594 14.5583) rotate(30.8179) scale(7.36857 6.7541)">
<stop offset="0.189398" stop-color="#FFCC77"/>
<stop offset="0.895896" stop-color="#FF612F"/>
</radialGradient>
<radialGradient id="paint1_radial_3789_13297" cx="0" cy="0" r="1" gradientUnits="userSpaceOnUse" gradientTransform="translate(2.99053 5.08126) rotate(71.798) scale(4.86204 3.00574)">
<stop offset="0.189398" stop-color="#FFCC77"/>
<stop offset="0.895896" stop-color="#FF612F"/>
</radialGradient>
<radialGradient id="paint2_radial_3789_13297" cx="0" cy="0" r="1" gradientUnits="userSpaceOnUse" gradientTransform="translate(16.4905 5.08126) rotate(71.798) scale(4.86204 3.00573)">
<stop offset="0.189398" stop-color="#FFCC77"/>
<stop offset="0.895896" stop-color="#FF612F"/>
</radialGradient>
<radialGradient id="paint3_radial_3789_13297" cx="0" cy="0" r="1" gradientUnits="userSpaceOnUse" gradientTransform="translate(7.21883 4.58334) rotate(53.1301) scale(10.9375)">
<stop offset="0.189398" stop-color="#FFCC77"/>
<stop offset="0.895896" stop-color="#FF612F"/>
</radialGradient>
<radialGradient id="paint4_radial_3789_13297" cx="0" cy="0" r="1" gradientUnits="userSpaceOnUse" gradientTransform="translate(9.07018 5.86736) rotate(51.9836) scale(4.6435 4.69397)">
<stop offset="0.189398" stop-color="#FFCC77"/>
<stop offset="0.895896" stop-color="#FF612F"/>
</radialGradient>
</defs>
</svg>
