<svg width="20" height="20" viewBox="0 0 20 20" fill="none" xmlns="http://www.w3.org/2000/svg">
<path d="M17.9166 9.08332V3.41666C17.9166 2.16666 17.3833 1.66666 16.0583 1.66666H12.6916C11.3666 1.66666 10.8333 2.16666 10.8333 3.41666V9.08332C10.8333 10.3333 11.3666 10.8333 12.6916 10.8333H16.0583C17.3833 10.8333 17.9166 10.3333 17.9166 9.08332Z" fill="url(#paint0_linear_301_869)"/>
<path d="M9.16659 10.9167V16.5833C9.16659 17.8333 8.63325 18.3333 7.30825 18.3333H3.94159C2.61659 18.3333 2.08325 17.8333 2.08325 16.5833V10.9167C2.08325 9.66666 2.61659 9.16666 3.94159 9.16666H7.30825C8.63325 9.16666 9.16659 9.66666 9.16659 10.9167Z" fill="url(#paint1_linear_301_869)"/>
<path d="M17.9166 16.5833V14.25C17.9166 13 17.3833 12.5 16.0583 12.5H12.6916C11.3666 12.5 10.8333 13 10.8333 14.25V16.5833C10.8333 17.8333 11.3666 18.3333 12.6916 18.3333H16.0583C17.3833 18.3333 17.9166 17.8333 17.9166 16.5833Z" fill="url(#paint2_linear_301_869)"/>
<path d="M9.16659 5.74999V3.41666C9.16659 2.16666 8.63325 1.66666 7.30825 1.66666H3.94159C2.61659 1.66666 2.08325 2.16666 2.08325 3.41666V5.74999C2.08325 6.99999 2.61659 7.49999 3.94159 7.49999H7.30825C8.63325 7.49999 9.16659 6.99999 9.16659 5.74999Z" fill="url(#paint3_linear_301_869)"/>
<defs>
<linearGradient id="paint0_linear_301_869" x1="14.3749" y1="1.66666" x2="14.3749" y2="10.8333" gradientUnits="userSpaceOnUse">
<stop offset="0.0208333" stop-color="#A7ACB8"/>
<stop offset="0.669043" stop-color="#A7ACB8"/>
</linearGradient>
<linearGradient id="paint1_linear_301_869" x1="5.62492" y1="9.16666" x2="5.62492" y2="18.3333" gradientUnits="userSpaceOnUse">
<stop offset="0.0208333" stop-color="#A7ACB8"/>
<stop offset="0.669043" stop-color="#A7ACB8"/>
</linearGradient>
<linearGradient id="paint2_linear_301_869" x1="14.3749" y1="12.5" x2="14.3749" y2="18.3333" gradientUnits="userSpaceOnUse">
<stop offset="0.0208333" stop-color="#A7ACB8"/>
<stop offset="0.669043" stop-color="#A7ACB8"/>
</linearGradient>
<linearGradient id="paint3_linear_301_869" x1="5.62492" y1="1.66666" x2="5.62492" y2="7.49999" gradientUnits="userSpaceOnUse">
<stop offset="0.0208333" stop-color="#A7ACB8"/>
<stop offset="0.669043" stop-color="#A7ACB8"/>
</linearGradient>
</defs>
</svg>
