<svg width="41" height="32" viewBox="0 0 41 32" fill="none" xmlns="http://www.w3.org/2000/svg">
<path d="M26.6401 0.52002C26.2429 1.23139 25.8889 1.96606 25.5801 2.72002C22.5456 2.24012 19.4546 2.24012 16.4201 2.72002C16.1113 1.96606 15.7573 1.23139 15.3601 0.52002C12.5017 1.00842 9.72289 1.88309 7.10008 3.12002C2.40996 9.88859 0.282953 18.1059 1.10008 26.3C4.15655 28.5977 7.587 30.3502 11.2401 31.48C12.0719 30.3812 12.8143 29.2175 13.4601 28C12.2682 27.5606 11.1227 27.0046 10.0401 26.34C10.337 26.1425 10.6179 25.9218 10.8801 25.68C14.037 27.2007 17.496 27.9903 21.0001 27.9903C24.5041 27.9903 27.9632 27.2007 31.1201 25.68C31.4001 25.92 31.6801 26.14 31.9601 26.34C30.8716 26.9993 29.7272 27.5615 28.5401 28.02C29.1591 29.2651 29.8816 30.456 30.7001 31.58C34.3486 30.4541 37.7731 28.7012 40.8201 26.4C41.6568 18.2044 39.5281 9.98039 34.8201 3.22002C32.2267 1.95749 29.4754 1.04936 26.6401 0.52002ZM14.3601 21.62C13.3592 21.5482 12.4252 21.0914 11.7539 20.3456C11.0827 19.5997 10.7265 18.6229 10.7601 17.62C10.7214 16.6159 11.0759 15.6362 11.7481 14.8892C12.4204 14.1423 13.3574 13.687 14.3601 13.62C15.3628 13.687 16.2998 14.1423 16.9721 14.8892C17.6443 15.6362 17.9988 16.6159 17.9601 17.62C17.9988 18.6242 17.6443 19.6039 16.9721 20.3508C16.2998 21.0977 15.3628 21.5531 14.3601 21.62ZM27.6401 21.62C26.6392 21.5482 25.7052 21.0914 25.0339 20.3456C24.3627 19.5997 24.0065 18.6229 24.0401 17.62C24.0014 16.6159 24.3559 15.6362 25.0281 14.8892C25.7004 14.1423 26.6374 13.687 27.6401 13.62C28.6446 13.682 29.5847 14.1358 30.258 14.8839C30.9313 15.632 31.2839 16.6145 31.2401 17.62C31.2839 18.6255 30.9313 19.608 30.258 20.3561C29.5847 21.1042 28.6446 21.5581 27.6401 21.62Z" fill="#5A6178"/>
</svg>
