<svg width="32" height="32" viewBox="0 0 32 32" fill="none" xmlns="http://www.w3.org/2000/svg">
<path d="M15.8536 21.6934L9.81146 23.9691C9.53295 24.0713 9.24028 23.8623 9.25445 23.5697L9.58488 17.2117C9.5896 17.1142 9.55656 17.0167 9.49519 16.9377L5.42616 11.9869C5.23734 11.7594 5.35063 11.4203 5.63858 11.3414L11.8885 9.68804C11.9876 9.66017 12.0726 9.5998 12.1245 9.5162L15.6554 4.18461C15.8159 3.93846 16.1841 3.93846 16.3446 4.18461L19.8755 9.52084C19.9321 9.60444 20.0171 9.66481 20.1115 9.69268L26.3614 11.346C26.6493 11.4203 26.7626 11.764 26.5738 11.9916L22.5095 16.9423C22.4481 17.0213 22.4151 17.1188 22.4198 17.2164L22.7502 23.5743C22.7644 23.8669 22.4717 24.0759 22.1932 23.9737L16.151 21.698C16.0519 21.6609 15.9481 21.6609 15.8536 21.6934Z" fill="#FFB636"/>
<path d="M25.2646 6.03051L23.359 4.07364C23.3033 4.01636 23.2289 3.9925 23.1545 4.00205C23.0802 4.01159 23.0104 4.05932 22.9733 4.12614L21.0072 8.10193C20.9514 8.20216 20.97 8.32149 21.0491 8.40263C21.0955 8.45035 21.1606 8.47422 21.221 8.47422C21.2629 8.47422 21.3047 8.46467 21.3419 8.44081L25.2089 6.42666C25.2739 6.38848 25.3204 6.32166 25.3297 6.24052C25.3437 6.16415 25.3158 6.08779 25.2646 6.03051ZM10.9958 8.10671L9.02972 4.13091C8.99254 4.06409 8.92747 4.01636 8.84846 4.00682C8.77409 3.99727 8.69508 4.02114 8.64395 4.07841L6.73834 6.03528C6.68256 6.09256 6.65932 6.16893 6.66862 6.24529C6.67791 6.32166 6.72439 6.39325 6.78946 6.43143L10.6611 8.45035C10.6983 8.47422 10.7401 8.48376 10.782 8.48376C10.847 8.48376 10.9075 8.4599 10.9539 8.41217C11.0329 8.32626 11.0469 8.20216 10.9958 8.10671ZM17.5353 27.6754L16.1874 23.4371C16.1781 23.3942 16.1549 23.356 16.127 23.3274C16.0805 23.2796 16.0201 23.2558 15.955 23.2558C15.8435 23.2558 15.7505 23.3321 15.718 23.4419L14.3701 27.6802C14.3515 27.7566 14.3655 27.8377 14.4119 27.8998C14.4584 27.9618 14.5281 28 14.6071 28H17.2982C17.3726 28 17.447 27.9618 17.4935 27.8998C17.5446 27.8329 17.5585 27.7518 17.5353 27.6754Z" fill="#FFD469"/>
<path d="M15.187 15.9035V15.4982C15.187 15.1298 15.2492 14.8146 15.3734 14.5526C15.5046 14.2906 15.6634 14.0614 15.8498 13.8649C16.0362 13.6684 16.2226 13.4842 16.409 13.3123C16.5954 13.1322 16.7508 12.9479 16.8751 12.7596C17.0062 12.5632 17.0718 12.338 17.0718 12.0842C17.0718 11.7485 16.9648 11.4784 16.7508 11.2737C16.5437 11.069 16.2882 10.9667 15.9844 10.9667C15.6876 10.9667 15.4252 11.0854 15.1974 11.3228C14.9696 11.552 14.8556 11.9123 14.8556 12.4035H13.3333C13.3333 11.7076 13.461 11.1345 13.7165 10.6842C13.9788 10.2257 14.3171 9.88596 14.7314 9.66491C15.1456 9.44385 15.584 9.33333 16.0466 9.33333C16.5161 9.33333 16.951 9.44385 17.3514 9.66491C17.7519 9.88596 18.0695 10.2012 18.3042 10.6105C18.5458 11.0117 18.6666 11.4865 18.6666 12.0351C18.6666 12.4444 18.6011 12.7965 18.4699 13.0912C18.3456 13.3778 18.1868 13.6275 17.9935 13.8403C17.8071 14.045 17.6172 14.2333 17.4239 14.4053C17.2375 14.5772 17.0787 14.7491 16.9476 14.921C16.8164 15.093 16.7508 15.2854 16.7508 15.4982V15.9035H15.187ZM15.9741 18.6667C15.7255 18.6667 15.5219 18.5684 15.3631 18.3719C15.2112 18.1754 15.1353 17.9421 15.1353 17.6719C15.1353 17.3936 15.2112 17.1602 15.3631 16.9719C15.5219 16.7754 15.7255 16.6772 15.9741 16.6772C16.2157 16.6772 16.4159 16.7754 16.5747 16.9719C16.7335 17.1602 16.8129 17.3936 16.8129 17.6719C16.8129 17.9421 16.7335 18.1754 16.5747 18.3719C16.4159 18.5684 16.2157 18.6667 15.9741 18.6667Z" fill="#F8F9FB"/>
</svg>
