<svg width="40" height="40" viewBox="0 0 40 40" fill="none" xmlns="http://www.w3.org/2000/svg">
<path d="M20.0019 0.00402832C8.95791 0.00402832 0.00390625 8.95803 0.00390625 20.002C0.00390625 29.982 7.31591 38.254 16.8779 39.76V25.784H11.7979V20.002H16.8779V15.596C16.8779 10.58 19.8639 7.81403 24.4299 7.81403C26.6179 7.81403 28.9099 8.20403 28.9099 8.20403V13.122H26.3819C23.9019 13.122 23.1259 14.666 23.1259 16.248V19.998H28.6679L27.7819 25.78H23.1259V39.756C32.6879 38.258 39.9999 29.984 39.9999 20.002C39.9999 8.95803 31.0459 0.00402832 20.0019 0.00402832V0.00402832Z" fill="url(#paint0_linear_2034_11409)"/>
<defs>
<linearGradient id="paint0_linear_2034_11409" x1="20.0019" y1="0.00402832" x2="20.0019" y2="39.76" gradientUnits="userSpaceOnUse">
<stop offset="0.0208333" stop-color="#FF8A50"/>
<stop offset="0.669043" stop-color="#FF6D24"/>
</linearGradient>
</defs>
</svg>
