<svg width="16" height="16" viewBox="0 0 16 16" fill="none" xmlns="http://www.w3.org/2000/svg">
<path fill-rule="evenodd" clip-rule="evenodd" d="M12.0003 1.33301H4.00033L2.66699 2.66634L2.66699 14.6663H4.00033H12.0003L13.3337 13.333V1.33301H12.0003ZM11.3337 2.66634H4.66699L4.00033 3.33301V12.6663L4.66699 13.333H11.3337L12.0003 12.6663V3.33301L11.3337 2.66634Z" fill="#FF6D24"/>
<path d="M10.1863 5.33301L9.88891 6.0463C9.76688 6.33929 9.47994 6.52969 9.16221 6.52969H7.66703L7.37349 7.2342C7.25146 7.52719 6.96451 7.71813 6.64679 7.71813H5.33301L6.32796 5.33301H10.1863Z" fill="#FF6D24"/>
<path d="M10.6663 7.98273L10.3723 8.68724C10.2502 8.98024 9.96328 9.17063 9.64555 9.17063H8.4593L8.03988 10.1813C7.91785 10.4749 7.6309 10.6663 7.31263 10.6663H5.99995L7.11584 7.98273H10.6663Z" fill="#FF6D24"/>
</svg>
