<svg width="32" height="32" viewBox="0 0 32 32" fill="none" xmlns="http://www.w3.org/2000/svg">
<path fill-rule="evenodd" clip-rule="evenodd" d="M24.0002 2.66666H8.00016L5.3335 5.33333L5.3335 29.3333H8.00016H24.0002L26.6668 26.6667V2.66666H24.0002ZM22.6668 5.33333H9.3335L8.00016 6.66666V25.3333L9.3335 26.6667H22.6668L24.0002 25.3333V6.66666L22.6668 5.33333Z" fill="#5A6178"/>
<path d="M20.3731 10.6667L19.7783 12.0932C19.5343 12.6792 18.9604 13.06 18.3249 13.06H15.3345L14.7475 14.469C14.5034 15.055 13.9295 15.4369 13.2941 15.4369H10.6665L12.6564 10.6667H20.3731Z" fill="#5A6178"/>
<path d="M21.3332 15.9661L20.745 17.3751C20.5009 17.9611 19.927 18.3419 19.2916 18.3419H16.9191L16.0802 20.3633C15.8362 20.9504 15.2623 21.3333 14.6257 21.3333H12.0004L14.2322 15.9661H21.3332Z" fill="#5A6178"/>
</svg>
