<svg width="32" height="32" viewBox="0 0 32 32" fill="none" xmlns="http://www.w3.org/2000/svg">
<ellipse cx="16.0004" cy="16.0001" rx="13.3334" ry="13.3334" fill="url(#paint0_radial_606_3992)"/>
<path d="M15.7299 27.4509C22.0085 27.4509 27.0984 22.3943 27.0984 16.1567C27.0984 9.91908 22.0085 4.86248 15.7299 4.86248C12.6352 4.86248 9.82929 6.09094 7.77934 8.08378C7.04528 8.79739 6.40815 9.60902 5.8894 10.4973C5.1068 11.8375 5.61502 13.4867 6.78197 14.5097C7.90265 15.4922 8.11366 17.1567 7.27362 18.3878L6.99425 18.7972C6.05177 20.1784 5.8616 22.0096 6.92417 23.3007C9.00895 25.8339 12.1793 27.4509 15.7299 27.4509Z" fill="url(#paint1_linear_606_3992)"/>
<path fill-rule="evenodd" clip-rule="evenodd" d="M21.4358 10.1016L21.8956 8.88863H12.5419L11.9369 10.485L11.3319 12.0813L10.1299 15.2491H13.3148C14.0851 15.2491 14.7807 14.7399 15.0766 13.9585L15.7882 12.0798H19.4129C20.1832 12.0798 20.8788 11.5721 21.1746 10.7908L21.4358 10.1016ZM22.3464 17.8335L23.0593 15.9548H14.4519L11.7467 23.1111H14.929C15.7006 23.1111 16.3962 22.6005 16.6921 21.8177L17.7088 19.1225H20.5846C21.3549 19.1225 22.0505 18.6148 22.3464 17.8335Z" fill="white"/>
<defs>
<radialGradient id="paint0_radial_606_3992" cx="0" cy="0" r="1" gradientUnits="userSpaceOnUse" gradientTransform="translate(8.50037 9.33339) rotate(53.1301) scale(25.0002)">
<stop offset="0.189398" stop-color="#FFCC77"/>
<stop offset="0.895896" stop-color="#FF612F"/>
</radialGradient>
<linearGradient id="paint1_linear_606_3992" x1="15.9808" y1="4.86248" x2="15.9808" y2="27.4509" gradientUnits="userSpaceOnUse">
<stop offset="0.0657885" stop-color="#FC6316"/>
<stop offset="0.806012" stop-color="#DF5814"/>
</linearGradient>
</defs>
</svg>
