<svg width="24" height="24" viewBox="0 0 24 24" fill="none" xmlns="http://www.w3.org/2000/svg">
<ellipse cx="12.0001" cy="12.0001" rx="10.0001" ry="10.0001" fill="url(#paint0_radial_180_1175)"/>
<path d="M11.7964 20.5882C16.5054 20.5882 20.3228 16.7957 20.3228 12.1175C20.3228 7.4393 16.5054 3.64685 11.7964 3.64685C9.47541 3.64685 7.37099 4.56819 5.83353 6.06283C5.28298 6.59803 4.80513 7.20675 4.41607 7.873C3.82913 8.87811 4.21029 10.115 5.0855 10.8823C5.92601 11.6192 6.08427 12.8675 5.45424 13.7908L5.24471 14.0979C4.53785 15.1338 4.39522 16.5072 5.19215 17.4755C6.75573 19.3754 9.13352 20.5882 11.7964 20.5882Z" fill="url(#paint1_linear_180_1175)"/>
<path fill-rule="evenodd" clip-rule="evenodd" d="M16.0761 7.57623L16.421 6.6665H9.40571L8.95196 7.86375L8.4982 9.06099L7.59668 11.4368H9.9854C10.5631 11.4368 11.0848 11.0549 11.3067 10.4689L11.8404 9.05989H14.559C15.1366 9.05989 15.6584 8.6791 15.8803 8.0931L16.0761 7.57623ZM16.759 13.3751L17.2938 11.9661H10.8382L8.80929 17.3334H11.196C11.7747 17.3334 12.2964 16.9504 12.5183 16.3633L13.2809 14.3419H15.4377C16.0154 14.3419 16.5372 13.9611 16.759 13.3751Z" fill="white"/>
<defs>
<radialGradient id="paint0_radial_180_1175" cx="0" cy="0" r="1" gradientUnits="userSpaceOnUse" gradientTransform="translate(6.37504 7.00004) rotate(53.1301) scale(18.7502)">
<stop offset="0.189398" stop-color="#FFCC77"/>
<stop offset="0.895896" stop-color="#FF612F"/>
</radialGradient>
<linearGradient id="paint1_linear_180_1175" x1="11.9847" y1="3.64685" x2="11.9847" y2="20.5882" gradientUnits="userSpaceOnUse">
<stop offset="0.0657885" stop-color="#FC6316"/>
<stop offset="0.806012" stop-color="#DF5814"/>
</linearGradient>
</defs>
</svg>
