<svg width="100" height="23" viewBox="0 0 100 23" fill="none" xmlns="http://www.w3.org/2000/svg">
<g clip-path="url(#clip0_2694_9616)">
<mask id="mask0_2694_9616" style="mask-type:alpha" maskUnits="userSpaceOnUse" x="0" y="0" width="100" height="23">
<path d="M0.799805 0.200012H99.1998V23H0.799805V0.200012Z" fill="white"/>
</mask>
<g mask="url(#mask0_2694_9616)">
<path fill-rule="evenodd" clip-rule="evenodd" d="M82.262 6.97587H85.0565V4.14764H82.262V6.97587ZM67.4086 11.6858C67.9425 10.2528 69.3099 9.23244 70.9133 9.23244C72.5164 9.23244 73.8838 10.2528 74.418 11.6858H67.4086ZM70.9133 6.60289C67.4104 6.60289 64.5699 9.47723 64.5699 13.023C64.5699 16.5688 67.4104 19.4427 70.9133 19.4427C73.3171 19.4427 75.4082 18.0901 76.4846 16.0963L74.1406 14.9454C73.4893 16.0629 72.2881 16.8132 70.9133 16.8132C69.1762 16.8132 67.7161 15.6164 67.2924 13.9932H74.5339C74.5335 13.9944 74.5332 13.996 74.533 13.9975H77.1852C77.2331 13.6796 77.2579 13.3541 77.2579 13.023C77.2579 9.47723 74.4173 6.60289 70.9133 6.60289ZM77.9945 19.1005H80.789V16.2722H77.9945V19.1005ZM82.262 19.1005H85.0565V8.21922H82.262V19.1005ZM92.8564 16.8132C90.7879 16.8132 89.1112 15.1162 89.1112 13.023C89.1112 10.9294 90.7879 9.23244 92.8564 9.23244C94.9248 9.23244 96.6016 10.9294 96.6016 13.023C96.6016 15.1162 94.9248 16.8132 92.8564 16.8132ZM92.8552 6.60289C89.3523 6.60289 86.5118 9.47723 86.5118 13.023C86.5118 16.5688 89.3523 19.4427 92.8552 19.4427C96.3592 19.4427 99.1998 16.5688 99.1998 13.023C99.1998 9.47723 96.3592 6.60289 92.8552 6.60289ZM34.4283 10.6565V13.5807H38.3357C38.1317 14.4163 37.7283 15.1651 37.1499 15.7633C36.2775 16.6656 35.0679 17.1627 33.7436 17.1627C30.9955 17.1627 28.7595 14.9 28.7595 12.1186C28.7595 9.33721 30.9955 7.07426 33.7436 7.07426C35.2156 7.07426 36.5687 7.71189 37.5068 8.81168L39.7439 6.96168C38.2607 5.20249 36.0599 4.14977 33.7436 4.14977C29.4022 4.14977 25.8701 7.72467 25.8701 12.1186C25.8701 16.5125 29.4022 20.0872 33.7436 20.0872C35.8515 20.0872 37.7947 19.3185 39.2153 17.8493C40.4074 16.6161 41.1975 14.896 41.3494 13.1727C41.4235 12.3322 41.4303 11.4973 41.3866 10.6565H34.4283ZM48.6622 16.8139C46.5938 16.8139 44.9168 15.1164 44.9168 13.023C44.9168 10.9292 46.5938 9.2322 48.6622 9.2322C50.7309 9.2322 52.4079 10.9292 52.4079 13.023C52.4079 15.1164 50.7309 16.8139 48.6622 16.8139ZM52.4083 7.85404C51.3583 7.07497 50.0637 6.61377 48.6622 6.61377C45.1593 6.61377 42.3197 9.48787 42.3197 13.033C42.3197 16.5785 45.1593 19.4522 48.6622 19.4522C50.0637 19.4522 51.3583 18.9912 52.4083 18.2121V19.1005H55.0049V6.9657H52.4083V7.85404ZM60.579 4.14788H57.9822V6.97587H56.4258V9.45618H57.9822V15.947C57.9822 16.6173 58.0654 17.1812 58.2304 17.6237C58.3931 18.0615 58.6417 18.4042 58.9373 18.6719C59.2369 18.9437 59.5884 19.1553 60.0051 19.2755C60.4285 19.3961 60.8957 19.4427 61.3895 19.4427C61.9006 19.4427 62.3563 19.389 62.7452 19.2828C63.1062 19.1847 63.4523 19.0458 63.7744 18.8694V16.8709C63.2621 17.0951 62.7832 17.1762 62.2369 17.202C61.6601 17.2294 61.3189 17.0627 61.035 16.7888C60.7375 16.5019 60.579 16.128 60.579 15.5007V9.45618H63.7744V6.97587H60.579V4.14788Z" fill="white"/>
<path fill-rule="evenodd" clip-rule="evenodd" d="M12.0642 17.8699C8.64262 17.8699 5.86889 15.063 5.86889 11.5999C5.86889 8.13715 8.64262 5.32974 12.0642 5.32974V0.199768C5.84295 0.199768 0.799805 5.30372 0.799805 11.5999C0.799805 17.8959 5.84295 22.9999 12.0642 22.9999C18.2851 22.9999 23.3285 17.8959 23.3285 11.5999H18.2594C18.2594 15.063 15.4857 17.8699 12.0642 17.8699Z" fill="white"/>
<path fill-rule="evenodd" clip-rule="evenodd" d="M12.0645 11.5999H18.2597V5.32999H12.0645V11.5999Z" fill="white"/>
</g>
</g>
<defs>
<clipPath id="clip0_2694_9616">
<rect x="0.799805" y="0.200012" width="98.4" height="22.8" fill="white"/>
</clipPath>
</defs>
</svg>
