<svg width="32" height="32" viewBox="0 0 32 32" fill="none" xmlns="http://www.w3.org/2000/svg">
<ellipse cx="16.0003" cy="16" rx="13.3333" ry="13.3333" fill="url(#paint0_linear_606_3985)"/>
<path fill-rule="evenodd" clip-rule="evenodd" d="M18.8644 23.7851L19.7695 24.8932L24.9277 15.9589L23.7366 14.5007L22.5454 13.0425L20.1826 10.1475L18.4262 13.1896C18.0014 13.9254 18.1042 14.8706 18.6873 15.5841L20.0894 17.2998L18.0905 20.762C17.6657 21.4977 17.767 22.4422 18.3502 23.1556L18.8644 23.7851ZM10.9772 22.9009L12.3785 24.618L17.1251 16.3965L11.7815 9.8661L10.0266 12.9057C9.60105 13.6427 9.70519 14.5887 10.2897 15.303L12.3033 17.7605L10.7174 20.5073C10.2927 21.2431 10.394 22.1875 10.9772 22.9009Z" fill="#26A364"/>
<path d="M15.9886 27.2941C22.2672 27.2941 27.357 22.2375 27.357 16C27.357 9.7624 22.2672 4.70586 15.9886 4.70586C12.8939 4.70586 10.088 5.9343 8.0381 7.92712C7.30405 8.64073 6.66692 9.45234 6.14818 10.3407C5.36559 11.6808 5.8738 13.3299 7.04073 14.353C8.1614 15.3355 8.37242 16.9999 7.53238 18.231L7.25302 18.6404C6.31055 20.0216 6.12037 21.8528 7.18294 23.1439C9.26769 25.6771 12.438 27.2941 15.9886 27.2941Z" fill="url(#paint1_linear_606_3985)"/>
<path fill-rule="evenodd" clip-rule="evenodd" d="M18.8154 21.7189L19.6213 22.7055L24.2141 14.7506L23.1535 13.4522L22.093 12.1539L19.9891 9.57615L18.4253 12.2849C18.047 12.9399 18.1385 13.7816 18.6578 14.4168L19.9061 15.9445L18.1263 19.0272C17.7481 19.6823 17.8384 20.5232 18.3576 21.1584L18.8154 21.7189ZM11.7927 20.9316L13.0405 22.4604L17.2668 15.1401L12.5089 9.32549L10.9463 12.0319C10.5675 12.6881 10.6602 13.5305 11.1807 14.1664L12.9735 16.3546L11.5615 18.8003C11.1833 19.4554 11.2735 20.2963 11.7927 20.9316Z" fill="white"/>
<defs>
<linearGradient id="paint0_linear_606_3985" x1="16.0003" y1="2.66667" x2="16.0003" y2="29.3333" gradientUnits="userSpaceOnUse">
<stop offset="0.0657885" stop-color="#8AFFC5"/>
<stop offset="0.806012" stop-color="#1DB167"/>
</linearGradient>
<linearGradient id="paint1_linear_606_3985" x1="16.2395" y1="4.70586" x2="16.2395" y2="27.2941" gradientUnits="userSpaceOnUse">
<stop offset="0.0657885" stop-color="#45D98F"/>
<stop offset="0.806012" stop-color="#008844"/>
</linearGradient>
</defs>
</svg>
