<svg width="24" height="24" viewBox="0 0 24 24" fill="none" xmlns="http://www.w3.org/2000/svg">
<ellipse cx="12" cy="12" rx="9.99999" ry="9.99999" fill="url(#paint0_linear_442_2239)"/>
<path fill-rule="evenodd" clip-rule="evenodd" d="M14.148 17.8389L14.8268 18.6699L18.6954 11.9692L17.8021 10.8755L16.9087 9.7819L15.1366 7.61062L13.8193 9.89224C13.5007 10.444 13.5778 11.153 14.0152 11.688L15.0667 12.9749L13.5675 15.5715C13.2489 16.1233 13.3249 16.8316 13.7623 17.3667L14.148 17.8389ZM8.23254 17.1757L9.28353 18.4635L12.8435 12.2974L8.83577 7.39957L7.51957 9.67928C7.20045 10.232 7.27855 10.9416 7.71697 11.4773L9.22717 13.3204L8.03774 15.3805C7.71917 15.9323 7.79518 16.6406 8.23254 17.1757Z" fill="#26A364"/>
<path d="M11.9909 20.4706C16.6998 20.4706 20.5172 16.6781 20.5172 12C20.5172 7.3218 16.6998 3.52939 11.9909 3.52939C9.66988 3.52939 7.56548 4.45072 6.02803 5.94534C5.47749 6.48054 4.99965 7.08925 4.61059 7.7555C4.02365 8.7606 4.40481 9.99746 5.28001 10.7648C6.12051 11.5016 6.27877 12.7499 5.64875 13.6733L5.43922 13.9803C4.73237 15.0162 4.58974 16.3896 5.38666 17.3579C6.95023 19.2578 9.32799 20.4706 11.9909 20.4706Z" fill="url(#paint1_linear_442_2239)"/>
<path fill-rule="evenodd" clip-rule="evenodd" d="M14.1116 16.2892L14.716 17.0292L18.1606 11.0629L17.3652 10.0892L16.5698 9.11539L14.9919 7.18211L13.819 9.21364C13.5353 9.70494 13.6039 10.3362 13.9934 10.8126L14.9296 11.9584L13.5948 14.2704C13.3111 14.7617 13.3788 15.3924 13.7682 15.8688L14.1116 16.2892ZM8.8446 15.6987L9.78039 16.8453L12.9502 11.3551L9.38171 6.99412L8.20979 9.02395C7.92564 9.5161 7.99518 10.1479 8.38554 10.6248L9.7302 12.2659L8.67116 14.1002C8.3875 14.5916 8.45518 15.2222 8.8446 15.6987Z" fill="white"/>
<defs>
<linearGradient id="paint0_linear_442_2239" x1="12" y1="2" x2="12" y2="22" gradientUnits="userSpaceOnUse">
<stop offset="0.0657885" stop-color="#8AFFC5"/>
<stop offset="0.806012" stop-color="#1DB167"/>
</linearGradient>
<linearGradient id="paint1_linear_442_2239" x1="12.1791" y1="3.52939" x2="12.1791" y2="20.4706" gradientUnits="userSpaceOnUse">
<stop offset="0.0657885" stop-color="#45D98F"/>
<stop offset="0.806012" stop-color="#008844"/>
</linearGradient>
</defs>
</svg>
