<svg width="49" height="49" viewBox="0 0 49 49" fill="none" xmlns="http://www.w3.org/2000/svg">
<path d="M37.5652 44.4941C41.155 44.4941 44.0652 41.584 44.0652 37.9941C44.0652 34.4043 41.155 31.4941 37.5652 31.4941C33.9753 31.4941 31.0652 34.4043 31.0652 37.9941C31.0652 41.584 33.9753 44.4941 37.5652 44.4941Z" fill="url(#paint0_linear_1800_12078)"/>
<path d="M38.0652 16.4941C41.3789 16.4941 44.0652 13.8078 44.0652 10.4941C44.0652 7.18043 41.3789 4.49414 38.0652 4.49414C34.7515 4.49414 32.0652 7.18043 32.0652 10.4941C32.0652 13.8078 34.7515 16.4941 38.0652 16.4941Z" fill="url(#paint1_linear_1800_12078)"/>
<path d="M10.0652 16.4941C13.3789 16.4941 16.0652 13.8078 16.0652 10.4941C16.0652 7.18043 13.3789 4.49414 10.0652 4.49414C6.75148 4.49414 4.06519 7.18043 4.06519 10.4941C4.06519 13.8078 6.75148 16.4941 10.0652 16.4941Z" fill="url(#paint2_linear_1800_12078)"/>
<path d="M9.72518 16.5341C11.6652 22.0941 16.9052 25.8341 22.8052 25.8341C22.8252 25.8341 22.8452 25.8341 22.8652 25.8341L29.9252 25.8141C32.9652 25.7741 35.6852 27.8341 36.5052 30.7941V34.4941C36.5052 35.3341 37.1852 36.0141 38.0452 36.0141C38.8852 36.0141 39.5652 35.3341 39.5652 34.4941V12.0141C39.5652 11.1741 38.8852 10.4941 38.0452 10.4941C37.2052 10.4941 36.5052 11.1741 36.5052 12.0141V25.2541C34.7452 23.6941 32.4452 22.7341 29.9452 22.7341C29.9252 22.7341 29.9252 22.7341 29.9052 22.7341L22.8452 22.7541C22.8252 22.7541 22.8252 22.7541 22.8052 22.7541C18.2252 22.7541 14.1252 19.8541 12.6252 15.5141C12.3852 14.8941 11.8052 14.4941 11.1652 14.4941C11.0052 14.4941 10.8252 14.5341 10.6652 14.5741C9.86518 14.8541 9.44518 15.7341 9.72518 16.5341Z" fill="url(#paint3_linear_1800_12078)"/>
<defs>
<linearGradient id="paint0_linear_1800_12078" x1="37.5652" y1="31.4941" x2="37.5652" y2="44.4941" gradientUnits="userSpaceOnUse">
<stop offset="0.0208333" stop-color="#FF8A50"/>
<stop offset="0.669043" stop-color="#FF6D24"/>
</linearGradient>
<linearGradient id="paint1_linear_1800_12078" x1="38.0652" y1="4.49414" x2="38.0652" y2="16.4941" gradientUnits="userSpaceOnUse">
<stop offset="0.0208333" stop-color="#FF8A50"/>
<stop offset="0.669043" stop-color="#FF6D24"/>
</linearGradient>
<linearGradient id="paint2_linear_1800_12078" x1="10.0652" y1="4.49414" x2="10.0652" y2="16.4941" gradientUnits="userSpaceOnUse">
<stop offset="0.0208333" stop-color="#FF8A50"/>
<stop offset="0.669043" stop-color="#FF6D24"/>
</linearGradient>
<linearGradient id="paint3_linear_1800_12078" x1="24.6018" y1="10.4941" x2="24.6018" y2="36.0141" gradientUnits="userSpaceOnUse">
<stop offset="0.0208333" stop-color="#FF8A50"/>
<stop offset="0.669043" stop-color="#FF6D24"/>
</linearGradient>
</defs>
</svg>
