<svg width="88" height="26" viewBox="0 0 88 26" fill="none" xmlns="http://www.w3.org/2000/svg">
<g clip-path="url(#clip0_2694_9625)">
<path d="M32.5747 7.2944V14.5289H25.3233V8.22568C25.3233 7.97869 25.2236 7.74182 25.0462 7.56717C24.8688 7.39252 24.6281 7.2944 24.3772 7.2944H21.9258V24.5328C21.9258 24.6551 21.9503 24.7762 21.9978 24.8892C22.0453 25.0022 22.115 25.1048 22.2029 25.1913C22.2907 25.2778 22.395 25.3464 22.5098 25.3932C22.6246 25.44 22.7476 25.4641 22.8718 25.4641H25.32V17.4453H32.5714V24.5328C32.5714 24.6551 32.5959 24.7762 32.6434 24.8892C32.691 25.0022 32.7607 25.1048 32.8485 25.1913C32.9364 25.2778 33.0407 25.3464 33.1554 25.3932C33.2702 25.44 33.3932 25.4641 33.5175 25.4641H35.9656V8.22568C35.9656 7.97869 35.8659 7.74182 35.6885 7.56717C35.5111 7.39252 35.2705 7.2944 35.0196 7.2944H32.5747Z" fill="white"/>
<path d="M46.809 11.5783V20.1885C46.8127 20.574 46.7136 20.9536 46.5217 21.2896C46.3298 21.6256 46.0517 21.9062 45.7152 22.1033C43.7932 23.1964 41.8048 21.8305 41.8048 20.0317V12.5161C41.8048 12.2691 41.7052 12.0322 41.5277 11.8576C41.3503 11.6829 41.1097 11.5848 40.8588 11.5848H38.4023V20.3454C38.4067 21.7036 38.9569 23.005 39.9328 23.9653C40.9086 24.9256 42.2308 25.4668 43.6106 25.4706H44.9965C46.3764 25.4668 47.6986 24.9256 48.6744 23.9653C49.6503 23.005 50.2005 21.7036 50.2048 20.3454V12.5079C50.2048 12.2609 50.1052 12.0241 49.9277 11.8494C49.7503 11.6748 49.5097 11.5767 49.2588 11.5767L46.809 11.5783Z" fill="white"/>
<path d="M84.5564 25.4641H87.0045V13.2709C87.0045 13.1486 86.9801 13.0275 86.9325 12.9146C86.885 12.8016 86.8153 12.6989 86.7274 12.6124C86.6396 12.5259 86.5353 12.4573 86.4205 12.4105C86.3057 12.3637 86.1827 12.3397 86.0585 12.3397H83.6104V24.5328C83.6104 24.6551 83.6348 24.7762 83.6824 24.8892C83.7299 25.0022 83.7996 25.1049 83.8874 25.1914C83.9753 25.2778 84.0796 25.3464 84.1944 25.3932C84.3091 25.44 84.4322 25.4641 84.5564 25.4641Z" fill="white"/>
<path d="M85.3069 11.0195C85.6813 11.0195 86.0473 10.9103 86.3586 10.7056C86.67 10.5009 86.9127 10.2099 87.0562 9.8695C87.1996 9.52905 87.2373 9.1544 87.1645 8.79287C87.0917 8.43134 86.9116 8.09917 86.6471 7.83833C86.3826 7.57749 86.0455 7.39969 85.6783 7.32739C85.3112 7.25509 84.9305 7.29154 84.5844 7.43213C84.2383 7.57273 83.9423 7.81116 83.7339 8.11729C83.5254 8.42343 83.4137 8.78352 83.4131 9.15209C83.4127 9.39717 83.4613 9.63993 83.5563 9.86648C83.6513 10.093 83.7907 10.2989 83.9666 10.4724C84.1425 10.6458 84.3514 10.7834 84.5814 10.8773C84.8114 10.9712 85.0579 11.0195 85.3069 11.0195Z" fill="white"/>
<path d="M62.1547 19.6983C62.1547 21.355 60.7771 22.4579 59.0941 22.4579C57.4111 22.4579 56.0335 21.355 56.0335 19.6983V17.3358C56.0335 15.6792 57.4111 14.5763 59.0941 14.5763C60.7771 14.5763 62.1547 15.6792 62.1547 17.3358V19.6983ZM59.0941 11.5701C55.534 11.5701 52.6211 14.0747 52.6211 17.5776V19.4712C52.6211 22.9741 55.534 25.4641 59.0941 25.4641C62.6543 25.4641 65.5672 22.9741 65.5672 19.4712V17.5776C65.5655 14.0747 62.6543 11.5701 59.0941 11.5701Z" fill="white"/>
<path d="M77.559 19.6984C77.559 21.355 76.1814 22.4579 74.4984 22.4579C72.8154 22.4579 71.4378 21.355 71.4378 19.6984V17.3359C71.4378 15.6792 72.8154 14.5763 74.4984 14.5763C76.1814 14.5763 77.559 15.6792 77.559 17.3359V19.6984ZM74.4968 11.5701C73.4312 11.5643 72.3786 11.7991 71.4196 12.2563V8.20935C71.4196 7.96236 71.3199 7.72549 71.1425 7.55084C70.9651 7.37619 70.7244 7.27808 70.4735 7.27808H68.0254V19.4713C68.0254 22.9742 70.9383 25.4641 74.4984 25.4641C78.0586 25.4641 80.9714 22.9742 80.9714 19.4713V17.5777C80.9698 14.0748 78.0569 11.5701 74.4968 11.5701Z" fill="white"/>
<path d="M11.7681 8.55586C11.7681 4.93695 9.9772 1.82616 8.61454 0.813196C8.61454 0.813196 8.50998 0.756012 8.51828 0.899788C8.40541 7.88599 4.7772 9.77959 2.78384 12.3365C-1.81865 18.2183 2.46184 24.6767 6.82035 25.8694C9.25852 26.536 6.25769 24.6882 5.87097 20.785C5.40126 16.0633 11.7681 12.4623 11.7681 8.55586Z" fill="white"/>
<path d="M13.859 10.9346C13.8308 10.9166 13.791 10.9035 13.7644 10.9476C13.6897 11.8266 12.7686 13.7088 11.62 15.4357C7.6947 21.2946 9.93205 24.1195 11.1901 25.6357C11.9204 26.5163 11.1901 25.6357 13.0159 24.7354C14.126 24.0723 15.0608 23.1599 15.7439 22.0729C16.427 20.9858 16.839 19.755 16.9462 18.4812C17.303 14.3198 14.7636 11.6959 13.859 10.9346Z" fill="white"/>
</g>
<defs>
<clipPath id="clip0_2694_9625">
<rect x="0.799805" y="0.799988" width="86.4" height="25.2" fill="white"/>
</clipPath>
</defs>
</svg>
