<svg width="25" height="24" viewBox="0 0 25 24" fill="none" xmlns="http://www.w3.org/2000/svg">
<g clip-path="url(#clip0_842_5897)">
<path d="M6.47553 11.9537C7.40302 11.61 8.39936 11.5593 9.35677 11.8073L10.43 12.0853C10.0495 11.1575 9.41234 9.97528 8.56724 9.34435C8.18804 9.36538 7.80055 9.27077 7.46459 9.04982C6.89257 8.6737 6.20512 8.50832 5.52494 8.58141V7.52695H4.39998V9.95938C4.39998 10.6652 4.21544 11.352 3.86542 11.9605L4.25568 12.0629C4.99308 12.2565 5.7607 12.2187 6.47553 11.9537Z" fill="#FF6F61"/>
<path d="M20.9528 14.1968C19.831 14.4749 18.6786 14.6139 17.5262 14.6139C16.3242 14.6139 15.1223 14.4627 13.9552 14.1604L9.07476 12.8964C8.34096 12.7063 7.57738 12.7452 6.86661 13.0086C6.07855 13.3007 5.24147 13.3803 4.42041 13.2459L5.30627 13.9753C6.11312 14.6397 7.07909 15.1101 8.09972 15.3357C9.38665 15.6201 10.5887 16.2321 11.5758 17.1056L11.6564 17.1769H15.2492C16.4565 17.1769 17.6628 17.0295 18.8348 16.739L24.5 16.25L22.25 14C22.1934 13.9145 22.1191 13.9145 22.0913 13.9145L20.9528 14.1968Z" fill="#FF6F61"/>
<path d="M11.7529 12.4279L14.2374 13.0714C14.7943 13.2156 15.3598 13.3221 15.9295 13.3916C16.3153 13.001 17.237 11.9442 17.3772 10.6407C16.9562 10.455 16.55 10.2344 16.1609 9.97966L16.1516 9.97358L14.9351 11.5168L14.0516 10.8203L15.2066 9.3551L14.2346 8.71891L13.0356 10.2399L12.1521 9.54346L13.2896 8.10046L9.33783 5.82306L9.91242 8.6474C9.85279 8.72367 9.7878 8.79368 9.71869 8.85792C10.8691 9.99717 11.5205 11.7194 11.7529 12.4279Z" fill="#FF6F61"/>
<path d="M17.334 13.4873C18.4592 13.5036 19.5865 13.3765 20.6821 13.1049L21.7849 12.8314C21.3993 12.0824 20.6897 11.5155 19.8245 11.3374L19.0805 11.1842C18.8704 11.141 18.6631 11.0897 18.4583 11.0312C18.2867 12.0405 17.787 12.8917 17.334 13.4873Z" fill="#FF6F61"/>
<path d="M7.85688 16.4342C6.66367 16.1705 5.53439 15.6206 4.59112 14.8439L1.99992 11.9999C1.87632 12.4451 2.89998 14.5133 2.89998 14.9821V17.1769H9.75963C9.16882 16.8344 8.52644 16.5821 7.85688 16.4342Z" fill="#FF6F61"/>
</g>
<defs>
<clipPath id="clip0_842_5897">
<rect width="24" height="24" fill="white" transform="translate(0.5)"/>
</clipPath>
</defs>
</svg>
