<svg width="46" height="24" viewBox="0 0 46 24" fill="none" xmlns="http://www.w3.org/2000/svg">
<path d="M9.95069 12.9075C11.8057 12.22 13.7983 12.1187 15.7132 12.6147L17.8596 13.1707C17.0987 11.315 15.8243 8.95058 14.1341 7.68871C13.3757 7.73078 12.6007 7.54156 11.9288 7.09966C10.7848 6.34741 9.40987 6.01666 8.04952 6.16283V4.05391H5.79959V8.91878C5.79959 10.3304 5.43052 11.704 4.73047 12.921L5.51099 13.1259C6.98579 13.5131 8.52104 13.4375 9.95069 12.9075V12.9075Z" fill="#FF6F61"/>
<path d="M38.9056 17.3937C36.6621 17.9499 34.3572 18.2278 32.0525 18.2278C29.6484 18.2278 27.2447 17.9254 24.9105 17.3208L15.1495 14.7927C13.6819 14.4126 12.1548 14.4903 10.7332 15.0171C9.1571 15.6015 7.48295 15.7606 5.84082 15.4919L7.61255 16.9506C9.22625 18.2794 11.1582 19.2202 13.1994 19.6713C15.7733 20.2401 18.1774 21.4641 20.1516 23.2111L20.3129 23.3538H27.4985C29.913 23.3538 32.3256 23.0591 34.6695 22.4781L46 21.5L41.5 17C41.3867 16.8291 41.2383 16.8291 41.1827 16.8291L38.9056 17.3937Z" fill="#FF6F61"/>
<path d="M20.506 13.8559L25.4749 15.1428C26.5887 15.4312 27.7198 15.6442 28.8592 15.7832C29.6308 15.002 31.4741 12.8885 31.7546 10.2815C30.9126 9.91004 30.1002 9.46873 29.3218 8.95933L29.3032 8.94718L26.8704 12.0336L25.1033 10.6407L27.4133 7.71021L25.4692 6.43783L23.0713 9.47983L21.3043 8.08693L23.5792 5.20093L15.6758 0.646133L16.825 6.29481C16.7057 6.44736 16.5757 6.58739 16.4375 6.71586C18.7383 8.99436 20.0412 12.4389 20.506 13.8559Z" fill="#FF6F61"/>
<path d="M31.668 15.9745C33.9185 16.0073 36.173 15.753 38.3641 15.2097L40.5698 14.6628C39.7986 13.1647 38.3794 12.031 36.6489 11.6748L35.161 11.3685C34.7409 11.282 34.3261 11.1794 33.9165 11.0623C33.5733 13.081 32.574 14.7834 31.668 15.9745V15.9745Z" fill="#FF6F61"/>
<path d="M12.7141 21.8684C10.3277 21.341 8.06915 20.2411 6.1826 18.6877L1.0002 12.9999C0.753003 13.8902 2.80033 18.0267 2.80033 18.9642V23.3538H16.5196C15.338 22.6687 14.0533 22.1643 12.7141 21.8684Z" fill="#FF6F61"/>
</svg>
