<svg width="38" height="38" viewBox="0 0 38 38" fill="none" xmlns="http://www.w3.org/2000/svg">
<path d="M25 19C25 20.1867 24.6481 21.3467 23.9888 22.3334C23.3295 23.3201 22.3925 24.0892 21.2961 24.5433C20.1997 24.9974 18.9933 25.1162 17.8295 24.8847C16.6656 24.6532 15.5965 24.0818 14.7574 23.2426C13.9182 22.4035 13.3468 21.3344 13.1153 20.1705C12.8838 19.0067 13.0026 17.8003 13.4567 16.7039C13.9108 15.6075 14.6799 14.6705 15.6666 14.0112C16.6533 13.3519 17.8133 13 19 13C20.5898 13.0049 22.113 13.6387 23.2372 14.7628C24.3613 15.887 24.9951 17.4102 25 19V19ZM37.75 10.75V27.25C37.75 30.0348 36.6438 32.7055 34.6746 34.6746C32.7055 36.6438 30.0348 37.75 27.25 37.75H10.75C7.96523 37.75 5.29451 36.6438 3.32538 34.6746C1.35625 32.7055 0.25 30.0348 0.25 27.25V10.75C0.25 7.96523 1.35625 5.29451 3.32538 3.32538C5.29451 1.35625 7.96523 0.25 10.75 0.25H27.25C30.0348 0.25 32.7055 1.35625 34.6746 3.32538C36.6438 5.29451 37.75 7.96523 37.75 10.75V10.75ZM28 19C28 17.22 27.4722 15.4799 26.4832 13.9999C25.4943 12.5198 24.0887 11.3663 22.4442 10.6851C20.7996 10.0039 18.99 9.82567 17.2442 10.1729C15.4984 10.5202 13.8947 11.3774 12.636 12.636C11.3774 13.8947 10.5202 15.4984 10.1729 17.2442C9.82567 18.99 10.0039 20.7996 10.6851 22.4442C11.3663 24.0887 12.5198 25.4943 13.9999 26.4832C15.4799 27.4722 17.22 28 19 28C21.3869 28 23.6761 27.0518 25.364 25.364C27.0518 23.6761 28 21.3869 28 19ZM31 9.25C31 8.80499 30.868 8.36998 30.6208 7.99997C30.3736 7.62996 30.0222 7.34157 29.611 7.17127C29.1999 7.00097 28.7475 6.95642 28.311 7.04323C27.8746 7.13005 27.4737 7.34434 27.159 7.65901C26.8443 7.97368 26.63 8.37459 26.5432 8.81105C26.4564 9.2475 26.501 9.6999 26.6713 10.111C26.8416 10.5222 27.13 10.8736 27.5 11.1208C27.87 11.368 28.305 11.5 28.75 11.5C29.3467 11.5 29.919 11.2629 30.341 10.841C30.7629 10.419 31 9.84674 31 9.25Z" fill="url(#paint0_linear_2034_11411)"/>
<defs>
<linearGradient id="paint0_linear_2034_11411" x1="19" y1="0.25" x2="19" y2="37.75" gradientUnits="userSpaceOnUse">
<stop offset="0.0208333" stop-color="#FF8A50"/>
<stop offset="0.669043" stop-color="#FF6D24"/>
</linearGradient>
</defs>
</svg>
