<svg width="16" height="16" viewBox="0 0 16 16" fill="none" xmlns="http://www.w3.org/2000/svg">
<path d="M14.3736 7.15997L13.4736 6.10664C13.3069 5.90664 13.1669 5.5333 13.1669 5.26664V4.1333C13.1669 3.42664 12.5869 2.84664 11.8802 2.84664H10.7469C10.4802 2.84664 10.1002 2.70664 9.90025 2.53997L8.84691 1.63997C8.38691 1.24664 7.63358 1.24664 7.17358 1.63997L6.10691 2.53997C5.90691 2.70664 5.53358 2.84664 5.26691 2.84664H4.11358C3.40691 2.84664 2.82691 3.42664 2.82691 4.1333V5.26664C2.82691 5.52664 2.69358 5.89997 2.52691 6.09997L1.62691 7.15997C1.24025 7.62664 1.24025 8.3733 1.62691 8.82664L2.52691 9.88664C2.69358 10.08 2.82691 10.46 2.82691 10.72V11.86C2.82691 12.5666 3.40691 13.1466 4.11358 13.1466H5.27358C5.53358 13.1466 5.91358 13.2866 6.11358 13.4533L7.16691 14.3533C7.62691 14.7466 8.38025 14.7466 8.84025 14.3533L9.89358 13.4533C10.0936 13.2866 10.4669 13.1466 10.7336 13.1466H11.8669C12.5736 13.1466 13.1536 12.5666 13.1536 11.86V10.7266C13.1536 10.46 13.2936 10.0866 13.4602 9.88664L14.3602 8.8333C14.7669 8.37997 14.7669 7.62664 14.3736 7.15997ZM7.50025 5.41997C7.50025 5.14664 7.72691 4.91997 8.00025 4.91997C8.27358 4.91997 8.50025 5.14664 8.50025 5.41997V8.63997C8.50025 8.9133 8.27358 9.13997 8.00025 9.13997C7.72691 9.13997 7.50025 8.9133 7.50025 8.63997V5.41997ZM8.00025 11.2466C7.63358 11.2466 7.33358 10.9466 7.33358 10.58C7.33358 10.2133 7.62691 9.9133 8.00025 9.9133C8.36691 9.9133 8.66691 10.2133 8.66691 10.58C8.66691 10.9466 8.37358 11.2466 8.00025 11.2466Z" fill="#FF6F61"/>
</svg>
