<svg width="48" height="48" viewBox="0 0 48 48" fill="none" xmlns="http://www.w3.org/2000/svg">
<path opacity="0.4" d="M24 44C35.0457 44 44 35.0457 44 24C44 12.9543 35.0457 4 24 4C12.9543 4 4 12.9543 4 24C4 35.0457 12.9543 44 24 44Z" fill="#FFC83A"/>
<path d="M24 27.5C24.82 27.5 25.5 26.82 25.5 26V16C25.5 15.18 24.82 14.5 24 14.5C23.18 14.5 22.5 15.18 22.5 16V26C22.5 26.82 23.18 27.5 24 27.5Z" fill="#FFC83A"/>
<path d="M25.84 31.24C25.74 31 25.6 30.78 25.42 30.58C25.22 30.4 25 30.26 24.76 30.16C24.28 29.96 23.72 29.96 23.24 30.16C23 30.26 22.78 30.4 22.58 30.58C22.4 30.78 22.26 31 22.16 31.24C22.06 31.48 22 31.74 22 32C22 32.26 22.06 32.52 22.16 32.76C22.26 33.02 22.4 33.22 22.58 33.42C22.78 33.6 23 33.74 23.24 33.84C23.48 33.94 23.74 34 24 34C24.26 34 24.52 33.94 24.76 33.84C25 33.74 25.22 33.6 25.42 33.42C25.6 33.22 25.74 33.02 25.84 32.76C25.94 32.52 26 32.26 26 32C26 31.74 25.94 31.48 25.84 31.24Z" fill="#FFC83A"/>
</svg>
