<svg width="49" height="49" viewBox="0 0 49 49" fill="none" xmlns="http://www.w3.org/2000/svg">
<path d="M39.0652 15.4526L36.0852 18.4326L30.0852 12.4326L33.0652 9.45265C33.9052 8.61265 34.9852 8.21265 36.0652 8.21265C37.1452 8.21265 38.2252 8.61265 39.0652 9.45265C40.7252 11.1126 40.7252 13.7926 39.0652 15.4526Z" fill="url(#paint0_linear_1800_12090)"/>
<path d="M34.6852 19.8525L13.0653 41.4525C11.4053 43.1125 8.72525 43.1125 7.06525 41.4525C5.40525 39.7925 5.40525 37.1125 7.06525 35.4525L28.6853 13.8525L34.6852 19.8525Z" fill="url(#paint1_linear_1800_12090)"/>
<path d="M19.9652 7.45267L20.7852 4.67267C20.8652 4.41267 20.7852 4.13267 20.6052 3.93267C20.4252 3.73267 20.1052 3.65267 19.8452 3.73267L17.0652 4.55267L14.2852 3.73267C14.0252 3.65267 13.7452 3.73267 13.5452 3.91267C13.3452 4.11267 13.2852 4.39267 13.3652 4.65267L14.1652 7.45267L13.3452 10.2327C13.2652 10.4927 13.3452 10.7727 13.5252 10.9727C13.7252 11.1727 14.0052 11.2327 14.2652 11.1527L17.0652 10.3527L19.8452 11.1727C19.9252 11.1927 19.9852 11.2127 20.0652 11.2127C20.2652 11.2127 20.4452 11.1327 20.6052 10.9927C20.8052 10.7927 20.8652 10.5127 20.7852 10.2527L19.9652 7.45267Z" fill="url(#paint2_linear_1800_12090)"/>
<path d="M11.9652 19.4527L12.7852 16.6727C12.8652 16.4127 12.7852 16.1327 12.6052 15.9327C12.4052 15.7327 12.1252 15.6727 11.8652 15.7527L9.06522 16.5527L6.28522 15.7327C6.02522 15.6527 5.74522 15.7327 5.54522 15.9127C5.34522 16.1127 5.28522 16.3927 5.36522 16.6527L6.16522 19.4527L5.34522 22.2327C5.26522 22.4927 5.34522 22.7727 5.52522 22.9727C5.72522 23.1727 6.00522 23.2327 6.26522 23.1527L9.04522 22.3327L11.8252 23.1527C11.8852 23.1727 11.9652 23.1727 12.0452 23.1727C12.2452 23.1727 12.4252 23.0927 12.5852 22.9527C12.7852 22.7527 12.8452 22.4727 12.7652 22.2127L11.9652 19.4527Z" fill="url(#paint3_linear_1800_12090)"/>
<path d="M41.9652 29.4525L42.7852 26.6725C42.8652 26.4125 42.7852 26.1325 42.6052 25.9325C42.4052 25.7325 42.1252 25.6725 41.8652 25.7525L39.0852 26.5725L36.3052 25.7525C36.0452 25.6725 35.7652 25.7525 35.5652 25.9325C35.3652 26.1325 35.3052 26.4125 35.3852 26.6725L36.2052 29.4525L35.3852 32.2325C35.3052 32.4925 35.3852 32.7725 35.5652 32.9725C35.7652 33.1725 36.0452 33.2325 36.3052 33.1525L39.0852 32.3325L41.8652 33.1525C41.9252 33.1725 42.0052 33.1725 42.0852 33.1725C42.2852 33.1725 42.4652 33.0925 42.6252 32.9525C42.8252 32.7525 42.8852 32.4725 42.8052 32.2125L41.9652 29.4525Z" fill="url(#paint4_linear_1800_12090)"/>
<defs>
<linearGradient id="paint0_linear_1800_12090" x1="35.1977" y1="8.21265" x2="35.1977" y2="18.4326" gradientUnits="userSpaceOnUse">
<stop offset="0.0208333" stop-color="#FF8A50"/>
<stop offset="0.669043" stop-color="#FF6D24"/>
</linearGradient>
<linearGradient id="paint1_linear_1800_12090" x1="20.2528" y1="13.8525" x2="20.2528" y2="42.6975" gradientUnits="userSpaceOnUse">
<stop offset="0.0208333" stop-color="#FF8A50"/>
<stop offset="0.669043" stop-color="#FF6D24"/>
</linearGradient>
<linearGradient id="paint2_linear_1800_12090" x1="17.0669" y1="3.70166" x2="17.0669" y2="11.2127" gradientUnits="userSpaceOnUse">
<stop offset="0.0208333" stop-color="#FF8A50"/>
<stop offset="0.669043" stop-color="#FF6D24"/>
</linearGradient>
<linearGradient id="paint3_linear_1800_12090" x1="9.06522" y1="15.7017" x2="9.06522" y2="23.187" gradientUnits="userSpaceOnUse">
<stop offset="0.0208333" stop-color="#FF8A50"/>
<stop offset="0.669043" stop-color="#FF6D24"/>
</linearGradient>
<linearGradient id="paint4_linear_1800_12090" x1="39.0952" y1="25.7183" x2="39.0952" y2="33.1868" gradientUnits="userSpaceOnUse">
<stop offset="0.0208333" stop-color="#FF8A50"/>
<stop offset="0.669043" stop-color="#FF6D24"/>
</linearGradient>
</defs>
</svg>
