<svg width="42" height="42" viewBox="0 0 42 42" fill="none" xmlns="http://www.w3.org/2000/svg">
<path d="M21 0C9.40313 0 0 9.40313 0 21C0 32.5969 9.40313 42 21 42C32.5969 42 42 32.5969 42 21C42 9.40313 32.5969 0 21 0ZM33 11.8922L31.0875 13.725C30.9188 13.8516 30.8391 14.0578 30.8719 14.2594V27.7453C30.8391 27.9516 30.9188 28.1578 31.0875 28.2797L32.9625 30.1125V30.5203H23.55V30.1312L25.4859 28.2516C25.6781 28.0594 25.6781 28.0031 25.6781 27.7172V16.8047L20.2875 30.4734H19.5609L13.2891 16.8047V25.9688C13.2328 26.3531 13.3687 26.7422 13.6406 27.0188L16.1625 30.0703V30.4781H9V30.0703L11.5219 27.0188C11.6547 26.8815 11.7536 26.715 11.8106 26.5327C11.8676 26.3504 11.8811 26.1572 11.85 25.9688V15.375C11.8828 15.0797 11.7703 14.7937 11.5453 14.5922L9.30469 11.8922V11.4844H16.2656L21.6375 23.2734L26.3672 11.4938H33V11.8922Z" fill="url(#paint0_linear_2034_11421)"/>
<defs>
<linearGradient id="paint0_linear_2034_11421" x1="21" y1="0" x2="21" y2="42" gradientUnits="userSpaceOnUse">
<stop offset="0.0208333" stop-color="#FF8A50"/>
<stop offset="0.669043" stop-color="#FF6D24"/>
</linearGradient>
</defs>
</svg>
