<svg width="114" height="16" viewBox="0 0 114 16" fill="none" xmlns="http://www.w3.org/2000/svg">
<path d="M15.467 11.6473L15.1721 11.1045C14.8926 10.5946 14.2873 9.50908 14.2873 9.50908L10.2358 2.05822C9.42865 0.758847 7.78325 0.413443 6.55695 1.26873C6.16889 1.53189 5.85843 1.91019 5.65664 2.35428L0.953258 10.9894C0.223691 12.3217 0.658327 14.0322 1.93119 14.8053C2.33478 15.052 2.78494 15.1836 3.25062 15.1836H20.0617C17.4694 15.2 16.6467 13.7691 15.467 11.6473Z" fill="white"/>
<path fill-rule="evenodd" clip-rule="evenodd" d="M17.572 11.1045L17.8669 11.6473C18.7956 13.3175 19.503 14.5597 21.0265 15.0047C22.4127 14.445 23.2366 12.6611 22.3742 10.9563L17.5932 2.17318C16.5377 0.347478 13.992 0.314583 12.983 2.25542L12.8623 2.47485L16.6872 9.50909C16.6872 9.50909 17.2926 10.5946 17.572 11.1045Z" fill="white"/>
<path d="M112.592 14.4928C112.018 14.5092 111.459 14.3612 110.978 14.0651C110.559 13.7855 110.31 13.2921 110.341 12.7658V4.26224H111.413C111.801 4.26224 112.127 4.60764 112.127 5.01884V12.5026C112.142 12.7493 112.235 12.9796 112.406 13.1605C112.577 13.3414 112.81 13.4401 113.042 13.4401H113.244C113.322 13.4401 113.399 13.5059 113.399 13.6046V14.5257L112.592 14.4928Z" fill="white"/>
<path d="M89.603 14.4928C88.5009 14.4928 87.6006 14.1803 86.9176 13.5552C86.5916 13.2756 86.3432 12.9138 86.188 12.5026C86.0328 12.1078 85.9707 11.5486 85.9707 10.792C85.9707 10.0354 86.0483 9.45973 86.188 9.08143C86.3432 8.68669 86.5916 8.34129 86.9021 8.06167C87.5851 7.43666 88.4854 7.12415 89.5875 7.12415C90.6896 7.12415 91.5899 7.43666 92.2729 8.06167C92.5834 8.32484 92.8317 8.68669 92.987 9.08143C93.1577 9.64066 93.2353 10.2163 93.2043 10.8085C93.2043 11.5651 93.1267 12.1407 92.987 12.519C92.8317 12.9302 92.5834 13.2921 92.2574 13.5717C91.621 14.1803 90.7051 14.4928 89.603 14.4928ZM89.603 8.2097C88.3922 8.2097 87.7869 9.08143 87.7869 10.8249C87.7869 12.5684 88.3922 13.4566 89.603 13.4566C90.8138 13.4566 91.4192 12.5848 91.4192 10.8414C91.4192 9.09788 90.7983 8.2097 89.603 8.2097Z" fill="white"/>
<path d="M97.2258 14.4928C96.31 14.5092 95.4097 14.2296 94.6336 13.6868C94.5094 13.5717 94.3697 13.473 94.23 13.3908C94.1834 13.3579 94.1523 13.3085 94.1523 13.2592V4.26224H95.2389C95.627 4.26224 95.953 4.60764 95.953 5.01884V7.65049L96.279 7.45311C96.667 7.23929 97.1793 7.1406 97.8468 7.1406C99.011 7.1406 99.8957 7.5189 100.47 8.22616C100.982 8.86762 101.246 9.72291 101.246 10.7756C101.246 11.8282 100.951 12.6835 100.361 13.3085C99.6939 14.1145 98.6229 14.4928 97.2258 14.4928ZM97.3966 8.20971C96.993 8.20971 96.5273 8.37419 96.0151 8.70315L95.9375 8.73604V12.9631L96.0151 13.0289C96.4342 13.3085 96.8999 13.4401 97.3966 13.4401C98.0175 13.4566 98.6074 13.1276 98.9178 12.5684C99.2283 12.0421 99.399 11.4335 99.3835 10.8085C99.3835 9.08144 98.716 8.20971 97.3966 8.20971Z" fill="white"/>
<path d="M105.499 14.4763C103.481 14.4763 102.208 13.0782 102.208 10.792C102.208 8.50573 103.45 7.12411 105.468 7.12411C106.166 7.10766 106.865 7.32149 107.439 7.74913L107.548 7.83137V7.27214H108.96C109.038 7.27214 109.1 7.33794 109.1 7.42018V14.3447H107.517V13.7197L107.408 13.8184C106.973 14.246 106.275 14.4763 105.499 14.4763ZM105.856 8.37415C104.583 8.37415 103.838 9.41036 103.838 10.792C103.838 12.1736 104.599 13.2427 105.856 13.2427C106.259 13.2427 106.958 13.2098 107.517 12.6177L107.532 12.6012V9.04851L107.517 9.03206C107.144 8.57152 106.57 8.37415 105.856 8.37415Z" fill="white"/>
<path d="M40.1641 14.4105V4.26224H48.1272V4.9037C48.1272 5.41358 47.7391 5.82478 47.2579 5.82478H42.1354V8.53867H47.2579V10.1012H42.1354V12.8315H47.2579C47.7391 12.8315 48.1272 13.2427 48.1272 13.7526V14.3941L40.1641 14.4105Z" fill="white"/>
<path d="M59.552 4.24576H57.6737C57.3322 4.24576 57.0063 4.41024 56.7889 4.68985L54.5381 7.71625L52.2718 4.7063C52.0545 4.42669 51.7285 4.26221 51.387 4.26221H49.5088L53.3119 9.32813L49.5088 14.3941H51.387C51.7285 14.3941 52.0545 14.2296 52.2718 13.95L54.5381 10.9565L56.82 13.9829C57.0373 14.2625 57.3633 14.4269 57.7048 14.4269H59.583L55.7644 9.36103L59.552 4.24576Z" fill="white"/>
<path d="M33.9235 13.325L36.5313 8.4893V14.3776H38.5182V4.22931H37.2919C36.9039 4.22931 36.5468 4.44313 36.3606 4.80499L33.2405 10.8413L30.1204 4.80499C29.9342 4.44313 29.5771 4.21286 29.1891 4.22931H27.9473V14.3776H29.9342V8.4893L32.542 13.325H33.9235Z" fill="white"/>
<path d="M64.7365 14.5257C62.02 14.5915 59.7692 12.3052 59.7227 9.42687C59.7227 9.39397 59.7227 9.37752 59.7227 9.34463C59.7227 7.74919 60.1883 6.41692 61.0421 5.51229C61.8958 4.60766 63.1532 4.13068 64.6434 4.13068C66.3974 4.13068 67.7634 4.77214 68.7569 6.02217L68.136 6.5814C67.7479 6.9268 67.1736 6.94325 66.7544 6.61429C66.1646 6.15375 65.4505 5.92348 64.721 5.95638C62.7651 5.95638 61.6164 7.20642 61.6164 9.31174C61.6164 11.4171 62.8117 12.7493 64.721 12.7493C65.4505 12.7658 66.1646 12.5355 66.7544 12.0914C67.1736 11.7625 67.7324 11.7789 68.136 12.1243L68.7569 12.6835C67.7789 13.9007 66.444 14.5257 64.7365 14.5257Z" fill="white"/>
<path d="M76.968 14.5092C73.879 14.5092 71.9697 12.519 71.9697 9.32812C71.9697 6.13725 73.879 4.14706 76.937 4.14706C78.4116 4.14706 79.6379 4.59116 80.6003 5.51224L80.1347 6.05501C79.8087 6.43331 79.2964 6.532 78.8618 6.30173C78.2564 5.98922 77.6045 5.82474 76.937 5.82474C74.9501 5.82474 73.7238 7.17346 73.7238 9.32812C73.7238 11.4828 75.0122 12.848 77.0767 12.848C78.0701 12.848 78.8463 12.6506 79.4051 12.2229L79.4361 12.2065V10.1176H77.2474V9.44326C77.2474 8.93338 77.6355 8.52218 78.1167 8.52218H80.8177C80.8953 8.52218 80.9729 8.58797 80.9729 8.68666V13.1934C80.026 14.0651 78.6755 14.5092 76.968 14.5092Z" fill="white"/>
<path d="M84.5121 14.4928C83.9378 14.5092 83.379 14.3612 82.8978 14.0651C82.4786 13.7855 82.2303 13.2921 82.2458 12.7658V4.26224H83.3169C83.7205 4.26224 84.0309 4.60764 84.0309 5.01884V12.5026C84.0464 12.7493 84.1396 12.9796 84.3103 13.1605C84.4811 13.3414 84.7139 13.4401 84.9467 13.4401H85.1485C85.2262 13.4401 85.3038 13.5059 85.3038 13.6046V14.5257L84.5121 14.4928Z" fill="white"/>
</svg>
