<svg width="126" height="19" viewBox="0 0 126 19" fill="none" xmlns="http://www.w3.org/2000/svg">
<path d="M21.3396 14.9925C21.0398 14.9925 20.8279 14.9303 20.7038 14.8062C20.5901 14.6819 20.5332 14.4852 20.5332 14.216V5.2249C20.5332 4.95573 20.5952 4.75903 20.7193 4.6348C20.8434 4.50022 21.0501 4.43292 21.3396 4.43292H25.1391C26.5865 4.43292 27.6513 4.73833 28.3338 5.34912C29.0161 5.95992 29.3573 6.87094 29.3573 8.08219C29.3573 9.28307 29.0161 10.1889 28.3338 10.7997C27.6617 11.4002 26.5968 11.7004 25.1391 11.7004H23.6658V14.216C23.6658 14.4852 23.6038 14.6819 23.4797 14.8062C23.3556 14.9303 23.1437 14.9925 22.8439 14.9925H21.3396ZM24.891 9.44872C25.3149 9.44872 25.6405 9.33484 25.868 9.10708C26.1057 8.87933 26.2247 8.5377 26.2247 8.08219C26.2247 7.61632 26.1057 7.26951 25.868 7.04175C25.6405 6.81401 25.3149 6.70012 24.891 6.70012H23.6658V9.44872H24.891Z" fill="white"/>
<path d="M33.0197 15.2254C32.0479 15.2254 31.2673 14.9148 30.678 14.2938C30.099 13.6622 29.8096 12.7771 29.8096 11.6382C29.8096 10.7687 30.006 10.0077 30.3988 9.35555C30.8021 8.70335 31.3656 8.20126 32.0893 7.84927C32.8233 7.48693 33.6659 7.30576 34.617 7.30576C35.4028 7.30576 36.0955 7.39375 36.6951 7.56974C37.3051 7.73539 37.8633 7.97868 38.37 8.2996V14.5111C38.37 14.7078 38.3338 14.8372 38.2614 14.8993C38.189 14.9615 38.0443 14.9925 37.8272 14.9925H36.2454C36.1316 14.9925 36.0438 14.977 35.9818 14.9459C35.9197 14.9045 35.8681 14.8424 35.8267 14.7595L35.625 14.2938C35.3252 14.6146 34.9634 14.8476 34.5395 14.9925C34.126 15.1478 33.6194 15.2254 33.0197 15.2254ZM34.1829 13.1135C34.586 13.1135 34.9013 13.0151 35.1288 12.8185C35.3562 12.6218 35.4699 12.3423 35.4699 11.9799V9.55743C35.2736 9.46426 35.0254 9.41767 34.7256 9.41767C34.1776 9.41767 33.7382 9.60919 33.4074 9.9922C33.0869 10.3752 32.9267 10.9136 32.9267 11.6072C32.9267 12.6114 33.3453 13.1135 34.1829 13.1135Z" fill="white"/>
<path d="M40.529 14.9925C40.229 14.9925 40.0171 14.9303 39.8931 14.8062C39.769 14.6819 39.707 14.4852 39.707 14.2161V8.02008C39.707 7.83374 39.738 7.70951 39.8 7.64739C39.8724 7.57492 40.0171 7.5387 40.2343 7.5387H41.8316C41.9556 7.5387 42.0487 7.55939 42.1107 7.6008C42.1831 7.63186 42.2244 7.69398 42.2348 7.78715L42.3123 8.25301C42.6018 7.96315 42.9792 7.73539 43.4444 7.56974C43.92 7.39375 44.4472 7.30576 45.0262 7.30576C45.8636 7.30576 46.5408 7.54387 47.0577 8.02008C47.5747 8.48594 47.8332 9.17956 47.8332 10.1009V14.2161C47.8332 14.4852 47.7712 14.6819 47.6471 14.8062C47.5333 14.9303 47.3265 14.9925 47.0267 14.9925H45.5225C45.2227 14.9925 45.0056 14.9303 44.8711 14.8062C44.7471 14.6819 44.6851 14.4852 44.6851 14.2161V10.3028C44.6851 9.9922 44.6178 9.76969 44.4835 9.63507C44.349 9.50049 44.1371 9.4332 43.8476 9.4332C43.5375 9.4332 43.2893 9.51602 43.1032 9.68162C42.9275 9.84729 42.8396 10.075 42.8396 10.365V14.2161C42.8396 14.4852 42.7775 14.6819 42.6536 14.8062C42.5398 14.9303 42.333 14.9925 42.0332 14.9925H40.529Z" fill="white"/>
<path d="M53.3125 15.2254C51.8652 15.2254 50.7486 14.8889 49.9628 14.2161C49.1771 13.5432 48.7842 12.5649 48.7842 11.2811C48.7842 10.4944 48.9651 9.80073 49.3269 9.20027C49.6888 8.59983 50.2109 8.13396 50.8933 7.80268C51.586 7.4714 52.4028 7.30576 53.3435 7.30576C54.0569 7.30576 54.6566 7.37305 55.1425 7.50764C55.6387 7.64221 56.0781 7.84926 56.4606 8.12879C56.5744 8.20126 56.6312 8.29442 56.6312 8.40831C56.6312 8.49112 56.5899 8.59983 56.5071 8.7344L55.8713 9.83691C55.7989 9.98193 55.7111 10.0544 55.6077 10.0544C55.5456 10.0544 55.4474 10.013 55.3131 9.93013C55.0339 9.75418 54.7703 9.62472 54.5221 9.5419C54.2843 9.45908 53.9845 9.41767 53.6227 9.41767C53.1057 9.41767 52.6871 9.58331 52.3665 9.91461C52.0564 10.2459 51.9013 10.7014 51.9013 11.2811C51.9013 11.8712 52.0615 12.3267 52.382 12.6476C52.7026 12.9582 53.142 13.1135 53.7002 13.1135C54.031 13.1135 54.3309 13.0669 54.5997 12.9737C54.8685 12.8806 55.1425 12.7512 55.4216 12.5855C55.5664 12.5027 55.6697 12.4613 55.7318 12.4613C55.8248 12.4613 55.9075 12.5337 55.9799 12.6787L56.6777 13.8744C56.7295 13.9779 56.7553 14.0608 56.7553 14.1228C56.7553 14.2161 56.6932 14.304 56.5692 14.3869C56.135 14.6664 55.6594 14.8734 55.1425 15.008C54.6359 15.153 54.0259 15.2254 53.3125 15.2254Z" fill="white"/>
<path d="M60.6887 15.2254C59.7168 15.2254 58.9363 14.9148 58.347 14.2938C57.7681 13.6622 57.4785 12.7771 57.4785 11.6382C57.4785 10.7687 57.675 10.0077 58.0679 9.35555C58.471 8.70335 59.0345 8.20126 59.7582 7.84927C60.4923 7.48693 61.3349 7.30576 62.2861 7.30576C63.0717 7.30576 63.7644 7.39375 64.3641 7.56974C64.974 7.73539 65.5324 7.97868 66.039 8.2996V14.5111C66.039 14.7078 66.0028 14.8372 65.9304 14.8993C65.858 14.9615 65.7133 14.9925 65.4961 14.9925H63.9144C63.8007 14.9925 63.7127 14.977 63.6507 14.9459C63.5887 14.9045 63.537 14.8424 63.4956 14.7595L63.2941 14.2938C62.9943 14.6146 62.6324 14.8476 62.2085 14.9925C61.7949 15.1478 61.2883 15.2254 60.6887 15.2254ZM61.8518 13.1135C62.2551 13.1135 62.5704 13.0151 62.7978 12.8185C63.0253 12.6218 63.139 12.3423 63.139 11.9799V9.55743C62.9425 9.46426 62.6944 9.41767 62.3945 9.41767C61.8467 9.41767 61.4073 9.60919 61.0764 9.9922C60.7559 10.3752 60.5956 10.9136 60.5956 11.6072C60.5956 12.6114 61.0144 13.1135 61.8518 13.1135Z" fill="white"/>
<path d="M75.7793 14.4024C75.8517 14.4852 75.8879 14.5784 75.8879 14.6819C75.8879 14.775 75.8569 14.8527 75.7948 14.9148C75.7328 14.9666 75.6501 14.9925 75.5467 14.9925H73.143C72.9983 14.9925 72.8897 14.9821 72.8173 14.9615C72.7553 14.9303 72.6881 14.8734 72.6157 14.7907L70.5066 11.9178V14.216C70.5066 14.4852 70.4446 14.6819 70.3205 14.8062C70.1965 14.9303 69.9845 14.9925 69.6847 14.9925H68.1804C67.8806 14.9925 67.6687 14.9303 67.5446 14.8062C67.4309 14.6819 67.374 14.4852 67.374 14.216V5.2249C67.374 4.95573 67.436 4.75903 67.5601 4.6348C67.6842 4.50022 67.891 4.43292 68.1804 4.43292H69.6847C69.9845 4.43292 70.1965 4.50022 70.3205 4.6348C70.4446 4.75903 70.5066 4.95573 70.5066 5.2249V10.427L72.5537 7.75608C72.6157 7.67326 72.683 7.61632 72.7553 7.58526C72.8277 7.55421 72.9363 7.53868 73.081 7.53868H75.4848C75.5881 7.53868 75.6656 7.56973 75.7173 7.63185C75.7793 7.68362 75.8104 7.75608 75.8104 7.84926C75.8104 7.95278 75.7742 8.04595 75.7018 8.12878L73.05 11.1725L75.7793 14.4024Z" fill="white"/>
<path d="M80.8165 15.2254C79.9481 15.2254 79.1726 15.0805 78.4903 14.7907C77.8183 14.5007 77.2859 14.0659 76.893 13.4862C76.5002 12.9065 76.3037 12.1973 76.3037 11.3588C76.3037 10.044 76.6759 9.03981 77.4203 8.34619C78.1646 7.65257 79.2347 7.30576 80.6304 7.30576C81.9952 7.30576 83.029 7.64739 83.732 8.33066C84.4454 9.00357 84.8021 9.94051 84.8021 11.1413C84.8021 11.659 84.5747 11.9178 84.1198 11.9178H79.2502C79.2502 12.3629 79.4156 12.7046 79.7465 12.9427C80.0877 13.1808 80.5994 13.2998 81.2817 13.2998C81.7056 13.2998 82.0572 13.2636 82.3363 13.1912C82.6258 13.1083 82.9153 12.9893 83.2048 12.834C83.3288 12.7822 83.4116 12.7563 83.4528 12.7563C83.5459 12.7563 83.6234 12.8185 83.6855 12.9427L84.2128 13.9365C84.2645 14.0401 84.2904 14.1177 84.2904 14.1695C84.2904 14.2626 84.2283 14.3507 84.1042 14.4334C83.6804 14.713 83.1996 14.9148 82.662 15.0391C82.1244 15.1633 81.5092 15.2254 80.8165 15.2254ZM82.0107 10.3805C82.0107 9.98707 81.8969 9.68162 81.6695 9.46426C81.4421 9.24686 81.1008 9.13815 80.6459 9.13815C80.191 9.13815 79.8447 9.25203 79.6069 9.47979C79.3691 9.69724 79.2502 9.99744 79.2502 10.3805H82.0107Z" fill="white"/>
<path d="M90.1166 15.2254C89.2481 15.2254 88.4262 15.1374 87.6508 14.9615C86.8754 14.7751 86.2499 14.5163 85.7743 14.185C85.5986 14.0711 85.5107 13.952 85.5107 13.8279C85.5107 13.745 85.5417 13.6571 85.6037 13.5639L86.3637 12.3526C86.4464 12.2284 86.529 12.1663 86.6117 12.1663C86.6635 12.1663 86.7513 12.2025 86.8754 12.2749C87.2579 12.4924 87.6921 12.6684 88.1781 12.8029C88.664 12.9375 89.1447 13.0049 89.6204 13.0049C90.1062 13.0049 90.4629 12.9324 90.6903 12.7874C90.9282 12.6425 91.047 12.4096 91.047 12.0886C91.047 11.778 90.9178 11.5348 90.6593 11.3588C90.4112 11.1828 89.9408 10.9602 89.2481 10.6911C88.204 10.2977 87.3872 9.85768 86.7978 9.37109C86.2188 8.87417 85.9294 8.20126 85.9294 7.35235C85.9294 6.32746 86.2964 5.54584 87.0305 5.00751C87.7646 4.46918 88.7415 4.20001 89.9615 4.20001C90.8092 4.20001 91.533 4.27766 92.1326 4.43294C92.7426 4.57788 93.2595 4.80563 93.6834 5.11621C93.8592 5.25079 93.947 5.37502 93.947 5.4889C93.947 5.56137 93.916 5.64419 93.8539 5.73736L93.0941 6.94861C93.001 7.07283 92.9183 7.13495 92.8459 7.13495C92.7943 7.13495 92.7064 7.09871 92.5824 7.02625C91.9827 6.63285 91.2693 6.43615 90.4423 6.43615C89.9976 6.43615 89.6565 6.50862 89.4187 6.65356C89.181 6.7985 89.062 7.03661 89.062 7.36788C89.062 7.59564 89.1241 7.78198 89.2481 7.92691C89.3722 8.07185 89.5376 8.20126 89.7443 8.31514C89.9615 8.41866 90.2923 8.55325 90.7368 8.71888L91.0315 8.82758C91.7966 9.12781 92.3963 9.41768 92.8304 9.69725C93.2751 9.96631 93.611 10.3028 93.8384 10.7066C94.0659 11.0999 94.1796 11.5968 94.1796 12.1974C94.1796 13.1187 93.8333 13.8538 93.1406 14.4024C92.4583 14.9511 91.4503 15.2254 90.1166 15.2254Z" fill="white"/>
<path d="M97.4757 14.9925C97.3207 14.9925 97.202 14.9666 97.1191 14.9148C97.0363 14.8631 96.9742 14.7595 96.9329 14.6042L94.9324 7.89585C94.9117 7.83374 94.9014 7.78715 94.9014 7.7561C94.9014 7.61116 95.0047 7.5387 95.2115 7.5387H97.2583C97.3932 7.5387 97.4908 7.56458 97.5532 7.61633C97.6156 7.65774 97.6569 7.73021 97.677 7.83373L98.5143 11.3588L99.569 8.517C99.6213 8.39278 99.6727 8.30995 99.724 8.26854C99.7864 8.21678 99.8901 8.1909 100.035 8.1909H101.011C101.156 8.1909 101.255 8.21678 101.306 8.26854C101.368 8.30995 101.425 8.39278 101.477 8.517L102.516 11.3588L103.369 7.83373C103.399 7.73021 103.441 7.65774 103.493 7.61633C103.544 7.56458 103.638 7.5387 103.772 7.5387H105.835C106.041 7.5387 106.145 7.61116 106.145 7.7561C106.145 7.78715 106.135 7.83374 106.114 7.89585L104.098 14.6042C104.057 14.7595 103.994 14.8631 103.912 14.9148C103.839 14.9666 103.725 14.9925 103.57 14.9925H102.051C101.906 14.9925 101.797 14.9666 101.725 14.9148C101.652 14.8527 101.591 14.7493 101.539 14.6042L100.515 11.7935L99.4915 14.6042C99.4503 14.7493 99.3879 14.8527 99.3053 14.9148C99.2329 14.9666 99.1252 14.9925 98.9803 14.9925H97.4757Z" fill="white"/>
<path d="M110.075 15.2254C109.102 15.2254 108.323 14.9148 107.733 14.2938C107.154 13.6622 106.864 12.7771 106.864 11.6382C106.864 10.7687 107.061 10.0077 107.454 9.35555C107.857 8.70335 108.42 8.20126 109.144 7.84927C109.878 7.48693 110.721 7.30576 111.672 7.30576C112.458 7.30576 113.15 7.39375 113.75 7.56974C114.36 7.73539 114.918 7.97868 115.425 8.2996V14.5111C115.425 14.7078 115.388 14.8372 115.316 14.8993C115.243 14.9615 115.1 14.9925 114.882 14.9925H113.3C113.186 14.9925 113.099 14.977 113.036 14.9459C112.974 14.9045 112.923 14.8424 112.881 14.7595L112.68 14.2938C112.38 14.6146 112.018 14.8476 111.594 14.9925C111.181 15.1478 110.674 15.2254 110.075 15.2254ZM111.238 13.1135C111.641 13.1135 111.957 13.0151 112.184 12.8185C112.411 12.6218 112.525 12.3423 112.525 11.9799V9.55743C112.328 9.46426 112.08 9.41767 111.78 9.41767C111.232 9.41767 110.793 9.60919 110.462 9.9922C110.142 10.3752 109.981 10.9136 109.981 11.6072C109.981 12.6114 110.401 13.1135 111.238 13.1135Z" fill="white"/>
<path d="M117.568 18.1293C117.268 18.1293 117.057 18.0672 116.932 17.943C116.818 17.8187 116.762 17.622 116.762 17.3529V8.45488C117.227 8.12361 117.811 7.84926 118.514 7.63186C119.217 7.41446 119.951 7.30576 120.716 7.30576C123.839 7.30576 125.4 8.63088 125.4 11.2811C125.4 12.482 125.068 13.4396 124.407 14.154C123.745 14.8683 122.81 15.2254 121.6 15.2254C121.259 15.2254 120.928 15.184 120.607 15.1012C120.297 15.0184 120.039 14.9045 119.832 14.7595V17.3529C119.832 17.622 119.77 17.8187 119.646 17.943C119.522 18.0672 119.31 18.1293 119.01 18.1293H117.568ZM120.933 13.129C121.378 13.129 121.709 12.9634 121.926 12.6321C122.153 12.2905 122.267 11.835 122.267 11.2656C122.267 10.5927 122.133 10.1216 121.864 9.85243C121.605 9.57296 121.202 9.4332 120.654 9.4332C120.302 9.4332 120.023 9.47979 119.817 9.57296V12.0421C119.817 12.3941 119.915 12.6632 120.111 12.8496C120.308 13.0359 120.582 13.129 120.933 13.129Z" fill="white"/>
<path fill-rule="evenodd" clip-rule="evenodd" d="M2.64717 15.0214C3.96915 16.0351 5.86119 16.5995 8.21003 16.6013H8.22178C10.5706 16.5995 12.4627 16.0351 13.7846 15.0214C15.1225 13.9956 15.8322 12.5397 15.8322 10.8923C15.8322 9.30508 15.124 8.16054 14.3227 7.38689C13.6948 6.78059 13.0018 6.39229 12.5193 6.16893C12.6284 5.83362 12.7646 5.39464 12.8864 4.94124C13.0493 4.33453 13.2093 3.62269 13.2093 3.10105C13.2093 2.48363 13.0748 1.86357 12.7123 1.38176C12.3294 0.872708 11.7529 0.600006 11.0592 0.600006C10.5172 0.600006 10.057 0.801347 9.69672 1.14868C9.35227 1.48068 9.12312 1.92159 8.96486 2.38121C8.68671 3.18884 8.57849 4.2035 8.54808 5.21608H7.88372C7.85336 4.2035 7.74508 3.18884 7.46698 2.38121C7.30873 1.92159 7.07951 1.48068 6.73512 1.14868C6.37483 0.801347 5.91463 0.600006 5.37256 0.600006C4.67898 0.600006 4.10245 0.872708 3.71949 1.38176C3.35702 1.86357 3.22258 2.48363 3.22258 3.10105C3.22258 3.62269 3.38246 4.33453 3.54544 4.94124C3.66724 5.39464 3.80336 5.83362 3.91248 6.16893C3.42997 6.39229 2.73701 6.78059 2.10905 7.38689C1.30777 8.16054 0.599609 9.30508 0.599609 10.8923C0.599609 12.5397 1.30933 13.9956 2.64717 15.0214ZM1.26506 10.8108C1.27076 13.1298 4.91185 14.9212 8.22022 14.9212C11.5286 14.9212 15.1697 13.1298 15.1754 10.8108V10.8216C15.1754 13.6924 12.7298 15.8564 8.22022 15.8564C3.71064 15.8564 1.26504 13.6924 1.26504 10.8216L1.26506 10.8108ZM6.38183 10.0986C6.38183 10.8815 6.01606 11.2893 5.56485 11.2893C5.11363 11.2893 4.74785 10.8815 4.74785 10.0986C4.74785 9.31561 5.11363 8.90786 5.56485 8.90786C6.01606 8.90786 6.38183 9.31561 6.38183 10.0986ZM10.8758 11.2893C11.327 11.2893 11.6928 10.8815 11.6928 10.0986C11.6928 9.31561 11.327 8.90786 10.8758 8.90786C10.4246 8.90786 10.0588 9.31561 10.0588 10.0986C10.0588 10.8815 10.4246 11.2893 10.8758 11.2893Z" fill="white"/>
</svg>
