<svg width="32" height="32" viewBox="0 0 32 32" fill="none" xmlns="http://www.w3.org/2000/svg">
<path d="M25.44 20.9601C24.6534 16.2534 20.1334 12.4268 15.36 12.4268C10.1734 12.4268 5.61338 16.6268 5.17338 21.8001C5.00004 23.8001 5.64004 25.6934 6.96004 27.1201C8.26671 28.5468 10.1067 29.3334 12.1067 29.3334H18.3467C20.6 29.3334 22.5734 28.4534 23.92 26.8668C25.2667 25.2801 25.8 23.1734 25.44 20.9601Z" fill="#5A6178"/>
<path d="M13.7065 10.4801C15.8641 10.4801 17.6131 8.73101 17.6131 6.57341C17.6131 4.41582 15.8641 2.66675 13.7065 2.66675C11.5489 2.66675 9.7998 4.41582 9.7998 6.57341C9.7998 8.73101 11.5489 10.4801 13.7065 10.4801Z" fill="#5A6178"/>
<path d="M22.5863 12.0401C24.3831 12.0401 25.8397 10.5835 25.8397 8.78678C25.8397 6.99001 24.3831 5.53345 22.5863 5.53345C20.7896 5.53345 19.333 6.99001 19.333 8.78678C19.333 10.5835 20.7896 12.0401 22.5863 12.0401Z" fill="#5A6178"/>
<path d="M27.3998 17.24C28.8357 17.24 29.9998 16.076 29.9998 14.64C29.9998 13.2041 28.8357 12.04 27.3998 12.04C25.9639 12.04 24.7998 13.2041 24.7998 14.64C24.7998 16.076 25.9639 17.24 27.3998 17.24Z" fill="#5A6178"/>
<path d="M5.25333 14.64C7.0501 14.64 8.50667 13.1834 8.50667 11.3866C8.50667 9.58987 7.0501 8.1333 5.25333 8.1333C3.45657 8.1333 2 9.58987 2 11.3866C2 13.1834 3.45657 14.64 5.25333 14.64Z" fill="#5A6178"/>
</svg>
