<svg width="32" height="32" viewBox="0 0 32 32" fill="none" xmlns="http://www.w3.org/2000/svg">
<path opacity="0.4" d="M11.5603 18.6667H5.33366C3.86699 18.6667 2.66699 19.8667 2.66699 21.3333V29.3333H11.5603V18.6667Z" fill="url(#paint0_linear_4974_16793)"/>
<path d="M17.7735 13.3333H14.2135C12.7469 13.3333 11.5469 14.5333 11.5469 16V29.3333H20.4402V16C20.4402 14.5333 19.2535 13.3333 17.7735 13.3333Z" fill="url(#paint1_linear_4974_16793)"/>
<path opacity="0.4" d="M26.6671 22.6667H20.4404V29.3333H29.3338V25.3333C29.3338 23.8667 28.1338 22.6667 26.6671 22.6667Z" fill="url(#paint2_linear_4974_16793)"/>
<path d="M20.0132 6.46665C20.4266 6.05331 20.5866 5.55998 20.4532 5.13331C20.3199 4.70665 19.9066 4.39999 19.3199 4.30665L18.0399 4.09331C17.9866 4.07998 17.8666 3.99996 17.8399 3.94663L17.1332 2.5333C16.5999 1.4533 15.3866 1.4533 14.8532 2.5333L14.1466 3.94663C14.1199 3.99996 13.9999 4.07998 13.9466 4.09331L12.6666 4.30665C12.0799 4.39999 11.6799 4.70665 11.5332 5.13331C11.3999 5.55998 11.5599 6.05331 11.9732 6.46665L12.9599 7.46665C12.9999 7.50665 13.0532 7.66665 13.0399 7.71998L12.7599 8.94663C12.5466 9.85329 12.8932 10.2666 13.1199 10.44C13.3466 10.6 13.8399 10.8133 14.6532 10.3333L15.8532 9.62664C15.9066 9.58664 16.0799 9.58664 16.1332 9.62664L17.3332 10.3333C17.7066 10.56 18.0132 10.6266 18.2532 10.6266C18.5332 10.6266 18.7332 10.52 18.8532 10.44C19.0799 10.28 19.4266 9.86663 19.2132 8.94663L18.9332 7.71998C18.9199 7.65332 18.9599 7.50665 19.0132 7.46665L20.0132 6.46665Z" fill="url(#paint3_linear_4974_16793)"/>
<defs>
<linearGradient id="paint0_linear_4974_16793" x1="7.11366" y1="18.6667" x2="7.11366" y2="29.3333" gradientUnits="userSpaceOnUse">
<stop offset="0.0208333" stop-color="#FF8A50"/>
<stop offset="0.669043" stop-color="#FF6D24"/>
</linearGradient>
<linearGradient id="paint1_linear_4974_16793" x1="15.9935" y1="13.3333" x2="15.9935" y2="29.3333" gradientUnits="userSpaceOnUse">
<stop offset="0.0208333" stop-color="#FF8A50"/>
<stop offset="0.669043" stop-color="#FF6D24"/>
</linearGradient>
<linearGradient id="paint2_linear_4974_16793" x1="24.8871" y1="22.6667" x2="24.8871" y2="29.3333" gradientUnits="userSpaceOnUse">
<stop offset="0.0208333" stop-color="#FF8A50"/>
<stop offset="0.669043" stop-color="#FF6D24"/>
</linearGradient>
<linearGradient id="paint3_linear_4974_16793" x1="15.9932" y1="1.7233" x2="15.9932" y2="10.6282" gradientUnits="userSpaceOnUse">
<stop offset="0.0208333" stop-color="#FF8A50"/>
<stop offset="0.669043" stop-color="#FF6D24"/>
</linearGradient>
</defs>
</svg>
