<svg width="24" height="24" viewBox="0 0 24 24" fill="none" xmlns="http://www.w3.org/2000/svg">
<path d="M5.97547 11.9537C6.90296 11.61 7.89929 11.5593 8.85671 11.8073L9.92992 12.0853C9.54948 11.1575 8.91228 9.97528 8.06718 9.34435C7.68798 9.36538 7.30049 9.27077 6.96453 9.04982C6.39251 8.6737 5.70506 8.50832 5.02488 8.58141V7.52695H3.89992V9.95938C3.89992 10.6652 3.71538 11.352 3.36536 11.9605L3.75562 12.0629C4.49302 12.2565 5.26064 12.2187 5.97547 11.9537Z" fill="#FFC83A"/>
<path d="M20.4528 14.1968C19.331 14.4749 18.1786 14.6139 17.0262 14.6139C15.8242 14.6139 14.6223 14.4627 13.4552 14.1604L8.57476 12.8964C7.84096 12.7063 7.07739 12.7452 6.36661 13.0086C5.57855 13.3007 4.74147 13.3803 3.92041 13.2459L4.80627 13.9753C5.61312 14.6397 6.57909 15.1101 7.59972 15.3357C8.88665 15.6201 10.0887 16.2321 11.0758 17.1056L11.1564 17.1769H14.7492C15.9565 17.1769 17.1628 17.0295 18.3348 16.739L21.6 15.9295V14.1291C21.6 14.057 21.5967 13.9855 21.5913 13.9145L20.4528 14.1968Z" fill="#FFC83A"/>
<path d="M11.2529 12.4279L13.7374 13.0714C14.2943 13.2156 14.8598 13.3221 15.4295 13.3916C15.8153 13.001 16.737 11.9442 16.8772 10.6407C16.4562 10.455 16.05 10.2344 15.6609 9.97966L15.6516 9.97358L14.4351 11.5168L13.5516 10.8203L14.7066 9.3551L13.7346 8.71891L12.5356 10.2399L11.6521 9.54346L12.7896 8.10046L10.8378 6.82306L9.41241 8.6474C9.35279 8.72367 9.2878 8.79368 9.21869 8.85792C10.3691 9.99717 11.0205 11.7194 11.2529 12.4279Z" fill="#FFC83A"/>
<path d="M16.834 13.4873C17.9592 13.5036 19.0865 13.3765 20.1821 13.1049L21.2849 12.8314C20.8993 12.0824 20.1897 11.5155 19.3245 11.3374L18.5805 11.1842C18.3704 11.141 18.1631 11.0897 17.9583 11.0312C17.7867 12.0405 17.287 12.8917 16.834 13.4873Z" fill="#FFC83A"/>
<path d="M7.35689 16.4342C6.16368 16.1705 5.03441 15.6205 4.09113 14.8438L1.5 13C1.3764 13.4451 2.39999 14.5133 2.39999 14.9821V17.1769H9.25964C8.66883 16.8343 8.02646 16.5821 7.35689 16.4342Z" fill="#FFC83A"/>
</svg>
