<svg width="42" height="22" viewBox="0 0 42 22" fill="none" xmlns="http://www.w3.org/2000/svg">
<path d="M9.95069 10.9075C11.8057 10.22 13.7983 10.1187 15.7132 10.6147L17.8596 11.1707C17.0987 9.31496 15.8243 6.95058 14.1341 5.68871C13.3757 5.73078 12.6007 5.54156 11.9288 5.09966C10.7848 4.34741 9.40987 4.01666 8.04952 4.16283V2.05391H5.79959V6.91878C5.79959 8.33036 5.43052 9.70399 4.73047 10.921L5.51099 11.1259C6.98579 11.5131 8.52104 11.4375 9.95069 10.9075V10.9075Z" fill="#FFC83A"/>
<path d="M38.9056 15.3937C36.6621 15.9499 34.3572 16.2278 32.0525 16.2278C29.6484 16.2278 27.2447 15.9254 24.9105 15.3208L15.1495 12.7927C13.6819 12.4126 12.1548 12.4903 10.7332 13.0171C9.1571 13.6015 7.48295 13.7606 5.84082 13.4919L7.61255 14.9506C9.22625 16.2794 11.1582 17.2202 13.1994 17.6713C15.7733 18.2401 18.1774 19.4641 20.1516 21.2111L20.3129 21.3538H27.4985C29.913 21.3538 32.3256 21.0591 34.6695 20.4781L41.2001 18.859V15.2581C41.2001 15.114 41.1935 14.971 41.1827 14.8291L38.9056 15.3937Z" fill="#FFC83A"/>
<path d="M20.5059 11.8559L25.4748 13.1428C26.5887 13.4312 27.7197 13.6442 28.8591 13.7832C29.6307 13.002 31.4741 10.8885 31.7546 8.28151C30.9126 7.91003 30.1002 7.46873 29.3218 6.95933L29.3032 6.94718L26.8704 10.0336L25.1033 8.64068L27.4133 5.71021L25.4692 4.43783L23.0713 7.47983L21.3042 6.08693L23.5792 3.20093L19.6758 0.646133L16.825 4.29481C16.7057 4.44736 16.5757 4.58738 16.4375 4.71586C18.7383 6.99436 20.0412 10.4389 20.5059 11.8559V11.8559Z" fill="#FFC83A"/>
<path d="M31.668 13.9745C33.9185 14.0073 36.173 13.753 38.3641 13.2097L40.5698 12.6628C39.7986 11.1647 38.3794 10.031 36.6489 9.67476L35.161 9.36846C34.7409 9.28198 34.3261 9.17938 33.9165 9.06231C33.5733 11.081 32.574 12.7834 31.668 13.9745V13.9745Z" fill="#FFC83A"/>
<path d="M12.7138 19.8684C10.3274 19.341 8.06881 18.2411 6.18226 16.6877L1 13C0.7528 13.8903 2.79999 16.0267 2.79999 16.9642V21.3538H16.5193C15.3377 20.6687 14.0529 20.1643 12.7138 19.8684Z" fill="#FFC83A"/>
</svg>
