<svg width="24" height="24" viewBox="0 0 24 24" fill="none" xmlns="http://www.w3.org/2000/svg">
<path d="M5.97559 11.9538C6.90308 11.61 7.89942 11.5594 8.85683 11.8074L9.93004 12.0854C9.5496 11.1575 8.9124 9.97532 8.0673 9.34438C7.6881 9.36542 7.30062 9.2708 6.96465 9.04985C6.39263 8.67373 5.70518 8.50835 5.025 8.58144V7.52698H3.90004V9.95942C3.90004 10.6652 3.7155 11.352 3.36548 11.9605L3.75574 12.063C4.49314 12.2566 5.26077 12.2188 5.97559 11.9538Z" fill="#FFC83A"/>
<path d="M20.4528 14.1968C19.331 14.4749 18.1786 14.6139 17.0262 14.6139C15.8242 14.6139 14.6223 14.4627 13.4552 14.1604L8.57476 12.8964C7.84096 12.7063 7.07739 12.7452 6.36661 13.0086C5.57855 13.3007 4.74147 13.3803 3.92041 13.2459L4.80627 13.9753C5.61312 14.6397 6.57909 15.1101 7.59972 15.3357C8.88665 15.6201 10.0887 16.2321 11.0758 17.1056L11.1564 17.1769H14.7492C15.9565 17.1769 17.1628 17.0295 18.3348 16.739L21.6 15.9295V14.1291C21.6 14.057 21.5967 13.9855 21.5913 13.9145L20.4528 14.1968Z" fill="#FFC83A"/>
<path d="M11.253 12.428L13.7374 13.0714C14.2943 13.2157 14.8599 13.3221 15.4296 13.3917C15.8154 13.0011 16.7371 11.9443 16.8773 10.6408C16.4563 10.4551 16.0501 10.2344 15.6609 9.97972L15.6516 9.97365L14.4352 11.5168L13.5516 10.8204L14.7067 9.35516L13.7346 8.71897L12.5357 10.24L11.6521 9.54352L12.7896 8.10052L10.8379 6.82312L9.41248 8.64746C9.35285 8.72373 9.28786 8.79375 9.21875 8.85798C10.3691 9.99723 11.0206 11.7195 11.253 12.428Z" fill="#FFC83A"/>
<path d="M16.834 13.4873C17.9592 13.5037 19.0865 13.3766 20.1821 13.105L21.2849 12.8315C20.8993 12.0824 20.1897 11.5156 19.3245 11.3375L18.5805 11.1843C18.3704 11.1411 18.1631 11.0898 17.9583 11.0312C17.7867 12.0406 17.287 12.8918 16.834 13.4873Z" fill="#FFC83A"/>
<path d="M7.35689 16.4342C6.16368 16.1705 5.03441 15.6206 4.09113 14.8439L1.5 13C1.3764 13.4452 2.39999 14.5134 2.39999 14.9821V17.1769H9.25964C8.66883 16.8344 8.02646 16.5822 7.35689 16.4342Z" fill="#FFC83A"/>
</svg>
