<svg width="49" height="49" viewBox="0 0 49 49" fill="none" xmlns="http://www.w3.org/2000/svg">
<path d="M17.8253 9.7058C16.2253 2.7858 5.8053 2.7658 4.2053 9.7058C3.2653 13.7658 5.8453 17.2058 8.0853 19.3458C9.7253 20.8858 12.3053 20.8858 13.9453 19.3458C16.1853 17.2058 18.7453 13.7658 17.8253 9.7058ZM11.0853 12.9058C9.9853 12.9058 9.0853 12.0058 9.0853 10.9058C9.0853 9.8058 9.9653 8.9058 11.0653 8.9058H11.0853C12.2053 8.9058 13.0853 9.8058 13.0853 10.9058C13.0853 12.0058 12.2053 12.9058 11.0853 12.9058Z" fill="url(#paint0_linear_1800_11975)"/>
<path d="M43.8853 33.7058C42.2853 26.7858 31.8253 26.7658 30.2053 33.7058C29.2653 37.7658 31.8453 41.2058 34.1053 43.3458C35.7453 44.8858 38.3453 44.8858 39.9853 43.3458C42.2453 41.2058 44.8253 37.7658 43.8853 33.7058ZM37.1253 36.9058C36.0253 36.9058 35.1253 36.0058 35.1253 34.9058C35.1253 33.8058 36.0053 32.9058 37.1053 32.9058H37.1253C38.2253 32.9058 39.1253 33.8058 39.1253 34.9058C39.1253 36.0058 38.2253 36.9058 37.1253 36.9058Z" fill="url(#paint1_linear_1800_11975)"/>
<path d="M24.0652 40.0059H18.7052C16.3852 40.0059 14.3652 38.6059 13.5652 36.4459C12.7452 34.2859 13.3452 31.9059 15.0852 30.3659L31.0652 16.3859C32.0252 15.5459 32.0452 14.4059 31.7652 13.6259C31.4652 12.8459 30.7052 12.0059 29.4252 12.0059H24.0652C23.2452 12.0059 22.5652 11.3259 22.5652 10.5059C22.5652 9.68586 23.2452 9.00586 24.0652 9.00586H29.4252C31.7452 9.00586 33.7652 10.4059 34.5652 12.5659C35.3852 14.7259 34.7852 17.1059 33.0452 18.6459L17.0652 32.6259C16.1052 33.4659 16.0852 34.6059 16.3652 35.3859C16.6652 36.1659 17.4252 37.0059 18.7052 37.0059H24.0652C24.8852 37.0059 25.5652 37.6859 25.5652 38.5059C25.5652 39.3259 24.8852 40.0059 24.0652 40.0059Z" fill="url(#paint2_linear_1800_11975)"/>
<defs>
<linearGradient id="paint0_linear_1800_11975" x1="11.0121" y1="4.5083" x2="11.0121" y2="20.5008" gradientUnits="userSpaceOnUse">
<stop offset="0.0208333" stop-color="#FF8A50"/>
<stop offset="0.669043" stop-color="#FF6D24"/>
</linearGradient>
<linearGradient id="paint1_linear_1800_11975" x1="37.0453" y1="28.5083" x2="37.0453" y2="44.5008" gradientUnits="userSpaceOnUse">
<stop offset="0.0208333" stop-color="#FF8A50"/>
<stop offset="0.669043" stop-color="#FF6D24"/>
</linearGradient>
<linearGradient id="paint2_linear_1800_11975" x1="24.0652" y1="9.00586" x2="24.0652" y2="40.0059" gradientUnits="userSpaceOnUse">
<stop offset="0.0208333" stop-color="#FF8A50"/>
<stop offset="0.669043" stop-color="#FF6D24"/>
</linearGradient>
</defs>
</svg>
