<svg width="40" height="40" viewBox="0 0 40 40" fill="none" xmlns="http://www.w3.org/2000/svg">
<g clip-path="url(#clip0_4559_9871)">
<path d="M20 40C19.8838 40 19.7677 39.9827 19.6554 39.9482C10.1188 37.0138 3.59375 28.1435 3.59375 18.1233V5.85938C3.59375 5.34492 3.9293 4.89062 4.42102 4.7393L19.6554 0.0517969C19.8799 -0.0172656 20.1201 -0.0172656 20.3446 0.0517969L35.579 4.7393C36.0707 4.89062 36.4062 5.34492 36.4062 5.85938V18.1233C36.4062 28.1395 29.8855 37.0126 20.3446 39.9482C20.2323 39.9827 20.1162 40 20 40Z" fill="#FFC83A"/>
<path d="M18.8281 2.7583L5.9375 6.72463V18.123C5.9375 26.5022 11.1643 34.1159 18.8281 37.1727V2.7583Z" fill="url(#paint0_linear_4559_9871)"/>
<path fill-rule="evenodd" clip-rule="evenodd" d="M19.999 35.9999L20 36L20.001 35.9999C27.7216 33.6336 33 26.4802 33 18.4048V7.98419L20.0011 4.00016C20.0011 4.00016 20.0011 4.00015 20.0011 4.00015C20.0004 3.99995 19.9996 3.99995 19.9989 4.00015C19.9989 4.00015 19.9989 4.00016 19.9989 4.00016L7 7.98419V18.4048C7 26.4833 12.2819 33.6346 19.9989 35.9998M19.7059 36.956C11.5681 34.4618 6 26.922 6 18.4048V7.98047C6 7.54318 6.28633 7.15703 6.70593 7.0284L19.7059 3.04403C19.8975 2.98532 20.1025 2.98532 20.2941 3.04403L33.2941 7.0284C33.7137 7.15703 34 7.54318 34 7.98047V18.4048C34 26.9186 28.4357 34.4607 20.2941 36.956C20.1983 36.9853 20.0991 37 20 37C19.9009 37 19.8017 36.9853 19.7059 36.956Z" fill="white"/>
</g>
<defs>
<linearGradient id="paint0_linear_4559_9871" x1="12.3828" y1="37.1728" x2="12.3828" y2="2.7583" gradientUnits="userSpaceOnUse">
<stop stop-color="#FFE7AA"/>
<stop offset="1" stop-color="#FFE7AA" stop-opacity="0"/>
</linearGradient>
<clipPath id="clip0_4559_9871">
<rect width="40" height="40" fill="white"/>
</clipPath>
</defs>
</svg>
