<svg width="40" height="40" viewBox="0 0 40 40" fill="none" xmlns="http://www.w3.org/2000/svg">
<path d="M29.017 0.964178L39.1491 13.9991L31.5396 16.128L25.6334 8.52221L29.017 0.964178Z" fill="#55C8FC" stroke="#D9F2FD"/>
<path d="M11.881 0.5H28.1277L24.7254 8.1H15.2834L11.881 0.5Z" fill="#55C8FC" stroke="#D9F2FD"/>
<path d="M10.9902 0.956016L14.3736 8.51387L8.46113 16.1183L0.852188 13.9984L10.9902 0.956016Z" fill="#D9F2FD" stroke="#D9F2FD"/>
<path d="M35.0957 31.9887L20.5 39.1955V31.6509L29.0932 27.4108L35.0957 31.9887Z" fill="#D9F2FD" stroke="#D9F2FD"/>
<path d="M0.669174 14.9853L8.19874 17.0831L10.3223 26.606L4.27845 31.2088L0.669174 14.9853Z" fill="#D9F2FD" stroke="#D9F2FD"/>
<path d="M19.5009 39.1955L4.9058 31.989L10.9136 27.4137L19.5009 31.6509V39.1955Z" fill="#D9F2FD" stroke="#D9F2FD"/>
<path d="M29.6883 26.6061L31.8001 17.0933L39.3315 14.9863L35.7225 31.2082L29.6883 26.6061Z" fill="#D9F2FD" stroke="#D9F2FD"/>
</svg>
