<svg width="32" height="32" viewBox="0 0 32 32" fill="none" xmlns="http://www.w3.org/2000/svg">
<path d="M7.96745 15.9383C9.2041 15.48 10.5326 15.4124 11.8091 15.7431L13.2401 16.1138C12.7328 14.8766 11.8832 13.3004 10.7564 12.4591C10.2508 12.4872 9.73415 12.361 9.2862 12.0664C8.5235 11.5649 7.6069 11.3444 6.7 11.4419V10.0359H5.20005V13.2792C5.20005 14.2202 4.954 15.136 4.4873 15.9473L5.00765 16.0839C5.99085 16.342 7.01435 16.2916 7.96745 15.9383V15.9383Z" fill="#5A6178"/>
<path d="M27.2707 18.9291C25.775 19.2999 24.2384 19.4852 22.702 19.4852C21.0993 19.4852 19.4968 19.2836 17.9406 18.8806L11.4333 17.1952C10.4549 16.9418 9.43684 16.9936 8.48914 17.3448C7.43839 17.7343 6.32229 17.8404 5.22754 17.6613L6.40869 18.6338C7.48449 19.5196 8.77244 20.1468 10.1333 20.4476C11.8492 20.8268 13.4519 21.6428 14.7681 22.8074L14.8756 22.9025H19.666C21.2756 22.9025 22.8841 22.7061 24.4467 22.3187L28.8004 21.2394V18.8388C28.8004 18.7427 28.796 18.6474 28.7888 18.5527L27.2707 18.9291Z" fill="#5A6178"/>
<path d="M15.0043 16.5706L18.3169 17.4285C19.0594 17.6208 19.8135 17.7628 20.5731 17.8555C21.0875 17.3347 22.3164 15.9257 22.5034 14.1877C21.942 13.94 21.4004 13.6458 20.8815 13.3062L20.8691 13.2981L19.2472 15.3557L18.0692 14.4271L19.6092 12.4735L18.3131 11.6252L16.7145 13.6532L15.5365 12.7246L17.0531 10.8006L14.4508 9.09742L12.5503 11.5299C12.4708 11.6316 12.3841 11.7249 12.292 11.8106C13.8258 13.3296 14.6944 15.6259 15.0043 16.5706V16.5706Z" fill="#5A6178"/>
<path d="M22.4453 17.983C23.9457 18.0049 25.4487 17.8354 26.9094 17.4732L28.3799 17.1086C27.8657 16.1098 26.9196 15.354 25.766 15.1165L24.774 14.9123C24.4939 14.8547 24.2174 14.7863 23.9444 14.7082C23.7156 16.054 23.0493 17.1889 22.4453 17.983V17.983Z" fill="#5A6178"/>
<path d="M9.8094 21.9123C8.21845 21.5607 6.71275 20.8274 5.45505 19.7918L3.4506 18.1414C3.2858 18.735 3.2002 19.3511 3.2002 19.9761V22.9026H12.3464C11.5586 22.4458 10.7021 22.1095 9.8094 21.9123V21.9123Z" fill="#5A6178"/>
</svg>
