<svg width="20" height="20" viewBox="0 0 20 20" fill="none" xmlns="http://www.w3.org/2000/svg">
<path d="M12.25 18.9583H7.74997C3.6333 18.9583 1.8833 17.2 1.8833 13.0917V9.35001C1.8833 9.00834 2.16663 8.72501 2.5083 8.72501C2.84997 8.72501 3.1333 9.00834 3.1333 9.35001V13.0917C3.1333 16.5 4.34163 17.7083 7.74997 17.7083H12.2416C15.65 17.7083 16.8583 16.5 16.8583 13.0917V9.35001C16.8583 9.00834 17.1416 8.72501 17.4833 8.72501C17.825 8.72501 18.1083 9.00834 18.1083 9.35001V13.0917C18.1166 17.2 16.3583 18.9583 12.25 18.9583Z" fill="#A7ACB8"/>
<path d="M9.99992 10.625C9.08325 10.625 8.24992 10.2667 7.65825 9.60832C7.06659 8.94999 6.79159 8.09166 6.88325 7.17499L7.44159 1.60832C7.47492 1.29166 7.74159 1.04166 8.06659 1.04166H11.9583C12.2833 1.04166 12.5499 1.28332 12.5833 1.60832L13.1416 7.17499C13.2333 8.09166 12.9583 8.94999 12.3666 9.60832C11.7499 10.2667 10.9166 10.625 9.99992 10.625ZM8.62492 2.29166L8.12492 7.29999C8.06659 7.85832 8.23325 8.38332 8.58325 8.76666C9.29159 9.54999 10.7083 9.54999 11.4166 8.76666C11.7666 8.37499 11.9333 7.84999 11.8749 7.29999L11.3749 2.29166H8.62492Z" fill="#A7ACB8"/>
<path d="M15.2583 10.625C13.5666 10.625 12.0583 9.25832 11.8833 7.57499L11.2999 1.73332C11.2833 1.55832 11.3416 1.38332 11.4583 1.24999C11.5749 1.11666 11.7416 1.04166 11.9249 1.04166H14.4666C16.9166 1.04166 18.0583 2.06666 18.3999 4.58332L18.6333 6.89999C18.7333 7.88332 18.4333 8.81666 17.7916 9.52499C17.1499 10.2333 16.2499 10.625 15.2583 10.625ZM12.6166 2.29166L13.1333 7.44999C13.2416 8.49166 14.2083 9.37499 15.2583 9.37499C15.8916 9.37499 16.4583 9.13332 16.8666 8.69166C17.2666 8.24999 17.4499 7.65832 17.3916 7.02499L17.1583 4.73332C16.8999 2.84999 16.2916 2.29166 14.4666 2.29166H12.6166V2.29166Z" fill="#A7ACB8"/>
<path d="M4.70002 10.625C3.70835 10.625 2.80835 10.2333 2.16668 9.52499C1.52502 8.81666 1.22502 7.88332 1.32502 6.89999L1.55002 4.60832C1.90002 2.06666 3.04168 1.04166 5.49168 1.04166H8.03335C8.20835 1.04166 8.37502 1.11666 8.50002 1.24999C8.62502 1.38332 8.67502 1.55832 8.65835 1.73332L8.07502 7.57499C7.90002 9.25832 6.39168 10.625 4.70002 10.625ZM5.49168 2.29166C3.66668 2.29166 3.05835 2.84166 2.79168 4.74999L2.56668 7.02499C2.50002 7.65832 2.69168 8.24999 3.09168 8.69166C3.49168 9.13332 4.05835 9.37499 4.70002 9.37499C5.75002 9.37499 6.72502 8.49166 6.82502 7.44999L7.34168 2.29166H5.49168V2.29166Z" fill="#A7ACB8"/>
<path d="M12.0834 18.9583H7.91675C7.57508 18.9583 7.29175 18.675 7.29175 18.3333V16.25C7.29175 14.5 8.25008 13.5417 10.0001 13.5417C11.7501 13.5417 12.7084 14.5 12.7084 16.25V18.3333C12.7084 18.675 12.4251 18.9583 12.0834 18.9583ZM8.54175 17.7083H11.4584V16.25C11.4584 15.2 11.0501 14.7917 10.0001 14.7917C8.95008 14.7917 8.54175 15.2 8.54175 16.25V17.7083Z" fill="#A7ACB8"/>
</svg>
