<svg width="32" height="32" viewBox="0 0 32 32" fill="none" xmlns="http://www.w3.org/2000/svg">
<path opacity="0.4" d="M22.667 27.3334H9.33366C5.33366 27.3334 2.66699 25.3334 2.66699 20.6667V11.3334C2.66699 6.66669 5.33366 4.66669 9.33366 4.66669H22.667C26.667 4.66669 29.3337 6.66669 29.3337 11.3334V20.6667C29.3337 25.3334 26.667 27.3334 22.667 27.3334Z" fill="url(#paint0_linear_5134_15840)"/>
<path d="M16.0004 17.16C14.8804 17.16 13.747 16.8134 12.8804 16.1067L8.70702 12.7734C8.28035 12.4267 8.20036 11.8 8.54703 11.3734C8.89369 10.9467 9.52036 10.8667 9.94703 11.2134L14.1203 14.5467C15.1337 15.36 16.8537 15.36 17.867 14.5467L22.0404 11.2134C22.467 10.8667 23.107 10.9334 23.4404 11.3734C23.787 11.8 23.7204 12.44 23.2804 12.7734L19.107 16.1067C18.2537 16.8134 17.1204 17.16 16.0004 17.16Z" fill="url(#paint1_linear_5134_15840)"/>
<defs>
<linearGradient id="paint0_linear_5134_15840" x1="16.0003" y1="4.66669" x2="16.0003" y2="27.3334" gradientUnits="userSpaceOnUse">
<stop offset="0.0208333" stop-color="#FF8A50"/>
<stop offset="0.669043" stop-color="#FF6D24"/>
</linearGradient>
<linearGradient id="paint1_linear_5134_15840" x1="15.9958" y1="10.9922" x2="15.9958" y2="17.16" gradientUnits="userSpaceOnUse">
<stop offset="0.0208333" stop-color="#FF8A50"/>
<stop offset="0.669043" stop-color="#FF6D24"/>
</linearGradient>
</defs>
</svg>
