<svg width="56" height="79" viewBox="0 0 56 79" fill="none" xmlns="http://www.w3.org/2000/svg">
<g clip-path="url(#clip0_4388_10311)">
<path d="M13.0348 63.3397C12.9215 63.4754 12.7767 63.5816 12.6147 63.648C12.4527 63.7144 12.279 63.7386 12.1106 63.7183C11.9423 63.6981 11.785 63.634 11.6543 63.5324C11.5236 63.4308 11.4239 63.2951 11.3649 63.1387L10.087 59.7483L9.17734 57.3348L6.7626 56.4257L3.33058 55.1348C3.1755 55.0765 3.04076 54.9782 2.93932 54.8494C2.83789 54.7205 2.77316 54.5655 2.75137 54.3991C2.72959 54.2328 2.75147 54.0607 2.81492 53.8995C2.87837 53.7383 2.98126 53.5934 3.11367 53.4786L11.9988 45.7749L20.5443 54.3159L13.0348 63.3397Z" fill="url(#paint0_linear_4388_10311)"/>
<path d="M16.2218 53.6228L10.0901 59.7512L9.18082 57.3381L6.76681 56.4297L12.8984 50.3013L16.2218 53.6228Z" fill="url(#paint1_linear_4388_10311)"/>
</g>
<g clip-path="url(#clip1_4388_10311)">
<path d="M43.2728 63.3397C43.3862 63.4754 43.5309 63.5816 43.6929 63.648C43.855 63.7144 44.0286 63.7386 44.197 63.7183C44.3653 63.6981 44.5226 63.634 44.6533 63.5324C44.784 63.4308 44.8837 63.2951 44.9427 63.1387L46.2206 59.7483L47.1303 57.3348L49.545 56.4257L52.977 55.1348C53.1321 55.0765 53.2669 54.9782 53.3683 54.8494C53.4697 54.7205 53.5345 54.5655 53.5562 54.3991C53.578 54.2328 53.5561 54.0607 53.4927 53.8995C53.4292 53.7383 53.3264 53.5934 53.1939 53.4786L44.3088 45.7749L35.7633 54.3159L43.2728 63.3397Z" fill="url(#paint2_linear_4388_10311)"/>
<path d="M40.0859 53.6228L46.2175 59.7512L47.1268 57.3381L49.5408 56.4297L43.4092 50.3013L40.0859 53.6228Z" fill="url(#paint3_linear_4388_10311)"/>
</g>
<g clip-path="url(#clip2_4388_10311)">
<path d="M28.0006 55.9716C43.4648 55.9716 56.0011 43.4419 56.0011 27.9858C56.0011 12.5297 43.4648 0 28.0006 0C12.5363 0 0 12.5297 0 27.9858C0 43.4419 12.5363 55.9716 28.0006 55.9716Z" fill="url(#paint4_linear_4388_10311)"/>
<path d="M46.5266 46.5035C56.759 36.2765 56.759 19.6952 46.5266 9.46818C36.2942 -0.758838 19.7042 -0.758838 9.47176 9.46818C-0.760654 19.6952 -0.760654 36.2765 9.47176 46.5035C19.7042 56.7305 36.2942 56.7305 46.5266 46.5035Z" fill="url(#paint5_linear_4388_10311)"/>
<path d="M45.7965 45.7729C55.6252 35.9494 55.6252 20.0223 45.7965 10.1988C35.9678 0.375288 20.0323 0.375286 10.2037 10.1988C0.374959 20.0223 0.374955 35.9494 10.2036 45.7729C20.0323 55.5964 35.9678 55.5964 45.7965 45.7729Z" fill="url(#paint6_linear_4388_10311)"/>
</g>
<path d="M28.0004 56.74C28.0004 56.74 33.5079 59.2664 38.1219 59.6002C38.0489 59.2123 37.9941 58.9908 37.9941 58.9908C33.4516 58.6781 28.0004 56.177 28.0004 56.177C28.0004 56.177 22.5492 58.6781 18.0068 58.9908C18.0068 58.9908 17.9519 59.2125 17.8789 59.6002C22.4929 59.2664 28.0004 56.74 28.0004 56.74Z" fill="#FFF6B3"/>
<path d="M29.0245 61.9785V61.7883H27.6953C27.1672 62.1237 26.6389 62.3328 25.8271 62.4906V62.6807C26.6389 62.5228 27.167 62.3138 27.6953 61.9785H29.0245Z" fill="#FFF6B3"/>
<path d="M31.5925 61.8553H24.4084L19.9873 51.0154H27.1716L31.5925 61.8553Z" fill="#FEFEFE"/>
<path d="M26.803 61.475L24.5004 62.0456L19.9873 51.0154H22.382L26.803 61.475Z" fill="#F95511"/>
<path d="M31.5911 61.475H29.1965L24.7754 51.0154H27.1702L31.5911 61.475Z" fill="#F95511"/>
<path d="M23.8564 61.8553H31.0407L35.4618 51.0154H28.2775L23.8564 61.8553Z" fill="#FEFEFE"/>
<path d="M28.6455 61.475L30.9481 62.0456L35.4614 51.0154H33.0666L28.6455 61.475Z" fill="#F95511"/>
<path d="M23.8564 61.475H26.2512L30.6722 51.0154H28.2775L23.8564 61.475Z" fill="#F95511"/>
<path d="M37.9937 58.9908C33.4511 58.6781 27.9999 56.177 27.9999 56.177C27.9999 56.177 22.5488 58.6781 18.0063 58.9908C18.0063 58.9908 15.5836 68.6828 21.3375 73.9977C21.3375 73.9977 22.8518 75.561 27.9999 79C33.1483 75.561 34.6624 73.9977 34.6624 73.9977C40.4164 68.6827 37.9937 58.9908 37.9937 58.9908Z" fill="url(#paint7_linear_4388_10311)"/>
<path d="M37.9937 58.9908C33.4511 58.6781 27.9999 56.177 27.9999 56.177C27.9999 56.177 22.5488 58.6781 18.0063 58.9908C18.0063 58.9908 15.5836 68.6828 21.3375 73.9977C21.3375 73.9977 22.8518 75.561 27.9999 79C33.1483 75.561 34.6624 73.9977 34.6624 73.9977C40.4164 68.6827 37.9937 58.9908 37.9937 58.9908Z" fill="url(#paint8_linear_4388_10311)"/>
<path d="M35.7436 60.9256C32.2234 60.6834 27.9991 58.7451 27.9991 58.7451C27.9991 58.7451 23.7749 60.6834 20.2547 60.9256C20.2547 60.9256 18.3772 68.4362 22.8362 72.555C22.8362 72.555 24.0097 73.7665 27.9991 76.4315C31.9888 73.7663 33.1621 72.555 33.1621 72.555C37.621 68.4362 35.7436 60.9256 35.7436 60.9256Z" fill="url(#paint9_linear_4388_10311)"/>
<path d="M35.7436 60.9256C32.2234 60.6834 27.9991 58.7451 27.9991 58.7451C27.9991 58.7451 23.7749 60.6834 20.2547 60.9256C20.2547 60.9256 18.3772 68.4362 22.8362 72.555C22.8362 72.555 24.0097 73.7665 27.9991 76.4315C31.9888 73.7663 33.1621 72.555 33.1621 72.555C37.621 68.4362 35.7436 60.9256 35.7436 60.9256Z" fill="url(#paint10_linear_4388_10311)"/>
<path d="M37.9921 58.9908C33.4496 58.6781 27.9984 56.177 27.9984 56.177C27.9984 56.177 22.5473 58.6781 18.0048 58.9908C18.0048 58.9908 17.5568 60.7854 17.5039 63.2529C17.5745 66.3939 18.3659 70.3035 21.336 73.047C21.336 73.047 22.8503 74.6102 27.9984 78.0493C33.1468 74.6102 34.6609 73.047 34.6609 73.047C37.631 70.3035 38.4223 66.3939 38.493 63.2529C38.4403 60.7852 37.9921 58.9908 37.9921 58.9908ZM33.0962 71.6533C33.0962 71.6533 31.9376 72.8494 27.9984 75.4807C24.0593 72.8494 22.9007 71.6533 22.9007 71.6533C20.6282 69.5542 20.0226 66.5628 19.9686 64.1595C20.0089 62.2714 20.3519 60.8983 20.3519 60.8983C23.8275 60.659 27.9984 58.7453 27.9984 58.7453C27.9984 58.7453 32.1694 60.659 35.645 60.8983C35.645 60.8983 35.9878 62.2714 36.0283 64.1595C35.9742 66.5628 35.3687 69.5541 33.0962 71.6533Z" fill="url(#paint11_linear_4388_10311)"/>
<path d="M25.4719 68.5355C27.325 66.7975 28.5703 65.4088 28.5703 64.2973C28.5703 63.598 28.1921 63.2177 27.6041 63.2177C27.0961 63.2177 26.697 63.5671 26.349 63.9581L25.3818 62.9705C26.1095 62.179 26.7871 61.7878 27.8434 61.7878C29.2778 61.7878 30.2741 62.7344 30.2741 64.195C30.2741 65.5117 29.1781 66.9617 28.0421 68.1452C28.4113 68.0932 28.9192 68.0421 29.2478 68.0421H30.6133V69.585H25.4719V68.5355Z" fill="url(#paint12_linear_4388_10311)"/>
<path d="M27.8463 62.1686C29.2119 62.1686 30.1783 63.0275 30.2682 64.3703C30.2723 64.3118 30.2771 64.2535 30.2771 64.1955C30.2771 62.7347 29.2807 61.7883 27.8463 61.7883C26.79 61.7883 26.1125 62.1795 25.3848 62.971L25.5708 63.1609C26.2311 62.4998 26.8805 62.1686 27.8463 62.1686Z" fill="#E6F9FF"/>
<defs>
<linearGradient id="paint0_linear_4388_10311" x1="7.28381" y1="59.2003" x2="16.3528" y2="50.1265" gradientUnits="userSpaceOnUse">
<stop stop-color="#D5E9E9"/>
<stop offset="1" stop-color="#E2EFFD"/>
</linearGradient>
<linearGradient id="paint1_linear_4388_10311" x1="8.42845" y1="58.0904" x2="14.5569" y2="51.9588" gradientUnits="userSpaceOnUse">
<stop stop-color="#B3CACF"/>
<stop offset="1" stop-color="#C8DEDE"/>
</linearGradient>
<linearGradient id="paint2_linear_4388_10311" x1="49.0238" y1="59.2003" x2="39.9548" y2="50.1265" gradientUnits="userSpaceOnUse">
<stop stop-color="#D5E9E9"/>
<stop offset="1" stop-color="#E2EFFD"/>
</linearGradient>
<linearGradient id="paint3_linear_4388_10311" x1="47.8792" y1="58.0904" x2="41.7507" y2="51.9588" gradientUnits="userSpaceOnUse">
<stop stop-color="#B3CACF"/>
<stop offset="1" stop-color="#C8DEDE"/>
</linearGradient>
<linearGradient id="paint4_linear_4388_10311" x1="28.0004" y1="55.9716" x2="28.0004" y2="-0.000190162" gradientUnits="userSpaceOnUse">
<stop stop-color="#B3CACF"/>
<stop offset="1" stop-color="#C8DEDE"/>
</linearGradient>
<linearGradient id="paint5_linear_4388_10311" x1="9.47198" y1="46.5035" x2="46.5072" y2="9.44876" gradientUnits="userSpaceOnUse">
<stop stop-color="#B7CED2"/>
<stop offset="1" stop-color="#C6DDDC"/>
</linearGradient>
<linearGradient id="paint6_linear_4388_10311" x1="45.7962" y1="45.7726" x2="10.2223" y2="10.1799" gradientUnits="userSpaceOnUse">
<stop stop-color="#D5E9E9"/>
<stop offset="1" stop-color="#E2EFFD"/>
</linearGradient>
<linearGradient id="paint7_linear_4388_10311" x1="27.9999" y1="79" x2="27.9999" y2="56.1769" gradientUnits="userSpaceOnUse">
<stop stop-color="#E39A33"/>
<stop offset="1" stop-color="#E7AC60"/>
</linearGradient>
<linearGradient id="paint8_linear_4388_10311" x1="27.9999" y1="79" x2="27.9999" y2="56.1769" gradientUnits="userSpaceOnUse">
<stop stop-color="#B3CACF"/>
<stop offset="1" stop-color="#C8DEDE"/>
</linearGradient>
<linearGradient id="paint9_linear_4388_10311" x1="27.9991" y1="76.4315" x2="27.9991" y2="58.7452" gradientUnits="userSpaceOnUse">
<stop stop-color="#B7CED2"/>
<stop offset="1" stop-color="#DEF3EE"/>
</linearGradient>
<linearGradient id="paint10_linear_4388_10311" x1="19.8624" y1="67.5883" x2="36.1359" y2="67.5883" gradientUnits="userSpaceOnUse">
<stop stop-color="#B7CED2"/>
<stop offset="1" stop-color="#C6DDDC"/>
</linearGradient>
<linearGradient id="paint11_linear_4388_10311" x1="27.9984" y1="78.0491" x2="27.9984" y2="56.1769" gradientUnits="userSpaceOnUse">
<stop stop-color="#D5E9E9"/>
<stop offset="1" stop-color="#E2EFFD"/>
</linearGradient>
<linearGradient id="paint12_linear_4388_10311" x1="25.3819" y1="65.6865" x2="30.6133" y2="65.6865" gradientUnits="userSpaceOnUse">
<stop stop-color="#D5E9E9"/>
<stop offset="0.5049" stop-color="#E2EFFD"/>
<stop offset="1" stop-color="#D5E9E9"/>
</linearGradient>
<clipPath id="clip0_4388_10311">
<rect width="13.9963" height="12.83" fill="white" transform="matrix(0.707293 0.70692 -0.707293 0.70692 11.4082 45.1843)"/>
</clipPath>
<clipPath id="clip1_4388_10311">
<rect width="13.9963" height="12.83" fill="white" transform="matrix(-0.707293 0.70692 0.707293 0.70692 44.8994 45.1843)"/>
</clipPath>
<clipPath id="clip2_4388_10311">
<rect width="56" height="55.9705" fill="white"/>
</clipPath>
</defs>
</svg>
