<svg width="21" height="20" viewBox="0 0 21 20" fill="none" xmlns="http://www.w3.org/2000/svg">
<path d="M10.4997 18.9584C7.16634 18.9584 4.45801 16.5667 4.45801 13.6251V10.5417C4.45801 10.2001 4.74134 9.91675 5.08301 9.91675C5.42467 9.91675 5.70801 10.2001 5.70801 10.5417C5.70801 12.7251 7.76634 14.3751 10.4997 14.3751C13.233 14.3751 15.2913 12.7251 15.2913 10.5417C15.2913 10.2001 15.5747 9.91675 15.9163 9.91675C16.258 9.91675 16.5413 10.2001 16.5413 10.5417V13.6251C16.5413 16.5667 13.833 18.9584 10.4997 18.9584ZM5.70801 13.7167C5.76634 15.9251 7.89134 17.7084 10.4997 17.7084C13.108 17.7084 15.233 15.9251 15.2913 13.7167C14.208 14.8917 12.4913 15.6251 10.4997 15.6251C8.50801 15.6251 6.79967 14.8917 5.70801 13.7167Z" fill="#A7ACB8"/>
<path d="M10.4997 11.4583C8.19967 11.4583 6.133 10.425 5.12466 8.75829C4.69133 8.04996 4.45801 7.22496 4.45801 6.37496C4.45801 4.94163 5.09968 3.59163 6.25801 2.57496C7.39134 1.58329 8.89967 1.04163 10.4997 1.04163C12.0997 1.04163 13.5997 1.58329 14.7413 2.56663C15.8997 3.59163 16.5413 4.94163 16.5413 6.37496C16.5413 7.22496 16.308 8.04162 15.8747 8.75829C14.8664 10.425 12.7997 11.4583 10.4997 11.4583ZM10.4997 2.29163C9.19967 2.29163 7.98302 2.72496 7.07469 3.52496C6.19135 4.29163 5.70801 5.30829 5.70801 6.37496C5.70801 6.99996 5.87466 7.58329 6.19133 8.10829C6.983 9.40829 8.63301 10.2083 10.4997 10.2083C12.3663 10.2083 14.0164 9.39996 14.808 8.10829C15.133 7.58329 15.2913 6.99996 15.2913 6.37496C15.2913 5.30829 14.808 4.29162 13.9163 3.50829C13.008 2.72496 11.7997 2.29163 10.4997 2.29163Z" fill="#A7ACB8"/>
<path d="M10.4997 15.625C7.05801 15.625 4.45801 13.4416 4.45801 10.5416V6.37496C4.45801 3.43329 7.16634 1.04163 10.4997 1.04163C12.0997 1.04163 13.5997 1.58329 14.7413 2.56663C15.8997 3.59163 16.5413 4.94163 16.5413 6.37496V10.5416C16.5413 13.4416 13.9413 15.625 10.4997 15.625ZM10.4997 2.29163C7.85801 2.29163 5.70801 4.12496 5.70801 6.37496V10.5416C5.70801 12.725 7.76634 14.375 10.4997 14.375C13.233 14.375 15.2913 12.725 15.2913 10.5416V6.37496C15.2913 5.30829 14.808 4.29163 13.9163 3.50829C13.008 2.72496 11.7997 2.29163 10.4997 2.29163Z" fill="#A7ACB8"/>
</svg>
