<svg width="48" height="48" viewBox="0 0 48 48" fill="none" xmlns="http://www.w3.org/2000/svg">
<path d="M11.951 23.9075C13.806 23.22 15.7987 23.1186 17.7135 23.6147L19.8599 24.1707C19.099 22.3149 17.8246 19.9506 16.1344 18.6887C15.376 18.7308 14.6011 18.5415 13.9291 18.0996C12.7851 17.3474 11.4102 17.0166 10.0498 17.1628V15.0539H7.79991V19.9188C7.79991 21.3303 7.43083 22.704 6.73078 23.921L7.51131 24.1259C8.98611 24.513 10.5214 24.4374 11.951 23.9075Z" fill="#A7ACB8"/>
<path d="M40.9056 28.3937C38.662 28.9499 36.3571 29.2278 34.0525 29.2278C31.6484 29.2278 29.2447 28.9254 26.9104 28.3208L17.1495 25.7927C15.6819 25.4126 14.1547 25.4903 12.7332 26.0171C11.1571 26.6015 9.48291 26.7606 7.84078 26.4919L9.61251 27.9506C11.2262 29.2794 13.1581 30.2202 15.1994 30.6713C17.7733 31.2401 20.1774 32.4641 22.1516 34.2111L22.3129 34.3538H29.4985C31.9129 34.3538 34.3256 34.0591 36.6695 33.4781L43.2001 31.859V28.2581C43.2001 28.114 43.1935 27.971 43.1827 27.8291L40.9056 28.3937Z" fill="#A7ACB8"/>
<path d="M22.5058 24.8558L27.4747 26.1428C28.5885 26.4312 29.7196 26.6441 30.859 26.7832C31.6306 26.002 33.4739 23.8885 33.7544 21.2815C32.9124 20.91 32.1 20.4687 31.3217 19.9593L31.3031 19.9472L28.8702 23.0336L27.1031 21.6407L29.4131 18.7102L27.4691 17.4378L25.0712 20.4798L23.3041 19.0869L25.5791 16.2009L21.6756 13.6461L18.8248 17.2948C18.7055 17.4473 18.5756 17.5874 18.4373 17.7158C20.7381 19.9943 22.041 23.4389 22.5058 24.8558Z" fill="#A7ACB8"/>
<path d="M33.668 26.9745C35.9185 27.0073 38.173 26.753 40.3641 26.2097L42.5698 25.6628C41.7986 24.1647 40.3794 23.031 38.6489 22.6747L37.161 22.3684C36.7409 22.282 36.3261 22.1794 35.9165 22.0623C35.5733 24.081 34.574 25.7833 33.668 26.9745Z" fill="#A7ACB8"/>
<path d="M14.7138 32.8684C12.3274 32.341 10.0688 31.2411 8.18228 29.6877L5.1756 27.2121C4.9284 28.1024 4.8 29.0266 4.8 29.9641V34.3538H18.5193C17.3377 33.6687 16.0529 33.1642 14.7138 32.8684Z" fill="#A7ACB8"/>
</svg>
