<svg width="40" height="22" viewBox="0 0 40 22" fill="none" xmlns="http://www.w3.org/2000/svg">
<path d="M7.95069 10.9075C9.80567 10.22 11.7983 10.1187 13.7132 10.6147L15.8596 11.1707C15.0987 9.31496 13.8243 6.95058 12.1341 5.68871C11.3757 5.73078 10.6007 5.54156 9.92882 5.09966C8.78477 4.34741 7.40987 4.01666 6.04952 4.16283V2.05391H3.79959V6.91879C3.79959 8.33036 3.43052 9.70399 2.73047 10.921L3.51099 11.1259C4.98579 11.5131 6.52104 11.4375 7.95069 10.9075Z" fill="#A7ACB8"/>
<path d="M36.9056 15.3937C34.6621 15.9499 32.3572 16.2278 30.0525 16.2278C27.6484 16.2278 25.2447 15.9254 22.9105 15.3208L13.1495 12.7927C11.6819 12.4126 10.1548 12.4903 8.73322 13.0171C7.1571 13.6015 5.48295 13.7606 3.84082 13.4919L5.61255 14.9506C7.22625 16.2794 9.15817 17.2202 11.1994 17.6713C13.7733 18.2401 16.1774 19.4641 18.1516 21.2111L18.3129 21.3538H25.4985C27.913 21.3538 30.3256 21.0591 32.6695 20.4781L39.2001 18.859V15.2581C39.2001 15.114 39.1935 14.971 39.1827 14.8291L36.9056 15.3937Z" fill="#A7ACB8"/>
<path d="M18.5059 11.8559L23.4748 13.1428C24.5887 13.4312 25.7197 13.6442 26.8591 13.7832C27.6307 13.002 29.4741 10.8885 29.7546 8.28151C28.9126 7.91003 28.1002 7.46873 27.3218 6.95933L27.3032 6.94718L24.8704 10.0336L23.1033 8.64068L25.4133 5.71021L23.4692 4.43783L21.0713 7.47983L19.3042 6.08693L21.5792 3.20093L17.6758 0.646133L14.825 4.29481C14.7057 4.44736 14.5757 4.58738 14.4375 4.71586C16.7383 6.99436 18.0412 10.4389 18.5059 11.8559Z" fill="#A7ACB8"/>
<path d="M29.668 13.9745C31.9185 14.0073 34.173 13.753 36.3641 13.2097L38.5698 12.6628C37.7986 11.1647 36.3794 10.031 34.6489 9.67476L33.161 9.36846C32.7409 9.28198 32.3261 9.17938 31.9165 9.06231C31.5733 11.081 30.574 12.7834 29.668 13.9745Z" fill="#A7ACB8"/>
<path d="M10.7136 19.8684C8.32718 19.341 6.06863 18.2411 4.18208 16.6877L1.1754 14.2121C0.928205 15.1024 0.799805 16.0267 0.799805 16.9642V21.3538H14.5191C13.3375 20.6687 12.0527 20.1643 10.7136 19.8684Z" fill="#A7ACB8"/>
</svg>
