<svg width="22" height="22" viewBox="0 0 22 22" fill="none" xmlns="http://www.w3.org/2000/svg">
<path d="M12.7309 2.51001L14.4909 6.03001C14.7309 6.52002 15.3709 6.99001 15.9109 7.08001L19.1009 7.61001C21.1409 7.95001 21.6209 9.43001 20.1509 10.89L17.6709 13.37C17.2509 13.79 17.0209 14.6 17.1509 15.18L17.8609 18.25C18.4209 20.68 17.1309 21.62 14.9809 20.35L11.9909 18.58C11.4509 18.26 10.5609 18.26 10.0109 18.58L7.02089 20.35C4.88089 21.62 3.58089 20.67 4.14089 18.25L4.85089 15.18C4.98089 14.6 4.75089 13.79 4.33089 13.37L1.85089 10.89C0.390886 9.43001 0.860886 7.95001 2.90089 7.61001L6.09089 7.08001C6.62089 6.99001 7.26089 6.52002 7.50089 6.03001L9.26089 2.51001C10.2209 0.600015 11.7809 0.600015 12.7309 2.51001Z" stroke="#5A6178" stroke-width="1.5" stroke-linecap="round" stroke-linejoin="round"/>
</svg>