<svg width="32" height="32" viewBox="0 0 32 32" fill="none" xmlns="http://www.w3.org/2000/svg">
<path d="M17.7336 10.8133L19.4936 14.3333C19.7336 14.8133 20.3736 15.2933 20.907 15.3733L24.0936 15.9067C26.1336 16.2533 26.6136 17.72 25.147 19.1867L22.667 21.68C22.2536 22.0933 22.0136 22.9067 22.147 23.4933L22.8536 26.5733C23.4136 29 22.1203 29.9467 19.9736 28.68L16.987 26.9067C16.4403 26.5867 15.5603 26.5867 15.0136 26.9067L12.0136 28.6667C9.86696 29.9333 8.57362 28.9867 9.13362 26.56L9.84029 23.48C9.97362 22.9067 9.73362 22.0933 9.32029 21.6667L6.85362 19.2C5.38696 17.7333 5.86696 16.2533 7.90696 15.92L11.0936 15.3867C11.627 15.2933 12.267 14.8267 12.507 14.3467L14.267 10.8267C15.2136 8.90668 16.787 8.90668 17.7336 10.8133Z" fill="#A7ACB8"/>
<path d="M8 13.0001C7.45333 13.0001 7 12.5467 7 12.0001V2.66675C7 2.12008 7.45333 1.66675 8 1.66675C8.54667 1.66675 9 2.12008 9 2.66675V12.0001C9 12.5467 8.54667 13.0001 8 13.0001Z" fill="#A7ACB8"/>
<path d="M24 13.0001C23.4533 13.0001 23 12.5467 23 12.0001V2.66675C23 2.12008 23.4533 1.66675 24 1.66675C24.5467 1.66675 25 2.12008 25 2.66675V12.0001C25 12.5467 24.5467 13.0001 24 13.0001Z" fill="#A7ACB8"/>
<path d="M16 6.33341C15.4533 6.33341 15 5.88008 15 5.33341V2.66675C15 2.12008 15.4533 1.66675 16 1.66675C16.5467 1.66675 17 2.12008 17 2.66675V5.33341C17 5.88008 16.5467 6.33341 16 6.33341Z" fill="#A7ACB8"/>
</svg>
