<svg width="49" height="49" viewBox="0 0 49 49" fill="none" xmlns="http://www.w3.org/2000/svg">
<path d="M36.0652 4.48804H12.0652C8.74525 4.48804 6.06525 7.14804 6.06525 10.428V32.248C6.06525 35.528 8.74525 38.208 12.0652 38.208H13.5852C15.1652 38.208 16.7052 38.828 17.8252 39.948L21.2452 43.328C22.8052 44.868 25.3252 44.868 26.8852 43.328L30.3052 39.948C31.4252 38.828 32.9652 38.208 34.5452 38.208H36.0652C39.3852 38.208 42.0652 35.528 42.0652 32.248V10.428C42.0652 7.14804 39.3852 4.48804 36.0652 4.48804ZM24.0652 11.588C26.2252 11.588 27.9652 13.348 27.9652 15.488C27.9652 17.608 26.2852 19.308 24.2052 19.388C24.1252 19.388 24.0052 19.388 23.9052 19.388C21.8052 19.308 20.1452 17.608 20.1452 15.488C20.1652 13.348 21.9052 11.588 24.0652 11.588ZM29.5652 29.868C26.5452 31.888 21.5852 31.888 18.5652 29.868C15.9052 28.108 15.9052 25.188 18.5652 23.408C21.6052 21.388 26.5652 21.388 29.5652 23.408C32.2252 25.188 32.2252 28.088 29.5652 29.868Z" fill="url(#paint0_linear_1800_12066)"/>
<defs>
<linearGradient id="paint0_linear_1800_12066" x1="24.0652" y1="4.48804" x2="24.0652" y2="44.483" gradientUnits="userSpaceOnUse">
<stop offset="0.0208333" stop-color="#FF8A50"/>
<stop offset="0.669043" stop-color="#FF6D24"/>
</linearGradient>
</defs>
</svg>
