<svg width="64" height="64" viewBox="0 0 64 64" fill="none" xmlns="http://www.w3.org/2000/svg">
<path d="M32 5.3335C17.3067 5.3335 5.33337 17.3068 5.33337 32.0002C5.33337 46.6935 17.3067 58.6668 32 58.6668C46.6934 58.6668 58.6667 46.6935 58.6667 32.0002C58.6667 17.3068 46.6934 5.3335 32 5.3335ZM44.7467 25.8668L29.6267 40.9868C29.2534 41.3602 28.7467 41.5735 28.2134 41.5735C27.68 41.5735 27.1734 41.3602 26.8 40.9868L19.2534 33.4402C18.48 32.6668 18.48 31.3868 19.2534 30.6135C20.0267 29.8402 21.3067 29.8402 22.08 30.6135L28.2134 36.7468L41.92 23.0402C42.6934 22.2668 43.9734 22.2668 44.7467 23.0402C45.52 23.8135 45.52 25.0668 44.7467 25.8668Z" fill="#4FD190"/>
</svg>
