<svg width="48" height="48" viewBox="0 0 48 48" fill="none" xmlns="http://www.w3.org/2000/svg">
<path opacity="0.4" d="M24 44C35.0457 44 44 35.0457 44 24C44 12.9543 35.0457 4 24 4C12.9543 4 4 12.9543 4 24C4 35.0457 12.9543 44 24 44Z" fill="#4FD190"/>
<path d="M21.1599 31.16C20.7599 31.16 20.3799 31 20.0999 30.72L14.4399 25.06C13.8599 24.48 13.8599 23.52 14.4399 22.94C15.0199 22.36 15.9799 22.36 16.5599 22.94L21.1599 27.54L31.4399 17.26C32.0199 16.68 32.9799 16.68 33.5599 17.26C34.1399 17.84 34.1399 18.8 33.5599 19.38L22.2199 30.72C21.9399 31 21.5599 31.16 21.1599 31.16Z" fill="#4FD190"/>
</svg>
