<svg width="40" height="40" viewBox="0 0 40 40" fill="none" xmlns="http://www.w3.org/2000/svg">
<path d="M30.0995 36.9336H9.89947C6.64947 36.9336 4.16614 35.7502 2.89947 33.6169C1.64947 31.4836 1.81614 28.7336 3.39947 25.9002L13.4995 7.71689C15.1661 4.71689 17.4661 3.06689 19.9995 3.06689C22.5328 3.06689 24.8328 4.71689 26.4995 7.71689L36.5995 25.9002C38.1828 28.7502 38.3661 31.4836 37.0995 33.6169C35.8328 35.7502 33.3495 36.9336 30.0995 36.9336ZM19.9995 5.56689C18.4328 5.56689 16.8995 6.76689 15.6828 8.93356L5.59947 27.1169C4.46614 29.1502 4.2828 31.0169 5.06614 32.3669C5.84947 33.7002 7.5828 34.4502 9.91614 34.4502H30.1161C32.4495 34.4502 34.1661 33.7169 34.9661 32.3669C35.7495 31.0169 35.5661 29.1669 34.4328 27.1169L24.3161 8.93356C23.0995 6.76689 21.5661 5.56689 19.9995 5.56689Z" fill="url(#paint0_radial_4559_9853)"/>
<path d="M35.7334 34.5835C35.4834 34.5835 35.2334 34.5169 35.0168 34.3502L20.0001 23.8335L4.98344 34.3502C4.41677 34.7502 3.63344 34.6169 3.2501 34.0502C2.8501 33.4835 2.98344 32.7002 3.5501 32.3169L19.2834 21.3002C19.7168 21.0002 20.2834 21.0002 20.7168 21.3002L36.4501 32.3169C37.0168 32.7169 37.1501 33.5002 36.7501 34.0502C36.5168 34.4002 36.1334 34.5835 35.7334 34.5835Z" fill="url(#paint1_radial_4559_9853)"/>
<path d="M20 23.5667C19.3167 23.5667 18.75 23 18.75 22.3167V5C18.75 4.31667 19.3167 3.75 20 3.75C20.6833 3.75 21.25 4.31667 21.25 5V22.3167C21.25 23 20.6833 23.5667 20 23.5667Z" fill="url(#paint2_radial_4559_9853)"/>
<defs>
<radialGradient id="paint0_radial_4559_9853" cx="0" cy="0" r="1" gradientUnits="userSpaceOnUse" gradientTransform="translate(9.91693 11.5336) rotate(51.5444) scale(32.4356 32.9093)">
<stop offset="0.189398" stop-color="#FFCC77"/>
<stop offset="0.895896" stop-color="#FF612F"/>
</radialGradient>
<radialGradient id="paint1_radial_4559_9853" cx="0" cy="0" r="1" gradientUnits="userSpaceOnUse" gradientTransform="translate(10.4485 24.4523) rotate(27.939) scale(21.6234 18.6467)">
<stop offset="0.189398" stop-color="#FFCC77"/>
<stop offset="0.895896" stop-color="#FF612F"/>
</radialGradient>
<radialGradient id="paint2_radial_4559_9853" cx="0" cy="0" r="1" gradientUnits="userSpaceOnUse" gradientTransform="translate(19.2969 8.70417) rotate(84.5949) scale(14.9289 2.91666)">
<stop offset="0.189398" stop-color="#FFCC77"/>
<stop offset="0.895896" stop-color="#FF612F"/>
</radialGradient>
</defs>
</svg>
