<svg width="40" height="40" viewBox="0 0 40 40" fill="none" xmlns="http://www.w3.org/2000/svg">
<path d="M20.0007 4.31689V22.6836L4.41732 33.5836C3.00065 31.9002 2.91732 29.3502 4.50065 26.5002L9.70065 17.1502L14.6007 8.33356C16.084 5.66689 18.034 4.31689 20.0007 4.31689Z" fill="url(#paint0_radial_4559_9846)"/>
<path opacity="0.6" d="M35.5827 33.5831C34.4993 34.8998 32.616 35.6831 30.0993 35.6831H9.89935C7.38268 35.6831 5.49935 34.8998 4.41602 33.5831L19.9993 22.6831L35.5827 33.5831Z" fill="url(#paint1_radial_4559_9846)"/>
<path opacity="0.4" d="M35.5833 33.5836L20 22.6836V4.31689C21.9667 4.31689 23.9167 5.66689 25.4 8.33356L30.3 17.1502L35.5 26.5002C37.0833 29.3502 37 31.9002 35.5833 33.5836Z" fill="url(#paint2_radial_4559_9846)"/>
<defs>
<radialGradient id="paint0_radial_4559_9846" cx="0" cy="0" r="1" gradientUnits="userSpaceOnUse" gradientTransform="translate(6.97982 11.6336) rotate(66.8723) scale(23.8682 17.9616)">
<stop offset="0.189398" stop-color="#FFCC77"/>
<stop offset="0.895896" stop-color="#FF612F"/>
</radialGradient>
<radialGradient id="paint1_radial_4559_9846" cx="0" cy="0" r="1" gradientUnits="userSpaceOnUse" gradientTransform="translate(11.2337 25.9331) rotate(29.0806) scale(20.0601 17.7518)">
<stop offset="0.189398" stop-color="#FFCC77"/>
<stop offset="0.895896" stop-color="#FF612F"/>
</radialGradient>
<radialGradient id="paint2_radial_4559_9846" cx="0" cy="0" r="1" gradientUnits="userSpaceOnUse" gradientTransform="translate(23.6458 11.6336) rotate(66.8723) scale(23.8682 17.9616)">
<stop offset="0.189398" stop-color="#FFCC77"/>
<stop offset="0.895896" stop-color="#FF612F"/>
</radialGradient>
</defs>
</svg>
