<svg width="40" height="40" viewBox="0 0 40 40" fill="none" xmlns="http://www.w3.org/2000/svg">
<path d="M32.5162 9.74992L22.6162 4.03325C20.9995 3.09992 18.9995 3.09992 17.3662 4.03325L7.48288 9.74992C5.86621 10.6833 4.86621 12.4166 4.86621 14.2999V25.6999C4.86621 27.5666 5.86621 29.2999 7.48288 30.2499L17.3829 35.9666C18.9995 36.8999 20.9995 36.8999 22.6329 35.9666L32.5329 30.2499C34.1495 29.3166 35.1495 27.5833 35.1495 25.6999V14.2999C35.1329 12.4166 34.1329 10.6999 32.5162 9.74992ZM18.7495 12.9166C18.7495 12.2333 19.3162 11.6666 19.9995 11.6666C20.6829 11.6666 21.2495 12.2333 21.2495 12.9166V21.6666C21.2495 22.3499 20.6829 22.9166 19.9995 22.9166C19.3162 22.9166 18.7495 22.3499 18.7495 21.6666V12.9166ZM21.5329 27.7166C21.4495 27.9166 21.3329 28.0999 21.1829 28.2666C20.8662 28.5833 20.4495 28.7499 19.9995 28.7499C19.7829 28.7499 19.5662 28.6999 19.3662 28.6166C19.1495 28.5333 18.9829 28.4166 18.8162 28.2666C18.6662 28.0999 18.5495 27.9166 18.4495 27.7166C18.3662 27.5166 18.3329 27.2999 18.3329 27.0833C18.3329 26.6499 18.4995 26.2166 18.8162 25.8999C18.9829 25.7499 19.1495 25.6333 19.3662 25.5499C19.9829 25.2833 20.7162 25.4333 21.1829 25.8999C21.3329 26.0666 21.4495 26.2333 21.5329 26.4499C21.6162 26.6499 21.6662 26.8666 21.6662 27.0833C21.6662 27.2999 21.6162 27.5166 21.5329 27.7166Z" fill="#FF6F61"/>
</svg>
