<svg width="41" height="29" viewBox="0 0 41 29" fill="none" xmlns="http://www.w3.org/2000/svg">
<path d="M40.1859 4.40602C39.9581 3.56082 39.5129 2.79002 38.8947 2.17035C38.2764 1.55068 37.5066 1.10374 36.6619 0.874015C33.5299 0.0140148 20.9999 1.5193e-05 20.9999 1.5193e-05C20.9999 1.5193e-05 8.47193 -0.0139852 5.33793 0.808015C4.49378 1.04831 3.72557 1.50157 3.10706 2.12428C2.48855 2.747 2.0405 3.51826 1.80593 4.36402C0.979927 7.49602 0.971927 13.992 0.971927 13.992C0.971927 13.992 0.963927 20.52 1.78393 23.62C2.24393 25.334 3.59393 26.688 5.30993 27.15C8.47393 28.01 20.9699 28.024 20.9699 28.024C20.9699 28.024 33.4999 28.038 36.6319 27.218C37.4769 26.9887 38.2474 26.5428 38.8672 25.9244C39.487 25.306 39.9347 24.5365 40.1659 23.692C40.9939 20.562 40.9999 14.068 40.9999 14.068C40.9999 14.068 41.0399 7.53802 40.1859 4.40602V4.40602ZM16.9919 20.01L17.0019 8.01002L27.4159 14.02L16.9919 20.01V20.01Z" fill="url(#paint0_linear_2034_11415)"/>
<defs>
<linearGradient id="paint0_linear_2034_11415" x1="20.9861" y1="0" x2="20.9861" y2="28.024" gradientUnits="userSpaceOnUse">
<stop offset="0.0208333" stop-color="#FF8A50"/>
<stop offset="0.669043" stop-color="#FF6D24"/>
</linearGradient>
</defs>
</svg>
