<svg width="48" height="48" viewBox="0 0 48 48" fill="none" xmlns="http://www.w3.org/2000/svg">
<path d="M43.1862 14.406C42.9584 13.5608 42.5132 12.79 41.8949 12.1704C41.2766 11.5507 40.5068 11.1037 39.6622 10.874C36.5302 10.014 24.0002 10 24.0002 10C24.0002 10 11.4722 9.98601 8.33817 10.808C7.49402 11.0483 6.72581 11.5016 6.1073 12.1243C5.48879 12.747 5.04074 13.5183 4.80617 14.364C3.98017 17.496 3.97217 23.992 3.97217 23.992C3.97217 23.992 3.96417 30.52 4.78417 33.62C5.24417 35.334 6.59417 36.688 8.31017 37.15C11.4742 38.01 23.9702 38.024 23.9702 38.024C23.9702 38.024 36.5002 38.038 39.6322 37.218C40.4772 36.9887 41.2477 36.5428 41.8675 35.9244C42.4873 35.306 42.9349 34.5365 43.1662 33.692C43.9942 30.562 44.0002 24.068 44.0002 24.068C44.0002 24.068 44.0402 17.538 43.1862 14.406ZM19.9922 30.01L20.0022 18.01L30.4162 24.02L19.9922 30.01Z" fill="url(#paint0_linear_1469_5505)"/>
<defs>
<linearGradient id="paint0_linear_1469_5505" x1="23.9863" y1="10" x2="23.9863" y2="38.024" gradientUnits="userSpaceOnUse">
<stop offset="0.0208333" stop-color="#FF8A50"/>
<stop offset="0.669043" stop-color="#FF6D24"/>
</linearGradient>
</defs>
</svg>
