<svg width="48" height="48" viewBox="0 0 48 48" fill="none" xmlns="http://www.w3.org/2000/svg">
<path d="M43.214 14.406C42.9862 13.5608 42.541 12.79 41.9227 12.1704C41.3045 11.5507 40.5347 11.1037 39.69 10.874C36.558 10.014 24.028 10 24.028 10C24.028 10 11.5 9.98601 8.366 10.808C7.52185 11.0483 6.75365 11.5016 6.13513 12.1243C5.51662 12.747 5.06857 13.5183 4.834 14.364C4.008 17.496 4 23.992 4 23.992C4 23.992 3.992 30.52 4.812 33.62C5.272 35.334 6.622 36.688 8.338 37.15C11.502 38.01 23.998 38.024 23.998 38.024C23.998 38.024 36.528 38.038 39.66 37.218C40.505 36.9887 41.2755 36.5428 41.8953 35.9244C42.5151 35.306 42.9628 34.5365 43.194 33.692C44.022 30.562 44.028 24.068 44.028 24.068C44.028 24.068 44.068 17.538 43.214 14.406ZM20.02 30.01L20.03 18.01L30.444 24.02L20.02 30.01Z" fill="#F8F9FB"/>
</svg>
