<svg width="48" height="48" viewBox="0 0 48 48" fill="none" xmlns="http://www.w3.org/2000/svg">
<path d="M24.0019 4.00391C12.9579 4.00391 4.00391 12.9579 4.00391 24.0019C4.00391 33.9819 11.3159 42.2539 20.8779 43.7599V29.7839H15.7979V24.0019H20.8779V19.5959C20.8779 14.5799 23.8639 11.8139 28.4299 11.8139C30.6179 11.8139 32.9099 12.2039 32.9099 12.2039V17.1219H30.3819C27.9019 17.1219 27.1259 18.6659 27.1259 20.2479V23.9979H32.6679L31.7819 29.7799H27.1259V43.7559C36.6879 42.2579 43.9999 33.9839 43.9999 24.0019C43.9999 12.9579 35.0459 4.00391 24.0019 4.00391Z" fill="url(#paint0_linear_1469_5487)"/>
<defs>
<linearGradient id="paint0_linear_1469_5487" x1="24.0019" y1="4.00391" x2="24.0019" y2="43.7599" gradientUnits="userSpaceOnUse">
<stop offset="0.0208333" stop-color="#FF8A50"/>
<stop offset="0.669043" stop-color="#FF6D24"/>
</linearGradient>
</defs>
</svg>
