<svg width="48" height="56" viewBox="0 0 48 56" fill="none" xmlns="http://www.w3.org/2000/svg">
<path d="M30 31C30 32.1867 29.6481 33.3467 28.9888 34.3334C28.3295 35.3201 27.3925 36.0892 26.2961 36.5433C25.1997 36.9974 23.9933 37.1162 22.8295 36.8847C21.6656 36.6532 20.5965 36.0818 19.7574 35.2426C18.9182 34.4035 18.3468 33.3344 18.1153 32.1705C17.8838 31.0067 18.0026 29.8003 18.4567 28.7039C18.9108 27.6075 19.6799 26.6705 20.6666 26.0112C21.6533 25.3519 22.8133 25 24 25C25.5898 25.0049 27.113 25.6387 28.2372 26.7628C29.3613 27.887 29.9951 29.4102 30 31ZM42.75 22.75V39.25C42.75 42.0348 41.6438 44.7055 39.6746 46.6746C37.7055 48.6438 35.0348 49.75 32.25 49.75H15.75C12.9652 49.75 10.2945 48.6438 8.32538 46.6746C6.35625 44.7055 5.25 42.0348 5.25 39.25V22.75C5.25 19.9652 6.35625 17.2945 8.32538 15.3254C10.2945 13.3562 12.9652 12.25 15.75 12.25H32.25C35.0348 12.25 37.7055 13.3562 39.6746 15.3254C41.6438 17.2945 42.75 19.9652 42.75 22.75ZM33 31C33 29.22 32.4722 27.4799 31.4832 25.9999C30.4943 24.5198 29.0887 23.3663 27.4442 22.6851C25.7996 22.0039 23.99 21.8257 22.2442 22.1729C20.4984 22.5202 18.8947 23.3774 17.636 24.636C16.3774 25.8947 15.5202 27.4984 15.1729 29.2442C14.8257 30.99 15.0039 32.7996 15.6851 34.4442C16.3663 36.0887 17.5198 37.4943 18.9999 38.4832C20.4799 39.4722 22.22 40 24 40C26.3869 40 28.6761 39.0518 30.364 37.364C32.0518 35.6761 33 33.3869 33 31ZM36 21.25C36 20.805 35.868 20.37 35.6208 20C35.3736 19.63 35.0222 19.3416 34.611 19.1713C34.1999 19.001 33.7475 18.9564 33.311 19.0432C32.8746 19.13 32.4737 19.3443 32.159 19.659C31.8443 19.9737 31.63 20.3746 31.5432 20.811C31.4564 21.2475 31.501 21.6999 31.6713 22.111C31.8416 22.5222 32.13 22.8736 32.5 23.1208C32.87 23.368 33.305 23.5 33.75 23.5C34.3467 23.5 34.919 23.2629 35.341 22.841C35.7629 22.419 36 21.8467 36 21.25Z" fill="#5A6178"/>
</svg>
