<svg width="48" height="56" viewBox="0 0 48 56" fill="none" xmlns="http://www.w3.org/2000/svg">
<path d="M43.1857 21.406C42.9579 20.5608 42.5127 19.79 41.8944 19.1704C41.2761 18.5507 40.5064 18.1037 39.6617 17.874C36.5297 17.014 23.9997 17 23.9997 17C23.9997 17 11.4717 16.986 8.33768 17.808C7.49353 18.0483 6.72533 18.5016 6.10681 19.1243C5.4883 19.747 5.04025 20.5183 4.80568 21.364C3.97968 24.496 3.97168 30.992 3.97168 30.992C3.97168 30.992 3.96368 37.52 4.78368 40.62C5.24368 42.334 6.59368 43.688 8.30968 44.15C11.4737 45.01 23.9697 45.024 23.9697 45.024C23.9697 45.024 36.4997 45.038 39.6317 44.218C40.4767 43.9887 41.2472 43.5428 41.867 42.9244C42.4868 42.306 42.9345 41.5365 43.1657 40.692C43.9937 37.562 43.9997 31.068 43.9997 31.068C43.9997 31.068 44.0397 24.538 43.1857 21.406ZM19.9917 37.01L20.0017 25.01L30.4157 31.02L19.9917 37.01Z" fill="#5A6178"/>
</svg>
