<svg width="48" height="56" viewBox="0 0 48 56" fill="none" xmlns="http://www.w3.org/2000/svg">
<path d="M24 11C12.96 11 4 19.96 4 31C4 42.04 12.96 51 24 51C35.04 51 44 42.04 44 31C44 19.96 35.04 11 24 11ZM33.28 24.6C32.98 27.76 31.68 35.44 31.02 38.98C30.74 40.48 30.18 40.98 29.66 41.04C28.5 41.14 27.62 40.28 26.5 39.54C24.74 38.38 23.74 37.66 22.04 36.54C20.06 35.24 21.34 34.52 22.48 33.36C22.78 33.06 27.9 28.4 28 27.98C28.0139 27.9164 28.012 27.8503 27.9946 27.7876C27.9772 27.7249 27.9447 27.6673 27.9 27.62C27.78 27.52 27.62 27.56 27.48 27.58C27.3 27.62 24.5 29.48 19.04 33.16C18.24 33.7 17.52 33.98 16.88 33.96C16.16 33.94 14.8 33.56 13.78 33.22C12.52 32.82 11.54 32.6 11.62 31.9C11.66 31.54 12.16 31.18 13.1 30.8C18.94 28.26 22.82 26.58 24.76 25.78C30.32 23.46 31.46 23.06 32.22 23.06C32.38 23.06 32.76 23.1 33 23.3C33.2 23.46 33.26 23.68 33.28 23.84C33.26 23.96 33.3 24.32 33.28 24.6Z" fill="#5A6178"/>
</svg>
