<svg width="48" height="56" viewBox="0 0 48 56" fill="none" xmlns="http://www.w3.org/2000/svg">
<path d="M24 10C12.4031 10 3 19.4031 3 31C3 42.5969 12.4031 52 24 52C35.5969 52 45 42.5969 45 31C45 19.4031 35.5969 10 24 10ZM36 21.8922L34.0875 23.725C33.9188 23.8516 33.8391 24.0578 33.8719 24.2594V37.7453C33.8391 37.9516 33.9188 38.1578 34.0875 38.2797L35.9625 40.1125V40.5203H26.55V40.1312L28.4859 38.2516C28.6781 38.0594 28.6781 38.0031 28.6781 37.7172V26.8047L23.2875 40.4734H22.5609L16.2891 26.8047V35.9688C16.2328 36.3531 16.3687 36.7422 16.6406 37.0188L19.1625 40.0703V40.4781H12V40.0703L14.5219 37.0188C14.6547 36.8815 14.7536 36.715 14.8106 36.5327C14.8676 36.3504 14.8811 36.1572 14.85 35.9688V25.375C14.8828 25.0797 14.7703 24.7937 14.5453 24.5922L12.3047 21.8922V21.4844H19.2656L24.6375 33.2734L29.3672 21.4938H36V21.8922Z" fill="#5A6178"/>
</svg>
