<svg width="48" height="56" viewBox="0 0 48 56" fill="none" xmlns="http://www.w3.org/2000/svg">
<path d="M29.6398 15.52C29.2426 16.2314 28.8887 16.9661 28.5798 17.72C25.5454 17.2401 22.4543 17.2401 19.4198 17.72C19.111 16.9661 18.757 16.2314 18.3598 15.52C15.5014 16.0084 12.7226 16.8831 10.0998 18.12C5.40972 24.8886 3.28271 33.1059 4.09983 41.3C7.15631 43.5977 10.5868 45.3502 14.2398 46.48C15.0717 45.3812 15.814 44.2175 16.4598 43C15.268 42.5606 14.1224 42.0046 13.0398 41.34C13.3368 41.1425 13.6176 40.9218 13.8798 40.68C17.0368 42.2007 20.4958 42.9903 23.9998 42.9903C27.5039 42.9903 30.9629 42.2007 34.1198 40.68C34.3998 40.92 34.6798 41.14 34.9598 41.34C33.8713 41.9993 32.7269 42.5615 31.5398 43.02C32.1588 44.2651 32.8814 45.456 33.6998 46.58C37.3484 45.4541 40.7729 43.7012 43.8198 41.4C44.6566 33.2044 42.5278 24.9804 37.8198 18.22C35.2265 16.9575 32.4752 16.0494 29.6398 15.52ZM17.3598 36.62C16.359 36.5482 15.4249 36.0914 14.7537 35.3456C14.0824 34.5997 13.7262 33.6229 13.7598 32.62C13.7212 31.6159 14.0756 30.6362 14.7479 29.8892C15.4201 29.1423 16.3572 28.687 17.3598 28.62C18.3625 28.687 19.2996 29.1423 19.9718 29.8892C20.6441 30.6362 20.9985 31.6159 20.9598 32.62C20.9985 33.6242 20.6441 34.6039 19.9718 35.3508C19.2996 36.0977 18.3625 36.5531 17.3598 36.62ZM30.6398 36.62C29.639 36.5482 28.7049 36.0914 28.0337 35.3456C27.3624 34.5997 27.0062 33.6229 27.0398 32.62C27.0012 31.6159 27.3556 30.6362 28.0279 29.8892C28.7001 29.1423 29.6372 28.687 30.6398 28.62C31.6444 28.682 32.5844 29.1358 33.2577 29.8839C33.931 30.632 34.2837 31.6145 34.2398 32.62C34.2837 33.6255 33.931 34.608 33.2577 35.3561C32.5844 36.1042 31.6444 36.5581 30.6398 36.62Z" fill="#5A6178"/>
</svg>
