<svg width="48" height="48" viewBox="0 0 48 48" fill="none" xmlns="http://www.w3.org/2000/svg">
<path d="M29.7111 8C29.3139 8.71137 28.9599 9.44604 28.6511 10.2C25.6166 9.7201 22.5256 9.7201 19.4911 10.2C19.1823 9.44604 18.8283 8.71137 18.4311 8C15.5727 8.4884 12.7939 9.36307 10.1711 10.6C5.481 17.3686 3.354 25.5859 4.17112 33.78C7.2276 36.0777 10.658 37.8302 14.3111 38.96C15.143 37.8612 15.8853 36.6975 16.5311 35.48C15.3393 35.0406 14.1937 34.4845 13.1111 33.82C13.408 33.6224 13.6889 33.4018 13.9511 33.16C17.108 34.6806 20.5671 35.4703 24.0711 35.4703C27.5752 35.4703 31.0342 34.6806 34.1911 33.16C34.4711 33.4 34.7511 33.62 35.0311 33.82C33.9426 34.4793 32.7982 35.0415 31.6111 35.5C32.2301 36.7451 32.9527 37.9359 33.7711 39.06C37.4196 37.934 40.8442 36.1812 43.8911 33.88C44.7279 25.6844 42.5991 17.4604 37.8911 10.7C35.2978 9.43747 32.5465 8.52934 29.7111 8ZM17.4311 29.1C16.4303 29.0282 15.4962 28.5714 14.825 27.8255C14.1537 27.0797 13.7975 26.1028 13.8311 25.1C13.7924 24.0958 14.1469 23.1162 14.8191 22.3692C15.4914 21.6223 16.4284 21.1669 17.4311 21.1C18.4338 21.1669 19.3708 21.6223 20.0431 22.3692C20.7153 23.1162 21.0698 24.0958 21.0311 25.1C21.0698 26.1042 20.7153 27.0838 20.0431 27.8308C19.3708 28.5777 18.4338 29.0331 17.4311 29.1ZM30.7111 29.1C29.7103 29.0282 28.7762 28.5714 28.105 27.8255C27.4337 27.0797 27.0775 26.1028 27.1111 25.1C27.0724 24.0958 27.4269 23.1162 28.0991 22.3692C28.7714 21.6223 29.7084 21.1669 30.7111 21.1C31.7157 21.1619 32.6557 21.6158 33.329 22.3639C34.0023 23.112 34.355 24.0945 34.3111 25.1C34.355 26.1055 34.0023 27.088 33.329 27.8361C32.6557 28.5842 31.7157 29.0381 30.7111 29.1Z" fill="#F8F9FB"/>
</svg>
